<svg id="Capa_1" data-name="Capa 1" xmlns="http://www.w3.org/2000/svg" viewBox="0 0 4383.53 1607.71"><defs><style>.cls-1{fill:#ed1c39;}.cls-2{fill:#e71b3a;}.cls-3{fill:#ef474a;}.cls-4{fill:#d51e42;}.cls-5{fill:#c1339b;}.cls-6{fill:#d50eb0;}.cls-7{fill:#4d8b99;}.cls-8{fill:#feca31;}.cls-9{fill:#71d0eb;}.cls-10{fill:#9c3884;}.cls-11{fill:#fbad36;}.cls-12{fill:#a13ca2;}.cls-13{fill:#9e3e95;}.cls-14{fill:#ca50a8;}.cls-15{fill:#f6d2f0;}.cls-16{fill:#f0abe3;}.cls-17{fill:#e777d2;}.cls-18{fill:#e052c7;}.cls-19{fill:#db30bb;}.cls-20{fill:#f27028;}.cls-21{fill:#fec10f;}.cls-22{fill:#fbb216;}.cls-23{fill:#fb9e13;}.cls-24{fill:#02b6d3;}.cls-25{fill:#ee4136;}.cls-26{fill:#ec4457;}.cls-27{fill:#ec1a43;}.cls-28{fill:#ee1748;}.cls-29{fill:#ed592f;}.cls-30{fill:#08abb5;}.cls-31{fill:#2f7886;}.cls-32{fill:#f27427;}.cls-33{fill:#f26f25;}.cls-34{fill:#37c4ec;}.cls-35{fill:#a10994;}.cls-36{fill:#b82d95;}.cls-37{fill:#8c1670;}.cls-38{fill:#901a91;}.cls-39{fill:#039ab1;}.cls-40{fill:#02a9b4;}.cls-41{fill:#d93320;}.cls-42{fill:#0281b5;}.cls-43{fill:#59c9e9;}.cls-44{fill:#d50db0;}.cls-45{fill:#a160b7;}.cls-46{fill:#8d1d83;}.cls-47{fill:#d51f42;}.cls-48{fill:#0381b5;}.cls-49{fill:#38c4ec;}.cls-50{fill:#38c5ec;}.cls-51{fill:#d50fb1;}.cls-52{fill:#ee4339;}.cls-53{fill:#0877a0;}.cls-54{fill:#0b9db3;}.cls-55{fill:#e478c6;}.cls-56{fill:#d37ebe;}.cls-57{fill:#e56dcf;}.cls-58{fill:#78bbd7;}.cls-59{fill:#ed1c37;}</style></defs><path class="cls-1" d="M595.18,1283l-8,3.57c-49.08,17.92-106.31,33.83-159.49,50.74-57,18.14-114.85,36.06-172.46,54-44.76,14-89.95,27.84-134.78,41.79-30,9.35-60.46,18.61-89.61,28.19-8.33,2.74-14.78,6.49-30.84,6.46v-177.7c17.37-6.07,42.48-9.34,64.43-13.67,191.8-37.86,384.49-75.37,576.58-113.12,8.74-1.71,17.29-3.56,28.21-4.13,23.08-.36,41.9,3.27,62.35,5.33,29.94,3,60.13,5.86,89.13,9.58,1.78.4,2.79.92,3,1.55-16.3,10.87-40.26,20.56-61.21,30.7-48.8,23.63-98.12,47.17-147,70.79C610.37,1279.65,603.93,1281.58,595.18,1283Z"/><path class="cls-2" d="M0,1087.19v-66a102.28,102.28,0,0,1,37-7.77c104.32,8.81,208,18.22,312,27.3q197.83,17.27,395.4,34.78c75.35,6.67,151.54,12.64,225.94,20.16a53.41,53.41,0,0,1,11.06,2.17c2,1.32.87,2.42-2.9,3.34-75,14-147.88,28.83-222.15,43.12-21,4.06-41.9,8.19-62.77,12.32a119.31,119.31,0,0,1-27.53,2.66c-33.9-1.7-64.61-6-96.34-9.43q-269.11-28.87-538.06-57.87C20.46,1090.73,8.26,1090,0,1087.19Z"/><path class="cls-3" d="M0,1467.81c37.34-9,65.8-20.34,100-30.2,32.11-9.27,61.23-19.36,92-29q92.31-29,185-57.84c45.25-14.06,91.09-28,136.43-42,20-6.2,39.37-12.56,59.17-18.82,4.19-1.32,7.9-2.87,14.62-3.36-46.25,25.66-92.21,51.37-138.81,77Q228.8,1484.26,8.9,1604.9a48.72,48.72,0,0,0-4.79,3.31,4.93,4.93,0,0,1-4.11.08Z"/><path class="cls-4" d="M34.26,1014,0,1021.15V860.26q163.07,39.5,326.07,79a20,20,0,0,1,3.57,1.45c2.38,2.53-4.89,3.47-10,4.75-88,21.95-177,43.61-265.31,65.47C48.45,1012.38,43,1014,34.26,1014Z"/><path class="cls-5" d="M4062.4,818.06l-12.84.46c-17.41-11.61-43.54-21.86-65.13-32.81-15.74-8-35.63-15.33-46.93-24,2.54-1.69,6.76-2.92,12.77-3.65,127.67-7.3,254.45-15.72,381.78-23.44,15.67-1,32.36-3.94,48.57-.08,2.31,7.87-2.72,15.8,2.6,23.65v1.2q-2,.52-3.63,1.14c-2.34,1.23-6.07,2-10.46,2.59-16.08,2.18-30.41,5.16-45.08,7.94-75.48,14.25-152.54,27.82-227.88,42.13C4085.69,815.19,4075.62,817.52,4062.4,818.06Z"/><path class="cls-6" d="M2688.26,382.24l38.83.5c-14.85,3.72-26.66,6.69-38.54,9.64-23.42,5.83-47,11.6-70.24,17.48-5.76,1.46-10,2.7-17,.32-28.92-9.82-61.82-18.68-88.67-29h25.68c10.1,1.31,20.78.31,31.13.62h88.77C2668.23,382,2678.4,381.31,2688.26,382.24Z"/><path class="cls-7" d="M4375.05,1323.42a1.87,1.87,0,0,1-.56-.86c-3-2.31-2.51-4.72-2.5-7.11q.12-74.85,0-149.7c0-3-.2-6,2.78-8.9l4.51-2.21c.88-.69,2.2-.76,3.94-.21v169.3C4380.15,1324.37,4377.28,1324.57,4375.05,1323.42Z"/><path class="cls-8" d="M3629.85,1610.69c-.34-.76-.69-1.51-1-2.27,5.58-1.2,12.13-1,18.47-.94q237.81.29,475.61.08c7.83,0,15.65,0,23.4.39a72.15,72.15,0,0,1,7.88.76q4.07.74,2.18,2Z"/><path class="cls-9" d="M4379,1455.83l4.25,0v122.47a15.5,15.5,0,0,1-6.62-.22c-5.35-1.79-6.45-3.82-4.54-6,.32-35.51-.33-71,.58-106.51.11-4.32-12.1-6.39-15-9.91Z"/><path class="cls-10" d="M4378.74,759.47l4.48-.07V887.87a17,17,0,0,1-7.1-1c-4.88-2.6-4-5.45-4.05-8.23-.1-36.21,0-72.42-.15-108.63C4371.91,766.34,4373.47,762.83,4378.74,759.47Z"/><path class="cls-11" d="M4379.13,1578.18a27.75,27.75,0,0,0,4.09.09c0,9.61-.5,19.22.29,28.82.25,3-2.42,3.71-13.13,3.68q-107-.23-214-.08c0-.38-.07-.77-.09-1.15,8.64-2.41,19.79-1.91,30.22-1.92,52.57-.08,105.15,0,157.72-.06,26.42,0,27.63-.41,27.9-7.76.18-4.78-.23-9.56.18-14.35C4372.5,1582.9,4371.52,1580.21,4379.13,1578.18Z"/><path class="cls-12" d="M4374.07,651.23l9.15-2.3V733c-3,.36-5.31.15-7-.64-4.3-2.19-4-4.62-4-7-.21-22.72,0-45.45-.22-68.18C4372,655.15,4373.59,653.21,4374.07,651.23Z"/><path class="cls-13" d="M4379.05,887.89l4.17,0v82.85c-4.91-.8-7.46-2.06-8.86-3.55-4.71-24.6-1.28-49.23-1.92-73.84,0-1.59.89-3.17,3.72-4.6Z"/><path class="cls-14" d="M4379.14,733c1.36,0,2.72,0,4.08,0V758.2c-9.15-5.7-2.16-11.7-4.17-17.54-.75-2.17-.29-4.37-.38-6.56-.87-.27-1.1-.52-.67-.75A2.53,2.53,0,0,1,4379.14,733Z"/><path class="cls-15" d="M2688.26,382.24h-30c-1.48-.22-2-.45-1.54-.7a3,3,0,0,1,1.41-.36h30A7.62,7.62,0,0,1,2688.26,382.24Z"/><path class="cls-16" d="M2658.18,381.18a7.67,7.67,0,0,0,.13,1.06l-29.9,0c-1.51-.23-2-.46-1.6-.71a2.79,2.79,0,0,1,1.41-.38Z"/><path class="cls-17" d="M2628.22,381.18a1.94,1.94,0,0,0,.19,1.09l-29.9,0c-1.55-.21-2.11-.44-1.67-.68a2.83,2.83,0,0,1,1.42-.38Z"/><path class="cls-18" d="M2598.26,381.18a3.79,3.79,0,0,0,.25,1.06l-30,.06c-1.53-.22-2.08-.47-1.63-.72a2.69,2.69,0,0,1,1.4-.4Z"/><path class="cls-19" d="M2568.29,381.18a5,5,0,0,0,.23,1.12c-10.08-.33-21,1.17-30.19-1.12Z"/><path class="cls-20" d="M2705.49,1250.2l545,110q105,21.19,210,42.37c3.28.67,6.34,1.41,12.37,2.75-80.72,3.28-157.72,6.43-234.75,9.53q-202.34,8.18-404.7,16.29-205.49,8.28-411,16.56-197.05,8-394.1,15.93c-70.22,2.85-140.31,6-210.7,8.46-14.41.5-24.15,3-36.85,4-7.64-.83-15.55-.27-23.29-.27q-217.1,0-434.19-.07c-12.42,0-26,.91-36.44-2.07,51.85-9.44,107-17.26,160.7-25.82,103.3-16.47,207.08-32.7,310.71-49q265.13-41.71,530.29-83.43,204.46-32.27,408.5-64.73C2699.38,1249.72,2702.37,1249.86,2705.49,1250.2Z"/><path class="cls-21" d="M4152,1609.47q-249.08,0-498.14,0a227.11,227.11,0,0,1-25.08-1.1l-11.82-.09q-125.57-9.52-251.14-19-212.33-15.87-424.76-31.61c-4-.3-10-.6-11.4-1.4-11.69-6.81-23.22-13.67-33.12-20.69-2.46-1.75,7.15-2.78,11.94-3.83q142-31.18,284.23-62.26,143.6-31.44,287.14-62.9a108.32,108.32,0,0,1,18.89,3.8c45.14,14.37,93.81,27.84,138.82,42.25,23,7.36,47.6,14.31,71.75,21.34,72.09,21,141.5,42.67,212.88,63.84,62.07,18.41,123.14,37.09,185.37,55.47,12.72,3.75,23.77,8,37.08,11.58C4149,1606.08,4154.72,1607.3,4152,1609.47Z"/><path class="cls-22" d="M1674.06,1267.8c-61.52,22.39-123.19,44.74-184.51,67.17-66,24.16-131.73,48.39-197.62,72.59-30.39,11.15-61.61,22.13-91,33.49-12.43,4.8-20.23,4.31-34.11.4-151.74-42.8-304.14-85.42-456.21-128.14-35.7-10-70.83-20.21-106.22-30.32,22.16-3.47,47.08-2.6,70.62-3q159.72-2.64,319.57-4.66,109.74-1.42,219.53-2.91,147-1.93,294-4.27c53.19-.81,106.43-2,159.81-1.79A15.55,15.55,0,0,1,1674.06,1267.8Z"/><path class="cls-23" d="M4152,1609.47c-15.47-4.93-30.46-10-46.5-14.76-54.64-16.27-110.21-32.3-164.4-48.68-79.8-24.12-158.89-48.42-240.08-72.17-59.52-17.42-117.57-35.23-176.07-52.92-15.43-4.67-30.08-9.55-45.09-14.33l4.76-.42a131.21,131.21,0,0,1,23-.36q267.24,14.89,534.62,29.58,61.86,3.4,123.74,6.79c9.79.54,19.71,1,27.85,2.81l7,1.44a29.74,29.74,0,0,1,13.3,6c52.12,38.21,105.07,76.33,156.49,114.61,2.75,2,5.33,4.13,4.35,6.39l4.13,4.71c-.06,8.56-1,17.14.15,25.69.59,4.53-4.86,5.76-20.63,5.71-67.45-.2-134.92-.06-202.38,0Z"/><path class="cls-24" d="M2545.05,1115.84c-.88-.06-1.73-.13-2.56-.23-159.33,14.25-321.28,26-481.71,39.13q-98.37,8.09-197.07,15.85c-9.55.76-19,1.75-29.17,1.6-14.56-1.52-5.27-4-3.07-6.15,177.3-69.48,353.37-139.23,531.08-208.64,10-3.85,15.61-3,20.16,1.22q78.4,73.3,157.36,146.56c3.07,2.86,7.35,5.61,11.06,8.41C2553.25,1115.22,2549.1,1115.52,2545.05,1115.84Z"/><path class="cls-25" d="M1669.62,1267.45c-32.93,2-66.64,1.19-99.93,1.9-73.75,1.57-147.85,1.78-221.74,2.88q-177.93,2.65-355.9,5c-81.68,1.07-163.31,2.5-245,3.45-47.59.55-95.11,1.54-142.65,2.33l-9.2,0c35.72-16.91,71-33.89,107.26-50.71,40.27-18.68,76.57-38,119.42-56.29,8.64-1.67,16.54-.24,24.25.59q314.53,33.7,628.76,67.63,83.82,9,167.86,17.89c9.28,1,18.85,1.86,26.9,3.6C1671.15,1266.29,1671.14,1266.87,1669.62,1267.45Z"/><path class="cls-24" d="M4193.87,1445c-53.64-1.87-106.15-5.47-159.11-8.35q-262.66-14.31-525.12-28.91c-8.37-.46-16.65-1-25-1.56l472.63-133.53c15.05,10.93,27.78,20.14,40.43,29.36Z"/><path class="cls-26" d="M419.7,962.17c55.51-1,110-4.14,164.87-6.42q246.16-10.23,492.09-20.92c6.27-.26,12.74-.15,19.11-.22,6.47,2.06,5.24,4.44,3.55,6.82-36.23,50.84-72.12,101.71-108.83,152.53a9,9,0,0,1-2.88,2.24c-4.56,1.81-9.65,1.14-14.77.25-18.71-1.91-31.36-6.17-45.66-9.67-71.33-17.45-143.56-34.6-214.74-52.1-67.44-16.57-135.56-32.92-203.36-49.38-28-6.78-55.22-13.81-84-20.35C422,964.24,417.38,963.73,419.7,962.17Z"/><path class="cls-27" d="M971.66,1095.64l12.65,1.14c24.73-6.79,55.93-11,84.47-16.15,96.71-17.62,194.24-34.88,290.8-52.56,22.06-4,44.67-7.84,66.58-11.94,7.43-1.39,15-3.24,25.37-2.2a14.13,14.13,0,0,1,2.91,0c26.43,7.17,43,16.34,62.79,24.82,55.73,23.91,111.94,47.72,167.52,71.65,42.75,18.41,85,36.91,128.59,55.17,4.35,1.83,11.6,3.8,3.89,6.34-8.67,1.07-16.83.18-25-.55-160.21-14.48-321.22-28.25-481.69-42.51q-148.89-13.23-298.25-26.06c-7.5-.65-15-1.27-22-2.31-4.25-.55-6.81-1.63-10.06-2.5-3.53,0-6.74-.25-8.59-1.21-1.49-.26-2-.52-1.49-.77A3.19,3.19,0,0,1,971.66,1095.64Z"/><path class="cls-28" d="M971.66,1095.64c0,.39,0,.77,0,1.16-49-4.1-98.07-8.07-146.87-12.31q-138.22-12-276.16-24.26-169.54-15-339-30.08-78.1-6.93-156.21-13.84c-6.6-.59-14.1-.75-19.18-2.36,54.6-13.51,109.06-27.07,163.84-40.53,40.94-10.06,82.32-20,123.4-30,3.15-.77,5.45-1.81,8.14-2.72,31.86,6.54,60.33,14.21,90.05,21.46,32.17,6.17,59.2,14.06,88.91,21,59.19,13.92,117.58,28.11,176,42.28,46.68,11.31,93,22.75,139.45,34.12Q897.83,1077.64,971.66,1095.64Z"/><path class="cls-29" d="M988.69,1099.15l368.16,32.29q221.65,19.47,443.32,38.92c6,.53,12.48.65,18.74,1,4.34-.52,5.93.21,7,1.2-1.61,4.9-11.08,9-17.44,13.42-36.28,25.17-74.13,50.16-111.49,75.21a42.1,42.1,0,0,1-10.23,5.22c-3.11,1.26-8.47.94-12.68,1.44l-4.46-.36-.15-1.32c-37.38-6.71-68.22-15.66-101.78-23.67-81.88-19.52-162.87-39.34-244.06-59.09-70.44-17.13-141.24-34.14-211.1-51.46-34.11-8.46-69.48-16.53-103.74-25C1000.14,1104.82,987.69,1103.3,988.69,1099.15Z"/><path class="cls-30" d="M1823.24,1172.57l-4.34-1.26c-53.89-23.3-107.62-46.62-161.71-69.89-64.63-27.8-129.56-55.54-194.31-83.32-3.1-1.33-5.64-2.76-8.44-4.14q96.24,3.24,192.48,6.51,176.63,6.22,353.15,12.67a129.92,129.92,0,0,0,24.32-1.46c1.84,4-10.45,6.22-15,9.47-51.46,37-101.44,74.1-152.22,111.14-6.54,4.78-15.53,9.24-21,14.13-.63,1.66-9.4,2.77-4.2,4.84,1.38.52,1.24,1-.2,1.51A23.52,23.52,0,0,1,1823.24,1172.57Z"/><path class="cls-24" d="M2563.48,1113.24c46.12-8.24,88.42-15.89,131-23.4,132.39-23.32,265.06-46.52,397.15-70,15.15-2.69,20-2.4,24.52,2.56,29.28,32,59.48,64,89.3,96,6.83,7.32,12.46,14.74,20.37,22,4.84,4.43-1.52,4.78-14,4.17q-125.76-6.22-251.56-12.4-185.65-8.89-371.44-17.59C2581.93,1114.23,2575,1113.84,2563.48,1113.24Z"/><path class="cls-31" d="M4374.77,1156.85c6.87,1.78,4,4.12,4,6.22q.23,76.65,0,153.3c0,2.09,2.81,4.44-4.33,6.19q-108.21-13.57-216.41-27.15c-59.1-7.46-117.94-15.08-177.15-22.47-12.31-1.54-15.19-2.57-4.23-5.61q196.76-54.63,392.87-109.46C4371.05,1157.46,4373,1157.18,4374.77,1156.85Z"/><path class="cls-4" d="M1451.53,1013.93c-58.51,9-112.82,19.94-169.07,30-96.33,17.2-192.2,34.6-288.34,51.88-2.85.52-6.52.67-9.81,1,5.68-14.2,18.36-28,28.21-42,27.23-38.68,55.29-77.31,82.87-116,1-1.34.29-2.78.38-4.18,7.57-.39,11.48,1.26,16.31,2.34q165.36,37.21,330.62,74.46C1446,1012.14,1448.6,1013.09,1451.53,1013.93Z"/><path class="cls-24" d="M3454.19,927.41c-48.43,10.16-100.47,18.82-150.71,28.22-63.88,12-128.16,23.77-192.21,35.66a147.08,147.08,0,0,1-39.16,2.45q-245.42-15.15-491.33-29.66L2410,953.83c2.08-3.81,13.33-3.78,22.83-4,119.26-2.62,238.34-5.82,357.5-8.73,103.55-2.53,207-5.39,310.58-7.82,110.66-2.6,221-6.17,332-7.89C3440.58,925.29,3450,924.33,3454.19,927.41Z"/><path class="cls-32" d="M2089.52,1195.75c15.93,4.18,37.61,4.35,56.76,6q251.13,22.34,502.77,44.21c6.25.55,14.18.56,19.1,3.06-34,.57-66.94,1.06-99.83,1.67q-116.84,2.19-233.66,4.44c-59.53,1.06-119.12,1.84-178.65,2.91-75.05,1.35-150,3.11-225.12,4.22-78.66,1.16-157,3.71-235.92,3.68-1.47-2.62,6.16-3.37,11.93-4.39,114.73-20.18,228.94-40.59,343.75-60.73,11.43-2,21.67-4.56,34.28-6Q2088.41,1194.82,2089.52,1195.75Z"/><path class="cls-33" d="M1286.86,1473.62q238,.09,476.06.32c5.59,0,17.5-2.19,17.86,2.09l-18,3.79c-5.53,1.17-10.6,2.51-16.32,3.61h0c-6.14,1-11.15,2.48-17.16,3.55l-15.74,3.78c-9.68.68-14,3.45-22.72,4.52l-16.32,3.84c-7,.72-11.66,2.44-18,3.46l-34.08,7.25c-6.26,1-11.15,2.51-17.28,3.54l-4.82,1.27c-5.77,1.07-10.48,2.54-16.57,3.51l-17.28,3.69c-6,1-10.76,2.52-16.94,3.48-76.08,18.28-158.66,34.19-237.78,51.37-27.33,5.93-55.18,11.68-86.26,18.24,7.41-17.31,14.19-33.38,21.19-49.45,9.37-21.48,18.66-43,28.69-64.43C1276.67,1478.45,1271.59,1474.68,1286.86,1473.62Z"/><path class="cls-25" d="M560.18,602.43q189.33-.13,378.66-.33c18.42,0,14,3.43,14,6.15q.25,69.93.09,139.85a30.76,30.76,0,0,1-.84,4.75c-8.32-1-11.19-2.83-15-4.3Q862.8,720,788.57,691.33c-2.9-1.11-6.45-2.1-9.7-3.15-10.32-1-14.89-3.61-20.6-5.83Q664.87,646,570.56,609.74C565,607.63,555.77,605.74,560.18,602.43Z"/><path class="cls-34" d="M3454.19,927.41c-23.05-1.91-45.9.26-68.72.53-38.1.44-76,2.11-114,3.12q-90.93,2.41-181.91,4.64-52.92,1.34-105.86,2.59-91,2.3-181.9,4.64c-55.06,1.34-110.19,2.44-165.23,3.81q-85.67,2.12-171.2,4.64c-18.47.57-38.84-1.78-55.29,2.45-6.53.13-12.85,0-20.05-1.91,30.86-4.67,60.9-9.28,91.12-13.79q148.17-22.11,296.38-44.21a203.72,203.72,0,0,1,42.75-2.2q309.62,16.31,619.39,32.42c6.29.33,13.62.3,18.48,1.25C3463.56,926.45,3459.21,927.26,3454.19,927.41Z"/><path class="cls-35" d="M2985.86,456.16l160.8-1.79q139.8-1.56,279.6-3.15c11.39-.13,17.22.17,13.52,4.21-30.88,33.65-61.09,67.33-91.54,101a27.59,27.59,0,0,1-3.59,2.4Z"/><path class="cls-36" d="M3937.5,761.72c28,10.26,47.21,22,71.64,32.87,13.55,6,24.71,12.48,38.18,18.52,4.33,1.94,5.71,3.46,2.24,5.41-65.15,12.17-130.11,24.41-195.5,36.48q-174,32.12-348.47,64.06c-5,.9-8.29.88-8.23-1.12q216.93-77.31,433.92-154.62C3933,762.71,3935.41,762.25,3937.5,761.72Z"/><path class="cls-22" d="M560.18,602.43c29.17,13.17,64.1,25.2,96,37.82,40.56,16,81.74,32,122.66,47.93q-126.45-3.48-252.9-7-143.48-4.07-286.89-8.28c-3.33-.1-6.63-.26-15.61-.62,17.55-3.74,31.25-6.68,45-9.59q136.71-28.82,273.54-57.58C547.47,604,551.69,602,560.18,602.43Z"/><path class="cls-37" d="M4378.74,759.47q.15,64.21.31,128.42l-.19,0c-3.24,1.28-5.44,2.77-10.44,3.69-32,5.88-64.3,11.61-96.27,17.49-5.19,1-11.23,1.89-17.61.47-37.11-17-73.61-34-107.44-51.52-1.73-2.46,4-4.13,8.14-5.92,65.94-28.61,133-57,198.67-85.68,4.38-1.91,10.07-3.31,16.32-4.62Z"/><path class="cls-38" d="M4379.14,733c-.17.35-.32.71-.46,1.07-48.64,1.66-95.71,5.41-143.36,8.4Q4102.66,750.81,3969.9,759c-6.89.43-14.1,1-19.63-1q146.52-37.12,293.09-74.23c43.34-10.94,87.13-21.75,130.71-32.61,8,1.86,4.7,4.43,4.72,6.7C4379.09,683,4379.07,708,4379.14,733Z"/><path class="cls-39" d="M1836.24,1166.42c-2-6.59,11.89-11.92,19.54-17.6,49.47-36.74,101-73.25,150.92-109.93,4.11-3,13.89-4.43,17.69-7.21,68.74-15.25,137.33-30.55,206.27-45.72,43.69-9.62,87.91-19.05,131.89-28.56-4.56,7.1-24.35,11.67-38,17.14-69.5,27.88-140.47,55.47-211,83.15Q1975,1112.07,1836.24,1166.42Z"/><path class="cls-40" d="M2089.52,1195.75l-4.78-.09c-7.2.68-14,.14-20.89-.46-69.35-6.08-138.89-12-208-18.29-8.93-.82-20.29-.87-24.2-4.14l.36-1.51q258.43-20.65,516.84-41.32,90.9-7.28,181.66-14.67c4.33-.35,8.24-.56,11.94.34q-126.14,22.42-252.32,44.84Q2190,1178.18,2089.52,1195.75Z"/><path class="cls-41" d="M1831.68,1172.77q112.48,10.05,225,20.13c9.45.85,18.74,1.83,28.1,2.76-34.61,8-74.17,13.92-111.84,20.62-91.11,16.2-182.67,32.21-274,48.32A19.94,19.94,0,0,0,1695,1266l-8.22.37c3.68-8.06,19.19-14.89,29.82-22.2,34.83-24,71-47.74,106.67-71.59Z"/><path class="cls-25" d="M1155.52,881.64c-54.13,2-104.63,1.29-154.81,2.21-51.82,1-103.82,1.17-155.71,1.82-11.55.15-18.4-.21-18.87-4.28-3.07-26.5-7-53-10.79-81Z"/><path class="cls-42" d="M2512.88,777.44l473.8-45.68c-.93,6.91-7.47,13-11.59,19.2-8,12-17.17,23.87-24.3,35.87-2.37,4-7.38,4.69-20.91,4.27q-191-5.86-382.16-11.37c-4.23-.12-8.52-.08-12.79-.11C2528.73,778,2516.31,781.29,2512.88,777.44Z"/><path class="cls-43" d="M4375,1573.47c-26.91-19.36-54.1-38.68-80.66-58.08-31.44-23-62.35-46-93.48-68.94l156.76,9.15c21.23,1.18,21.82,5.31,21.71,10.39-.75,33.54-.33,67.08-.53,100.62C4378.78,1568.9,4381.85,1571.43,4375,1573.47Z"/><path class="cls-44" d="M4370.23,761.78,4147.1,858l-84.7-39.94q74.16-13.92,148.35-27.84c46.69-8.7,93.61-17.31,140.34-26A116,116,0,0,1,4370.23,761.78Z"/><path class="cls-34" d="M1643,917.7l74,64.37-276-15.43Z"/><path class="cls-45" d="M3877.46,1047.56c-64.61,4.46-129.58,8.53-192.93,14.32-14.33-1.43-1.86-3.15.39-4.14,33.26-14.57,67.14-29,100.73-43.54,22.38-9.68,44.51-19.39,66.75-29.09,8.66-.59,5,1.86,8.19,2.62,2.35,17.64,11.11,35.11,17.65,52.64C3880.89,1042.79,3882.32,1045.2,3877.46,1047.56Z"/><path class="cls-34" d="M2389.24,506.77c18.86-19.24,37.44-38.11,55.75-57,3-3.09,6.55-3.25,15.48-1.23,45.49,10.29,91.52,20.4,137.35,30.58,7.53,1.67,14,3.15-.58,4.82q-101,11.51-201.84,23.18A58.49,58.49,0,0,1,2389.24,506.77Z"/><path class="cls-44" d="M3488.28,884.37c-52.83-3.31-105.59-6.73-158.55-9.88-14.35-.85-17.5-2.3-13.81-6.46,12.69-14.33,23.5-28.8,36.4-44.93l145.89,59.76C3498,885,3493.9,885.07,3488.28,884.37Z"/><path class="cls-46" d="M4254.54,909.52c8.94-.24,15.55-1.76,22.7-3.08,33.77-6.24,67.73-12.39,101.62-18.57,0,24.37.12,48.75,0,73.13,0,2.09,2.92,4.45-4.45,6.17C4333.21,948.15,4291.86,929.16,4254.54,909.52Z"/><path class="cls-47" d="M273.38,850.42l283.25-2.54,1.2,1.3-110.57,13q-36.37,4.27-72.81,8.51c-6.61.77-12.62,1.43-19.51-.3C329.73,864.06,304,857.89,273.38,850.42Z"/><path class="cls-48" d="M2157.51,496.48,2332,459.9c3.69,8.94,6.94,16.91,10.27,24.87,1.42,3.39-8,3.2-15.3,3.62q-80.4,4.69-160.86,9.33C2161.43,498.3,2157,498.71,2157.51,496.48Z"/><path class="cls-49" d="M2857.1,849.77c46.43-4.79,88.43-9.09,130.36-13.45,8.61-.9,9.83.35,9.52,2.28-1.64,10.37-3.22,20.75-4.87,31.12-.49,3.09-6.36,2.52-12.72,1.41Z"/><path class="cls-49" d="M980.37,573c4.32-13.94,8.1-26.19,12.13-39.22l111,13.56Z"/><path class="cls-50" d="M2323.26,861.36l50.44,41c-39.61-6.14-74.45-11.5-109.13-16.94-9.29-1.46-3.11-3,.8-4.33C2283.74,874.8,2302.24,868.52,2323.26,861.36Z"/><path class="cls-50" d="M330.87,770.2C343.51,757.89,354.25,747.42,365,737c2.1-2,6.36-2.3,12.89-1.37,24.13,3.45,48.39,6.82,72.62,10.21,6.54.92,9.37,2.09,1.74,3.42C413.85,755.91,375.28,762.54,330.87,770.2Z"/><path class="cls-51" d="M3959.83,683.49c-31.26,6.88-62.67,13.69-93.67,20.66-9,2-14.29,2.47-20.17-1-8.76-5.21-19.32-10.19-29.37-15.22-4.76-2.4-3.63-3.65,7.07-3.8q67.65-.9,135.28-1.92C3959.25,682.62,3959.54,683.06,3959.83,683.49Z"/><path class="cls-52" d="M1498.49,873.31c-9.3,7.42-17.46,13.75-25.12,20.13-2.9,2.41-6.93,2.49-14.1,1.29-23.71-4-47.7-7.87-77.09-12.68Z"/><path class="cls-53" d="M3375.62,642.61l97.49,1.55-54,20.88Z"/><path class="cls-54" d="M1815,963.36c-6.26-.41-7.67-.46-9-.6-51.26-5.17-52.65-7-16.32-19.07,7.43-2.46,11.33-1.13,12.76.71C1807.17,950.52,1810.67,956.72,1815,963.36Z"/><path class="cls-55" d="M1031.92,579.65c4.72-3.2,14.4-3.92,21-5.59,8.37-2.12,13.25-1.24,15,1.65,1.37,2.22,8.75,4.82,2.8,6.52-5.4,1.55-14.1-.68-21.46-1.06C1043.94,580.89,1038.79,580.26,1031.92,579.65Z"/><path class="cls-56" d="M3497.36,917.94c1.64,1,5,1,8.23,1.12-5.86,1.94-12.82,3.28-24.43,3.8C3485.62,920.26,3491,919,3497.36,917.94Z"/><path class="cls-20" d="M1690.88,1495.28c5.92-2.15,10.86-4.71,22.72-4.52C1706.49,1492.45,1701.29,1494.9,1690.88,1495.28Z"/><path class="cls-20" d="M1746.46,1483.43c3.56-1.87,8-3.42,16.32-3.61C1759.35,1481.74,1754.65,1483.2,1746.46,1483.43Z"/><path class="cls-20" d="M1729.34,1487c3.84-1.89,8.46-3.5,17.16-3.55C1741.34,1484.83,1738,1486.91,1729.34,1487Z"/><path class="cls-20" d="M1656.58,1502.58c4-1.95,8.78-3.62,18-3.46C1669.26,1500.55,1665.53,1502.64,1656.58,1502.58Z"/><path class="cls-20" d="M1583.83,1518.15c3.82-1.81,8.24-3.39,16.57-3.51A39.18,39.18,0,0,1,1583.83,1518.15Z"/><path class="cls-20" d="M1549.61,1525.32c3.92-1.82,8.46-3.4,16.94-3.48C1562.89,1523.76,1557.83,1525.15,1549.61,1525.32Z"/><path class="cls-20" d="M1605.22,1513.37c3.88-1.9,8.59-3.48,17.28-3.54C1618.9,1511.84,1613.56,1513.19,1605.22,1513.37Z"/><path class="cls-57" d="M3488.28,884.37c3.71-.3,7.92-.33,9.93-1.51,3.26.46,6.53,1.54,4.19,2.12C3498,886.06,3492.52,885.52,3488.28,884.37Z"/><path class="cls-58" d="M2157.51,496.48l8.62,1.24c-4.48,1.12-10.2,1.83-14.56.54C2149.36,497.61,2153.77,496.68,2157.51,496.48Z"/><path class="cls-59" d="M988.69,1099.15c25.7,8.61,58.7,15,88.11,22.45,36.3,9.21,74.14,17.93,111.27,26.88q88,21.23,175.9,42.45c46.21,11.19,92.11,22.49,138.28,33.69,49.92,12.1,100.08,24.13,149.93,36.26,6.37,1.55,11.55,3.49,17.28,5.24-41.79-3.2-81.34-8.15-121.72-12.43q-201.13-21.32-401.65-43.08-152-16.38-303.91-32.86c-6.59-.71-13.54-1.16-20.33-1.74,0-.39,0-.78,0-1.17-3.37-2,1.06-3.44,4.11-5,43-21.6,90-42.56,133-64.17a68.15,68.15,0,0,1,17-5.3c3.44-.52,4.19-1.41,4.3-2.39C983.7,1098,986.86,1098.2,988.69,1099.15Z"/><path class="cls-4" d="M976,1100.4l-154.09,74.44c-41.6-2.76-80.15-7.92-120-12.06-11.36-1.18-22.39-2.58-34.85-2.45-.2-.71-.39-1.43-.59-2.14,17.76-.19,29.2-3.82,42.29-6.37,86-16.72,171.65-33.6,257.5-50.4C969,1100.88,972.69,1100.73,976,1100.4Z"/></svg>