<svg id="Capa_5" data-name="Capa 5" xmlns="http://www.w3.org/2000/svg" viewBox="0 0 1439.37 974.13"><defs><style>.cls-1{fill:#fed93e;}.cls-2{fill:#4cbec0;}.cls-3{fill:#2965f0;}.cls-4{fill:#f06529;}</style></defs><path class="cls-1" d="M7674,7820.81l271.73-92.68c118.94-40.57,182.46-169.87,141.9-288.81h0c-40.57-118.93-169.88-182.46-288.81-141.9l-965.31,329.27a227.56,227.56,0,0,0-153.14,194.12Z" transform="translate(-6660.5 -6846.68)"/><g id="Capa_2" data-name="Capa 2"><path class="cls-2" d="M7465.72,7820.81l440.94-207.87c113.67-53.58,162.37-189.17,108.79-302.83h0c-53.58-113.67-189.17-162.37-302.83-108.79l-922.55,434.92a227.41,227.41,0,0,0-129.53,184.57Z" transform="translate(-6660.5 -6846.68)"/></g><g id="Capa_3" data-name="Capa 3"><path class="cls-3" d="M7207.87,7820.81,7729.62,7224c82.7-94.61,73.05-238.36-21.56-321.07h0c-94.61-82.7-238.35-73.05-321.06,21.56l-671.27,767.88a226.49,226.49,0,0,0-55.23,128.46Z" transform="translate(-6660.5 -6846.68)"/></g><g id="Capa_4" data-name="Capa 4"><path class="cls-4" d="M7274.82,7820.81l548-443.85c97.65-79.1,112.69-222.38,33.6-320h0c-79.1-97.65-222.38-112.69-320-33.6l-792.55,641.95a226.85,226.85,0,0,0-83.31,155.53Z" transform="translate(-6660.5 -6846.68)"/></g></svg>