<svg id="Capa_1" data-name="Capa 1" xmlns="http://www.w3.org/2000/svg" viewBox="0 0 1080 1023.2"><defs><style>.cls-1{fill:#ed1c39;}.cls-2{fill:#e71b3a;}.cls-3{fill:#ef474a;}.cls-4{fill:#d51e42;}.cls-5{fill:#c1339b;}.cls-6{fill:#d50eb0;}.cls-7{fill:#4d8b99;}.cls-8{fill:#feca31;}.cls-9{fill:#71d0eb;}.cls-10{fill:#9c3884;}.cls-11{fill:#fbad36;}.cls-12{fill:#a13ca2;}.cls-13{fill:#9e3e95;}.cls-14{fill:#ca50a8;}.cls-15{fill:#f6d2f0;}.cls-16{fill:#f0abe3;}.cls-17{fill:#e777d2;}.cls-18{fill:#e052c7;}.cls-19{fill:#db30bb;}.cls-20{fill:#f27028;}.cls-21{fill:#fec10f;}.cls-22{fill:#fbb216;}.cls-23{fill:#fb9e13;}.cls-24{fill:#02b6d3;}.cls-25{fill:#ee4136;}.cls-26{fill:#ec4457;}.cls-27{fill:#ec1a43;}.cls-28{fill:#ee1748;}.cls-29{fill:#ed592f;}.cls-30{fill:#08abb5;}.cls-31{fill:#2f7886;}.cls-32{fill:#f27427;}.cls-33{fill:#f26f25;}.cls-34{fill:#37c4ec;}.cls-35{fill:#a10994;}.cls-36{fill:#b82d95;}.cls-37{fill:#8c1670;}.cls-38{fill:#901a91;}.cls-39{fill:#039ab1;}.cls-40{fill:#02a9b4;}.cls-41{fill:#d93320;}.cls-42{fill:#0281b5;}.cls-43{fill:#59c9e9;}.cls-44{fill:#d50db0;}.cls-45{fill:#a160b7;}.cls-46{fill:#8d1d83;}.cls-47{fill:#d51f42;}.cls-48{fill:#0381b5;}.cls-49{fill:#38c4ec;}.cls-50{fill:#38c5ec;}.cls-51{fill:#d50fb1;}.cls-52{fill:#ee4339;}.cls-53{fill:#0877a0;}.cls-54{fill:#0b9db3;}.cls-55{fill:#e478c6;}.cls-56{fill:#d37ebe;}.cls-57{fill:#e56dcf;}.cls-58{fill:#78bbd7;}.cls-59{fill:#ed1c37;}</style></defs><path class="cls-1" d="M146.64,2066.49c-.66,1-1.32,2-2,3-12.1,14.92-26.2,28.16-39.3,42.23-14,15.09-28.29,30-42.49,45-11,11.62-22.16,23.16-33.2,34.77-7.4,7.79-14.9,15.49-22.08,23.46-2,2.28-3.64,5.41-7.6,5.38V2072.4c4.28-5.05,10.47-7.76,15.87-11.37,47.26-31.51,94.73-62.72,142.06-94.13,2.15-1.43,4.26-3,6.95-3.44,5.69-.3,10.32,2.72,15.36,4.43,7.38,2.51,14.82,4.89,22,8a1.81,1.81,0,0,1,.75,1.29c-4,9-9.92,17.11-15.08,25.55-12,19.66-24.17,39.25-36.21,58.9A13.21,13.21,0,0,1,146.64,2066.49Z" transform="translate(0 -1316.04)"/><path class="cls-2" d="M0,1903.54v-55c2.33-3,4.79-5.92,9.1-6.46,25.71,7.33,51.24,15.16,76.87,22.71q48.75,14.37,97.42,28.94c18.56,5.56,37.34,10.52,55.67,16.78a6.39,6.39,0,0,1,2.72,1.81,2.12,2.12,0,0,1-.71,2.77c-18.49,11.63-36.44,24-54.73,35.89-5.19,3.37-10.33,6.82-15.47,10.25-2,1.36-4.17,2.45-6.78,2.22-8.36-1.42-15.92-5-23.74-7.85q-66.3-24-132.56-48.16C5,1906.49,2,1905.85,0,1903.54Z" transform="translate(0 -1316.04)"/><path class="cls-3" d="M0,2220.28c9.2-7.5,16.21-16.93,24.63-25.13,7.91-7.72,15.08-16.12,22.66-24.15q22.74-24.11,45.59-48.13c11.14-11.7,22.44-23.27,33.61-34.95,4.93-5.16,9.7-10.45,14.58-15.66,1-1.1,1.94-2.39,3.6-2.8-11.4,21.36-22.72,42.76-34.2,64.08Q56.37,2234,2.19,2334.36c-.47.88-.79,1.83-1.18,2.75-.3.51-.64.55-1,.07Z" transform="translate(0 -1316.04)"/><path class="cls-4" d="M8.44,1842.6l-8.44,6V1714.7q40.17,32.86,80.34,65.75a6.29,6.29,0,0,1,.88,1.2c.58,2.11-1.21,2.89-2.47,4-21.69,18.26-43.6,36.29-65.37,54.47C11.94,1841.29,10.58,1842.63,8.44,1842.6Z" transform="translate(0 -1316.04)"/><path class="cls-5" d="M1000.88,1679.59l-3.16.38c-4.29-9.66-10.73-18.18-16.05-27.3-3.88-6.64-8.78-12.75-11.56-20a5.67,5.67,0,0,1,3.15-3c31.45-6.07,62.69-13.08,94.06-19.51,3.86-.79,8-3.27,12-.06.57,6.55-.67,13.15.64,19.68v1a8.86,8.86,0,0,0-.89,1,5.22,5.22,0,0,1-2.58,2.16,95,95,0,0,0-11.11,6.6c-18.59,11.86-37.58,23.16-56.14,35.07C1006.62,1677.2,1004.14,1679.14,1000.88,1679.59Z" transform="translate(0 -1316.04)"/><path class="cls-6" d="M662.33,1316.93l9.56.41c-3.66,3.1-6.57,5.57-9.49,8-5.77,4.84-11.58,9.65-17.31,14.54-1.42,1.21-2.46,2.25-4.18.27-7.13-8.17-15.24-15.55-21.85-24.14h6.33c2.48,1.09,5.11.26,7.67.52h21.87C657.39,1316.74,659.9,1316.15,662.33,1316.93Z" transform="translate(0 -1316.04)"/><path class="cls-7" d="M1077.91,2100.13a3.66,3.66,0,0,1-.14-.72,16.26,16.26,0,0,1-.61-5.92q0-62.28,0-124.57a25.34,25.34,0,0,1,.68-7.41l1.11-1.83c.22-.58.54-.64,1-.18v140.88C1079.17,2100.91,1078.46,2101.08,1077.91,2100.13Z" transform="translate(0 -1316.04)"/><path class="cls-8" d="M894.31,2339.18l-.25-1.9c1.37-1,3-.78,4.54-.78,39.06.16,78.13,0,117.19.07a37,37,0,0,1,5.76.32,6,6,0,0,1,1.94.64,1.17,1.17,0,0,1,.54,1.65Z" transform="translate(0 -1316.04)"/><path class="cls-9" d="M1078.88,2210.31l1,0V2312.2a1.28,1.28,0,0,1-1.63-.19,5.17,5.17,0,0,1-1.12-5c.08-29.54-.08-59.08.15-88.62,0-3.6-3-5.32-3.7-8.25Z" transform="translate(0 -1316.04)"/><path class="cls-10" d="M1078.82,1630.84l1.1-.07v106.91a1.79,1.79,0,0,1-1.74-.85c-1.21-2.16-1-4.53-1-6.85q0-45.2,0-90.39A20.24,20.24,0,0,1,1078.82,1630.84Z" transform="translate(0 -1316.04)"/><path class="cls-11" d="M1078.92,2312.12a2,2,0,0,0,1,.08c0,8-.12,16,.08,24,.06,2.5-.6,3.08-3.24,3.06-17.58-.13-35.15-.06-52.73-.06,0-.32,0-.64,0-1,2.12-2,4.87-1.59,7.44-1.6,13-.07,25.91,0,38.86,0,6.51,0,6.81-.34,6.87-6.46,0-4,0-8,0-11.94C1077.28,2316.05,1077,2313.81,1078.92,2312.12Z" transform="translate(0 -1316.04)"/><path class="cls-12" d="M1077.67,1540.76l2.25-1.91v69.94a1.26,1.26,0,0,1-1.72-.53c-1-1.83-1-3.84-1-5.82,0-18.92,0-37.83,0-56.74C1077.15,1544,1077.55,1542.41,1077.67,1540.76Z" transform="translate(0 -1316.04)"/><path class="cls-13" d="M1078.9,1737.7l1,0v69a4.56,4.56,0,0,1-2.18-3c-1.16-20.47-.31-41-.47-61.44a7.37,7.37,0,0,1,.91-3.83Z" transform="translate(0 -1316.04)"/><path class="cls-14" d="M1078.92,1608.83c.33,0,.67,0,1,0v21c-2.25-4.74-.53-9.74-1-14.6-.19-1.8-.07-3.64-.1-5.46-.21-.22-.27-.43-.16-.62S1078.83,1608.83,1078.92,1608.83Z" transform="translate(0 -1316.04)"/><path class="cls-15" d="M662.33,1316.93H655c-.37-.18-.49-.37-.38-.57s.23-.31.34-.31h7.39Z" transform="translate(0 -1316.04)"/><path class="cls-16" d="M654.91,1316c0,.29,0,.59,0,.88l-7.37,0c-.37-.19-.51-.38-.4-.59s.23-.32.35-.32Z" transform="translate(0 -1316.04)"/><path class="cls-17" d="M647.53,1316a5.56,5.56,0,0,0,.05.91l-7.37,0c-.38-.17-.52-.36-.41-.56s.23-.32.35-.32Z" transform="translate(0 -1316.04)"/><path class="cls-18" d="M640.15,1316c0,.3,0,.59.06.88l-7.39.06c-.37-.19-.51-.39-.4-.61s.23-.33.35-.33Z" transform="translate(0 -1316.04)"/><path class="cls-19" d="M632.77,1316c0,.31,0,.63.05.94-2.48-.28-5.18,1-7.43-.94Z" transform="translate(0 -1316.04)"/><path class="cls-20" d="M666.57,2039.2l134.26,91.5L852.58,2166c.8.55,1.56,1.17,3,2.29-19.88,2.72-38.85,5.34-57.83,7.93q-49.86,6.8-99.71,13.55l-101.25,13.78q-48.55,6.61-97.1,13.25c-17.3,2.37-34.57,5-51.91,7-3.55.43-5.95,2.51-9.08,3.32-1.88-.69-3.83-.23-5.73-.23q-53.49,0-107,0c-3.06,0-6.4.75-9-1.73,12.78-7.86,26.37-14.36,39.6-21.48,25.45-13.71,51-27.22,76.55-40.79q65.31-34.71,130.65-69.43,50.37-26.84,100.64-53.86C665.06,2038.8,665.8,2038.91,666.57,2039.2Z" transform="translate(0 -1316.04)"/><path class="cls-21" d="M1023,2338.16q-61.37,0-122.73,0a16.93,16.93,0,0,1-6.18-.92l-2.92-.07c-20.62-5.28-41.23-10.62-61.87-15.84q-52.31-13.2-104.65-26.3c-1-.25-2.47-.5-2.81-1.16-2.88-5.67-5.72-11.38-8.16-17.22-.61-1.46,1.76-2.31,2.94-3.19q35-26,70-51.81,35.39-26.16,70.75-52.34a13.43,13.43,0,0,1,4.65,3.16c11.12,12,23.11,23.17,34.2,35.16,5.66,6.12,11.73,11.91,17.68,17.76,17.76,17.46,34.86,35.51,52.45,53.12,15.29,15.32,30.34,30.87,45.67,46.16,3.13,3.13,5.85,6.62,9.13,9.64C1022.22,2335.34,1023.63,2336.35,1023,2338.16Z" transform="translate(0 -1316.04)"/><path class="cls-22" d="M412.45,2053.84q-22.74,27.94-45.46,55.89-24.4,30.17-48.69,60.41c-7.48,9.28-15.18,18.42-22.42,27.87-3.07,4-5,3.59-8.41.33q-56.07-53.43-112.4-106.63c-8.79-8.34-17.45-16.82-26.17-25.23,5.46-2.89,11.6-2.16,17.4-2.49q39.36-2.19,78.74-3.87l54.08-2.43c24.15-1.07,48.3-2.31,72.44-3.55,13.11-.67,26.22-1.65,39.38-1.49A2.28,2.28,0,0,1,412.45,2053.84Z" transform="translate(0 -1316.04)"/><path class="cls-23" d="M1023,2338.16c-3.82-4.1-7.51-8.31-11.46-12.29-13.46-13.53-27.15-26.87-40.51-40.5-19.66-20.07-39.14-40.29-59.15-60.06-14.66-14.49-29-29.32-43.37-44-3.81-3.88-7.42-7.94-11.11-11.92l1.17-.35a9.77,9.77,0,0,1,5.67-.3q65.84,12.39,131.71,24.61,15.24,2.85,30.49,5.66c2.41.44,4.86.82,6.86,2.34l1.73,1.19c1.77,1.27,2.52,3.16,3.27,5,12.84,31.79,25.89,63.51,38.56,95.36a10.76,10.76,0,0,1,1.07,5.32l1,3.92c0,7.13-.24,14.26,0,21.38.15,3.77-1.2,4.79-5.08,4.75-16.62-.17-33.24-.05-49.86,0Z" transform="translate(0 -1316.04)"/><path class="cls-24" d="M627,1927.39a4.57,4.57,0,0,1-.63-.19c-39.26,11.85-79.16,21.6-118.68,32.56-16.16,4.48-32.37,8.8-48.55,13.19-2.36.63-4.68,1.45-7.19,1.33-3.59-1.27-1.3-3.3-.76-5.12,43.68-57.82,87.06-115.86,130.85-173.62,2.46-3.2,3.84-2.52,5,1q19.32,61,38.77,122c.76,2.37,1.81,4.66,2.73,7C629.06,1926.87,628,1927.12,627,1927.39Z" transform="translate(0 -1316.04)"/><path class="cls-25" d="M411.35,2053.55c-8.11,1.7-16.41,1-24.62,1.58-18.16,1.31-36.42,1.48-54.63,2.4q-43.83,2.2-87.68,4.14c-20.13.89-40.24,2.08-60.37,2.87-11.73.46-23.43,1.28-35.15,1.94h-2.26c8.8-14.07,17.49-28.19,26.42-42.19,9.92-15.55,18.87-31.65,29.43-46.84,2.12-1.39,4.07-.2,6,.49q77.49,28,154.91,56.28c13.77,5,27.58,9.91,41.36,14.89a25.55,25.55,0,0,1,6.63,3A1.06,1.06,0,0,1,411.35,2053.55Z" transform="translate(0 -1316.04)"/><path class="cls-24" d="M1033.27,2201.31c-13.21-1.56-26.15-4.55-39.2-6.95q-64.71-11.91-129.38-24.06c-2.06-.39-4.1-.86-6.15-1.3L975,2057.88c3.71,9.1,6.85,16.76,10,24.44Q1009.12,2141.81,1033.27,2201.31Z" transform="translate(0 -1316.04)"/><path class="cls-26" d="M103.4,1799.51c13.68-.84,27.1-3.44,40.62-5.34,40.44-5.67,80.83-11.61,121.24-17.41a43.43,43.43,0,0,1,4.71-.18c1.6,1.71,1.29,3.7.88,5.67-8.93,42.31-17.77,84.64-26.82,126.93a7.2,7.2,0,0,1-.71,1.87c-1.12,1.5-2.37,1-3.63.2-4.61-1.59-7.73-5.13-11.25-8-17.58-14.52-35.37-28.8-52.91-43.36-16.62-13.79-33.4-27.4-50.11-41.09-6.89-5.65-13.6-11.49-20.68-16.93C104,1801.23,102.83,1800.81,103.4,1799.51Z" transform="translate(0 -1316.04)"/><path class="cls-27" d="M239.4,1910.58l3.11,1c6.09-5.65,13.78-9.12,20.81-13.44,23.83-14.66,47.86-29,71.65-43.74,5.43-3.36,11-6.52,16.4-9.94,1.83-1.16,3.7-2.69,6.25-1.83a1,1,0,0,1,.72,0c6.51,6,10.6,13.6,15.47,20.65,13.73,19.9,27.58,39.71,41.27,59.63,10.54,15.32,20.95,30.71,31.69,45.91,1.07,1.51,2.85,3.15,1,5.27-2.13.89-4.14.15-6.14-.46-39.48-12-79.15-23.51-118.68-35.37q-36.69-11-73.48-21.69a32.11,32.11,0,0,1-5.43-1.92,9.77,9.77,0,0,1-2.48-2.08,2.27,2.27,0,0,1-2.12-1c-.36-.21-.48-.43-.36-.64S239.27,1910.58,239.4,1910.58Z" transform="translate(0 -1316.04)"/><path class="cls-28" d="M239.4,1910.58c0,.32,0,.64,0,1-12.06-3.41-24.16-6.71-36.18-10.24q-34.05-10-68-20.19-41.77-12.46-83.52-25c-12.83-3.85-25.67-7.64-38.48-11.52-1.63-.49-3.48-.62-4.73-2,13.45-11.24,26.87-22.53,40.37-33.73,10.08-8.37,20.28-16.62,30.4-25a18.12,18.12,0,0,0,2-2.26c7.85,5.45,14.86,11.83,22.18,17.86,7.93,5.14,14.59,11.7,21.91,17.51,14.58,11.59,29,23.39,43.37,35.18,11.5,9.41,22.9,18.93,34.36,28.4Q221.21,1895.6,239.4,1910.58Z" transform="translate(0 -1316.04)"/><path class="cls-29" d="M243.59,1913.5l90.71,26.87q54.6,16.2,109.22,32.39a38.73,38.73,0,0,0,4.62.79c1.07-.44,1.46.17,1.72,1-.4,4.08-2.73,7.5-4.3,11.17-8.93,21-18.26,41.74-27.46,62.58a17.69,17.69,0,0,1-2.52,4.35c-.77,1.05-2.09.79-3.13,1.2l-1.1-.3,0-1.1c-9.21-5.59-16.81-13-25.08-19.69-20.17-16.25-40.13-32.74-60.13-49.17-17.36-14.26-34.8-28.42-52-42.83-8.41-7-17.12-13.76-25.56-20.76C246.41,1918.22,243.34,1917,243.59,1913.5Z" transform="translate(0 -1316.04)"/><path class="cls-30" d="M449.2,1974.59l-1.06-1q-19.92-29.08-39.85-58.16-23.88-34.7-47.87-69.33c-.76-1.11-1.39-2.3-2.08-3.45,15.81,1.8,31.63,3.53,47.42,5.42q43.51,5.17,87,10.54a10.23,10.23,0,0,0,6-1.22c.46,3.31-2.57,5.18-3.69,7.88-12.67,30.77-25,61.66-37.5,92.49-1.61,4-3.83,7.69-5.16,11.76-.16,1.38-2.32,2.31-1,4a.89.89,0,0,1-.05,1.26A1.87,1.87,0,0,1,449.2,1974.59Z" transform="translate(0 -1316.04)"/><path class="cls-24" d="M631.58,1925.23c11.36-6.86,21.79-13.23,32.29-19.48,32.62-19.41,65.3-38.71,97.85-58.23,3.73-2.24,4.92-2,6,2.13,7.21,26.65,14.65,53.25,22,79.87,1.68,6.1,3.07,12.27,5,18.29,1.19,3.68-.38,4-3.44,3.47-20.66-3.45-41.31-7-62-10.32-30.49-4.94-61-9.76-91.52-14.64C636.13,1926.05,634.42,1925.72,631.58,1925.23Z" transform="translate(0 -1316.04)"/><path class="cls-31" d="M1077.84,1961.51c1.69,1.49,1,3.43,1,5.18q.06,63.78,0,127.56c0,1.75.69,3.7-1.07,5.16q-26.65-11.29-53.32-22.6c-14.56-6.2-29.05-12.55-43.64-18.69-3-1.28-3.74-2.14-1-4.67q48.47-45.46,96.79-91.09A9.48,9.48,0,0,1,1077.84,1961.51Z" transform="translate(0 -1316.04)"/><path class="cls-4" d="M357.62,1842.58c-14.41,7.52-27.79,16.6-41.65,25-23.74,14.31-47.36,28.79-71,43.18a12.3,12.3,0,0,1-2.42.82c1.4-11.82,4.53-23.34,7-35,6.71-32.19,13.62-64.33,20.42-96.5a19.19,19.19,0,0,0,.09-3.48c1.87-.33,2.83,1,4,2q40.74,31,81.46,62A25.17,25.17,0,0,1,357.62,1842.58Z" transform="translate(0 -1316.04)"/><path class="cls-24" d="M851,1770.59c-11.93,8.45-24.75,15.65-37.13,23.48-15.74,10-31.57,19.78-47.35,29.68-3,1.85-5.67,2.87-9.65,2-40.31-8.41-80.7-16.5-121.06-24.69l-42.06-8.53c.51-3.17,3.28-3.14,5.62-3.32,29.38-2.18,58.72-4.84,88.08-7.26,25.51-2.11,51-4.49,76.52-6.51,27.27-2.17,54.46-5.14,81.79-6.56C847.68,1768.82,850,1768,851,1770.59Z" transform="translate(0 -1316.04)"/><path class="cls-32" d="M514.81,1993.88c3.92,3.48,9.27,3.62,14,5,41.25,12.39,82.59,24.51,123.88,36.79,1.53.45,3.49.47,4.7,2.55-8.38.47-16.49.87-24.6,1.39-19.19,1.21-38.37,2.52-57.56,3.69-14.67.88-29.35,1.53-44,2.42-18.49,1.12-37,2.59-55.46,3.51-19.38,1-38.69,3.09-58.13,3.06-.36-2.18,1.52-2.8,2.94-3.65,28.27-16.79,56.41-33.77,84.69-50.54,2.82-1.67,5.34-3.79,8.45-5A1.09,1.09,0,0,1,514.81,1993.88Z" transform="translate(0 -1316.04)"/><path class="cls-33" d="M317.05,2225.11c39.1.06,78.2.08,117.29.27,1.38,0,4.31-1.83,4.4,1.74l-4.43,3.15c-1.36,1-2.61,2.09-4,3h0c-1.52.86-2.75,2.07-4.23,3l-3.88,3.15c-2.38.56-3.46,2.87-5.6,3.76l-4,3.19c-1.73.6-2.87,2-4.43,2.88l-8.39,6c-1.55.82-2.75,2.08-4.26,2.94l-1.19,1c-1.42.9-2.58,2.12-4.08,2.92l-4.26,3.08c-1.47.85-2.65,2.1-4.17,2.89-18.75,15.22-39.09,28.46-58.59,42.75-6.73,4.94-13.59,9.72-21.25,15.18,1.83-14.41,3.5-27.78,5.22-41.15,2.31-17.88,4.6-35.76,7.07-53.62C314.54,2229.13,313.29,2226,317.05,2225.11Z" transform="translate(0 -1316.04)"/><path class="cls-25" d="M138,1500.16c31.1-.08,62.2-.11,93.3-.28,4.54,0,3.45,2.85,3.45,5.12q.06,58.18,0,116.37c0,1.14-.11,2.27-.2,4-2.05-.85-2.76-2.35-3.7-3.57q-18.3-23.8-36.59-47.61c-.72-.93-1.59-1.75-2.39-2.63-2.55-.81-3.67-3-5.08-4.85q-23-30.29-46.25-60.42C139.21,1504.48,136.93,1502.91,138,1500.16Z" transform="translate(0 -1316.04)"/><path class="cls-34" d="M851,1770.59c-5.68-1.59-11.31.21-16.93.43-9.39.37-18.73,1.77-28.1,2.61-14.93,1.34-29.87,2.59-44.81,3.86-8.7.73-17.39,1.41-26.09,2.15-14.94,1.27-29.87,2.63-44.81,3.86-13.57,1.12-27.15,2-40.71,3.17-14.07,1.18-28.14,2.39-42.18,3.86-4.55.48-9.57-1.48-13.62,2a5.84,5.84,0,0,1-4.94-1.59c7.6-3.89,15-7.72,22.45-11.47,24.34-12.27,48.71-24.47,73-36.79a15.93,15.93,0,0,1,10.53-1.84q76.29,13.57,152.6,27c1.55.27,3.36.25,4.56,1S852.27,1770.46,851,1770.59Z" transform="translate(0 -1316.04)"/><path class="cls-35" d="M735.65,1378.44l39.61-1.49q34.46-1.31,68.89-2.62c2.81-.11,4.24.14,3.33,3.5-7.61,28-15.05,56-22.55,84.05a18.31,18.31,0,0,1-.89,2Z" transform="translate(0 -1316.04)"/><path class="cls-36" d="M970.11,1632.71c6.89,8.53,11.63,18.31,17.65,27.35,3.34,5,6.09,10.38,9.4,15.41,1.07,1.62,1.41,2.88.56,4.5-16.05,10.13-32.06,20.32-48.17,30.36q-42.87,26.73-85.85,53.31c-1.22.75-2.05.73-2-.93q53.45-64.34,106.91-128.67A11.59,11.59,0,0,1,970.11,1632.71Z" transform="translate(0 -1316.04)"/><path class="cls-22" d="M138,1500.16c7.19,11,15.8,21,23.66,31.47,10,13.35,20.14,26.59,30.23,39.88q-31.15-2.9-62.31-5.81-35.36-3.39-70.69-6.9c-.82-.08-1.63-.21-3.84-.51,4.32-3.11,7.7-5.56,11.09-8q33.69-24,67.4-47.91C134.88,1501.45,135.92,1499.81,138,1500.16Z" transform="translate(0 -1316.04)"/><path class="cls-37" d="M1078.82,1630.84q0,53.43.08,106.86l-.05,0c-.8,1.07-1.34,2.31-2.57,3.08-7.88,4.89-15.84,9.65-23.72,14.55-1.28.79-2.77,1.57-4.34.39-9.14-14.12-18.13-28.32-26.47-42.88-.43-2,1-3.43,2-4.92,16.24-23.81,32.77-47.44,48.94-71.29a15.53,15.53,0,0,1,4-3.86Z" transform="translate(0 -1316.04)"/><path class="cls-38" d="M1078.92,1608.83l-.12.89c-12,1.38-23.58,4.51-35.32,7q-32.68,6.91-65.39,13.76c-1.7.35-3.47.82-4.83-.8q36.09-30.89,72.21-61.77c10.67-9.11,21.46-18.1,32.2-27.14,2,1.56,1.16,3.69,1.16,5.58C1078.91,1567.17,1078.9,1588,1078.92,1608.83Z" transform="translate(0 -1316.04)"/><path class="cls-39" d="M452.41,1969.48c-.49-5.49,2.93-9.93,4.81-14.65,12.19-30.57,24.89-60.95,37.18-91.48,1-2.51,3.43-3.69,4.36-6q25.41-19,50.82-38c10.77-8,21.66-15.84,32.5-23.76-1.13,5.91-6,9.71-9.36,14.27-17.13,23.2-34.61,46.16-52,69.18Q486.59,1924.25,452.41,1969.48Z" transform="translate(0 -1316.04)"/><path class="cls-40" d="M514.81,1993.88l-1.18-.07a8.49,8.49,0,0,1-5.15-.39c-17.08-5.05-34.21-10-51.23-15.22-2.2-.68-5-.72-6-3.44l.09-1.26q63.67-17.19,127.34-34.38,22.39-6,44.76-12.2a2.94,2.94,0,0,1,2.94.28q-31.08,18.66-62.17,37.31Q539.56,1979.26,514.81,1993.88Z" transform="translate(0 -1316.04)"/><path class="cls-41" d="M451.28,1974.76l55.43,16.75c2.32.71,4.61,1.53,6.92,2.3-8.53,6.66-18.28,11.58-27.56,17.16-22.44,13.48-45,26.8-67.5,40.21a4.77,4.77,0,0,0-1,1.15l-2,.31c.9-6.7,4.72-12.39,7.34-18.48,8.58-19.92,17.5-39.72,26.28-59.57Z" transform="translate(0 -1316.04)"/><path class="cls-25" d="M284.69,1732.5c-13.33,1.63-25.77,1.07-38.14,1.84-12.77.79-25.58,1-38.36,1.52-2.85.12-4.53-.18-4.65-3.57-.76-22-1.72-44.11-2.66-67.4Z" transform="translate(0 -1316.04)"/><path class="cls-42" d="M619.12,1645.79l116.73-38c-.23,5.74-1.84,10.82-2.86,16-2,10-4.23,19.86-6,29.85-.59,3.31-1.82,3.89-5.16,3.55-31.37-3.26-62.76-6.34-94.15-9.46-1-.11-2.1-.07-3.15-.1C623,1646.24,620,1649,619.12,1645.79Z" transform="translate(0 -1316.04)"/><path class="cls-43" d="M1077.9,2308.2c-6.63-16.11-13.33-32.19-19.87-48.33-7.75-19.1-15.37-38.25-23-57.37l38.63,7.62c5.23,1,5.37,4.41,5.34,8.64-.18,27.91-.07,55.82-.13,83.73C1078.83,2304.4,1079.59,2306.51,1077.9,2308.2Z" transform="translate(0 -1316.04)"/><path class="cls-44" d="M1076.72,1632.75l-55,80.07q-10.44-16.6-20.87-33.23c12.18-7.72,24.34-15.48,36.55-23.17,11.5-7.24,23.06-14.4,34.58-21.63A10.94,10.94,0,0,1,1076.72,1632.75Z" transform="translate(0 -1316.04)"/><path class="cls-34" d="M404.79,1762.51,423,1816.07l-68-12.84Z" transform="translate(0 -1316.04)"/><path class="cls-45" d="M955.32,1870.57c-15.92,3.71-31.93,7.09-47.54,11.91-3.53-1.18-.46-2.62.1-3.44,8.19-12.13,16.54-24.16,24.82-36.24,5.51-8,11-16.13,16.44-24.2,2.14-.49,1.23,1.55,2,2.18.58,14.68,2.74,29.22,4.35,43.8C956.16,1866.6,956.51,1868.61,955.32,1870.57Z" transform="translate(0 -1316.04)"/><path class="cls-34" d="M588.65,1420.55c4.65-16,9.23-31.71,13.74-47.43.74-2.57,1.61-2.71,3.81-1,11.21,8.56,22.55,17,33.84,25.44,1.86,1.39,3.46,2.62-.14,4-16.6,6.39-33.15,12.87-49.73,19.29C589.92,1420.94,589.53,1420.73,588.65,1420.55Z" transform="translate(0 -1316.04)"/><path class="cls-44" d="M859.43,1734.77c-13-2.76-26-5.6-39.06-8.22-3.54-.71-4.31-1.91-3.4-5.38,3.12-11.92,5.79-24,9-37.39l36,49.74C861.83,1735.28,860.82,1735.35,859.43,1734.77Z" transform="translate(0 -1316.04)"/><path class="cls-46" d="M1048.22,1755.7c2.2-.2,3.83-1.46,5.59-2.56,8.32-5.19,16.69-10.31,25-15.46q0,30.43,0,60.86c0,1.73.72,3.7-1.1,5.13C1067.6,1787.85,1057.42,1772,1048.22,1755.7Z" transform="translate(0 -1316.04)"/><path class="cls-47" d="M67.36,1706.52l69.78-2.12.3,1.09-27.25,10.82-17.93,7.09c-1.63.64-3.11,1.19-4.81-.25C81.24,1717.87,74.89,1712.74,67.36,1706.52Z" transform="translate(0 -1316.04)"/><path class="cls-48" d="M531.56,1412l43-30.44c.9,7.44,1.71,14.07,2.53,20.69.34,2.82-2,2.66-3.77,3q-19.82,3.9-39.64,7.76C532.53,1413.51,531.44,1413.85,531.56,1412Z" transform="translate(0 -1316.04)"/><path class="cls-49" d="M703.92,1706c11.44-4,21.79-7.57,32.12-11.2,2.12-.74,2.42.3,2.35,1.9q-.61,12.94-1.2,25.9c-.13,2.57-1.57,2.09-3.14,1.17Z" transform="translate(0 -1316.04)"/><path class="cls-49" d="M241.54,1475.66c1.06-11.6,2-21.79,3-32.64l27.33,11.28C261.57,1461.56,252.09,1468.23,241.54,1475.66Z" transform="translate(0 -1316.04)"/><path class="cls-50" d="M572.4,1715.62c4.17,11.47,8,22.09,12.43,34.13-9.77-5.11-18.35-9.57-26.89-14.09-2.29-1.21-.77-2.48.2-3.6C562.66,1726.81,567.22,1721.58,572.4,1715.62Z" transform="translate(0 -1316.04)"/><path class="cls-50" d="M81.52,1639.77c3.11-10.25,5.76-19,8.42-27.68.51-1.69,1.56-1.91,3.17-1.13,6,2.87,11.92,5.67,17.89,8.49,1.61.77,2.31,1.74.43,2.85C102,1627.87,92.46,1633.39,81.52,1639.77Z" transform="translate(0 -1316.04)"/><path class="cls-51" d="M975.61,1567.61c-7.7,5.72-15.44,11.39-23.08,17.19-2.2,1.67-3.52,2-5-.86-2.16-4.33-4.76-8.47-7.23-12.67-1.18-2-.9-3,1.74-3.15,11.11-.5,22.22-1.06,33.33-1.6Z" transform="translate(0 -1316.04)"/><path class="cls-52" d="M369.19,1725.57c-2.29,6.17-4.3,11.44-6.19,16.74-.71,2-1.7,2.08-3.47,1.08-5.84-3.33-11.75-6.54-19-10.55Z" transform="translate(0 -1316.04)"/><path class="cls-53" d="M831.67,1533.59l24,1.29-13.31,17.37Z" transform="translate(0 -1316.04)"/><path class="cls-54" d="M447.16,1800.5c-1.54-.34-1.89-.38-2.21-.49-12.63-4.31-13-5.84-4-15.87,1.83-2.06,2.79-.94,3.14.59C445.24,1789.82,446.11,1795,447.16,1800.5Z" transform="translate(0 -1316.04)"/><path class="cls-55" d="M254.24,1481.19c1.17-2.66,3.55-3.26,5.18-4.65,2.06-1.76,3.26-1,3.7,1.38.34,1.85,2.16,4,.69,5.43s-3.47-.57-5.29-.89A38.28,38.28,0,0,1,254.24,1481.19Z" transform="translate(0 -1316.04)"/><path class="cls-56" d="M861.67,1762.71c.4.84,1.22.86,2,.93a9.33,9.33,0,0,1-6,3.16A8.88,8.88,0,0,1,861.67,1762.71Z" transform="translate(0 -1316.04)"/><path class="cls-20" d="M416.59,2243.14c1.46-1.8,2.68-3.92,5.6-3.76C420.44,2240.78,419.16,2242.82,416.59,2243.14Z" transform="translate(0 -1316.04)"/><path class="cls-20" d="M430.29,2233.28c.88-1.56,2-2.85,4-3A5,5,0,0,1,430.29,2233.28Z" transform="translate(0 -1316.04)"/><path class="cls-20" d="M426.07,2236.23c.95-1.58,2.08-2.91,4.23-3C429,2234.44,428.2,2236.18,426.07,2236.23Z" transform="translate(0 -1316.04)"/><path class="cls-20" d="M408.14,2249.21c1-1.62,2.17-3,4.43-2.88C411.27,2247.53,410.35,2249.26,408.14,2249.21Z" transform="translate(0 -1316.04)"/><path class="cls-20" d="M390.22,2262.16c.94-1.5,2-2.81,4.08-2.92C393.31,2260.68,392.25,2262,390.22,2262.16Z" transform="translate(0 -1316.04)"/><path class="cls-20" d="M381.79,2268.13c1-1.51,2.08-2.83,4.17-2.89A5,5,0,0,1,381.79,2268.13Z" transform="translate(0 -1316.04)"/><path class="cls-20" d="M395.49,2258.19c1-1.58,2.12-2.9,4.26-2.94A5,5,0,0,1,395.49,2258.19Z" transform="translate(0 -1316.04)"/><path class="cls-57" d="M859.43,1734.77c.91-.25,2-.27,2.45-1.25.8.37,1.61,1.28,1,1.75C861.82,1736.18,860.48,1735.72,859.43,1734.77Z" transform="translate(0 -1316.04)"/><path class="cls-58" d="M531.56,1412l2.12,1c-1.1.93-2.51,1.52-3.58.45C529.55,1412.93,530.64,1412.15,531.56,1412Z" transform="translate(0 -1316.04)"/><path class="cls-59" d="M243.59,1913.5c6.33,7.17,14.46,12.47,21.71,18.68,8.94,7.66,18.26,14.92,27.41,22.37q21.69,17.65,43.34,35.32c11.38,9.32,22.69,18.71,34.07,28,12.3,10.08,24.66,20.09,36.94,30.18a54.82,54.82,0,0,1,4.26,4.36c-10.3-2.66-20-6.78-30-10.34-33-11.82-66-23.86-99-35.85q-37.46-13.63-74.88-27.34c-1.62-.6-3.33-1-5-1.45v-1c-.83-1.64.26-2.87,1-4.14,10.6-18,22.18-35.42,32.77-53.4a13.86,13.86,0,0,1,4.18-4.42,2,2,0,0,0,1.06-2A2.15,2.15,0,0,1,243.59,1913.5Z" transform="translate(0 -1316.04)"/><path class="cls-4" d="M240.45,1914.53q-19,31-38,62c-10.25-2.31-19.75-6.6-29.57-10-2.8-1-5.51-2.14-8.58-2l-.15-1.79c4.38-.15,7.2-3.17,10.42-5.29,21.19-13.92,42.29-28,63.44-41.94A10.84,10.84,0,0,1,240.45,1914.53Z" transform="translate(0 -1316.04)"/></svg>