<svg id="Capa_1" data-name="Capa 1" xmlns="http://www.w3.org/2000/svg" viewBox="0 0 852.26 1208.3"><defs><style>.cls-1{fill:#264ce2;}.cls-2{fill:#8298ef;}.cls-3{fill:#2965f0;}.cls-4{fill:#fefefe;}.cls-5{fill:#eaeaea;}.cls-6{fill:#fff;}</style></defs><path class="cls-1" d="M113.36,311.13v-1.42a5.3,5.3,0,0,1,3.67-1.06c1.42,0,2.84,0,4.26,0H956.77c9,0,9.11,0,8.76,8.87-.39,9.58-1.67,19.09-2.42,28.65-1.19,15-2.7,29.93-4,44.9q-1.82,21.4-3.8,42.79c-1.35,14.73-2.58,29.47-4,44.2s-2.57,29.47-4,44.19c-1.36,14.38-2.51,28.77-3.84,43.14-1.36,14.73-2.62,29.47-4,44.2q-2,21.57-3.84,43.14c-1.31,14.73-2.68,29.46-4,44.2-1.25,14.5-2.57,29-3.86,43.5-1.57,17.56-3.09,35.13-4.71,52.68-1.31,14.26-2.51,28.53-3.81,42.79q-2.37,26.16-4.68,52.34c-1.29,14.85-2.72,29.69-3.92,44.55-.92,11.33-2.11,22.63-3.07,34-1,12.49-2.25,25-3.3,37.48-1,11.55-2.16,23.09-3.13,34.65-1.25,15-2.72,29.93-4,44.91-1,11.67-2.19,23.33-3.16,35-1.23,14.86-2.74,29.7-3.94,44.56q-.53,6.36-1.19,12.72c-.34,3.2-2,4.75-5,5.58q-29.1,8-58.19,16.11-47.24,13.13-94.47,26.21-74.29,20.55-148.56,41.17c-11.3,3.12-22.64,6.1-33.86,9.5a35,35,0,0,1-20.19,0c-57.35-16.08-114.76-31.9-172.14-47.87q-67.59-18.81-135.18-37.59c-8.89-2.48-17.78-5-26.69-7.4-3.29-.89-5-2.62-5.32-6.1-.94-9.66-1.69-19.33-2.6-29-1.63-17.32-3.1-34.65-4.65-52-1.33-14.85-2.7-29.7-3.93-44.56-.94-11.32-2.06-22.62-3.05-33.94q-2-22.45-4-44.91c-1.56-17.32-3.05-34.65-4.65-52-1.34-14.49-2.56-29-3.86-43.49s-2.67-29.23-3.93-43.85-2.61-29.47-3.91-44.2-2.62-29.47-3.95-44.2c-1.3-14.38-2.53-28.76-3.84-43.14q-2.39-26-4.66-52-1.94-21.93-3.89-43.85-2.28-26-4.64-52-1.95-21.75-3.86-43.5c-1.33-15-2.72-29.93-4-44.9-1.24-14.5-2.57-29-3.88-43.49-1.32-14.73-2.72-29.45-3.93-44.19-1.45-17.56-3.64-35.07-4.23-52.7a27.53,27.53,0,0,0-.66-7V315.4A5.46,5.46,0,0,0,113.36,311.13Z" transform="translate(-113.36 -67.8)"/><path class="cls-2" d="M113.36,311.13c.88,1.42,1.34,2.85,0,4.27Z" transform="translate(-113.36 -67.8)"/><path class="cls-3" d="M539.63,487.25q0-51.17,0-102.32c0-3.13.64-4.24,4-4.23q170.16.14,340.3,0c3.11,0,3.5.77,3.22,3.69-1.37,14.88-2.31,29.79-3.73,44.66-1,10.3-2,20.6-2.8,30.92-1,13.36-2.2,26.72-3.57,40-1.09,10.53-1.9,21.08-2.82,31.62-1.26,14.41-2.85,28.78-4.16,43.18-.85,9.37-1.38,18.77-2.22,28.15-1.06,11.82-2.35,23.62-3.43,35.44-.62,6.68-.93,13.39-1.54,20.07-.82,9.13-1.85,18.24-2.7,27.36-.6,6.45-1,12.91-1.55,19.36-.85,9.6-1.82,19.19-2.69,28.79-.56,6.09-1,12.19-1.56,18.28-.89,9.84-1.84,19.67-2.74,29.5-.53,5.86-1,11.72-1.52,17.58-.91,10.07-1.88,20.13-2.76,30.2-.79,9-1.42,18.06-2.23,27.09-.84,9.36-1.83,18.71-2.7,28.07-.56,6-1,12-1.55,17.94-.9,10.18-1.86,20.37-2.74,30.56-.55,6.33-1,12.67-1.53,19-.86,9.48-2,18.94-2.65,28.43-.41,6-1,12-1.59,17.93-.94,9.95-1.88,19.9-2.75,29.85-.56,6.33-1,12.67-1.54,19-.85,9.48-1.83,18.95-2.7,28.43-.56,6.1-1,12.19-1.54,18.29q-1.1,13.54-2.15,27.09c-.2,2.48-1.9,3.28-4,3.85q-15,4.1-30,8.26L721,1151.88q-32,8.88-64,17.72-33.39,9.26-66.75,18.55-23.84,6.63-47.65,13.33c-2.87.81-2.95-.57-2.94-2.81q.07-51.35,0-102.68c0-1.62.41-3.38-1.4-4.43a2.3,2.3,0,0,1,.94-.89c10.22-3.41,20.69-6,31.06-8.86q57.49-15.93,115-31.88c21.56-6,43.11-12,64.69-17.89,6.73-1.84,6.83-1.81,7.38-8.74,1.79-22.64,3.93-45.25,6-67.87q2.65-29.68,5.36-59.38,3.36-37.81,6.7-75.64t6.8-75.62c2.16-23.8,4.35-47.59,6.44-71.4s4.28-47.6,6.35-71.4c2-22.63,4-45.24,6-67.87,1.18-13.91,2.47-27.81,3.75-41.71.32-3.44,0-3.82-3.59-3.94-1.3-.05-2.6,0-3.9,0q-125.37,0-250.72,0C544.11,488.42,541.62,489.13,539.63,487.25Z" transform="translate(-113.36 -67.8)"/><path class="cls-4" d="M539.63,487.25c1.53,0,3.07.12,4.61.12H802.08c4.25,0,4.13,0,3.73,4.27-1.61,17.44-3.15,34.88-4.72,52.32Q798,578.09,795,612.19q-2.25,25.29-4.49,50.56-3.08,34.31-6.19,68.59-2.61,29.16-5.18,58.34Q776,824.32,772.9,859c-1.76,19.8-3.46,39.61-5.23,59.41q-3,33.93-6.13,67.87c-1.25,13.91-2.54,27.81-3.65,41.73-.18,2.24-.83,3.2-3.07,3.82q-82,22.62-163.93,45.4L541,1091a20.53,20.53,0,0,1-2.06.33c-1.3-1.34-1.17-3-1.17-4.68q0-50.67,0-101.33c0-1.64-.12-3.35,1.18-4.67l-.06-.24a17,17,0,0,1,6.48-2.72c34.29-9.15,68.52-18.54,102.81-27.69,8.33-2.22,8.55-2.14,9.43-10.68,1.18-11.64,2.13-23.31,3.13-35s2.13-23.32,3.14-35c1.28-14.72,2.64-29.44,4-44.16.33-3.65.69-7.29.92-11,.14-2.4-.71-3.26-3-3.18-1.18,0-2.36,0-3.54,0H545.15c-2.13,0-4.28.15-6.24-.94l.07-.23c-1.31-1.32-1.19-3-1.19-4.68q0-48.65,0-97.3c0-1.53-.1-3.1.88-4.44,2.1-1.47,4.51-1.21,6.87-1.21H671.22c7.47,0,7.37,0,8-7.35,1.24-15.08,2.67-30.16,4-45.24q2.22-24.91,4.4-49.84c.37-4.15-.27-4.71-4.89-4.72q-35.85,0-71.72,0H545.31c-2.25,0-4.52.14-6.56-1.11-1.12-1.42-1-3.12-1-4.76q0-48.36,0-96.72c0-1.74-.23-3.58,1.16-5Z" transform="translate(-113.36 -67.8)"/><path class="cls-5" d="M539,980.66q0,55.33,0,110.68l-.72.22Q505.14,1082.29,472,1073q-74.25-20.65-148.52-41.2c-2.42-.67-3.29-1.62-3.51-4.23-1.9-22.63-4-45.24-6-67.86q-2.27-25.26-4.48-50.54c-1.27-14.38-2.44-28.76-3.82-43.13-.23-2.32.34-2.77,2.52-2.76q50.78.09,101.55,0c2.14,0,2.8.6,3,2.72,1.26,15,2.67,29.93,4,44.89,1,11.54,2.08,23.09,3,34.65.19,2.52,1.46,3.23,3.66,3.82Q481.18,964.95,539,980.66Z" transform="translate(-113.36 -67.8)"/><path class="cls-5" d="M539,487.49V593.88c-1.06.81-2.29.42-3.43.42q-125.14,0-250.28,0c-1.16,0-2.37.29-3.49-.32-1.17-12.11-2.39-24.23-3.5-36.35-2.07-22.49-4-45-6.17-67.47-.21-2.24.2-2.83,2.46-2.83q131.85.09,263.7.07A5.74,5.74,0,0,1,539,487.49Z" transform="translate(-113.36 -67.8)"/><path class="cls-5" d="M539,703.5l0,106.41c-1.3,0-2.6.12-3.9.12Q420,810,305,810.12c-3.47,0-4.52-.81-4.82-4.38-1.87-23-4-46-6.1-68.93l-3-33.23c1-1,2.26-.49,3.39-.49q120.54,0,241.09,0C536.66,703.09,537.89,702.7,539,703.5Z" transform="translate(-113.36 -67.8)"/><path class="cls-3" d="M538.91,810.14q26.64,0,53.27-.1c24.87,0,49.73.05,74.59-.08,3.13,0,3.53.77,3.24,3.77-1.94,19.91-3.58,39.84-5.37,59.76q-3,33.76-6.15,67.52c-.72,7.64-.89,7.59-8.35,9.6L540.29,980.23a10.42,10.42,0,0,1-1.38.19c.93-1.24.73-2.69.73-4.1V814.24C539.64,812.84,539.84,811.39,538.91,810.14Z" transform="translate(-113.36 -67.8)"/><path class="cls-3" d="M539,703.5c-1.3,0-2.6-.11-3.9-.11H295.29c-1.41,0-2.83.13-4.25.19,1.16-1.59,2.85-.84,4.27-.84q119.51-.06,239,0c6,0,5.32.65,5.32-5.31q0-48.84,0-97.68c0-5,0-5-4.9-5q-124.29,0-248.59,0c-1.46,0-3.09.6-4.4-.67H536.48c.82,0,1.65-.07,2.47-.11,1.42,0,2.84.14,4.26.14q71,0,142.07-.07c3.16,0,4,.7,3.67,3.92-2,20.49-3.73,41-5.56,61.51-1.2,13.56-2.52,27.1-3.53,40.67-.22,2.9-1.24,3.36-3.82,3.36q-66.42-.1-132.84,0C541.79,703.36,540.37,703.45,539,703.5Z" transform="translate(-113.36 -67.8)"/><g id="JavaScript"><path class="cls-6" d="M339.43,148.38c0-51,32.26-80.58,73.47-80.58,19.5,0,35.49,9.31,45.88,19.56l-19.16,21.53c-7.34-6.79-15.61-11-26.72-11-21.84,0-37.78,18.56-37.78,49.36,0,31.62,15.94,50,39.14,50,11.1,0,20.25-5.46,27.71-13.59l19.16,21.06c-12.54,14.84-29.76,22.59-50.46,22.59C372.44,227.25,339.43,200.24,339.43,148.38Z" transform="translate(-113.36 -67.8)"/><path class="cls-6" d="M480.14,205l20-23.9c11.63,9.52,26,16.05,40.89,16.05s21.59-5.72,21.59-13.24c0-11.07-9.14-13.75-23.7-19.84l-20-8.55c-17.05-6.48-32.6-19.55-32.6-41.93,0-25.47,22.95-45.83,56.36-45.83A74.55,74.55,0,0,1,593.7,87.94l-17.54,21.94c-10.83-7.78-20.41-12-35.44-12-11.46,0-19.24,4.75-19.24,13.74,0,9.25,10.31,12.63,25,18.16l18.82,8c20.14,7.55,32.86,20.11,32.86,41.81,0,25.56-21.45,47.7-59.52,47.7A88.59,88.59,0,0,1,480.14,205Z" transform="translate(-113.36 -67.8)"/><path class="cls-6" d="M621.74,205l20-23.9c11.63,9.52,26,16.05,40.88,16.05s21.6-5.72,21.6-13.24c0-11.07-9.15-13.75-23.7-19.84l-20-8.55c-17.05-6.48-32.6-19.55-32.6-41.93,0-25.47,22.94-45.83,56.36-45.83a74.5,74.5,0,0,1,51.07,20.14l-17.53,21.94c-10.83-7.78-20.42-12-35.44-12-11.47,0-19.25,4.75-19.25,13.74,0,9.25,10.31,12.63,25.06,18.16l18.82,8c20.13,7.55,32.85,20.11,32.85,41.81,0,25.56-21.44,47.7-59.51,47.7A88.55,88.55,0,0,1,621.74,205Z" transform="translate(-113.36 -67.8)"/></g></svg>