<svg id="Capa_2" data-name="Capa 2" xmlns="http://www.w3.org/2000/svg" viewBox="0 0 842.7 818.53"><defs><style>.cls-1{fill:#d291ff;}.cls-2{fill:#1f0040;}</style></defs><path class="cls-1" d="M848.48,206.23c0,1.5-.12,3-.12,4.5v809c0,1.5.06,3,.1,4.5l-.63.41c-1.38.11-2.76.06-4.14.06q-416.49,0-833,0c-1.6,0-3.26.42-4.8-.38q0-332,0-663.91,0-74.82,0-149.63c0-1.5-.07-3-.11-4.5Z" transform="translate(-5.78 -206.23)"/><path class="cls-2" d="M427.11,241.42h380.7c5.67,0,5-.74,5,4.95q0,369.93,0,739.84c0,5.81.7,5.07-4.9,5.07H46.63c-5.44,0-5.44,0-5.44-5.61V247c0-5.56,0-5.56,5.55-5.56Z" transform="translate(-5.78 -206.23)"/><path class="cls-1" d="M298.84,393.75h33.47c.75,0,1.51,0,2.26,0,3.47.12,4.07.53,5.06,3.83,2.07,6.95,4.1,13.91,6.16,20.87q18.38,62.06,36.76,124.1,22.31,75.36,44.57,150.74,11.65,39.42,23.34,78.82a13.48,13.48,0,0,1,.85,4.4,2.45,2.45,0,0,1-2.49,2.7c-1,.06-2,.08-3,.08H392.4c-.75,0-1.5,0-2.25,0-3.14-.23-4.22-1-5.1-4-1.45-5.05-2.81-10.13-4.2-15.2Q369,716.95,357.19,673.88c-.85-3.08-.85-3.12-4-3.12H247.14c-3.12,0-3.16,0-4,3.06q-11.13,41.89-22.23,83.8c-1.51,5.68-3,11.37-4.56,17-1.13,4.14-1.67,4.61-6,4.62-16.68,0-33.35,0-50,0-4,0-5.21-1.41-4.18-5.37,1.8-6.89,3.85-13.73,5.81-20.59q25.36-88.77,50.74-177.55,21.19-74.14,42.44-148.27a107,107,0,0,0,3.69-26c.06-1.62.19-3.24.31-4.87a2.9,2.9,0,0,1,3.2-3c1.75,0,3.51,0,5.26,0Z" transform="translate(-5.78 -206.23)"/><path class="cls-1" d="M602.6,649.7H534.15c-3.77,0-3.7,0-3.55,3.65a111.4,111.4,0,0,0,4.2,27.4c4.9,16.33,13.89,29.61,29,38.21a72.41,72.41,0,0,0,28.46,9,148.06,148.06,0,0,0,56.59-4.42,118.24,118.24,0,0,0,13.79-4.89,17,17,0,0,1,2.82-1,1.85,1.85,0,0,1,2.48,1.61,17.47,17.47,0,0,1,.15,3c0,13.53-.14,27.07.09,40.59.08,5-1.92,7.88-6.37,9.84a135.88,135.88,0,0,1-38.7,10.25,222.46,222.46,0,0,1-35.28,1.49c-22.9-.83-44.68-5.79-64.33-18.12-18.72-11.75-32-28.19-41.26-48.07-8.58-18.5-12.84-38.11-14.53-58.35a229.92,229.92,0,0,1,.1-40.9c2.82-29.6,10.71-57.56,27.84-82.31,14.45-20.87,33.46-35.86,58.15-42.69,25.41-7.05,50.62-6.16,75,4.44,19.1,8.3,33,22.37,42.94,40.48,8.37,15.24,13,31.63,15,48.84a199.91,199.91,0,0,1-.9,50.56c-1,7.19-.87,8.78-9.64,9.56-15.37,1.38-30.79,1.51-46.2,1.8-9.15.17-18.3,0-27.45,0Z" transform="translate(-5.78 -206.23)"/><path class="cls-2" d="M342,613.6H258.68c14.24-54.65,29.73-108.75,40.87-163.93a3.37,3.37,0,0,1,.41.13c.1.06.24.14.27.24,12.56,54.48,27.93,108.24,41.83,162.37A3.89,3.89,0,0,1,342,613.6Z" transform="translate(-5.78 -206.23)"/><path class="cls-2" d="M579.11,601.53H535.47c-.88,0-1.76,0-2.63,0-1.31,0-1.77-.56-1.59-1.87,2.09-15,6-29.4,15.43-41.77,15.27-20.08,41.43-20.1,55.93-12.72A37.54,37.54,0,0,1,615.86,556c9.28,12.33,12.94,26.35,12.14,41.62-.17,3.35-.31,3.46-3.77,3.55-7.51.18-15,.26-22.55.31S586.63,601.53,579.11,601.53Z" transform="translate(-5.78 -206.23)"/></svg>