<svg id="Capa_1" data-name="Capa 1" xmlns="http://www.w3.org/2000/svg" viewBox="0 0 860.78 1207.7"><defs><style>.cls-1{fill:#e34d26;}.cls-2{fill:#f06529;}.cls-3{fill:#eaeaea;}.cls-4{fill:#fefefe;}.cls-5{fill:#fff;}</style></defs><g id="Capa_2" data-name="Capa 2"><path class="cls-1" d="M538.83,302q208.45,0,416.91-.23c10.27,0,13.58,1.92,12.53,12.92C961,389.93,954.43,465.2,947.68,540.47q-8.79,98.12-17.45,196.25Q919.9,852.58,909.5,968.43c-5.91,66.6-11.9,133.19-17.31,199.84-.78,9.65-3.62,14.08-13.48,16.78-110.11,30.12-220.07,60.84-330.07,91.35-6.41,1.78-12.49,2.85-19.57.87Q363,1230.76,196.73,1185.18c-9.48-2.59-12-6.92-12.8-16.11-7.34-86.33-15.23-172.61-22.89-258.91q-8.82-99.31-17.51-198.64Q133.36,597.45,123,483.37c-5-56.35-9.8-112.73-15.16-169-.94-9.86,1.55-12.56,11.69-12.53Q329.19,302.3,538.83,302Z" transform="translate(-107.68 -70.63)"/><path class="cls-2" d="M538,480.85c0-32.06.27-64.12-.13-96.18-.1-8.34,2.53-10.81,10.82-10.79q165.07.35,330.13,0c9.31,0,11.84,3.26,10.95,11.75-3.14,30.08-6.2,60.17-9,90.27-2,21.54-3.37,43.14-5.33,64.68-2.88,31.68-6.13,63.34-9,95-1.9,20.75-3.33,41.55-5.22,62.31-2.94,32.47-6.7,64.88-8.92,97.4-1.34,19.64-3.66,39.16-5.19,58.75-2.62,33.7-5.57,67.35-9.24,101-2.38,21.89-3.22,43.94-5.2,65.87-2.93,32.48-6.48,64.9-9.28,97.38-.67,7.75-6.09,8.42-11.24,9.88q-53.43,15.11-106.94,30c-51.6,14.39-103.28,28.48-154.76,43.28-9.65,2.78-12.72,1.45-12.54-9,.49-28.89.16-57.79.17-86.68,0-5.09.91-10.48-4.74-13.59a7.9,7.9,0,0,1,5-3.47c68.43-18.42,136.56-37.93,204.95-56.53,7.91-2.15,12-5.94,12.88-14.44,3.55-32.64,5.89-65.38,8.87-98.07q5.34-58.49,10.57-117c2.59-29.15,4.66-58.35,8-87.43.42-3.58.31-7.15-2.56-9.94-4.6-3.48-9.94-2.27-15-2.27q-105.11-.12-210.2-.11c-6.22,0-12.76,1.29-18.44-2.74-3.14-4-3.18-8.84-3.21-13.56q-.24-41.46,0-82.91c0-4.72,0-9.53,3-13.66,5.52-4.38,12.09-3,18.28-3q110.91-.15,221.82-.1c5.06,0,10.34,1,14.9-2.27,6.71-8.89,4.13-19.66,5.41-29.46,2.26-17.42,3.19-35,5-52.57.57-5.34,1.49-11-2.5-15.73-4.52-3.7-9.87-2.47-14.9-2.48q-114.6-.11-229.18-.13C550,484.23,543.28,486,538,480.85Z" transform="translate(-107.68 -70.63)"/><path class="cls-3" d="M538,480.85q94.32.24,188.62.47c22.94.05,45.88-.09,68.81.1,3.71,0,7.94-1.77,11.12,1.88-6.1,5.13-13.48,3.81-20.47,3.82q-110.3.13-220.59.06c-3.56,0-7.14.23-10.67,0-9.79-.66-13.19,4-13.05,13.46.34,22.92,0,45.86.15,68.79.09,13.45,1.19,14.57,15.24,14.6,73.13.11,146.27,0,219.4.12,6.93,0,14.38-1.61,20.4,3.78-3.56,3.86-8.2,1.89-12.26,1.89q-116.25.21-232.5.13c-4.73,0-9.46.29-14.2.45-5.41,4.51-12,3.54-18.2,3.56-38,.1-76,0-114,.09-15.5.05-15.47.67-14.47,16.38,1.43,22.51,4.15,44.89,5.64,67.39,1.07,16.2,2.95,18,19.45,18,34.84.09,69.67,0,104.5.08,5.87,0,12-.76,17.07,3.4q118.65.2,237.31.53c3.94,0,8.67-2.37,12,2.11-5.68,5-12.68,3.74-19.26,3.75q-101.92.16-203.86.07c-4.35,0-8.69,0-13,.24-5.62.32-8.9,2.9-9,8.73-.46,26.46-.5,52.93,0,79.39.17,8.7,6.79,8.46,12.76,8.5,31.21.18,62.42,0,93.63.08,4.74,0,9.52-.34,14.2.48,3.63.64,8.28.41,8.39,6.11-4.27,3.72-9.54,3.36-14.61,3.38q-51.42.21-102.83,0c-5.5,0-11.13.21-15.66-3.88-14.61-.27-29.23-.75-43.84-.77-61.74-.09-123.47-.3-185.2.21-10.5.09-12.87-3.13-13.72-13.22C289,720.19,281.84,645.4,275,570.6c-2.45-26.78-4.5-53.6-7.48-80.31-1.1-9.84,4.4-8.84,10.56-8.83q122.88.07,245.75,0C528.55,481.46,533.28,481.07,538,480.85Z" transform="translate(-107.68 -70.63)"/><path class="cls-3" d="M538.05,1091.68l-4.74.44c-68.47-19.22-136.89-38.62-205.47-57.42-8.74-2.4-12-6.44-12.67-15.11q-6-73.35-12.81-146.61c-.84-8.94,1.33-11.68,10.53-11.5,28.9.57,57.81.39,86.71.08,7.1-.07,10.42,1.2,10.94,9.43,1.44,22.89,4,45.71,6.16,68.55.39,4.16-.55,8.36,5.7,9.94,38.64,9.79,77.17,20,115.74,30.06.51.59,1,1.18,1.55,1.76,2.46,4.79,2.1,10,2.12,15.11q.11,39.17,0,78.32C541.78,1080.61,542.39,1086.72,538.05,1091.68Z" transform="translate(-107.68 -70.63)"/><path class="cls-2" d="M538,808.83c44.29-.37,88.57-1.49,132.85.59,3.35,3.29,2.06,7.34,1.8,11.2-2.65,39.36-7.42,78.54-10.14,117.9-.67,9.67-6.63,13.72-14.81,16-33.11,9.21-66.4,17.68-99.54,26.76-3.48,1-7,1.44-10.25-.8l.2-.93Q538.1,894.19,538,808.83Z" transform="translate(-107.68 -70.63)"/><path class="cls-4" d="M537.94,980.47c36.57-9.77,73.09-19.77,109.77-29.15,8.29-2.12,11-6,11.67-14.48,3.39-42.51,7.59-85,11.5-127.42-2.91-5-7.8-2.9-11.8-2.91-36.81-.17-73.62-.32-110.42.06-8.31.09-10.93-2.48-10.79-10.79.44-26.9.65-53.83-.08-80.73-.28-10.43,2.62-13.38,13.2-13.32,78.76.45,157.52.23,236.29.22-2.58,32.31-4.93,64.65-7.77,96.93-5.06,57.53-10.42,115-15.64,172.55-1.61,17.73-3.32,35.45-4.67,53.2-.35,4.49-1.5,7-6.32,8.33-71.65,19.42-142.8,40.68-214.83,58.72Q538,1036.07,537.94,980.47Z" transform="translate(-107.68 -70.63)"/><path class="cls-4" d="M797,587.92c-81.83,0-163.66-.29-245.48.16-11.16.07-14-3.27-13.69-14,.72-26.07.66-52.19,0-78.26-.25-9.85,2.68-12.68,12.58-12.64,85.39.33,170.77.13,256.16.09A903.41,903.41,0,0,1,797,587.92Z" transform="translate(-107.68 -70.63)"/><path class="cls-1" d="M538,699.31c-45.07.18-90.14.28-135.22.64-5.52,0-7.39-1.71-7.87-7.27-2.7-31.5-5.75-63-8.82-94.43-.56-5.66.35-8.68,7.22-8.61,48.23.44,96.47.54,144.7.75Q538,644.84,538,699.31Z" transform="translate(-107.68 -70.63)"/></g><g id="JavaScript"><path class="cls-5" d="M270.92,70.63h34.87v59.21H347.5V70.63h34.88V224.42H347.5V160.25H305.79v64.17H270.92Z" transform="translate(-107.68 -70.63)"/><path class="cls-5" d="M450.84,99.82h-46.1V70.63h127V99.82h-46.1v124.6H450.84Z" transform="translate(-107.68 -70.63)"/><path class="cls-5" d="M552.63,70.63h36.5l15.07,54.5,5.17,21.27h.94l5.11-21.27,15.13-54.5h36.5V224.42H637.62V176.81c0-17.31,3-54.81,4.66-71.43h-.71l-11.79,41.27-12,37H600.93l-12.18-37-11-41.27h-.81c1.75,16.62,4.66,54.12,4.66,71.43v47.61h-29Z" transform="translate(-107.68 -70.63)"/><path class="cls-5" d="M705.79,70.63h34.75V195.24H809v29.18H705.79Z" transform="translate(-107.68 -70.63)"/></g></svg>