<?xml version="1.0" encoding="utf-8"?>
<!-- Generator: Adobe Illustrator 26.0.0, SVG Export Plug-In . SVG Version: 6.00 Build 0)  -->
<svg version="1.1" xmlns="http://www.w3.org/2000/svg" xmlns:xlink="http://www.w3.org/1999/xlink" x="0px" y="0px"
	 viewBox="0 0 359.9 261" style="enable-background:new 0 0 359.9 261;" xml:space="preserve">
<style type="text/css">
	.st0{fill:url(#SVGID_1_);}
	.st1{fill:url(#SVGID_00000160159335328137144890000010429872136889078968_);}
	.st2{fill:url(#SVGID_00000168075946357289206730000002531533915132310447_);}
	.st3{fill:url(#SVGID_00000007422690185365921180000015749151484744932245_);}
	.st4{fill:url(#SVGID_00000151540913496489686970000001665090480421255606_);}
	.st5{fill:url(#SVGID_00000180350150876965167410000008112191867561107625_);}
</style>
<g id="Capa_4">
	
		<radialGradient id="SVGID_1_" cx="79.01" cy="196.4051" r="119.57" gradientTransform="matrix(1 0 0 -1.51 -74.86 420.02)" gradientUnits="userSpaceOnUse">
		<stop  offset="0.17" style="stop-color:#4674B5"/>
		<stop  offset="0.33" style="stop-color:#4878B5"/>
		<stop  offset="0.49" style="stop-color:#4F84B6"/>
		<stop  offset="0.66" style="stop-color:#5998B6"/>
		<stop  offset="0.82" style="stop-color:#68B4B7"/>
		<stop  offset="0.98" style="stop-color:#7CD8B9"/>
		<stop  offset="1" style="stop-color:#7EDCB9"/>
	</radialGradient>
	<path class="st0" d="M71.6,251.5c8.4,12.6,22,12.6,30.4,0l0,0c8.4-12.6,8.4-33.2,0-45.8l-65.1-98.1c-8.4-12.6-22-12.6-30.4,0l0,0
		c-8.4,12.6-8.4,33.2,0,45.8L45,211.3L71.6,251.5z"/>
	
		<linearGradient id="SVGID_00000054238109759134318760000017647434010251776168_" gradientUnits="userSpaceOnUse" x1="97.17" y1="60.0538" x2="248.49" y2="60.0538" gradientTransform="matrix(1 0 0 -1 -74.86 165.71)">
		<stop  offset="0" style="stop-color:#7EDCB9"/>
		<stop  offset="2.000000e-02" style="stop-color:#7CD8B9"/>
		<stop  offset="0.18" style="stop-color:#68B4B7"/>
		<stop  offset="0.34" style="stop-color:#5998B6"/>
		<stop  offset="0.51" style="stop-color:#4F84B6"/>
		<stop  offset="0.67" style="stop-color:#4878B5"/>
		<stop  offset="0.83" style="stop-color:#4674B5"/>
	</linearGradient>
	<path style="fill:url(#SVGID_00000054238109759134318760000017647434010251776168_);" d="M102,9.5c-8.4-12.7-22-12.7-30.4,0
		L6.5,107.6C-1.7,120-2.3,139.3,5.6,152l0.3,0.5l0.4,0.6l0.1,0.2l0.1,0.1L45,211.3c-20.7-31.1,7.1-80.8,7.1-80.8l0,0l49.9-75.2
		C110.4,42.7,110.4,22.1,102,9.5z"/>
	
		<linearGradient id="SVGID_00000016038251463602920480000008995655078660619674_" gradientUnits="userSpaceOnUse" x1="727.66" y1="1106.465" x2="835.82" y2="1106.465" gradientTransform="matrix(-1 0 0 1 1087.35 -1025.03)">
		<stop  offset="1.000000e-02" style="stop-color:#8C0053"/>
		<stop  offset="0.14" style="stop-color:#8F0651"/>
		<stop  offset="0.32" style="stop-color:#99174D"/>
		<stop  offset="0.53" style="stop-color:#A93445"/>
		<stop  offset="0.76" style="stop-color:#BF5B3B"/>
		<stop  offset="1" style="stop-color:#DB8D2E"/>
	</linearGradient>
	<path style="fill:url(#SVGID_00000016038251463602920480000008995655078660619674_);" d="M288.2,9.5c-8.4-12.7-22-12.7-30.4,0l0,0
		c-8.4,12.7-8.4,33.2,0,45.8l65.1,98.1c8.4,12.6,22,12.6,30.4,0l0,0c8.4-12.6,8.4-33.2,0-45.8l-38.5-57.9L288.2,9.5z"/>
	
		<linearGradient id="SVGID_00000060734617673221487700000002343181330637689732_" gradientUnits="userSpaceOnUse" x1="749.79" y1="1180.3868" x2="901.12" y2="1180.3868" gradientTransform="matrix(-1 0 0 1 1087.35 -1025.03)">
		<stop  offset="0" style="stop-color:#DB8D2E"/>
		<stop  offset="0.24" style="stop-color:#BF5B3B"/>
		<stop  offset="0.47" style="stop-color:#A93445"/>
		<stop  offset="0.68" style="stop-color:#99174D"/>
		<stop  offset="0.86" style="stop-color:#8F0651"/>
		<stop  offset="0.99" style="stop-color:#8C0053"/>
	</linearGradient>
	<path style="fill:url(#SVGID_00000060734617673221487700000002343181330637689732_);" d="M257.8,251.5c8.4,12.6,22,12.6,30.4,0
		l65.1-98.1c8.2-12.4,8.7-31.8,0.9-44.5l-0.3-0.5l-0.4-0.7l-0.1-0.1c0,0-0.1-0.1-0.1-0.1l-38.4-57.8c20.7,31.1-7.1,80.8-7.1,80.8
		l0,0l-49.9,75.2C249.4,218.4,249.4,238.9,257.8,251.5z"/>
	<g id="Capa_5">
		
			<linearGradient id="SVGID_00000054242684087668613870000013829056488961908872_" gradientUnits="userSpaceOnUse" x1="219.61" y1="38.5888" x2="344.42" y2="38.5888" gradientTransform="matrix(1 0 0 -1 -74.86 165.71)">
			<stop  offset="1.000000e-02" style="stop-color:#8C0053"/>
			<stop  offset="0.14" style="stop-color:#8F0651"/>
			<stop  offset="0.32" style="stop-color:#99174D"/>
			<stop  offset="0.53" style="stop-color:#A93445"/>
			<stop  offset="0.76" style="stop-color:#BF5B3B"/>
			<stop  offset="1" style="stop-color:#DB8D2E"/>
		</linearGradient>
		<path style="fill:url(#SVGID_00000054242684087668613870000013829056488961908872_);" d="M144.8,199.5l24.3-50.1l-5.9-94.6h47.7
			c9-0.1,17.9,1,26.6,3.2c7.9,2.1,14.1,5.7,18.7,10.8c4.6,5.1,6.9,12.2,6.9,21.4c-0.1,6.6-2.1,13.1-5.9,18.5
			c-3.9,6-10.1,10-18.5,12.2v0.9c10.2,1.8,17.9,5.3,23.1,10.8c5.2,5.4,7.8,13,7.8,22.6c0,9.6-2.4,17.5-7.2,23.6
			c-5,6.4-11.8,11.1-19.5,13.7c-8.9,3.1-18.3,4.6-27.8,4.5L144.8,199.5z M193.5,111.9h15.9c7.8,0,13.5-1.6,17-4.7
			c3.5-3.1,5.2-7.4,5.2-12.8c0-5.2-1.8-9-5.3-11.2s-9.1-3.4-16.7-3.4h-15.4L193.5,111.9z M188.6,171.8h23.8c8.7,0,15.2-1.6,19.4-4.8
			s6.3-8,6.3-14.4c0-6.2-2.1-10.7-6.3-13.5s-10.7-4.1-19.4-4.1h-17.9L188.6,171.8z"/>
		
			<linearGradient id="SVGID_00000054267236125630456210000011296046669552735158_" gradientUnits="userSpaceOnUse" x1="169.81" y1="38.585" x2="269.4148" y2="38.585" gradientTransform="matrix(1 0 0 -1 -74.86 165.71)">
			<stop  offset="0" style="stop-color:#7EDCB9"/>
			<stop  offset="2.000000e-02" style="stop-color:#7CD8B9"/>
			<stop  offset="0.18" style="stop-color:#68B4B7"/>
			<stop  offset="0.34" style="stop-color:#5998B6"/>
			<stop  offset="0.51" style="stop-color:#4F84B6"/>
			<stop  offset="0.67" style="stop-color:#4878B5"/>
			<stop  offset="0.83" style="stop-color:#4674B5"/>
		</linearGradient>
		<path style="fill:url(#SVGID_00000054267236125630456210000011296046669552735158_);" d="M141.6,199.5c-8.4-0.1-16.8-1.9-24.5-5.2
			c-8.5-3.5-15.9-9.6-22.1-18.3l18.5-19.8c3.6,4.7,8,8.6,13.1,11.7c4.2,2.6,9.1,3.9,14,4c7.3,0,12.7-1.9,16.4-5.7s5.6-10.5,5.6-20.3
			V81.6h-55.6V54.8h87.6v93.7c0.1,8.8-1.6,17.5-5.1,25.5c-3.5,7.8-9.2,14.2-16.6,18.5C165.2,197.2,154.8,199.5,141.6,199.5z"/>
	</g>
</g>
<g id="Capa_2">
</g>
</svg>
