<svg id="Capa_1" data-name="Capa 1" xmlns="http://www.w3.org/2000/svg" viewBox="0 0 970.31 1199.64"><defs><style>.cls-1{fill:#d5b932;}.cls-2{fill:#fed93e;}.cls-3{fill:#eaeaea;}.cls-4{fill:#f8dd68;}.cls-5{fill:#fddc55;}.cls-6{fill:#fbde62;}.cls-7{fill:#fbde64;}.cls-8{fill:#fddd57;}.cls-9{fill:#f8dd67;}.cls-10{fill:#fddc51;}.cls-11{fill:#f4da69;}.cls-12{fill:#f6dc68;}.cls-13{fill:#fcde5c;}.cls-14{fill:#f9dc5f;}.cls-15{fill:#e9d15f;}.cls-16{fill:#f2d760;}.cls-17{fill:#f2d75f;}.cls-18{fill:#f3d760;}.cls-19{fill:#f1d65f;}.cls-20{fill:#f2d761;}.cls-21{fill:#f3d865;}.cls-22{fill:#f1d760;}.cls-23{fill:#f3d861;}.cls-24{fill:#f2d65e;}.cls-25{fill:#f4d963;}.cls-26{fill:#f3d964;}.cls-27{fill:#f1d65d;}.cls-28{fill:#f0d55f;}.cls-29{fill:#f5da61;}.cls-30{fill:#f0d65f;}.cls-31{fill:#f6da61;}.cls-32{fill:#efd560;}.cls-33{fill:#f2d65f;}.cls-34{fill:#f1d660;}.cls-35{fill:#f2d75e;}.cls-36{fill:#f4da64;}.cls-37{fill:#f2d762;}.cls-38{fill:#f5da64;}.cls-39{fill:#f1d661;}.cls-40{fill:#f4d964;}.cls-41{fill:#f5da62;}.cls-42{fill:#f8dc63;}.cls-43{fill:#fefefe;}.cls-44{fill:#fff;}</style></defs><g id="Capa_3" data-name="Capa 3"><path class="cls-1" d="M538.76,1284.68c-13.3-.56-25.74-5.06-38.34-8.68q-154.68-44.52-309.79-87.5c-4.13-1.14-5.59-2.74-6-7.12-3.23-36.32-6.83-72.61-10.25-108.91q-4.47-47.61-8.81-95.25c-3.43-36.9-7-73.79-10.33-110.7-2.61-28.58-5-57.17-7.6-85.75Q143.1,729.86,138.51,679c-2.2-24.81-4.25-49.64-6.4-74.46-2.65-30.57-5.37-61.14-8-91.72-2.19-25.61-4.25-51.24-6.38-76.86q-4.59-55.11-9.21-110.22c-.48-5.76-.77-11.54-1.48-17.27-.47-3.9.74-5.2,4.75-5.25,22.14-.26,44.27-1,66.41-1.16,73.21-.43,146.43,2.66,219.62.93,91-2.16,181.94-1.31,272.89-.5,98,.87,195.91,0,293.86.52,6.07,0,7.17,1.69,6.64,7.34-4.17,43.84-8,87.71-12.05,131.57-4.61,50.4-9.34,100.79-13.9,151.2-3.43,37.91-6.62,75.84-10,113.75-4.62,51.6-9.39,103.19-13.95,154.8-3.85,43.47-7.49,87-11.21,130.45q-6.61,77.14-13.22,154.28c-1,11.51-2.35,23-3.08,34.53-.25,3.94-1.75,5.37-5.34,6.38q-117.87,33.12-235.68,66.46Q601.34,1268.26,550,1283C546.3,1284,542.62,1284.91,538.76,1284.68Z" transform="translate(-54.67 -85.08)"/><path class="cls-2" d="M886.35,437.22c0,1.21,0,2.42-.05,3.63-1.57,3.46.42,7.3-1.14,10.76,0,1.58,0,3.17,0,4.76-1.58,3.46.36,7.31-1.16,10.78,0,1.2,0,2.41-.05,3.61-1.59,3.46.42,7.31-1.15,10.77,0,1.2,0,2.4,0,3.6-1.58,3.47.42,7.31-1.14,10.77l-.06,3.6c-1.58,3.46.42,7.3-1.14,10.77l-.06,3.6c-1.58,3.46.43,7.31-1.14,10.77l0,4.75c-1.59,3.06.39,6.55-1.16,9.62l0,4.75c-1.58,3.45.36,7.28-1.17,10.73l0,3.63c-1.57,3.46.37,7.29-1.17,10.75,0,1.2,0,2.41,0,3.62-1.61,3,.39,6.54-1.17,9.61l0,3.59c-1.54,3.46.37,7.29-1.15,10.75l0,3.61c-1.55,3.44.37,7.26-1.16,10.71l0,3.63c-1.59,3.06.39,6.55-1.16,9.61l0,3.59c-1.59,3.45.42,7.29-1.15,10.75l-.05,3.62c-1.58,3.44.42,7.25-1.15,10.69l0,3.64c-1.59,3.06.39,6.55-1.16,9.61l-.05,3.6c-1.59,3.44.42,7.26-1.15,10.71,0,1.21,0,2.42,0,3.63-1.58,3,.4,6.51-1.16,9.55,0,1.21,0,2.42,0,3.62-1.56,3.45.37,7.26-1.16,10.71,0,.83,0,1.66-.05,2.49-1.57,3.44.43,7.26-1.15,10.71l0,3.61c-1.59,3.05.4,6.54-1.16,9.6,0,1.2,0,2.41-.05,3.61-1.55,3,.39,6.52-1.15,9.57l0,3.61c-1.57,3.44.43,7.27-1.15,10.71l0,3.6c-1.61,3,.39,6.53-1.17,9.59l0,3.58c-1.6,3.05.39,6.53-1.16,9.58l0,3.61c-1.57,3,.4,6.51-1.16,9.55l0,3.61c-1.59,3,.39,6.53-1.16,9.58,0,1.2,0,2.4,0,3.6-1.56,3,.4,6.51-1.15,9.55l0,3.61c-1.59,3,.38,6.52-1.16,9.58,0,1.19,0,2.39,0,3.59-1.59,3,.39,6.53-1.16,9.58,0,1.2,0,2.4,0,3.59-1.59,3.05.39,6.53-1.16,9.58,0,1.2,0,2.39,0,3.59-1.58,3,.39,6.53-1.16,9.58l0,3.59c-1.58,3.05.39,6.53-1.15,9.58l-.05,3.59c-1.57,3.06.39,6.53-1.15,9.59,0,1.2,0,2.39,0,3.59-1.57,3,.39,6.52-1.14,9.58,0,1.19,0,2.39-.05,3.59-1.57,3.05.39,6.52-1.15,9.58,0,1.19,0,2.39,0,3.59-1.57,3,.39,6.52-1.15,9.58l0,3.58c-1.58,3,.39,6.52-1.16,9.58,0,1.2,0,2.4-.05,3.6-1.56,3,.4,6.48-1.15,9.51l0,3.64c-1.54,2.64.35,5.76-1.15,8.41l-.06,3.58c-1.55,3,.4,6.53-1.14,9.58,0,1.19,0,2.39,0,3.58-1.58,3,.38,6.52-1.15,9.57,0,1.2,0,2.4-.05,3.59-1.58,3,.39,6.5-1.16,9.54,0,1.21,0,2.42,0,3.62-1.53,2.65.35,5.76-1.15,8.41,0,1.2,0,2.39,0,3.59-1.56,3,.39,6.52-1.15,9.58l-.06,3.6c-1.54,3,.41,6.48-1.14,9.52,0,1.21,0,2.41,0,3.62-1.58,3,.39,6.5-1.16,9.53l0,3.62c-1.6,3,.39,6.49-1.16,9.53l0,2.48c-1.56,3,.39,6.52-1.15,9.57l-.06,3.6c-1.54,3,.41,6.49-1.14,9.52,0,1.21,0,2.42,0,3.63-1.57,3,.39,6.49-1.16,9.52,0,.83,0,1.67-.07,2.5-1.43,2.19.35,4.9-1.15,7.07-46.23,13.36-92.38,27-138.72,40-34.12,9.52-68.49,18.15-102.78,27-13.21,3.42-26.52,6.44-39.78,9.64-2.62,0-1.68-2.07-1.78-3.36-.38-4.45.6-8.95-.6-13.36l-.06-15.6c-1.27-11.62-.25-23.26-.56-34.89-.08-3,0-5.93,0-8.9-.33-7.73.68-15.5-.56-23.21V993.83c1.28-11.84.22-23.72.55-35.57.08-3,0-6,0-8.93V687.73c0-14.5,0-29,0-43.51,0-2,.49-4-.53-5.85V487.43c1.27-5.71.22-11.5.57-17.25v-37.5c.33-4.87-.69-9.8.55-14.64q0-6.62.08-13.23c1.22-6.31.65-12.69.43-19-.15-4.63,1.43-5.57,5.77-5.55,46.59.15,93.18.09,139.78.09h196.7c7.73,0,7.73,0,7.43,7.85a4.46,4.46,0,0,1-.58,2.27l0,6c-1.57,3.47.36,7.31-1.16,10.78l-.06,3.63c-1.57,3.46.42,7.3-1.14,10.77,0,1.58,0,3.16,0,4.75C885.94,429.9,887.88,433.75,886.35,437.22Z" transform="translate(-54.67 -85.08)"/><path class="cls-3" d="M502.17,781v280.12c0,8.71,0,8.6-8.63,6.5-58.86-14.35-116.83-31.93-175.26-47.86-19.54-5.32-39.13-10.46-58.79-15.29-4.58-1.13-5.94-3.54-6.36-7.67-3.06-30-2.68-60.12-2.41-90.22,0-3.73.49-5.19,5.09-4.2,43.89,9.5,86.84,22.5,130,34.6,9.55,2.68,19.19,5.08,28.64,8.09,4.23,1.35,5.07.37,5-3.76-.14-18.35,0-36.71,0-55.06q.06-165.79.16-331.6c0-19.54.76-39.08.91-58.62,0-4,1.38-5.16,5.22-4.93,23.9,1.37,47.85,1.18,71.78,1.28,4.69,0,5.56,1.94,5.52,6.13q-.54,60.15-.75,120.29c-.12,54.07,0,108.14,0,162.2Z" transform="translate(-54.67 -85.08)"/><path class="cls-4" d="M686.4,380.91c-46,0-92,.11-138-.11-5.59,0-7.12,1.6-7,7,.16,5.63,1.36,11.45-1,17,0-6.59.18-13.18-.13-19.75-.2-4.24,1.34-5.43,5.48-5.41,25.13.16,50.27.07,75.41.08l65.23.08c.4.24.53.49.4.73S686.53,380.91,686.4,380.91Z" transform="translate(-54.67 -85.08)"/><path class="cls-5" d="M686.4,380.91c0-.37,0-.74,0-1.1H846.85c.38.24.51.49.38.73s-.25.37-.38.37Z" transform="translate(-54.67 -85.08)"/><path class="cls-6" d="M540.34,841.85V949.57c-.37.57-.73.54-1.1,0V841.85C539.61,841.3,540,841.3,540.34,841.85Z" transform="translate(-54.67 -85.08)"/><path class="cls-7" d="M540.34,687.42v98.14c-.37.55-.73.55-1.1,0V687.42C539.61,686.86,540,686.86,540.34,687.42Z" transform="translate(-54.67 -85.08)"/><path class="cls-8" d="M539.24,785.56c.37,0,.73,0,1.1,0v56.29h-1.1Z" transform="translate(-54.67 -85.08)"/><path class="cls-9" d="M846.85,380.91c0-.37,0-.74,0-1.1l36.4-.08c8.67,0,9.86,1.92,6.69,10.74-.2-10.69,1.53-9.46-9.35-9.52C869.34,380.89,858.1,380.92,846.85,380.91Z" transform="translate(-54.67 -85.08)"/><path class="cls-8" d="M540.34,687.42h-1.1q0-24.52,0-49c1.77,1.59,1.1,3.7,1.1,5.6C540.37,658.45,540.34,672.94,540.34,687.42Z" transform="translate(-54.67 -85.08)"/><path class="cls-10" d="M539.24,949.57h1.1c0,12.89,0,25.78,0,38.67,0,1.9.66,4-1.11,5.6Q539.22,971.7,539.24,949.57Z" transform="translate(-54.67 -85.08)"/><path class="cls-11" d="M540.33,1136.36q0,22.14,0,44.29c-1.59-1.4-1.12-3.3-1.13-5q0-19.65,0-39.28C539.6,1135.8,540,1135.8,540.33,1136.36Z" transform="translate(-54.67 -85.08)"/><path class="cls-12" d="M540.33,432.41V470.7c-.36.54-.72.57-1.09,0V432.44C539.58,431.87,540,431.86,540.33,432.41Z" transform="translate(-54.67 -85.08)"/><path class="cls-13" d="M540.33,1136.36c-.36,0-.73,0-1.1,0q0-11.36,0-22.7C541.67,1121.12,539.75,1128.8,540.33,1136.36Z" transform="translate(-54.67 -85.08)"/><path class="cls-14" d="M540.41,1196.25c2.32,3.15.64,6.76,1.15,10.13.33,2.21-.86,4.7,1.23,6.59-2.84,1.85-2.37-.71-2.39-2C540.3,1206.09,540.39,1201.17,540.41,1196.25Z" transform="translate(-54.67 -85.08)"/><path class="cls-8" d="M539.24,470.71h1.09c-.51,5.57,1.27,11.29-1.12,16.73Z" transform="translate(-54.67 -85.08)"/><path class="cls-15" d="M540.33,432.41l-1.1,0c.41-4.79-1.24-9.74,1.1-14.39Z" transform="translate(-54.67 -85.08)"/><path class="cls-16" d="M882.76,481.53c.49-3.58-1.19-7.39,1.15-10.77C883.51,474.35,885.1,478.15,882.76,481.53Z" transform="translate(-54.67 -85.08)"/><path class="cls-16" d="M881.57,495.9c.48-3.57-1.2-7.38,1.14-10.77C882.32,488.72,883.9,492.52,881.57,495.9Z" transform="translate(-54.67 -85.08)"/><path class="cls-17" d="M880.37,510.27c.48-3.58-1.19-7.39,1.14-10.77C881.12,503.09,882.7,506.89,880.37,510.27Z" transform="translate(-54.67 -85.08)"/><path class="cls-16" d="M879.17,524.64c.49-3.58-1.19-7.39,1.14-10.77C879.93,517.46,881.51,521.26,879.17,524.64Z" transform="translate(-54.67 -85.08)"/><path class="cls-18" d="M876.77,554.49c.51-3.56-1.21-7.37,1.17-10.73C877.52,547.33,879.1,551.12,876.77,554.49Z" transform="translate(-54.67 -85.08)"/><path class="cls-18" d="M875.57,568.87c.51-3.57-1.21-7.38,1.17-10.75C876.33,561.7,877.91,565.5,875.57,568.87Z" transform="translate(-54.67 -85.08)"/><path class="cls-19" d="M873.18,596.44c.49-3.57-1.19-7.38,1.16-10.75C873.94,589.27,875.52,593.06,873.18,596.44Z" transform="translate(-54.67 -85.08)"/><path class="cls-20" d="M872,610.76c.51-3.56-1.2-7.35,1.16-10.71C872.74,603.62,874.32,607.4,872,610.76Z" transform="translate(-54.67 -85.08)"/><path class="cls-19" d="M869.59,638.34c.49-3.57-1.19-7.38,1.15-10.75C870.35,631.17,871.93,635,869.59,638.34Z" transform="translate(-54.67 -85.08)"/><path class="cls-21" d="M868.39,652.65c.52-3.55-1.19-7.34,1.15-10.69C869.14,645.52,870.72,649.3,868.39,652.65Z" transform="translate(-54.67 -85.08)"/><path class="cls-20" d="M866,680.21c.5-3.56-1.2-7.36,1.15-10.71C866.75,673.07,868.33,676.85,866,680.21Z" transform="translate(-54.67 -85.08)"/><path class="cls-22" d="M863.6,707.72c.51-3.56-1.2-7.35,1.16-10.71C864.35,700.58,865.94,704.36,863.6,707.72Z" transform="translate(-54.67 -85.08)"/><path class="cls-23" d="M862.4,720.92c.51-3.56-1.19-7.35,1.15-10.71C863.17,713.78,864.74,717.56,862.4,720.92Z" transform="translate(-54.67 -85.08)"/><path class="cls-23" d="M858.81,761.63c.51-3.56-1.19-7.35,1.15-10.71C859.57,754.49,861.15,758.27,858.81,761.63Z" transform="translate(-54.67 -85.08)"/><path class="cls-24" d="M888.75,407.29c.49-3.58-1.21-7.4,1.16-10.78C889.5,400.1,891.08,403.91,888.75,407.29Z" transform="translate(-54.67 -85.08)"/><path class="cls-25" d="M887.55,421.69c.5-3.58-1.19-7.39,1.14-10.77C888.3,414.51,889.87,418.3,887.55,421.69Z" transform="translate(-54.67 -85.08)"/><path class="cls-24" d="M886.35,437.22c.49-3.58-1.2-7.4,1.16-10.78C887.1,430,888.69,433.84,886.35,437.22Z" transform="translate(-54.67 -85.08)"/><path class="cls-26" d="M885.16,451.61c.49-3.58-1.2-7.38,1.14-10.76C885.91,444.44,887.48,448.23,885.16,451.61Z" transform="translate(-54.67 -85.08)"/><path class="cls-24" d="M884,467.15c.49-3.59-1.21-7.4,1.16-10.78C884.7,460,886.3,463.76,884,467.15Z" transform="translate(-54.67 -85.08)"/><path class="cls-27" d="M857.62,774.82c.49-3.19-1.2-6.64,1.17-9.59C858.37,768.42,860,771.86,857.62,774.82Z" transform="translate(-54.67 -85.08)"/><path class="cls-28" d="M856.43,788c.48-3.18-1.2-6.62,1.16-9.58C857.17,781.59,858.76,785,856.43,788Z" transform="translate(-54.67 -85.08)"/><path class="cls-16" d="M878,539c.49-3.2-1.2-6.65,1.16-9.62C878.72,532.59,880.3,536,878,539Z" transform="translate(-54.67 -85.08)"/><path class="cls-29" d="M855.22,801.14c.51-3.17-1.19-6.6,1.16-9.55C856,794.77,857.54,798.19,855.22,801.14Z" transform="translate(-54.67 -85.08)"/><path class="cls-30" d="M854,814.33c.5-3.18-1.2-6.63,1.16-9.58C854.78,807.94,856.36,811.37,854,814.33Z" transform="translate(-54.67 -85.08)"/><path class="cls-31" d="M852.83,827.48c.5-3.17-1.19-6.6,1.15-9.55C853.58,821.11,855.15,824.53,852.83,827.48Z" transform="translate(-54.67 -85.08)"/><path class="cls-32" d="M851.64,840.67c.49-3.18-1.2-6.63,1.16-9.58C852.39,834.28,854,837.71,851.64,840.67Z" transform="translate(-54.67 -85.08)"/><path class="cls-33" d="M874.38,582.1c.49-3.2-1.2-6.65,1.17-9.62C875.13,575.69,876.71,579.13,874.38,582.1Z" transform="translate(-54.67 -85.08)"/><path class="cls-17" d="M867.2,665.9c.48-3.19-1.2-6.65,1.16-9.61C868,659.49,869.53,662.93,867.2,665.9Z" transform="translate(-54.67 -85.08)"/><path class="cls-34" d="M850.44,853.84c.49-3.18-1.2-6.62,1.16-9.58C851.19,847.45,852.77,850.88,850.44,853.84Z" transform="translate(-54.67 -85.08)"/><path class="cls-32" d="M849.24,867c.5-3.18-1.19-6.62,1.16-9.58C850,860.62,851.58,864.05,849.24,867Z" transform="translate(-54.67 -85.08)"/><path class="cls-34" d="M848,880.18c.5-3.18-1.19-6.62,1.16-9.58C848.8,873.79,850.38,877.22,848,880.18Z" transform="translate(-54.67 -85.08)"/><path class="cls-34" d="M846.85,893.35c.49-3.18-1.2-6.62,1.15-9.58C847.6,887,849.18,890.39,846.85,893.35Z" transform="translate(-54.67 -85.08)"/><path class="cls-35" d="M861.21,734.13c.49-3.19-1.2-6.64,1.16-9.6C862,727.73,863.55,731.17,861.21,734.13Z" transform="translate(-54.67 -85.08)"/><path class="cls-22" d="M844.46,919.7c.48-3.18-1.2-6.63,1.14-9.58C845.2,913.31,846.79,916.74,844.46,919.7Z" transform="translate(-54.67 -85.08)"/><path class="cls-16" d="M843.26,932.87c.48-3.18-1.19-6.63,1.15-9.59C844,926.48,845.59,929.91,843.26,932.87Z" transform="translate(-54.67 -85.08)"/><path class="cls-16" d="M842.06,946c.49-3.18-1.19-6.62,1.15-9.58C842.81,939.65,844.39,943.08,842.06,946Z" transform="translate(-54.67 -85.08)"/><path class="cls-17" d="M870.79,624c.48-3.19-1.2-6.65,1.16-9.61C871.54,617.59,873.12,621,870.79,624Z" transform="translate(-54.67 -85.08)"/><path class="cls-19" d="M840.86,959.2c.49-3.18-1.19-6.63,1.16-9.58C841.61,952.81,843.2,956.24,840.86,959.2Z" transform="translate(-54.67 -85.08)"/><path class="cls-36" d="M839.66,972.31c.51-3.15-1.18-6.58,1.15-9.51C840.41,966,842,969.37,839.66,972.31Z" transform="translate(-54.67 -85.08)"/><path class="cls-17" d="M837.27,997.52c.49-3.18-1.18-6.62,1.15-9.58C838,991.13,839.6,994.56,837.27,997.52Z" transform="translate(-54.67 -85.08)"/><path class="cls-32" d="M836.08,1010.67c.48-3.18-1.2-6.61,1.15-9.57C836.82,1004.29,838.41,1007.72,836.08,1010.67Z" transform="translate(-54.67 -85.08)"/><path class="cls-37" d="M834.87,1023.8c.51-3.16-1.19-6.59,1.16-9.54C835.63,1017.44,837.2,1020.86,834.87,1023.8Z" transform="translate(-54.67 -85.08)"/><path class="cls-22" d="M845.65,906.53c.49-3.18-1.19-6.63,1.15-9.59C846.4,900.14,848,903.57,845.65,906.53Z" transform="translate(-54.67 -85.08)"/><path class="cls-17" d="M832.48,1049c.49-3.19-1.18-6.62,1.15-9.58C833.23,1042.61,834.82,1046,832.48,1049Z" transform="translate(-54.67 -85.08)"/><path class="cls-38" d="M831.28,1062.12c.5-3.16-1.18-6.58,1.14-9.53C832,1055.77,833.6,1059.18,831.28,1062.12Z" transform="translate(-54.67 -85.08)"/><path class="cls-37" d="M830.08,1075.27c.51-3.16-1.19-6.59,1.16-9.53C830.83,1068.91,832.41,1072.33,830.08,1075.27Z" transform="translate(-54.67 -85.08)"/><path class="cls-39" d="M828.89,1088.42c.49-3.17-1.2-6.6,1.16-9.53C829.62,1082.06,831.22,1085.48,828.89,1088.42Z" transform="translate(-54.67 -85.08)"/><path class="cls-16" d="M827.69,1100.47c.49-3.18-1.18-6.62,1.15-9.57C828.45,1094.09,830,1097.51,827.69,1100.47Z" transform="translate(-54.67 -85.08)"/><path class="cls-38" d="M826.49,1113.59c.51-3.16-1.18-6.58,1.14-9.52C827.24,1107.24,828.81,1110.65,826.49,1113.59Z" transform="translate(-54.67 -85.08)"/><path class="cls-25" d="M860,747.31c.5-3.17-1.17-6.61,1.15-9.57C860.76,740.93,862.34,744.35,860,747.31Z" transform="translate(-54.67 -85.08)"/><path class="cls-40" d="M825.29,1126.74c.52-3.16-1.19-6.58,1.16-9.52C826,1120.39,827.6,1123.8,825.29,1126.74Z" transform="translate(-54.67 -85.08)"/><path class="cls-41" d="M864.8,693.39c.51-3.17-1.2-6.61,1.16-9.56C865.55,687,867.12,690.44,864.8,693.39Z" transform="translate(-54.67 -85.08)"/><path class="cls-26" d="M838.47,984.36c.43-2.8-1.11-5.87,1.15-8.41C839.26,978.75,840.7,981.81,838.47,984.36Z" transform="translate(-54.67 -85.08)"/><path class="cls-40" d="M833.68,1035.83c.43-2.79-1.1-5.86,1.15-8.41C834.47,1030.23,835.91,1033.28,833.68,1035.83Z" transform="translate(-54.67 -85.08)"/><path class="cls-42" d="M824.07,1136.31c.39-2.35-.92-5,1.15-7.07C824.9,1131.61,826.32,1134.26,824.07,1136.31Z" transform="translate(-54.67 -85.08)"/><path class="cls-43" d="M573.81,680.17c0-59.85.09-119.7-.15-179.54,0-6,1.36-7.55,7.45-7.67,87.77-1.67,175.54-.22,263.31-.75,3.6,0,4.67.74,4.31,4.71-2.72,30.56-5.59,61.09-8.88,91.59-.5,4.69-1.88,5.9-6.43,5.89-56.46-.14-112.91,0-169.37-.22-5.76,0-7.38,1.59-7.36,7.32q.25,69.72-.13,139.45c0,5.44,1.47,6.72,6.73,6.24,34.51-3.15,68.91-7.26,103.3-11.54,19-2.36,38-4,57-6.28,4.78-.55,5.76,1.12,5.37,5.55-1.89,21.24-3.54,42.49-5.24,63.74-1.5,18.67-2.93,37.34-4.41,56q-4,50.64-8.08,101.28c-1.16,14.3-2.86,28.56-3.59,42.87-.39,7.57-4.31,11.05-10.77,13.13-15.73,5.08-31.81,8.89-47.8,13-40.26,10.49-80.49,21.09-120.79,31.42-16.57,4.25-33.32,7.83-49.93,11.93-3.42.84-4.46.35-4.44-3.36.18-30.72-.41-61.43.85-92.14.17-4,2.12-4.77,5.33-5.6q67.9-17.65,135.76-35.53c7.12-1.87,14.18-4,21.35-5.66,3.17-.73,4.12-2.22,4.21-5.31.8-25.71,1.63-51.41,2.7-77.11.19-4.61-.91-5.89-5.63-5-52.69,9.51-105.42,18.77-158.1,28.33-5.69,1-6.71-.57-6.69-6C573.88,800.67,573.81,740.42,573.81,680.17Z" transform="translate(-54.67 -85.08)"/></g><g id="JavaScript"><path class="cls-44" d="M54.67,193.68l14-15.05c6.14,7.65,13.4,11.79,20.49,11.79,10.92,0,16.53-4.77,16.53-19.47V122.41H63.72V102H130v70.89c0,21-10.36,38.47-40.06,38.47C78,211.4,64,206.75,54.67,193.68Z" transform="translate(-54.67 -85.08)"/><path class="cls-44" d="M153.84,186.77c0-18.31,15.14-27.64,53.75-30-.85-7.3-6.36-11.77-17.33-11.77-7.88,0-15.71,3-24.91,7.65l-8.64-15.88c11.32-6.46,24.35-11.06,38.23-11.06,23,0,36.89,12,36.89,37v46.7H212l-1.75-9.21h-.61c-8.25,6.21-18.47,11.19-29,11.19C164.18,211.4,153.84,200.5,153.84,186.77Zm53.75-2V171.44c-24,1.2-30.5,6.41-30.5,13.39,0,5.25,4.44,7.81,11.28,7.81C195.65,192.64,201.81,189.31,207.59,184.82Z" transform="translate(-54.67 -85.08)"/><path class="cls-44" d="M247.72,127.71h24.34l12.86,38.52c2.66,8.19,4.91,16.57,7.35,25.14h.66c2.45-8.57,4.6-17,7.3-25.14l12.87-38.52h23.15l-29.94,81.71H278.52Z" transform="translate(-54.67 -85.08)"/><path class="cls-44" d="M351.49,186.77c0-18.31,15.13-27.64,53.74-30-.85-7.3-6.36-11.77-17.33-11.77-7.88,0-15.71,3-24.91,7.65l-8.64-15.88c11.33-6.46,24.36-11.06,38.24-11.06,23,0,36.89,12,36.89,37v46.7H409.67l-1.74-9.21h-.62c-8.25,6.21-18.47,11.19-29,11.19C361.82,211.4,351.49,200.5,351.49,186.77Zm53.74-2V171.44c-24,1.2-30.49,6.41-30.49,13.39,0,5.25,4.43,7.81,11.28,7.81C393.29,192.64,399.45,189.31,405.23,184.82Z" transform="translate(-54.67 -85.08)"/><path class="cls-44" d="M448.52,195.9l13.94-16.69c8.12,6.65,18.13,11.21,28.54,11.21s15.07-4,15.07-9.24c0-7.73-6.38-9.6-16.54-13.85l-14-6c-11.9-4.52-22.75-13.64-22.75-29.26,0-17.78,16-32,39.33-32a52,52,0,0,1,35.65,14.06l-12.24,15.31c-7.56-5.43-14.25-8.39-24.74-8.39-8,0-13.43,3.32-13.43,9.59,0,6.45,7.2,8.82,17.49,12.68L508,148.92c14.06,5.27,22.94,14,22.94,29.18,0,17.84-15,33.3-41.54,33.3A61.86,61.86,0,0,1,448.52,195.9Z" transform="translate(-54.67 -85.08)"/><path class="cls-44" d="M550.08,168.61c0-27.2,22.09-42.88,47.25-42.88,12.89,0,23.75,4.56,30.58,11.1l-11.15,15c-6.23-4.53-12-6.56-18.1-6.56-14,0-23.77,9.14-23.77,23.31s9.55,23.22,23,23.22c8.58,0,15.62-3.73,21.5-7.79l9.78,15.31a53.08,53.08,0,0,1-33.57,12.05C569.81,211.4,550.08,195.72,550.08,168.61Z" transform="translate(-54.67 -85.08)"/><path class="cls-44" d="M656.87,127.71h19.92l1.92,17.87h.56c8.05-13.37,20.09-19.85,33.13-19.85a33.65,33.65,0,0,1,15.69,3.3l-4.91,20.37a42.27,42.27,0,0,0-14.47-2.4c-10.12,0-20.53,5.26-27.59,19.92v42.5H656.87Z" transform="translate(-54.67 -85.08)"/><path class="cls-44" d="M782.51,146.71h-32.9v-19h57.14v81.71H782.51Zm-5.08-46.58c0-8.87,6.75-15,16.1-15s16.1,6.18,16.1,15S802.88,115,793.53,115,777.43,109.05,777.43,100.13Z" transform="translate(-54.67 -85.08)"/><path class="cls-44" d="M847.38,127.71h19.75l1.75,8.31h.62c6.58-6,15.57-10.29,24.34-10.29,20.39,0,32.75,16.34,32.75,41.56,0,28-17.13,44.11-35.45,44.11-7.18,0-14.26-3.2-20.08-8.83h-.57l1.14,13.25v23.92H847.38Zm54.39,39.82c0-14.65-4.8-21.95-15.07-21.95-5.19,0-10,2.2-15.07,7.58v33a21.19,21.19,0,0,0,14,5.42C894.56,191.55,901.77,184.44,901.77,167.53Z" transform="translate(-54.67 -85.08)"/><path class="cls-44" d="M963,175.56V146.71H942.44V128.65l21.68-.94,3.12-25h20v25h34.44v19H987.28v28.54c0,12.43,5.25,17.1,17.17,17.1a48.08,48.08,0,0,0,16.13-2.91L1025,207c-7.25,2.16-15.82,4.42-26.7,4.42C972.27,211.4,963,197,963,175.56Z" transform="translate(-54.67 -85.08)"/></g></svg>