<svg id="Capa_7" data-name="Capa 7" xmlns="http://www.w3.org/2000/svg" viewBox="0 0 1355.81 1339.63"><defs><style>.cls-1{fill:#0022fe;}.cls-2{fill:#00fea6;}.cls-3{fill:#fd4900;}.cls-4{fill:#c100fe;}.cls-5{fill:#fe2700;}.cls-6{fill:#fed800;}.cls-7{fill:#fe3300;}.cls-8{fill:#fe1600;}.cls-9{fill:#fcfd00;}.cls-10{fill:#fec700;}.cls-11{fill:#fef300;}.cls-12{fill:#eefe00;}.cls-13{fill:#fe0021;}.cls-14{fill:#fee900;}.cls-15{fill:#feab00;}.cls-16{fill:#fe7700;}.cls-17{fill:#fe0e00;}.cls-18{fill:#fe6700;}.cls-19{fill:#fe9a00;}.cls-20{fill:#febf00;}.cls-21{fill:#fe0032;}.cls-22{fill:#fe7f00;}.cls-23{fill:#b1fe00;}.cls-24{fill:#0afe00;}.cls-25{fill:#fe0069;}.cls-26{fill:#fe0071;}.cls-27{fill:#fe5200;}.cls-28{fill:#fe008f;}.cls-29{fill:#fe0010;}.cls-30{fill:#fe1f00;}.cls-31{fill:#59fe00;}.cls-32{fill:#fe004a;}.cls-33{fill:#c1fe00;}.cls-34{fill:#fe00a3;}.cls-35{fill:#fe0086;}.cls-36{fill:#73fe00;}.cls-37{fill:#fea100;}.cls-38{fill:#feb300;}.cls-39{fill:#a9fe00;}.cls-40{fill:#fed000;}.cls-41{fill:#fee000;}.cls-42{fill:#fe0054;}.cls-43{fill:#fe0043;}.cls-44{fill:#8bfe00;}.cls-45{fill:#fe0039;}.cls-46{fill:#fe0018;}.cls-47{fill:#e0fe00;}.cls-48{fill:#00fe3e;}.cls-49{fill:#69fe00;}.cls-50{fill:#fe009b;}.cls-51{fill:#fe00e3;}.cls-52{fill:#fe0201;}.cls-53{fill:#fe0007;}.cls-54{fill:#84fe00;}.cls-55{fill:#fe0029;}.cls-56{fill:#fe6f00;}.cls-57{fill:#fe005c;}.cls-58{fill:#51fe00;}.cls-59{fill:#00fe02;}.cls-60{fill:#48fe00;}.cls-61{fill:#b8fe00;}.cls-62{fill:#f5fe00;}.cls-63{fill:#a1fe00;}.cls-64{fill:#00fe6d;}.cls-65{fill:#33fe00;}.cls-66{fill:#e200fe;}.cls-67{fill:#94fe00;}.cls-68{fill:#cffe00;}.cls-69{fill:#7bfe00;}.cls-70{fill:#fe00b8;}.cls-71{fill:#fe007e;}.cls-72{fill:#fe5e00;}.cls-73{fill:#00fe48;}.cls-74{fill:#00fe50;}.cls-75{fill:#00fe5d;}.cls-76{fill:#00fe75;}.cls-77{fill:#fe00c1;}.cls-78{fill:#00fe65;}.cls-79{fill:#fe00d9;}.cls-80{fill:#61fe00;}.cls-81{fill:#00fe90;}.cls-82{fill:#00feb2;}.cls-83{fill:#fe8d00;}.cls-84{fill:#fe00b0;}.cls-85{fill:#9b00fe;}.cls-86{fill:#fe00f5;}.cls-87{fill:#f700fe;}.cls-88{fill:#00fe29;}.cls-89{fill:#00fe11;}.cls-90{fill:#ab00fe;}.cls-91{fill:#1efe00;}.cls-92{fill:#00fe87;}.cls-93{fill:#00fe7f;}.cls-94{fill:#0099fe;}.cls-95{fill:#fe00d2;}.cls-96{fill:#00fec6;}.cls-97{fill:#00a2fe;}.cls-98{fill:#da00fe;}.cls-99{fill:#8200fe;}.cls-100{fill:#d100fe;}.cls-101{fill:#fe00ca;}.cls-102{fill:#00fe1e;}.cls-103{fill:#00fe08;}.cls-104{fill:#00feba;}.cls-105{fill:#7000fe;}.cls-106{fill:#00fe98;}.cls-107{fill:#00fee8;}.cls-108{fill:#0039fe;}.cls-109{fill:#1800fe;}.cls-110{fill:#5700fe;}.cls-111{fill:#00fe37;}.cls-112{fill:#c900fd;}.cls-113{fill:#b800fe;}.cls-114{fill:#00fece;}.cls-115{fill:#eb00fe;}.cls-116{fill:#fe00eb;}.cls-117{fill:#00fdfc;}.cls-118{fill:#4500fe;}.cls-119{fill:#fe00fc;}.cls-120{fill:#00fef0;}.cls-121{fill:#12fe00;}.cls-122{fill:#3cfe00;}.cls-123{fill:#2bfe00;}.cls-124{fill:#00fedf;}.cls-125{fill:#00b7fe;}.cls-126{fill:#00c4fe;}.cls-127{fill:#0092fe;}.cls-128{fill:#9300fe;}.cls-129{fill:#2000fe;}.cls-130{fill:#0028fe;}.cls-131{fill:#0088fe;}.cls-132{fill:#00eefe;}.cls-133{fill:#00fed7;}.cls-134{fill:#0073fe;}.cls-135{fill:#4f00fe;}.cls-136{fill:#fe4100;}.cls-137{fill:#6700fe;}.cls-138{fill:#00d5fe;}.cls-139{fill:#0030fe;}.cls-140{fill:#005afe;}.cls-141{fill:#8a00fe;}.cls-142{fill:#2900fe;}.cls-143{fill:#00abfe;}.cls-144{fill:#006bfe;}.cls-145{fill:#0062fe;}.cls-146{fill:#0b00fe;}.cls-147{fill:#00f7fe;}.cls-148{fill:#00ccfe;}.cls-149{fill:#0041fe;}.cls-150{fill:#00e1fe;}.cls-151{fill:#3100fe;}.cls-152{fill:#a300fe;}.cls-153{fill:#5f00fe;}.cls-154{fill:#004efe;}.cls-155{fill:#007cfe;}.cls-156{fill:#3e00fe;}.cls-157{fill:#7900fe;}.cls-158{fill:#0400fe;}.cls-159{fill:#00fe9f;}.cls-160{fill:#c9fe00;}.cls-161{fill:#9afe00;}.cls-162{fill:#fe9200;}.cls-163{fill:#feb800;}.cls-164{fill:#d5fe00;}.cls-165{fill:#e6fe00;}.cls-166{fill:#fe0700;}.cls-167{fill:#fe5800;}.cls-168{fill:#fe2e00;}.cls-169{fill:#fe0078;}.cls-170{fill:#fe8700;}.cls-171{fill:#dafe00;}.cls-172{fill:#00fe17;}.cls-173{fill:#18fe00;}.cls-174{fill:#fe0062;}.cls-175{fill:#00fe30;}.cls-176{fill:#24fe00;}.cls-177{fill:#00fe24;}.cls-178{fill:#fe00aa;}.cls-179{fill:#f100fe;}.cls-180{fill:#0082fe;}.cls-181{fill:#fe0094;}.cls-182{fill:#b100fe;}.cls-183{fill:#00bdfe;}.cls-184{fill:#00dbfe;}.cls-185{fill:#00fec0;}.cls-186{fill:#3800fe;}.cls-187{fill:#00fe57;}.cls-188{fill:#00fef7;}.cls-189{fill:#00b1fe;}.cls-190{fill:#fef800;}.cls-191{fill:#0048fe;}.cls-192{fill:#00e8fe;}.cls-193{fill:#42fe00;}.cls-194{fill:#fe3a00;}.cls-195{fill:#0054fe;}.cls-196{fill:#1100fe;}.cls-197{fill:#383838;}.cls-198{fill:#009ad7;}.cls-199{fill:#fbfe7c;}.cls-200{fill:#fe3044;}.cls-201{fill:#fbfe83;}.cls-202{fill:#fbfe8a;}.cls-203{fill:#fbfe91;}.cls-204{fill:#fcfe9a;}.cls-205{fill:#fcfea1;}.cls-206{fill:#fcfe95;}.cls-207{fill:#fcfeac;}.cls-208{fill:#fe3649;}.cls-209{fill:#fcfeb2;}.cls-210{fill:#fe6675;}.cls-211{fill:#fe3b4d;}.cls-212{fill:#fe4557;}.cls-213{fill:#fe6c7a;}.cls-214{fill:#fe495b;}.cls-215{fill:#079dd8;}.cls-216{fill:#fdfec2;}.cls-217{fill:#fe5969;}.cls-218{fill:#40b4e1;}.cls-219{fill:#fcfeb7;}.cls-220{fill:#fcfea6;}.cls-221{fill:#fe6170;}.cls-222{fill:#fe97a1;}.cls-223{fill:#fcfea7;}.cls-224{fill:#48b7e2;}.cls-225{fill:#fdfed2;}.cls-226{fill:#fe5e6d;}.cls-227{fill:#fdfebd;}.cls-228{fill:#fe919c;}.cls-229{fill:#fdfec7;}.cls-230{fill:#fdfed8;}.cls-231{fill:#fe9da6;}.cls-232{fill:#fe3f52;}.cls-233{fill:#fcfeba;}.cls-234{fill:#fe5464;}.cls-235{fill:#fe4e5f;}.cls-236{fill:#fdfecd;}.cls-237{fill:#0da0d9;}.cls-238{fill:#6fc6e8;}.cls-239{fill:#32aedf;}.cls-240{fill:#fdfede;}.cls-241{fill:#76c9e9;}.cls-242{fill:#61c1e6;}.cls-243{fill:#39b1e0;}.cls-244{fill:#fe4053;}.cls-245{fill:#fdfee4;}.cls-246{fill:#fea7af;}.cls-247{fill:#feacb4;}.cls-248{fill:#fe5565;}.cls-249{fill:#febcc2;}.cls-250{fill:#88d0ec;}.cls-251{fill:#fe717f;}.cls-252{fill:#9cd7ef;}.cls-253{fill:#fe7582;}.cls-254{fill:#95d5ee;}.cls-255{fill:#fe838f;}.cls-256{fill:#fe7c88;}.cls-257{fill:#fefeeb;}.cls-258{fill:#feb1b8;}.cls-259{fill:#fdfeca;}.cls-260{fill:#26a9dd;}.cls-261{fill:#15a3da;}.cls-262{fill:#7ccbea;}.cls-263{fill:#fec1c7;}.cls-264{fill:#fe7e8b;}.cls-265{fill:#27aadd;}.cls-266{fill:#37b0e0;}.cls-267{fill:#1aa4db;}.cls-268{fill:#fe8d98;}.cls-269{fill:#13a2da;}.cls-270{fill:#68c3e7;}.cls-271{fill:#5bbee5;}.cls-272{fill:#a3daf0;}.cls-273{fill:#20a7dc;}.cls-274{fill:#55bce4;}.cls-275{fill:#fec6cc;}.cls-276{fill:#2dacde;}.cls-277{fill:#fe7986;}.cls-278{fill:#fe8b97;}.cls-279{fill:#1ba5db;}.cls-280{fill:#fecbd0;}.cls-281{fill:#fe818d;}.cls-282{fill:#fea1aa;}.cls-283{fill:#fe8793;}.cls-284{fill:#82cdeb;}.cls-285{fill:#fea2ab;}.cls-286{fill:#4eb9e3;}.cls-287{fill:#fe7784;}.cls-288{fill:#2cacde;}.cls-289{fill:#0fa0d9;}.cls-290{fill:#bee5f4;}.cls-291{fill:#fed0d4;}.cls-292{fill:#b7e2f3;}.cls-293{fill:#fed5d9;}.cls-294{fill:#cbeaf6;}.cls-295{fill:#feb6bd;}.cls-296{fill:#67c3e7;}.cls-297{fill:#e1f3fa;}.cls-298{fill:#fefef3;}.cls-299{fill:#fedfe2;}.cls-300{fill:#c5e8f5;}.cls-301{fill:#feb5bc;}.cls-302{fill:#5abee5;}.cls-303{fill:#aedff2;}.cls-304{fill:#fee6e9;}.cls-305{fill:#d2edf7;}.cls-306{fill:#80cdeb;}.cls-307{fill:#b2e0f2;}.cls-308{fill:#d8eff8;}.cls-309{fill:#ebf7fb;}.cls-310{fill:#8fd2ed;}.cls-311{fill:#a9ddf1;}.cls-312{fill:#feecee;}.cls-313{fill:#a8dcf1;}.cls-314{fill:#fedade;}.cls-315{fill:#fef3f4;}.cls-316{fill:#fedadd;}.cls-317{fill:#fdfdf9;}.cls-318{fill:#fbf8f8;}.cls-319{fill:#14a2da;}.cls-320{fill:#f4fafc;}</style></defs><g id="Capa_15" data-name="Capa 15"><path class="cls-1" d="M450.07,507.63a77.47,77.47,0,0,1,8.41,6.81,16.39,16.39,0,0,1-2.56,3.24c-.89-.3-1.39-1.1-2.06-1.66-1.88-1.57-3.79-3.11-5.76-4.56-.32-.23-.7-.39-.82-.82a10.91,10.91,0,0,1,2.22-2.92A.43.43,0,0,1,450.07,507.63Z"/><path class="cls-2" d="M343.15,510.47c1.15-.94,2.32-1.85,3.55-2.67.49-.05.58.38.76.66.56.88,1.05,1.8,1.66,2.66a.41.41,0,0,1-.22.39,19.11,19.11,0,0,1-3,2.12c-.47,0-.66-.34-.9-.65A30,30,0,0,0,343.15,510.47Z"/><path class="cls-3" d="M401.6,668.57a21.64,21.64,0,0,1-3.86.11.59.59,0,0,0-.23,0c-1.33,0-1.33,0-1.25-1.41,0-.45.14-.89.14-1.34s.17-1.07-.52-1.3c-.1,0-.05-.19.05-.25a13.51,13.51,0,0,1,3.36-.15,4.19,4.19,0,0,1,1.86.15c-.06.38-.06.44-.44.45-.72,0-.88.4-.83,1a9.15,9.15,0,0,1-.12,1.57c-.09.79,0,.91.81.95C400.93,668.33,401.31,668.25,401.6,668.57Z"/><path class="cls-4" d="M487.16,575.81a25.61,25.61,0,0,1,.12,3.16,10.32,10.32,0,0,1-3,0c-.58-.07-.83.11-.81.7s0,1.36,0,2.05c-.07.33.17.82-.44.86a1.28,1.28,0,0,1-.19-.83c0-1.68,0-3.37,0-5a1.44,1.44,0,0,1,.2-.91c.93-.45,1.92-.16,2.88-.22A1.65,1.65,0,0,1,487.16,575.81Z"/><path class="cls-5" d="M411.87,667.63a20.06,20.06,0,0,1-3.19.43c0-.09,0,0,0-.06a12.51,12.51,0,0,1-.2-4.18,4.57,4.57,0,0,1,3-.43c.52.44.34,1.07.41,1.62A6.6,6.6,0,0,1,411.87,667.63Z"/><path class="cls-6" d="M349.71,654.07l-2.54-1.74c-.07-.09-.11-.2,0-.28a18.63,18.63,0,0,1,2.59-3.08,5.64,5.64,0,0,1,2.57,1.63c-.07.67-.62,1.07-1,1.57A7,7,0,0,1,349.71,654.07Z"/><path class="cls-7" d="M407.26,668.21a12.23,12.23,0,0,1-2.63.2c-.46.17-.74,0-.75-.49a13.56,13.56,0,0,1,.09-3.6.55.55,0,0,1,.35-.29,5.89,5.89,0,0,1,2.83-.11,1.7,1.7,0,0,1,.19,1.06c0,.86,0,1.72.07,2.57A.78.78,0,0,1,407.26,668.21Z"/><path class="cls-8" d="M417.89,666.51a19.47,19.47,0,0,1-3,.61.59.59,0,0,1-.26-.46,17.93,17.93,0,0,1-.36-3.65,4.22,4.22,0,0,1,3-.7c.57.77.42,1.72.6,2.58A2.07,2.07,0,0,1,417.89,666.51Z"/><path class="cls-9" d="M338.59,645.41l-2.18-2.08c.11-.44.48-.68.78-1,.56-.52,1.16-1,1.69-1.53a.87.87,0,0,1,.84-.33,4.87,4.87,0,0,1,2,2A6.85,6.85,0,0,1,338.59,645.41Z"/><path class="cls-10" d="M355,657.26l-2.7-1.59c-.07-.23.09-.39.21-.56a31.3,31.3,0,0,1,2.18-3,5.61,5.61,0,0,1,2.59,1.47.74.74,0,0,1-.12.66l-1.61,2.58A.86.86,0,0,1,355,657.26Z"/><path class="cls-11" d="M342.07,648.43l-2.2-1.9a.32.32,0,0,1,.06-.36,22.74,22.74,0,0,1,2.82-2.73,5.44,5.44,0,0,1,2.33,2,1,1,0,0,1-.38.75c-.64.69-1.37,1.31-1.95,2.06C342.58,648.43,342.37,648.6,342.07,648.43Z"/><path class="cls-12" d="M334.3,641.19,332,638.74c.94-.71,1.84-1.47,2.79-2.16a1,1,0,0,1,.78-.3,6.09,6.09,0,0,1,2,2.15A12.18,12.18,0,0,1,334.3,641.19Z"/><path class="cls-13" d="M436.93,659.9l-2.88,1.33c-.43-.3-.46-.81-.62-1.24a11.66,11.66,0,0,1-.87-2.68,5.1,5.1,0,0,1,2.79-1.33,2.35,2.35,0,0,1,.75,1.35A7.46,7.46,0,0,1,436.93,659.9Z"/><path class="cls-14" d="M342.07,648.43c.36,0,.5-.31.71-.55.55-.62,1.16-1.21,1.74-1.81.2-.2.44-.37.45-.7a4.62,4.62,0,0,1,2.43,1.92c0,.42-.33.67-.57.92a10.86,10.86,0,0,1-2.19,2.25Z"/><path class="cls-15" d="M364.77,662l-2.85-1.26a.35.35,0,0,1,0-.44,32.48,32.48,0,0,1,1.93-3.39,5.41,5.41,0,0,1,2.79,1.27A12.47,12.47,0,0,1,364.77,662Z"/><path class="cls-16" d="M382.68,667.25l-3.17-.63a1.83,1.83,0,0,1,.16-1.43,10.56,10.56,0,0,1,1-2.73,5.84,5.84,0,0,1,2.93.61,2.67,2.67,0,0,1-.15,1.53A17.32,17.32,0,0,1,382.68,667.25Z"/><path class="cls-17" d="M417.89,666.51l-.64-4.14a5.18,5.18,0,0,1,3-.85,28.62,28.62,0,0,1,.83,4.18A18.54,18.54,0,0,1,417.89,666.51Z"/><path class="cls-18" d="M388.72,668.1a30.64,30.64,0,0,1-3.18-.37,7.33,7.33,0,0,1,.45-2.86c.11-.46,0-1,.53-1.35a4.77,4.77,0,0,1,2.86.38.73.73,0,0,1,.14.6c-.18,1.07-.34,2.14-.57,3.19A.8.8,0,0,1,388.72,668.1Z"/><path class="cls-19" d="M370.48,664.11l-2.86-1a.44.44,0,0,1,0-.51c.57-1.14.95-2.37,1.59-3.47a6.47,6.47,0,0,1,2.77.9.68.68,0,0,1,.11.73,31.78,31.78,0,0,1-1.2,3A.69.69,0,0,1,370.48,664.11Z"/><path class="cls-20" d="M355,657.26a24.55,24.55,0,0,0,2.21-3.59c.34-.17.61.05.86.2a7.58,7.58,0,0,1,1.89,1.18c.06.44-.25.74-.44,1.07a17.24,17.24,0,0,1-1.68,2.63A24.73,24.73,0,0,1,355,657.26Z"/><path class="cls-21" d="M442.29,657.11l-2.69,1.46a17.36,17.36,0,0,1-1.71-3.81,4.51,4.51,0,0,1,2.67-1.51,10.87,10.87,0,0,1,1.83,3.42A.43.43,0,0,1,442.29,657.11Z"/><path class="cls-22" d="M380.62,662.55l-1.11,4.07-3-.74a.45.45,0,0,1-.09-.37c.34-1.18.72-2.34,1.15-3.49a.52.52,0,0,1,.22-.22A4.83,4.83,0,0,1,380.62,662.55Z"/><path class="cls-23" d="M321.27,623.7,319.79,621a12.47,12.47,0,0,1,2.53-1.2c.43-.22.82-.58,1.37-.47a5.55,5.55,0,0,1,1.49,2.66,15.49,15.49,0,0,1-3.38,1.81A.57.57,0,0,1,321.27,623.7Z"/><path class="cls-24" d="M311.19,563.92a21.3,21.3,0,0,1,.63-3.18,36.68,36.68,0,0,1,3.69,1,.61.61,0,0,1,.36.29,5.22,5.22,0,0,1-.66,2.92,8.38,8.38,0,0,1-2.93-.52C311.88,564.38,311.43,564.35,311.19,563.92Z"/><path class="cls-25" d="M458.68,645.11a23,23,0,0,1-2.43,2.2,24.87,24.87,0,0,1-2.39-3,.63.63,0,0,1-.11-.46,5.49,5.49,0,0,1,2.34-2A18,18,0,0,1,458.68,645.11Z"/><path class="cls-26" d="M458.68,645.11a20.73,20.73,0,0,1-2.61-3.23,4.4,4.4,0,0,1,2.09-2.08,21,21,0,0,1,2.71,3c.05.06,0,.15,0,.22A17,17,0,0,1,458.68,645.11Z"/><path class="cls-27" d="M395.84,664.47c1.08,0,.78.76.79,1.36a2,2,0,0,1,0,.7,3.76,3.76,0,0,0-.1,1.63c.07.86.93.08,1.25.52-1.48.07-3-.12-4.43-.16a.56.56,0,0,1-.15-.51c.17-1.27.26-2.54.35-3.82A2.93,2.93,0,0,1,395.84,664.47Z"/><path class="cls-28" d="M468,635.12l-1.92,2.34a22.14,22.14,0,0,1-2.61-2.42,1.08,1.08,0,0,1-.37-.6,5.13,5.13,0,0,1,2-2.4c.84.73,1.63,1.53,2.49,2.24C467.87,634.49,468.2,634.7,468,635.12Z"/><path class="cls-29" d="M431.21,662.4a19.44,19.44,0,0,1-2.87,1.08.39.39,0,0,1-.24-.19,16.91,16.91,0,0,1-1-3.77,4.43,4.43,0,0,1,2.53-1.12.73.73,0,0,1,.66.48,20.56,20.56,0,0,1,1,3.06A.66.66,0,0,1,431.21,662.4Z"/><path class="cls-30" d="M414.38,663c.16,1.39.33,2.78.49,4.16a18.09,18.09,0,0,1-3,.51c-.11-1.16-.23-2.32-.33-3.48a1.74,1.74,0,0,0-.16-.68A4,4,0,0,1,414.38,663Z"/><path class="cls-31" d="M310.73,593.24c-.23-1.15-.35-2.31-.47-3.48a17.42,17.42,0,0,0,3.61,0,.86.86,0,0,1,.68.14,4.52,4.52,0,0,1,.32,3.09A9.81,9.81,0,0,1,310.73,593.24Z"/><path class="cls-32" d="M450.21,652l-2.53,1.75c-.8-.54-1-1.49-1.51-2.23a2.48,2.48,0,0,1-.66-1.39,6.45,6.45,0,0,1,2.48-1.81A11.08,11.08,0,0,1,450.21,652Z"/><path class="cls-33" d="M324.49,628.92l-1.63-2.53a17.79,17.79,0,0,1,3.69-2,5.4,5.4,0,0,1,1.78,2.66c-.94.72-2,1.21-3,1.83A.7.7,0,0,1,324.49,628.92Z"/><path class="cls-34" d="M472.59,628.78l-1.75,2.55a12.16,12.16,0,0,1-3.28-2.74,6.81,6.81,0,0,1,1.83-2.57c.95.7,1.91,1.39,2.82,2.15C472.4,628.33,472.69,628.44,472.59,628.78Z"/><path class="cls-35" d="M463.2,634.41a17.27,17.27,0,0,0,2.36,2.4c.22.19.49.31.51.65L464,639.8a17.08,17.08,0,0,1-2.52-2.58.93.93,0,0,1-.29-.7A5.55,5.55,0,0,1,463.2,634.41Z"/><path class="cls-36" d="M312.6,602.28l-.75-3a11.33,11.33,0,0,1,4.08-.69,4.59,4.59,0,0,1,.8,3.13c-1.13.35-2.3.5-3.46.74A.76.76,0,0,1,312.6,602.28Z"/><path class="cls-37" d="M369.21,659.22a25.35,25.35,0,0,1-1.46,3.54c-.05.12-.08.25-.13.37L364.77,662l1.76-3.83A3.8,3.8,0,0,1,369.21,659.22Z"/><path class="cls-38" d="M363.82,657c-.53,1-1.05,2-1.58,3a1.9,1.9,0,0,0-.32.71l-2.84-1.3a.42.42,0,0,1,0-.38,32.65,32.65,0,0,1,2-3.42A5.73,5.73,0,0,1,363.82,657Z"/><path class="cls-39" d="M323.69,619.4l-3.16,1.36a1.61,1.61,0,0,1-.74.23l-1.32-2.69a.58.58,0,0,1,.38-.37c.95-.4,1.91-.77,2.86-1.14a.94.94,0,0,1,.7,0A4.64,4.64,0,0,1,323.69,619.4Z"/><path class="cls-40" d="M354.63,652.2a29.2,29.2,0,0,1-2.38,3.47l-2.54-1.6c.84-1.13,1.69-2.26,2.53-3.4A3.86,3.86,0,0,1,354.63,652.2Z"/><path class="cls-41" d="M344.64,650.46l2.69-3.16s.1-.08.13-.06a4.85,4.85,0,0,1,2.28,1.74l-2.3,2.89c-.11.14-.26.26-.27.46Z"/><path class="cls-42" d="M450.21,652,448,648.47a5.25,5.25,0,0,1,2.39-1.85,18.28,18.28,0,0,1,2.21,3.09.42.42,0,0,1,0,.57Z"/><path class="cls-43" d="M445.62,650.15l2.06,3.64L445,655.52a7.22,7.22,0,0,1-1.18-2.09c-.29-.55-.77-1-.79-1.68A5.2,5.2,0,0,1,445.62,650.15Z"/><path class="cls-44" d="M315.43,611.17a24.65,24.65,0,0,1-1.08-3,24.46,24.46,0,0,1,3.67-1.06.6.6,0,0,1,.51.15,5,5,0,0,1,.92,2.85,23.16,23.16,0,0,1-3.65,1.17A.45.45,0,0,1,315.43,611.17Z"/><path class="cls-45" d="M443.09,651.77a30.67,30.67,0,0,1,1.9,3.75l-2.7,1.59a12,12,0,0,0-1.32-3c-.15-.27-.29-.55-.43-.83a.44.44,0,0,1,.29-.43C441.61,652.56,442.16,651.77,443.09,651.77Z"/><path class="cls-46" d="M431.21,662.4c-.32-1-.65-2.09-1-3.13-.1-.33-.18-.68-.62-.71a.26.26,0,0,1,.17-.31c.81-.39,1.65-.71,2.48-1a.33.33,0,0,1,.36.08l1.43,3.93Z"/><path class="cls-47" d="M331.05,637.63l-1.95-2.37a25.59,25.59,0,0,1,3-2.24.73.73,0,0,1,.61-.11,5.2,5.2,0,0,1,1.8,2.34,25.61,25.61,0,0,1-2.85,2.25C331.52,637.63,331.31,637.81,331.05,637.63Z"/><path class="cls-48" d="M319.61,539.18l1.44-2.69a.44.44,0,0,1,.58,0,23.43,23.43,0,0,1,3.07,2,7.84,7.84,0,0,1-1.44,2.76.8.8,0,0,1-.66-.19A24.1,24.1,0,0,1,319.61,539.18Z"/><path class="cls-49" d="M315.94,598.63a37.41,37.41,0,0,1-4.09.64l-.62-3a7.56,7.56,0,0,1,3-.58c.45-.07.93-.23,1.33.19A4.19,4.19,0,0,1,315.94,598.63Z"/><path class="cls-50" d="M467.66,628.62l3.18,2.71L469,633.89c-1-.78-1.93-1.69-2.92-2.5a.55.55,0,0,1-.21-.41A5.1,5.1,0,0,1,467.66,628.62Z"/><path class="cls-51" d="M482.73,607.83a22.21,22.21,0,0,1-1.12,3.18c-1-.55-2-1-3-1.4-.29-.13-.6-.23-.75-.55a6.7,6.7,0,0,1,1.16-3.17,8.15,8.15,0,0,0,2.38,1.18C481.87,607.28,482.46,607.29,482.73,607.83Z"/><path class="cls-52" d="M425.17,664.56a12.92,12.92,0,0,1-2.36.66c-.33.16-.59.07-.66-.27a21.69,21.69,0,0,1-.7-3.66,4.73,4.73,0,0,1,2.95-.9c.32.21.36.56.45.89.19.77.4,1.53.57,2.31C425.5,664,425.61,664.33,425.17,664.56Z"/><path class="cls-53" d="M425.17,664.56a.73.73,0,0,0,.14-.59c-.31-1.18-.62-2.35-.94-3.53a.24.24,0,0,1,.14-.25,5.85,5.85,0,0,1,2.71-.74l1.12,4A26.89,26.89,0,0,1,425.17,664.56Z"/><path class="cls-54" d="M318.47,607.35c-.83-.19-1.54.3-2.3.45a7.51,7.51,0,0,1-1.82.35l-.92-2.86c.37-.41.91-.38,1.39-.5a10.74,10.74,0,0,1,2.7-.51A5.26,5.26,0,0,1,318.47,607.35Z"/><path class="cls-55" d="M438,654.69c.45,1,.91,2,1.35,3.06a5.59,5.59,0,0,1,.26.82l-2.67,1.33c-.54-1.28-1.07-2.57-1.61-3.85A4.65,4.65,0,0,1,438,654.69Z"/><path class="cls-56" d="M386.49,663.62c-.32,1.37-.63,2.74-.95,4.11l-2.86-.48a6.36,6.36,0,0,1,.38-2.12c.11-.67.28-1.33.42-2A3.84,3.84,0,0,1,386.49,663.62Z"/><path class="cls-57" d="M452.6,650.28a12,12,0,0,0-1.38-2.34,11.26,11.26,0,0,0-.84-1.24,5.35,5.35,0,0,1,2.39-2c.75,1,1.43,2,2.17,3,.12.16.28.32.19.55Z"/><path class="cls-58" d="M314.49,589.92a21.58,21.58,0,0,1-3.41.16.84.84,0,0,1-.82-.32,32.28,32.28,0,0,1-.32-3.8H310c.35,1,1.18.84,2,.86a5.26,5.26,0,0,1,2.23.18A3.92,3.92,0,0,1,314.49,589.92Z"/><path class="cls-59" d="M315.76,562l-3.18-.89a1.21,1.21,0,0,1-.76-.38l.66-2.85c.06,0,.13-.12.2-.11a10.51,10.51,0,0,1,3.83,1.39A4.89,4.89,0,0,1,315.76,562Z"/><path class="cls-60" d="M314.18,587.06c-1.07,0-2.14,0-3.21,0-.65,0-1-.11-.91-.84,0-.08-.07-.18-.12-.27a16.89,16.89,0,0,1-.15-3l.07,0c.36,1,1.18.85,2,.86a4.58,4.58,0,0,1,2.08.18A3.58,3.58,0,0,1,314.18,587.06Z"/><path class="cls-61" d="M326.6,624.47a37.67,37.67,0,0,1-3.74,1.92l-1.59-2.69a20.65,20.65,0,0,0,3.82-1.76A4.12,4.12,0,0,1,326.6,624.47Z"/><path class="cls-62" d="M334.3,641.19l3.17-2.76c.23-.13.33.07.44.19.52.55,1.06,1.08,1.6,1.61.11.1.35.19.17.42-.37-.06-.56.22-.79.43l-2.48,2.25A20.31,20.31,0,0,1,334.3,641.19Z"/><path class="cls-63" d="M322.41,616.87a15,15,0,0,0-3,1,9.71,9.71,0,0,0-.94.38l-1.32-2.84a10.49,10.49,0,0,1,4-1.4A4.94,4.94,0,0,1,322.41,616.87Z"/><path class="cls-64" d="M328.8,524.92a27.86,27.86,0,0,1,2.06-2.54,3,3,0,0,1,1.29,1,10.94,10.94,0,0,1,1.76,1.9,5.11,5.11,0,0,1-1.94,2.3,1.19,1.19,0,0,1-.68-.36C330.45,526.45,329.58,525.73,328.8,524.92Z"/><path class="cls-65" d="M309.74,579.3a31.43,31.43,0,0,1,.15-4.34c.22,1.25,1.2,1.17,2.12,1.27a4,4,0,0,1,2,.39,5.58,5.58,0,0,1,0,3c-.06,0-.11.14-.19.14A9.29,9.29,0,0,1,309.74,579.3Z"/><path class="cls-66" d="M486.86,588.17a14.55,14.55,0,0,1-.35,3c-.33.29-.69.16-1.05.09a13.63,13.63,0,0,0-3.11-.43,6.94,6.94,0,0,1,.21-2.68c.13-.69.54-.88,1.2-.74s1.51.23,2.26.35A1.33,1.33,0,0,1,486.86,588.17Z"/><path class="cls-67" d="M315.43,611.17c1.35-.31,2.63-.91,4-1.12a.27.27,0,0,1,.31.18c.29.84.92,1.58.82,2.55a31.29,31.29,0,0,1-3.5,1.3.51.51,0,0,1-.52-.06A22.47,22.47,0,0,1,315.43,611.17Z"/><path class="cls-68" d="M327.16,632.73l-1.71-2.39a5.51,5.51,0,0,1,1.85-1.27,4.21,4.21,0,0,1,1.8-.91,4.89,4.89,0,0,1,1.78,2.52c-.92.68-1.87,1.29-2.83,1.89A.83.83,0,0,1,327.16,632.73Z"/><path class="cls-69" d="M317.5,604.34l-4.07.95-.83-3a22.6,22.6,0,0,0,3-.52,6.47,6.47,0,0,1,1.07-.11A3.44,3.44,0,0,1,317.5,604.34Z"/><path class="cls-70" d="M476.56,622.15,475,625c-.89-.64-1.77-1.3-2.69-1.9-.31-.2-.64-.39-.64-.83a6.22,6.22,0,0,1,1.56-2.56c.94.61,1.9,1.2,2.85,1.79C476.3,621.63,476.64,621.73,476.56,622.15Z"/><path class="cls-71" d="M461.32,636.55a6.93,6.93,0,0,0,1.53,1.92c.4.43.95.73,1.16,1.33a24.35,24.35,0,0,1-2.05,2.14c-.45-.14-.69-.53-1-.84-.56-.54-1-1.19-1.57-1.73a.76.76,0,0,1-.26-.63A6.13,6.13,0,0,1,461.32,636.55Z"/><path class="cls-72" d="M388.72,668.1c.17-1.1.33-2.2.53-3.29a4.79,4.79,0,0,0,.09-.84c.56-.45,1.13-.07,1.69,0,.38.16.79.07,1.17.19a.51.51,0,0,1,.21.17,10.22,10.22,0,0,1-.69,4.09A15.89,15.89,0,0,1,388.72,668.1Z"/><path class="cls-73" d="M324.63,538.55c-.91-.56-1.82-1.14-2.73-1.69-.27-.16-.49-.43-.85-.37a26.07,26.07,0,0,1,1.58-2.7.31.31,0,0,1,.36,0,15.73,15.73,0,0,1,3.16,2.27A4.83,4.83,0,0,1,324.63,538.55Z"/><path class="cls-74" d="M326.09,536c-1.21-.65-2.16-1.7-3.46-2.22a23.52,23.52,0,0,1,1.71-2.69.57.57,0,0,1,.57.16,30.11,30.11,0,0,1,2.81,2.22A4.52,4.52,0,0,1,326.09,536Z"/><path class="cls-75" d="M325.17,529.83l1.83-2.56c.24-.11.39.06.55.19a27.48,27.48,0,0,1,2.7,2.36,5.09,5.09,0,0,1-1.75,2.5c-.66,0-1-.54-1.44-.86A10.11,10.11,0,0,1,325.17,529.83Z"/><path class="cls-76" d="M333.84,525.23l-3-2.85a21.2,21.2,0,0,1,2-2.24.35.35,0,0,1,.43.09,13.43,13.43,0,0,1,2.53,2.79A4.62,4.62,0,0,1,333.84,525.23Z"/><path class="cls-77" d="M476.56,622.15a17.88,17.88,0,0,0-2.58-1.73c-.29-.21-.69-.29-.78-.71,0-.05-.08-.1-.07-.14a5.73,5.73,0,0,1,1.49-2.59,15.51,15.51,0,0,0,2.72,1.67c.3.19.69.29.63.77Z"/><path class="cls-78" d="M330.22,529.83c-.79-.29-1.2-1.05-1.88-1.49a15.32,15.32,0,0,1-1.34-1.07,21.51,21.51,0,0,1,1.8-2.35,4.61,4.61,0,0,1,1.48,1.11,10.34,10.34,0,0,0,1.73,1.44.56.56,0,0,1-.2.63C331.27,528.67,331,529.49,330.22,529.83Z"/><path class="cls-79" d="M478,609.1l3,1.37c.25.12.57.17.59.54a22.41,22.41,0,0,1-1.11,2.85c-1-.43-1.9-1-2.9-1.41-.37-.15-.72-.35-.75-.83A4.82,4.82,0,0,1,478,609.1Z"/><path class="cls-80" d="M315.43,595.94c-.77-.34-1.52.07-2.29.08a13.85,13.85,0,0,0-1.91.24l-.5-3,4.14-.32s.07,0,.07,0A4.66,4.66,0,0,1,315.43,595.94Z"/><path class="cls-81" d="M337.34,515.54l2.06-1.88c.29-.2.44,0,.58.21a26.79,26.79,0,0,1,2.18,2.79,4.89,4.89,0,0,1-2.29,2.16,13.46,13.46,0,0,1-2.57-2.91A.32.32,0,0,1,337.34,515.54Z"/><path class="cls-82" d="M349.07,511.12c-.86-.55-1.06-1.57-1.63-2.33-.25-.33-.37-.75-.74-1a22.8,22.8,0,0,1,2.53-1.75c.43-.06.49.3.65.55a22.4,22.4,0,0,0,1.77,2.77c0,.41-.38.54-.65.69C350.36,510.42,349.88,511.08,349.07,511.12Z"/><path class="cls-83" d="M374.92,665.5l-2.87-.88c-.16-.39.05-.72.18-1,.38-1,.69-2,1.13-3a5.48,5.48,0,0,1,3,1c.14.45-.14.81-.26,1.21-.2.7-.49,1.38-.71,2.08C375.31,665.09,375.24,665.39,374.92,665.5Z"/><path class="cls-84" d="M471.78,622.25c0,.32.25.42.46.57.76.52,1.5,1.06,2.26,1.57.22.15.46.26.46.58l-1.57,2.57a20.71,20.71,0,0,1-3.31-2.6A5.28,5.28,0,0,1,471.78,622.25Z"/><path class="cls-85" d="M485.43,562a23.7,23.7,0,0,1,.59,3c-.78.59-1.73.33-2.59.49a3,3,0,0,0-1.38.49.29.29,0,0,1-.24-.18,17.37,17.37,0,0,1-.53-3,.54.54,0,0,1,.14-.36,15.59,15.59,0,0,1,3.59-.61A.57.57,0,0,1,485.43,562Z"/><path class="cls-86" d="M484.49,601.81a16.58,16.58,0,0,1-.83,3s0,0-.06,0a7.41,7.41,0,0,1-3.86-1.46,5.82,5.82,0,0,1,.84-2.91A15.41,15.41,0,0,1,484.49,601.81Z"/><path class="cls-87" d="M485.74,596.13a17.63,17.63,0,0,1-.62,3c-1-.45-2.14-.64-3.19-1a1.61,1.61,0,0,1-.71-.31,5.22,5.22,0,0,1,.45-2.86.78.78,0,0,1,.87-.17c.89.19,1.78.41,2.65.66C485.49,595.56,485.91,595.62,485.74,596.13Z"/><path class="cls-88" d="M316.39,546.15a17.74,17.74,0,0,1,1.16-2.69c.15-.31.4-.21.61-.11,1,.44,1.9,1,2.86,1.52a.57.57,0,0,1,.31.52,5.94,5.94,0,0,1-1.22,2.6A13.32,13.32,0,0,1,316.39,546.15Z"/><path class="cls-89" d="M313.28,555l1-3.16a11.49,11.49,0,0,1,3.86,1.6,5.23,5.23,0,0,1-.8,2.85.88.88,0,0,1-.76-.06C315.45,555.84,314.33,555.52,313.28,555Z"/><path class="cls-90" d="M486.5,568.19l.33,3a5.15,5.15,0,0,1-2.52.22,1.7,1.7,0,0,0-1.44.6.36.36,0,0,1-.33-.37c-.09-1-.28-2-.32-3a.69.69,0,0,1,.13-.36,3.94,3.94,0,0,1,1.76-.36c.52-.06,1.05,0,1.57-.11C486,567.82,486.33,567.84,486.5,568.19Z"/><path class="cls-91" d="M310.22,570.85a12.38,12.38,0,0,1,.31-2.71,13.65,13.65,0,0,0,3,.76c.38.1.79.11,1.06.45a4.2,4.2,0,0,1-.39,2.89,2.14,2.14,0,0,1-1.39,0L311,572C310.12,571.8,310.1,571.78,310.22,570.85Z"/><path class="cls-92" d="M337.34,515.54a10.78,10.78,0,0,0,1.75,2.29c.25.32.43.73.83.92a4.82,4.82,0,0,1-2.12,2.14,1.31,1.31,0,0,1-.81-.6,18.92,18.92,0,0,0-1.55-1.68c-.23-.24-.52-.48-.33-.88Z"/><path class="cls-93" d="M335.11,517.73c0,.1,0,.23.08.29.93.89,1.66,2,2.66,2.79a4.63,4.63,0,0,1-2.07,2.21c-.74-.76-1.47-1.52-2.21-2.27-.22-.22-.47-.41-.71-.61A24.4,24.4,0,0,1,335.11,517.73Z"/><path class="cls-94" d="M408.36,491.65a31,31,0,0,1,3.19.44c-.19,1.16-.41,2.3-.66,3.45a1,1,0,0,1-.33.61,7,7,0,0,1-3.33-.46,15,15,0,0,0,.73-3.25C408,492.14,408,491.8,408.36,491.65Z"/><path class="cls-95" d="M477,611.61c0,.48.43.6.76.7.82.25,1.46.83,2.28,1.08.21.07.45.17.46.47a22.9,22.9,0,0,1-1.26,2.87c-.91-.62-1.92-1.06-2.87-1.6a1.76,1.76,0,0,1-.7-.51A5.3,5.3,0,0,1,477,611.61Z"/><path class="cls-96" d="M353.23,503.52l2.82-1.59a11.51,11.51,0,0,1,1.11,2.15,13.57,13.57,0,0,1,.69,1.5,5.45,5.45,0,0,1-2.59,1.58.48.48,0,0,1-.41-.2A13.89,13.89,0,0,1,353.23,503.52Z"/><path class="cls-97" d="M408.36,491.65c-.21,1.13-.43,2.25-.62,3.38-.05.34-.17.54-.51.57a.6.6,0,0,1-.42.19c-1.12,0-2.24-.14-3.35-.19a.38.38,0,0,1-.36-.27.59.59,0,0,1,.61-.27c.7,0,.88-.38.93-1a18.4,18.4,0,0,1,.28-2.09c.09-.43.3-.74.82-.54A17.68,17.68,0,0,1,408.36,491.65Z"/><path class="cls-98" d="M486.86,588.17c-1.17-.2-2.34-.39-3.5-.61-.57-.11-.4.42-.62.61-.08-.06-.17-.15-.16-.25a9.62,9.62,0,0,1,.39-3.37,8.42,8.42,0,0,1,3,.19c.39,0,.87-.07,1.12.41Z"/><path class="cls-99" d="M483.07,553a22.81,22.81,0,0,1,.91,3,9.45,9.45,0,0,1-4,.88,4.26,4.26,0,0,1-.86-3A8.49,8.49,0,0,1,483.07,553Z"/><path class="cls-100" d="M487.13,585.15a31,31,0,0,0-3.33-.46,1.12,1.12,0,0,1-.73-2.07c.23-.28.08-.63.15-.94,0,0,.07-.1.12-.1a7.85,7.85,0,0,1,3.93.41C487.22,583,487.17,584.1,487.13,585.15Z"/><path class="cls-101" d="M475.71,614.64a23.92,23.92,0,0,1,3.29,1.72.45.45,0,0,1,.24.37,22,22,0,0,1-1.27,2.69c-.47-.68-1.3-.81-1.92-1.27s-1.29-.39-1.45-1.18A3,3,0,0,1,475.71,614.64Z"/><path class="cls-102" d="M314.7,550.6a22.58,22.58,0,0,1,1.11-3c.19-.17.39-.08.58,0,.91.4,1.8.81,2.68,1.26a.8.8,0,0,1,.53.63,7.21,7.21,0,0,1-1,2.73C317.27,551.72,316,551.19,314.7,550.6Z"/><path class="cls-103" d="M313.28,555c.68-.17,1.18.33,1.77.49s1.43.52,2.14.79a3.85,3.85,0,0,1-.78,2.85,36,36,0,0,0-3.93-1.27Z"/><path class="cls-104" d="M351.59,509.37c-.61-.13-.73-.73-1-1.14a15.35,15.35,0,0,0-1.37-2.18l2.7-1.75c.73.6.91,1.54,1.41,2.29.26.38.45.81.69,1.21A3.9,3.9,0,0,1,351.59,509.37Z"/><path class="cls-105" d="M481,547.11a24.68,24.68,0,0,1,1.14,3,1,1,0,0,1-.73.4,30.85,30.85,0,0,1-3.11.8,4.92,4.92,0,0,1-1.16-2.95A10.08,10.08,0,0,1,481,547.11Z"/><path class="cls-106" d="M342.14,516.69a33.24,33.24,0,0,1-2.37-2.79c-.11-.12-.2-.23-.37-.24a23.27,23.27,0,0,1,2.38-2.06c.25-.09.41.07.52.24.66,1,1.5,1.86,2.08,2.92A4.17,4.17,0,0,1,342.14,516.69Z"/><path class="cls-107" d="M364.3,498l3-1.23a18.8,18.8,0,0,1,1.18,3.94,4.62,4.62,0,0,1-2.94,1.15A11.5,11.5,0,0,1,364.3,498Z"/><path class="cls-108" d="M442,502.5l2.82,1.65a36.06,36.06,0,0,1-2.38,3.38,5.67,5.67,0,0,1-2.64-1.62c.24-1.14,1.11-1.92,1.64-2.89A1.05,1.05,0,0,1,442,502.5Z"/><path class="cls-109" d="M463.7,519.67a18.59,18.59,0,0,1,2.08,2.35c.1.21,0,.35-.18.46-.85.66-1.68,1.33-2.55,2a.66.66,0,0,1-.44.13,6.47,6.47,0,0,1-2.13-2.34A37.65,37.65,0,0,1,463.7,519.67Z"/><path class="cls-110" d="M477,538.54a16.07,16.07,0,0,1,1.43,2.84c.09.24-.09.35-.24.42a18.88,18.88,0,0,1-3.4,1.29,5,5,0,0,1-1.4-2.62,1.14,1.14,0,0,1,.8-.71C475.17,539.41,476.06,538.9,477,538.54Z"/><path class="cls-111" d="M319.61,539.18a38.56,38.56,0,0,1,3.58,2.06.32.32,0,0,1,0,.44c-.45.77-.6,1.73-1.37,2.31a15.91,15.91,0,0,1-3.57-2.13Z"/><path class="cls-112" d="M487.27,582l-4-.31c0-.82,0-1.63,0-2.44,0-.26,0-.64.35-.56,1.24.27,2.51,0,3.73.29Z"/><path class="cls-113" d="M487.16,575.81h-4.11a4.64,4.64,0,0,1-.23-3,1.67,1.67,0,0,1,1.13-.23c.75,0,1.51,0,2.26,0,.28,0,.59-.07.77.25A21.67,21.67,0,0,1,487.16,575.81Z"/><path class="cls-114" d="M357.81,505.58a12.7,12.7,0,0,1-1.76-3.65l2.7-1.42a9.39,9.39,0,0,1,1.18,2.45c.21.4.38.81.6,1.19,0,.25-.19.35-.37.45-.59.32-1.2.61-1.78.95A.44.44,0,0,1,357.81,505.58Z"/><path class="cls-115" d="M482.43,590.87c.22-.34.52-.34.88-.27a20.67,20.67,0,0,0,3.2.58,18.88,18.88,0,0,1-.45,3.18,10,10,0,0,1-4.05-1A3.32,3.32,0,0,1,482.43,590.87Z"/><path class="cls-116" d="M479.86,603.37a17.84,17.84,0,0,0,3.8,1.45,17.48,17.48,0,0,1-.93,3c-1-.42-2.07-.85-3.11-1.26-.31-.13-.59-.23-.55-.64A3.36,3.36,0,0,1,479.86,603.37Z"/><path class="cls-117" d="M371.59,495.29l3-.92c.47.44.44,1.06.55,1.61a5.42,5.42,0,0,1,.32,2.46,5.25,5.25,0,0,1-3,.84A11.91,11.91,0,0,1,371.59,495.29Z"/><path class="cls-118" d="M474,533.3a22.24,22.24,0,0,1,1.61,2.69c-.3.52-.88.62-1.34.88a15.38,15.38,0,0,1-2.19,1,4.63,4.63,0,0,1-1.67-2.64.86.86,0,0,1,.43-.45c.92-.48,1.86-1,2.78-1.44A.37.37,0,0,1,474,533.3Z"/><path class="cls-119" d="M481.24,597.83a34.65,34.65,0,0,1,3.63,1c.18.05.22.21.25.37a13.35,13.35,0,0,1-.63,2.64,15.79,15.79,0,0,1-3.85-1.32A3.29,3.29,0,0,1,481.24,597.83Z"/><path class="cls-120" d="M368.44,500.67a17.86,17.86,0,0,1-1.13-3.93l2.85-1a8.48,8.48,0,0,1,.84,2.5,2.37,2.37,0,0,1,.25,1.44A4.19,4.19,0,0,1,368.44,500.67Z"/><path class="cls-121" d="M311.19,563.92a30.07,30.07,0,0,0,4,1,4.15,4.15,0,0,1-.22,2.56.82.82,0,0,1-1,.45c-1-.16-1.9-.35-2.84-.57-.25-.06-.62-.1-.43-.55A17,17,0,0,1,311.19,563.92Z"/><path class="cls-122" d="M309.74,579.3l4.11.31a4.17,4.17,0,0,1,.09,3,6.73,6.73,0,0,1-2.41.07,2.41,2.41,0,0,1-1.76-.23Z"/><path class="cls-123" d="M313.86,576.6c-1.19,0-2.35-.24-3.53-.32-.3,0-.41-.16-.41-.45s0-.58,0-.87a9.43,9.43,0,0,1,.16-2.37,1.5,1.5,0,0,0,1,.49c1.08.13,2.15.25,3.22.41A6.6,6.6,0,0,1,313.86,576.6Z"/><path class="cls-124" d="M364.3,498a37.92,37.92,0,0,1,1.28,3.86A4,4,0,0,1,363,503c-.1,0-.22-.07-.26-.17a14,14,0,0,1-1.29-3.61A24.32,24.32,0,0,1,364.3,498Z"/><path class="cls-125" d="M397.58,491.13l3,0c.35.48.11,1,.06,1.51a7.81,7.81,0,0,1-.37,2.67,5.35,5.35,0,0,1-3,0A7.62,7.62,0,0,1,397.58,491.13Z"/><path class="cls-126" d="M392.83,491.31a18.66,18.66,0,0,1,3.17-.15,12.25,12.25,0,0,1-.11,4.14,5.61,5.61,0,0,1-3.12.14A8,8,0,0,1,392.83,491.31Z"/><path class="cls-127" d="M410.59,496c.21-1.09.42-2.18.62-3.27a1,1,0,0,1,.34-.68,16.07,16.07,0,0,1,2.84.49.83.83,0,0,1,.1.82c-.18.84-.45,1.66-.63,2.5a.81.81,0,0,1-.89.7A4,4,0,0,1,410.59,496Z"/><path class="cls-128" d="M485.43,562l-4,.48c-.24,0-.31-.2-.34-.37-.13-.84-.63-1.63-.31-2.53a8.13,8.13,0,0,1,4-.59A20.72,20.72,0,0,1,485.43,562Z"/><path class="cls-129" d="M462.57,524.44a18.5,18.5,0,0,0,3.21-2.42,21.41,21.41,0,0,1,2,2.42c.09.28-.15.37-.31.47-.95.65-1.86,1.37-2.85,2A4.46,4.46,0,0,1,462.57,524.44Z"/><path class="cls-130" d="M450.07,507.63c-.42,0-.63.36-.85.63-.64.78-1.24,1.6-1.86,2.4a4.88,4.88,0,0,1-2.48-1.59.84.84,0,0,1,.18-.67c.54-.75,1.07-1.5,1.67-2.2.2-.23.42-.51.8-.31Z"/><path class="cls-131" d="M412.94,496.39c.24-.05.58.1.65-.29.2-1.19.7-2.31.8-3.52a16.4,16.4,0,0,1,3,.59.65.65,0,0,1,.11.52c-.24,1-.54,2.06-.87,3.07a.6.6,0,0,1-.37.39,11.47,11.47,0,0,1-3.13-.48A.27.27,0,0,1,412.94,496.39Z"/><path class="cls-132" d="M377.61,493.58l3-.66a10.08,10.08,0,0,1,.57,4.07,4.54,4.54,0,0,1-3,.69,14.74,14.74,0,0,1-.78-3.6A.62.62,0,0,1,377.61,493.58Z"/><path class="cls-133" d="M361.44,499.23a27.45,27.45,0,0,1,1.16,2.93c.09.29.12.64.49.75a3.85,3.85,0,0,1-2.57,1.25c-.57-.15-.56-.7-.74-1.11-.35-.84-.69-1.69-1-2.54A23.67,23.67,0,0,1,361.44,499.23Z"/><path class="cls-134" d="M422,494.3a20.78,20.78,0,0,1,3.21.95c-.43,1-.76,2-1.19,2.91a2.22,2.22,0,0,1-.44.83,5.43,5.43,0,0,1-2.91-.82.67.67,0,0,1,0-.6c.34-.9.62-1.83.94-2.73A.8.8,0,0,1,422,494.3Z"/><path class="cls-135" d="M472,537.78l3.61-1.79a18.36,18.36,0,0,1,1.37,2.55c-.52.7-1.39.76-2.09,1.13a4.45,4.45,0,0,0-1.41.79A4.37,4.37,0,0,1,472,537.78Z"/><path class="cls-136" d="M401.6,668.57c-.5,0-1,0-1.5,0s-.64-.18-.62-.64a19.93,19.93,0,0,0,.17-2.89c0-.35.19-.43.5-.44a2.63,2.63,0,0,0,1.08-.08c.25-.39.63-.3,1-.29a.67.67,0,0,1,.65.66,23.2,23.2,0,0,1,0,3.12.73.73,0,0,1-.37.57Z"/><path class="cls-137" d="M481,547.11l-3.8,1.27a4.46,4.46,0,0,1-1.2-2.7,1.09,1.09,0,0,1,.69-.48c1-.33,2-.79,3-1.09A20.34,20.34,0,0,1,481,547.11Z"/><path class="cls-138" d="M387.59,491.81a18.76,18.76,0,0,1,2.7-.31,9.87,9.87,0,0,0-.22,3.34,1.67,1.67,0,0,1,0,.77c-.38.42-.9.35-1.38.4a4.69,4.69,0,0,1-2.14.1c.38-1.13,0-2.27.05-3.41,0-.26-.1-.53.08-.77h0C386.94,491.77,387.29,492,387.59,491.81Z"/><path class="cls-139" d="M447.53,505.89c-.95.33-1.24,1.3-1.83,2a2.06,2.06,0,0,0-.71,1.19.3.3,0,0,1-.37,0c-.72-.53-1.66-.77-2.17-1.6a13.76,13.76,0,0,1,2.37-3.3Z"/><path class="cls-140" d="M431.07,497.32a20.3,20.3,0,0,1,2.69,1.11,10.58,10.58,0,0,1-1.94,3.62,5.17,5.17,0,0,1-2.77-1.2,16.52,16.52,0,0,1,1.42-3.32A.41.41,0,0,1,431.07,497.32Z"/><path class="cls-141" d="M484.77,559l-4,.64c-.08,0-.18,0-.2-.09a5.2,5.2,0,0,1-.56-2.77l4-.79Z"/><path class="cls-142" d="M464.62,526.88c.53-.78,1.45-1.07,2.13-1.66.33-.29.71-.52,1.07-.78l1.95,2.52a9.58,9.58,0,0,1-3.5,2.17A4.24,4.24,0,0,1,464.62,526.88Z"/><path class="cls-143" d="M405.74,491.45c-.74,0-.6.61-.68,1-.12.61-.13,1.24-.19,1.87s-.27,1.09-1.06.95a3.38,3.38,0,0,0-.71,0,1.33,1.33,0,0,1-1.41,0,1,1,0,0,1-.13-.75c.07-.86.23-1.71.25-2.58a.93.93,0,0,1,.37-.82A23.61,23.61,0,0,1,405.74,491.45Z"/><path class="cls-144" d="M423.58,498.93c.23-1.22,1-2.25,1.26-3.44,0-.17.21-.21.37-.24a22.38,22.38,0,0,1,2.87.94,28.31,28.31,0,0,1-1.65,3.74A4.83,4.83,0,0,1,423.58,498.93Z"/><path class="cls-145" d="M426.44,499.87a12.42,12.42,0,0,1,1.64-3.68,24.48,24.48,0,0,1,3,1.13c-.31,0-.42.21-.54.48-.44,1-.93,2-1.41,3.06A3.68,3.68,0,0,1,426.44,499.87Z"/><path class="cls-146" d="M460.52,516.38l2.22,2.23a.3.3,0,0,1-.08.29c-.88.78-1.79,1.51-2.7,2.25a.62.62,0,0,1-.38.09,5.67,5.67,0,0,1-2.13-2.16A17.13,17.13,0,0,1,460.52,516.38Z"/><path class="cls-147" d="M377.61,493.58a28.18,28.18,0,0,0,.56,3.43c0,.21.05.41.08.62a4,4,0,0,1-2.86.77l-.79-4Z"/><path class="cls-148" d="M390,495.59a17.71,17.71,0,0,1-.17-3.56c0-.37.31-.37.48-.53a15.35,15.35,0,0,1,2.54-.19v4.1A3.54,3.54,0,0,1,390,495.59Z"/><path class="cls-149" d="M442,502.5a31.12,31.12,0,0,0-2.1,3.45,5.06,5.06,0,0,1-2.76-1.46,16.79,16.79,0,0,1,1.84-3.25.31.31,0,0,1,.47-.11Z"/><path class="cls-150" d="M382.21,492.61l3-.49a8.71,8.71,0,0,1,.23,4.15,4.69,4.69,0,0,1-3,.43,17.37,17.37,0,0,1-.47-3.44A.79.79,0,0,1,382.21,492.61Z"/><path class="cls-151" d="M466.28,529a18.59,18.59,0,0,0,2.94-1.81,1.1,1.1,0,0,1,.55-.27l1.7,2.39c.08.22-.06.36-.22.45-.89.56-1.78,1.12-2.71,1.62a.75.75,0,0,1-.53.09A5.08,5.08,0,0,1,466.28,529Z"/><path class="cls-152" d="M486.5,568.19a10.47,10.47,0,0,0-2.85.07c-.39,0-.82.08-1.23.09a2.43,2.43,0,0,1-.35-2.34c0-.43.23-.62.61-.66L486,565Z"/><path class="cls-153" d="M479.7,544.11c-.53.63-1.36.61-2,.95-.51.25-1.07.42-1.61.63a.33.33,0,0,1-.36-.23c-.29-.67-.63-1.3-.93-2a.41.41,0,0,1,0-.5,24.68,24.68,0,0,0,3.65-1.61A15.29,15.29,0,0,1,479.7,544.11Z"/><path class="cls-154" d="M435.19,499.06a20.44,20.44,0,0,1,2.67,1.28.75.75,0,0,1-.05.47,21.17,21.17,0,0,1-1.87,3.09,5.24,5.24,0,0,1-2.77-1.3,14.56,14.56,0,0,1,1.75-3.48A.18.18,0,0,1,435.19,499.06Z"/><path class="cls-155" d="M422,494.3l-1.27,3.81c-.05.06-.12.13-.19.12a7.2,7.2,0,0,1-2.87-.83,26,26,0,0,1,.95-3.23c.12-.4.39-.7.89-.5A11.81,11.81,0,0,1,422,494.3Z"/><path class="cls-156" d="M474,533.3l-3.52,1.92c-.71-.22-.79-1-1.19-1.44-.25-.3-.6-.62-.46-1.11a20.28,20.28,0,0,1,3.13-1.88.45.45,0,0,1,.45,0A24.44,24.44,0,0,1,474,533.3Z"/><path class="cls-157" d="M478.27,551.25a27.4,27.4,0,0,1,3.85-1.14,22.29,22.29,0,0,1,.95,2.86l-3.89,1A3.77,3.77,0,0,1,478.27,551.25Z"/><path class="cls-158" d="M460.52,516.38a18.82,18.82,0,0,1-3,2.68,2.56,2.56,0,0,1-1.56-1.46,29.61,29.61,0,0,1,2.55-3.16Z"/><path class="cls-159" d="M344.34,514.78a21.4,21.4,0,0,1-2-2.56c-.17-.23-.29-.5-.57-.62l1.37-1.13c.36,0,.54.26.72.54.45.68.93,1.33,1.39,2,.17.25.32.48.66.5A2,2,0,0,1,344.34,514.78Z"/><path class="cls-160" d="M329.12,628.28c-1.3.55-2.4,1.46-3.67,2.06l-1-1.42c1.19-.2,2-1.1,3.07-1.57a2.52,2.52,0,0,1,.7-.34A1.32,1.32,0,0,1,329.12,628.28Z"/><path class="cls-161" d="M316.55,614c1.36-.31,2.59-1,4-1.28a1.29,1.29,0,0,1,.62,1.43c-1.39.25-2.63,1-4,1.29Z"/><path class="cls-162" d="M373.33,660.64a.55.55,0,0,1,.06.52c-.46,1.14-.9,2.3-1.34,3.46l-1.57-.51c.45-1.06.91-2.12,1.35-3.19.09-.23.24-.48.07-.75A1.14,1.14,0,0,1,373.33,660.64Z"/><path class="cls-163" d="M361.12,655.74a37.25,37.25,0,0,1-2,3.72l-1.29-.71a39.53,39.53,0,0,1,2.06-3.64A1.1,1.1,0,0,1,361.12,655.74Z"/><path class="cls-164" d="M327.16,632.73a12.38,12.38,0,0,0,2.85-1.67,1.92,1.92,0,0,1,.84-.4,1.06,1.06,0,0,1,.87,1.11,14.71,14.71,0,0,1-3.08,2.24.51.51,0,0,1-.53,0Z"/><path class="cls-165" d="M331.05,637.63a20.29,20.29,0,0,0,2.84-2c.21-.16.37-.37.66-.38.53.21,1,.47,1,1.14a12.84,12.84,0,0,0-2.41,1.74c-.35.26-.65.62-1.14.63Z"/><path class="cls-166" d="M421.53,661.28c.26,1.14.54,2.28.77,3.43.06.34.13.54.51.51a4.61,4.61,0,0,1-1.74.48,11.91,11.91,0,0,1-.81-4.09A1,1,0,0,1,421.53,661.28Z"/><path class="cls-167" d="M391.72,668.39l.64-4.13a.77.77,0,0,1,1.11,0,.59.59,0,0,1,.28.65c-.17,1.19-.3,2.37-.44,3.56Z"/><path class="cls-168" d="M407.26,668.21a26,26,0,0,1-.16-4.23,1.12,1.12,0,0,1,1.43-.15c0,1.41.24,2.82.15,4.23A4.55,4.55,0,0,1,407.26,668.21Z"/><path class="cls-169" d="M459.26,638.75c.4.87,1.23,1.38,1.77,2.15.26.38.7.62.93,1l-1.1,1.11c-.91-1-1.81-2.11-2.71-3.17A1.17,1.17,0,0,1,459.26,638.75Z"/><path class="cls-170" d="M374.92,665.5c.48-1.31.95-2.63,1.42-3.94a1.06,1.06,0,0,1,1.43.34l-1.28,4Z"/><path class="cls-171" d="M328.11,634a18.56,18.56,0,0,0,3.33-2.11l.2-.12a1.31,1.31,0,0,1,1.08,1.27c-1.05.25-1.72,1.13-2.62,1.63-.34.19-.59.51-1,.59Z"/><path class="cls-172" d="M314.7,550.6a6.69,6.69,0,0,1,2.45.85c.45.18,1.05.21,1.33.74a1.05,1.05,0,0,1-.42,1.28c-1.29-.51-2.59-1-3.83-1.6Z"/><path class="cls-173" d="M310.71,566.76a9.42,9.42,0,0,0,3.88.87c.09,0,.14-.15.21-.23a1.69,1.69,0,0,1-.28,1.91l-3.46-.66a.57.57,0,0,1-.53-.51A4,4,0,0,1,310.71,566.76Z"/><path class="cls-174" d="M455.13,648.24l-2.1-2.82a1.15,1.15,0,0,1-.27-.64,1.2,1.2,0,0,1,1.11-.94,21.7,21.7,0,0,0,2.14,3c.1.15.24.28.24.48Z"/><path class="cls-175" d="M318.27,541.86a21.57,21.57,0,0,1,3.55,2.11,1.21,1.21,0,0,1-.64,1.41c0-.1-.06-.24-.13-.28-1.06-.57-2.13-1.14-3.2-1.69-.07,0-.2,0-.3.05A10.44,10.44,0,0,1,318.27,541.86Z"/><path class="cls-176" d="M314.15,573.43c-.44.53-1,.1-1.43.09-.67,0-1.33-.22-2-.23s-.69-.24-.67-.7a5.66,5.66,0,0,1,.17-1.74c-.07.62.16.82.82.87,1.06.08,2.09.43,3.17.44A.92.92,0,0,1,314.15,573.43Z"/><path class="cls-177" d="M319.45,549.53c-.31-.77-1.15-.72-1.72-1.09a11.79,11.79,0,0,0-1.92-.85l.58-1.44c1.3.46,2.46,1.2,3.7,1.76A1.39,1.39,0,0,1,319.45,549.53Z"/><path class="cls-178" d="M470.17,624.9l2.59,2a2,2,0,0,1,.63.68l-.8,1.24a22.55,22.55,0,0,0-2.43-1.95c-.28-.22-.65-.36-.75-.75A1.05,1.05,0,0,1,470.17,624.9Z"/><path class="cls-179" d="M482.09,593.4c1.33.3,2.67.55,4,1a7.08,7.08,0,0,1-.32,1.77c0-.09-.06-.25-.12-.27a15.31,15.31,0,0,0-3.83-.87A1.25,1.25,0,0,1,482.09,593.4Z"/><path class="cls-180" d="M419.51,493.67c-.66,0-.69.53-.84,1a10.38,10.38,0,0,1-1,2.7,1.06,1.06,0,0,1-1.43-.32,19.63,19.63,0,0,0,1.15-3.85A8.85,8.85,0,0,1,419.51,493.67Z"/><path class="cls-181" d="M465.92,631l2.75,2.45a.61.61,0,0,1,.28.44l-1,1.23c-.5-1-1.5-1.47-2.23-2.23-.25-.26-.61-.42-.65-.83S465.33,631.1,465.92,631Z"/><path class="cls-182" d="M487,572.79H482.9a.5.5,0,0,1,0-.75c-.05-.62.27-.84.85-.83h3.12A7.62,7.62,0,0,1,487,572.79Z"/><path class="cls-183" d="M395.84,495.24c0-1.08,0-2.16,0-3.24a1.53,1.53,0,0,1,.16-.84l1.58,0a1.53,1.53,0,0,0-.15.76,28.79,28.79,0,0,1-.16,3.35A1.06,1.06,0,0,1,395.84,495.24Z"/><path class="cls-184" d="M385.38,496.2c.13-1.37-.28-2.72-.16-4.08l1.42-.19c.28,1.15.13,2.34.33,3.5.07.4-.27.45-.48.61C386.16,496.38,385.8,496.53,385.38,496.2Z"/><path class="cls-185" d="M354,507.81c-.81-.48-.86-1.44-1.38-2.11a8.36,8.36,0,0,1-.71-1.4l1.3-.78c.5,1,1,2,1.51,2.92.13.25.2.56.57.58A1.17,1.17,0,0,1,354,507.81Z"/><path class="cls-186" d="M472.45,530.77l-3.55,1.92a1.28,1.28,0,0,1-.9-1.27,17.4,17.4,0,0,0,3.47-2.07Z"/><path class="cls-187" d="M325.17,529.83a25.18,25.18,0,0,1,2.69,2c.22.15.38.38.67.38a1.29,1.29,0,0,1-.84,1.25,19.25,19.25,0,0,1-2.46-1.75c-.31-.18-.59-.42-.89-.63Z"/><path class="cls-188" d="M371.11,499.71c-.13-1.2-.65-2.31-.87-3.49,0-.15-.05-.31-.08-.46l1.43-.47a29.36,29.36,0,0,1,1,3.94A1.23,1.23,0,0,1,371.11,499.71Z"/><path class="cls-189" d="M402.18,491.18l-.47,4.06a1.06,1.06,0,0,1-1.43,0,32.82,32.82,0,0,1,.32-4.08Z"/><path class="cls-190" d="M342.74,643.48c-.68.89-1.56,1.59-2.31,2.41-.2.21-.37.43-.56.64l-1.28-1.12a16.76,16.76,0,0,0,3-2.86A1.07,1.07,0,0,1,342.74,643.48Z"/><path class="cls-191" d="M436,503.85c.49-1.25,1.34-2.3,1.91-3.51a8.72,8.72,0,0,1,1.59.79c-.7.39-.85,1.19-1.28,1.78s-.64,1-1,1.59A1.08,1.08,0,0,1,436,503.85Z"/><path class="cls-192" d="M382.21,492.61c-.1,1.37.37,2.7.32,4.07a1.16,1.16,0,0,1-1.43.31c0-1.37-.5-2.69-.48-4.07Z"/><path class="cls-193" d="M309.77,582.46a24.34,24.34,0,0,1,4.09.16,1.07,1.07,0,0,1,0,1.43c-1,0-2,0-3.05,0-.66,0-1-.11-.9-.84,0-.08-.08-.18-.12-.28Z"/><path class="cls-194" d="M402.5,668.56a16.17,16.17,0,0,0,.13-3.87c0-.28-.28-.25-.47-.28a1.57,1.57,0,0,1,1.93-.15c0,1.17,0,2.34,0,3.51,0,.41.09.66.55.64A8,8,0,0,1,402.5,668.56Z"/><path class="cls-195" d="M435.19,499.06c-.77,1.11-1.29,2.35-1.94,3.52a1.25,1.25,0,0,1-1.44-.64,22.7,22.7,0,0,0,1.43-2.66c.16-.29.23-.64.52-.85Z"/><path class="cls-196" d="M459.54,521.12a17.41,17.41,0,0,0,2.42-1.85,9.72,9.72,0,0,0,.78-.66l1,1.06a14,14,0,0,1-3.14,2.55A1.32,1.32,0,0,1,459.54,521.12Z"/><path class="cls-184" d="M387.59,491.81c-.29.24-.63.09-.95.13A1.36,1.36,0,0,1,387.59,491.81Z"/><path class="cls-197" d="M459.54,521.12l1,1.1,2,2.22c.68.82,1.37,1.63,2.05,2.44l1.66,2.16c.57.79,1.15,1.58,1.72,2.38a6,6,0,0,0,.9,1.27l1.62,2.53,1.52,2.56,1.48,2.68A20,20,0,0,0,474.8,543a22.74,22.74,0,0,0,1.25,2.7,21.85,21.85,0,0,0,1.13,2.69c.36,1,.73,1.91,1.09,2.87s.61,1.79.91,2.69.57,1.9.85,2.84a23.15,23.15,0,0,0,.76,2.86,19.59,19.59,0,0,0,.64,2.85,32.48,32.48,0,0,0,.64,3.52,14.21,14.21,0,0,0,.35,2.34c.15,1.23.29,2.46.44,3.69,0,.25,0,.5,0,.75l.15,3c0,2.27,0,4.54,0,6.81a9.3,9.3,0,0,0,0,1.9l-.3,3.65c-.1.9-.21,1.8-.31,2.7s-.23,1.69-.34,2.53a5.39,5.39,0,0,0-.3,1.59c-.18.94-.36,1.89-.55,2.84l-.6,2.66a21.17,21.17,0,0,0-.78,2.88,16.14,16.14,0,0,0-.79,2.56c-.36,1.05-.73,2.11-1.1,3.17a18.6,18.6,0,0,0-1,2.51l-1.29,3A16.58,16.58,0,0,0,474.6,617l-1.4,2.74-1.42,2.54-1.61,2.65a4.58,4.58,0,0,0-.76,1.18l-1.75,2.54L465.92,631l-.81,1.06-1.91,2.35-1.88,2.14-2.06,2.2a5.94,5.94,0,0,0-1.11,1.13,21.79,21.79,0,0,0-2.08,2l-2.2,2-1.11.94-2.38,1.92L448,648.47l-2.38,1.68-2.53,1.62-2.55,1.53L438,654.69l-2.67,1.36-2.7,1.25-3,1.26-2.39.89-2.85,1-2.84.84-1.27.33-3,.76a23.56,23.56,0,0,0-2.87.59l-3,.51-2.85.36-1.43.15-3,.28a6.58,6.58,0,0,0-1.93.15l-.93.09-5.39,0-2.37-.16-1.11,0-.07,0-.06,0c-.36-.18-.77,0-1.14-.13a9.26,9.26,0,0,0-1.75-.16,19.46,19.46,0,0,0-2.85-.35,30.41,30.41,0,0,0-3-.48l-2.86-.59-2.85-.65a3.7,3.7,0,0,0-1.43-.34,22.26,22.26,0,0,0-3-.92l-1.43-.47-2.69-.95-2.68-1L363.82,657l-2.7-1.27-1.27-.63-2.69-1.44-2.53-1.47-2.39-1.53-2.5-1.69a16,16,0,0,0-2.41-1.68,15.65,15.65,0,0,0-2.36-1.93l-2.23-1.89a3.36,3.36,0,0,0-1.12-.93,13.41,13.41,0,0,0-1.94-1.9l-2.21-2.22-1.91-2.06-1-1.14L332.72,633a4.86,4.86,0,0,0-1.08-1.27,2.93,2.93,0,0,0-.79-1.11l-1.73-2.38-.86-1.27-1.66-2.54c-.5-.85-1-1.69-1.51-2.53l-1.4-2.54-1.28-2.53-1.26-2.7-.62-1.43-1.09-2.69-1-2.7-1-3-.78-2.69-.78-3a20.57,20.57,0,0,0-.51-2.69c-.19-1-.37-2-.56-3s-.26-2-.38-3l-.31-2.86a11.29,11.29,0,0,0-.32-3V576.6c.09-1.06.19-2.12.29-3.17l.06-1.27a18.27,18.27,0,0,0,.31-2.85,11.14,11.14,0,0,0,.28-1.91c.13-.84.25-1.68.38-2.53s.39-1.9.58-2.86l.65-2.85.78-2.85.87-2.84.42-1.28a19.7,19.7,0,0,0,1-2.66,6,6,0,0,0,.64-1.62,18.2,18.2,0,0,0,1.09-2.53,5.45,5.45,0,0,0,.64-1.41l1.37-2.73,1.44-2.69,1.46-2.54,1.6-2.53.84-1.25,1.69-2.4c.6-.78,1.2-1.57,1.79-2.36l1.83-2.24,1.94-2.21,2.07-2.21,2.07-2.06,2.22-2.06a22.31,22.31,0,0,0,2.2-1.91,9.66,9.66,0,0,0,1.58-1.27l3.15-2.39,2.52-1.75,2.43-1.56a5.73,5.73,0,0,0,1.29-.79l2.5-1.44,2.71-1.42a20.32,20.32,0,0,0,2.57-1.25l2.49-1.08,2.86-1.16a19.78,19.78,0,0,0,2.67-1,4.83,4.83,0,0,0,1.43-.48l2.85-.83,2.86-.77,2.85-.64,1.43-.31,2.85-.48,1.11-.16,3.49-.45,2.85-.18,3-.17h5.87l1.39.05,4.13.31,3.36.44a13.2,13.2,0,0,0,2.35.35,27.13,27.13,0,0,0,3.33.63,4.13,4.13,0,0,0,1.43.32l3,.77,2.85.82,2.86.94,2.68,1a22.21,22.21,0,0,0,2.69,1.08,5.46,5.46,0,0,0,1.44.64,22.15,22.15,0,0,0,2.7,1.27,4.31,4.31,0,0,0,1.26.65L439.9,506l2.55,1.5,2.54,1.6,2.37,1.61c3,2.18,5.83,4.48,8.57,6.94l1.56,1.46Z"/><path class="cls-167" d="M391.09,664.13a2.32,2.32,0,0,1,1.14.13C391.85,664.22,391.45,664.39,391.09,664.13Z"/><path class="cls-198" d="M379.32,555.25c-4-7.58-3.84-15.11.52-22.45a20.14,20.14,0,0,1,14.56-10,19.45,19.45,0,0,1,16.18,4.43,22.25,22.25,0,0,1,8.06,14.94,17.32,17.32,0,0,1-.91,8.32c-.47-.13-.52-.56-.65-.92a33.8,33.8,0,0,0-4.88-9.38,17.26,17.26,0,0,0-7.45-6,12,12,0,0,0-9.11.17,22.11,22.11,0,0,0-9,7.39,45.72,45.72,0,0,0-6.47,12.11C380,554.37,379.88,555,379.32,555.25Z"/><path class="cls-199" d="M379.85,615.29a17.62,17.62,0,0,1-9.39,6.08,21.32,21.32,0,0,1-26.7-15.68c-2.82-12.37,5.72-22.37,13.9-24.71a21.2,21.2,0,0,1,4.73-.87c.18.6-.3.92-.61,1.25-1,1-1.89,2.07-2.79,3.14a47.81,47.81,0,0,0-8.51,13.91,18.79,18.79,0,0,0-1.26,9.08c.54,4.1,2.89,6.81,6.6,8.44a20.17,20.17,0,0,0,7.39,1.52,46.41,46.41,0,0,0,15.21-2.21C378.89,615.1,379.38,614.91,379.85,615.29Z"/><path class="cls-200" d="M445.78,586.1a19.81,19.81,0,0,1,6,11.52c1,7.38-1.05,13.82-6.58,19A20.7,20.7,0,0,1,432,622.13,20.22,20.22,0,0,1,418,618c-.36-.27-.66-.61-1-.91.29-.34.67-.27,1-.25a62.24,62.24,0,0,0,7.35.16c5.47-.26,10.82-1.12,15.73-3.72a16.32,16.32,0,0,0,7.78-7.92,14.4,14.4,0,0,0,1.13-6.87,24.74,24.74,0,0,0-4.05-11.2C445.8,586.9,445.46,586.56,445.78,586.1Z"/><path class="cls-201" d="M379.85,615.29a7.24,7.24,0,0,0-2.91.62,47.59,47.59,0,0,1-7.71,1.53c-4.18.42-8.36.52-12.42-.88a10.74,10.74,0,0,1-7.9-10.14A22.4,22.4,0,0,1,351.27,596,49.92,49.92,0,0,1,359,584.21l3.21-3.69a1.56,1.56,0,0,0,.2-.41,8.43,8.43,0,0,1,2.06-.16c.24.55-.18.84-.47,1.14a63,63,0,0,0-6.32,7.61A34,34,0,0,0,352,600.56a14.5,14.5,0,0,0-.05,7.05,9.27,9.27,0,0,0,3.76,5.32,14.59,14.59,0,0,0,6.87,2.44,36.91,36.91,0,0,0,12.35-.79c1.77-.41,3.54-.85,5.28-1.41.4-.13.81-.28,1.2.05A12.42,12.42,0,0,1,379.85,615.29Z"/><path class="cls-202" d="M381.4,613.22a17.24,17.24,0,0,0-4.19,1,41.37,41.37,0,0,1-13.41,1.48,15,15,0,0,1-8.62-2.9,9.6,9.6,0,0,1-3.75-6.86,20.53,20.53,0,0,1,2.09-10.52,45.73,45.73,0,0,1,6.61-10.33,53.31,53.31,0,0,1,3.88-4.35,1.38,1.38,0,0,0,.44-.82h1.9c0,.61-.42.93-.78,1.3a54,54,0,0,0-8.05,10.45,26.34,26.34,0,0,0-3.67,10c-.59,4.66,1.29,9,6.26,11a17.64,17.64,0,0,0,5.78,1.19,43.42,43.42,0,0,0,15.49-2.41c.36-.11.79-.45,1.13.07A6.41,6.41,0,0,1,381.4,613.22Z"/><path class="cls-203" d="M382.51,611.47c-.29-.23-.56-.05-.82,0A44.81,44.81,0,0,1,372,613.8a26.14,26.14,0,0,1-10.42-.44c-3.37-1-6.13-2.81-7.39-6.3a11.77,11.77,0,0,1-.43-6.2c.95-5.34,3.66-9.82,6.81-14.08a49.4,49.4,0,0,1,5.14-6,7,7,0,0,0,.66-.88h1.43c.22.47-.18.68-.42.92a54.49,54.49,0,0,0-6.74,8.18c-2.35,3.52-4.3,7.23-4.89,11.49a9.79,9.79,0,0,0,1.91,7.93,10.68,10.68,0,0,0,5.94,3.42c3.93,1,7.85.6,11.77-.1a56.59,56.59,0,0,0,7-1.84c.34-.11.69-.34,1.05-.06A4.61,4.61,0,0,1,382.51,611.47Z"/><path class="cls-204" d="M369.57,580.07a5.7,5.7,0,0,1,1.89.16c-1.74.37-2.53,1.9-3.58,3a39.74,39.74,0,0,0-6.83,10,17.12,17.12,0,0,0-1.92,7.86A7.88,7.88,0,0,0,364,608.4a15.35,15.35,0,0,0,6.07,1.3,39.26,39.26,0,0,0,13.58-2.37c.41-.13.81-.44,1.28-.14a4.26,4.26,0,0,1-.9,1.61,46.88,46.88,0,0,1-12.72,2.76,19.47,19.47,0,0,1-8.47-1.13,9.23,9.23,0,0,1-5.91-10.32c.6-4.54,2.69-8.41,5.22-12.1a55.94,55.94,0,0,1,6.51-7.74,1.22,1.22,0,0,1,.31-.25A1.26,1.26,0,0,1,369.57,580.07Z"/><path class="cls-205" d="M384.89,607.19c-1.59.48-3.17,1-4.76,1.41a31.61,31.61,0,0,1-11.47,1.25,11.2,11.2,0,0,1-7.58-3.24,8.12,8.12,0,0,1-2.16-5.21,16.81,16.81,0,0,1,1.85-8.07,39.19,39.19,0,0,1,6.34-9.48c.83-.94,1.69-1.87,2.5-2.83a1.94,1.94,0,0,1,1.85-.79l.29,0c.22.5-.21.72-.46,1a51.36,51.36,0,0,0-6.66,8.33,22.61,22.61,0,0,0-3.5,9,7.9,7.9,0,0,0,5.38,8.81,18.07,18.07,0,0,0,7.49.78,42.53,42.53,0,0,0,10.4-2.3,1.34,1.34,0,0,1,1.14-.08C385.46,606.31,385.05,606.7,384.89,607.19Z"/><path class="cls-206" d="M368.89,580.1c-.06.47-.47.68-.76,1a49.65,49.65,0,0,0-8.76,11.9,19.1,19.1,0,0,0-2.36,8.67,8.66,8.66,0,0,0,5.45,8.42,16.09,16.09,0,0,0,5.58,1.26c5.07.35,9.9-.79,14.67-2.32.41-.13.81-.44,1.28-.21,0,.45-.47.67-.54,1.09-1.61.46-3.22,1-4.85,1.39a38.87,38.87,0,0,1-6.25,1.16,28,28,0,0,1-4.08.29c-3.17-.2-6.28-.6-9-2.49a8.9,8.9,0,0,1-3.86-7.31,18.17,18.17,0,0,1,2-8.53,42.76,42.76,0,0,1,6.72-10.26c1-1.2,2.07-2.39,3.2-3.49.2-.2.47-.36.48-.7h.33C368.35,580.1,368.66,579.89,368.89,580.1Z"/><path class="cls-207" d="M386.78,602.91a5,5,0,0,1-.61,1.43,38.2,38.2,0,0,1-9.32,2.42,20.22,20.22,0,0,1-7.94-.33,7.8,7.8,0,0,1-5.53-4.57,9.71,9.71,0,0,1-.28-5.84,23.88,23.88,0,0,1,3.66-7.95,45.4,45.4,0,0,1,5.87-7,1.32,1.32,0,0,1,1.4-.49,2.25,2.25,0,0,1,1.09.16A35.05,35.05,0,0,0,366.07,593a11.74,11.74,0,0,0-1,5.56,6.64,6.64,0,0,0,5.19,6,19.21,19.21,0,0,0,8.4.21,34.87,34.87,0,0,0,6.88-1.81C386,602.84,386.36,602.58,386.78,602.91Z"/><path class="cls-208" d="M445.78,586.1c0,.86.69,1.4,1.07,2.07a24.71,24.71,0,0,1,3.34,9.14,14.43,14.43,0,0,1-3.68,12.1,20.36,20.36,0,0,1-7.22,4.94A36.45,36.45,0,0,1,429,616.89a59.18,59.18,0,0,1-8.52.26c-1.14,0-2.29-.18-3.45-.11a3.86,3.86,0,0,1-.93-1,1.39,1.39,0,0,1,1.2-.2,51.49,51.49,0,0,0,6.8.28c5.49-.21,10.88-1,15.86-3.53a17.12,17.12,0,0,0,6.68-5.81,14.25,14.25,0,0,0,1.77-11.33,28.11,28.11,0,0,0-5.26-10.73c-.26-.34-.75-.66-.38-1.23A12.73,12.73,0,0,1,445.78,586.1Z"/><path class="cls-209" d="M386.78,602.91a15.91,15.91,0,0,0-3.38,1,28.55,28.55,0,0,1-10.73,1.32c-2.73-.22-5.23-1.12-6.79-3.58a7,7,0,0,1-1-4.51c.38-4.55,2.78-8.13,5.42-11.61a41.12,41.12,0,0,1,3.93-4.41,1.13,1.13,0,0,1,.88-.45,1.84,1.84,0,0,1,.95.16,6.05,6.05,0,0,1-1.24,1.43,37.16,37.16,0,0,0-5.63,7.23,15.7,15.7,0,0,0-2.22,5.82,7.48,7.48,0,0,0,.66,5,7,7,0,0,0,4.92,3.15,19.73,19.73,0,0,0,8.48-.31,45.73,45.73,0,0,0,5.18-1.47c.34-.12.69-.34,1-.06A4.4,4.4,0,0,1,386.78,602.91Z"/><path class="cls-210" d="M429,579.94h1.11a16.42,16.42,0,0,1,2.61,2.39,25.59,25.59,0,0,1,6.09,10.17c1.29,4.44.65,8.53-2.64,12a15.66,15.66,0,0,1-5.83,3.71,29.16,29.16,0,0,1-10.38,1.92c-1.37,0-2.74,0-4.11,0a33.81,33.81,0,0,1-3.61-.31,1.18,1.18,0,0,1-.69-.35,2.24,2.24,0,0,1-.44-.8c.77-.46,1.55-.07,2.31,0a36.5,36.5,0,0,0,14.11-1,15.57,15.57,0,0,0,7.68-4.65,9.76,9.76,0,0,0,2.45-6.05c.2-4.09-1.44-7.56-3.68-10.82a34.26,34.26,0,0,0-4.52-5.18C429.18,580.66,428.75,580.44,429,579.94Z"/><path class="cls-211" d="M442.78,583.53c0,.8.66,1.23,1.06,1.78a25.79,25.79,0,0,1,5.06,11.6,13.86,13.86,0,0,1-3.8,12.17,22,22,0,0,1-10.19,5.74,45.5,45.5,0,0,1-9.07,1.45,74.47,74.47,0,0,1-7.62-.06c-.7,0-1.4-.18-2.11-.13-.21-.21-.41-.43-.61-.64.16-.35.44-.29.74-.27,2.31.11,4.61.46,6.93.37A40.33,40.33,0,0,0,436.88,613a20.79,20.79,0,0,0,6.28-3.79,13.58,13.58,0,0,0,4.47-8.25,18,18,0,0,0-1.72-10,32.47,32.47,0,0,0-4.38-7.05c-.36-.46-1-.86-.82-1.6A6.14,6.14,0,0,1,442.78,583.53Z"/><path class="cls-212" d="M414.8,614.51a1.71,1.71,0,0,1-.47-.63c.2-.42.55-.31.89-.29,2.13.15,4.26.41,6.4.35a41.21,41.21,0,0,0,11.93-1.75c4-1.31,7.55-3.31,9.9-7a12.83,12.83,0,0,0,1.87-8.55c-.43-4.1-2.27-7.6-4.56-10.91a48.09,48.09,0,0,0-3.16-4c-.21-.26-.49-.5-.38-.9a4.81,4.81,0,0,1,1.43.47,30.81,30.81,0,0,1,5.39,7.29,22.08,22.08,0,0,1,2.79,8.28,13.28,13.28,0,0,1-3.51,10.87c-2.74,3-6.28,4.67-10.11,5.8A45.48,45.48,0,0,1,418.38,615,10.39,10.39,0,0,1,414.8,614.51Z"/><path class="cls-213" d="M429,579.94c0,.45.42.65.7.92a30,30,0,0,1,6.53,8.63,14.62,14.62,0,0,1,1.63,7.86,10.08,10.08,0,0,1-2.6,5.89c-2.75,3-6.32,4.43-10.21,5.21a36.12,36.12,0,0,1-8.62.63c-1.78-.07-3.55-.3-5.32-.46l-.39-.78c.65-.43,1.33-.06,2,0,5.23.55,10.39.41,15.38-1.45a13.56,13.56,0,0,0,6.62-4.83,9.94,9.94,0,0,0,1.61-7.68,19.53,19.53,0,0,0-3.37-7.71,46.3,46.3,0,0,0-3.55-4.34,6.3,6.3,0,0,0-1-.8c-.36-.27-.71-.56-.67-1.08Z"/><path class="cls-214" d="M437.22,580.9c.81,1.27,1.92,2.3,2.81,3.5a27.3,27.3,0,0,1,5.17,10.2c1,4.43.37,8.53-2.54,12.11a17.17,17.17,0,0,1-6.46,4.71,31,31,0,0,1-9.25,2.4,36.54,36.54,0,0,1-6.93.32,43.46,43.46,0,0,1-5.09-.41,1.14,1.14,0,0,0-.6.15,1.75,1.75,0,0,1-.57-.82.6.6,0,0,1,.58-.17,38.43,38.43,0,0,0,3.85.32c1.39,0,2.79-.05,4.19,0a31.79,31.79,0,0,0,12.48-2.39,16,16,0,0,0,7.23-5.47,12.54,12.54,0,0,0,2.13-9.48,22.4,22.4,0,0,0-3.4-8.63,39.61,39.61,0,0,0-3.39-4.56,7.52,7.52,0,0,1-1.33-1.54c-.08-.17-.21-.32-.14-.52C436.42,580.51,436.77,580.92,437.22,580.9Z"/><path class="cls-215" d="M379.32,555.25c1.13-2.64,2.1-5.35,3.47-7.88a40.63,40.63,0,0,1,5.15-7.53,21.67,21.67,0,0,1,5.88-4.84c4.47-2.45,9-2.55,13.39.2a21.74,21.74,0,0,1,7.11,7.8,39.81,39.81,0,0,1,3,6.76,5,5,0,0,0,.37.69,3.07,3.07,0,0,1-.46,1.31,4.14,4.14,0,0,1-.74-1.64,31.71,31.71,0,0,0-5.09-9.61,15.4,15.4,0,0,0-8-5.64,11.84,11.84,0,0,0-8.47.87,21.49,21.49,0,0,0-7.91,6.66,47.29,47.29,0,0,0-6.88,13.12c-.09.24-.12.52-.37.68A2.61,2.61,0,0,1,379.32,555.25Z"/><path class="cls-216" d="M388.69,597.68l-.48,1.43a18,18,0,0,1-3.34,1.2,22.36,22.36,0,0,1-8.12,1.07,8.11,8.11,0,0,1-4.59-1.57,5.62,5.62,0,0,1-2.12-5.49,16.56,16.56,0,0,1,3-7.11,32,32,0,0,1,4.54-5.37c.31-.28.57-.66,1.08-.5l.58.19c.21.53-.26.75-.53,1a31,31,0,0,0-4.72,6,11.34,11.34,0,0,0-1.83,6.06,4.58,4.58,0,0,0,2.65,4.2,8.38,8.38,0,0,0,3.43.84,24.17,24.17,0,0,0,9.36-1.75C387.93,597.82,388.27,597.56,388.69,597.68Z"/><path class="cls-217" d="M412.63,611.32l-.5-.79a7.36,7.36,0,0,1,2.34.16,64.31,64.31,0,0,0,7.35.16,38.57,38.57,0,0,0,7.34-1.16,19.71,19.71,0,0,0,6.95-3.34c4.37-3.37,5.59-8.36,4.06-13.48a27.44,27.44,0,0,0-5.6-9.67c-.7-.83-1.44-1.61-2.22-2.37a1.87,1.87,0,0,0-1.09-.59c-.12-.06-.22-.13-.22-.28a4.8,4.8,0,0,1,2.22.31,21.52,21.52,0,0,1,3.11,3.36,26.35,26.35,0,0,1,5.14,9,14.73,14.73,0,0,1,.6,6.42,12.24,12.24,0,0,1-5.5,8.62,23.41,23.41,0,0,1-9.38,3.65A38.25,38.25,0,0,1,419,612a44.38,44.38,0,0,1-5.75-.44A1.12,1.12,0,0,1,412.63,611.32Z"/><path class="cls-218" d="M413.94,558.41a3,3,0,0,1-.66,1.06,7.21,7.21,0,0,1-.67-2,25.58,25.58,0,0,0-4.76-9.31c-2.2-2.58-4.88-4.27-8.41-4.16a10.36,10.36,0,0,0-5.77,2.16,22.53,22.53,0,0,0-6.27,7.35,40.64,40.64,0,0,0-3.31,7.7c-.12.36-.17.79-.61,1a1.87,1.87,0,0,1-.5-.74,16.3,16.3,0,0,1,.95-3.07,36.37,36.37,0,0,1,3.06-6.5,22.78,22.78,0,0,1,7.18-7.78,10.53,10.53,0,0,1,12.07.54,20.1,20.1,0,0,1,5.95,8.33,42.83,42.83,0,0,1,1.65,4.78C413.91,558,414,558.16,413.94,558.41Z"/><path class="cls-219" d="M387.27,601.65c-2,.49-3.85,1.23-5.83,1.67a23.27,23.27,0,0,1-6.8.68,10.09,10.09,0,0,1-5.69-1.84,5.81,5.81,0,0,1-2.28-4.24c-.29-3.43,1-6.39,2.77-9.22a43.75,43.75,0,0,1,6.4-7.77c.05,0,.15,0,.23-.07a1.67,1.67,0,0,1,.93.17c-1,1.34-2.25,2.38-3.29,3.64-2.3,2.79-4.4,5.69-5.25,9.29a9.42,9.42,0,0,0-.27,3.3,5.68,5.68,0,0,0,4,4.82,14.31,14.31,0,0,0,6.72.55,33.62,33.62,0,0,0,7.52-1.85c.35-.13.73-.38,1.12-.08Z"/><path class="cls-220" d="M385.54,605.77c-2.11.53-4.14,1.35-6.28,1.81a31.44,31.44,0,0,1-8.36.86,12.42,12.42,0,0,1-6.71-2,7.65,7.65,0,0,1-3.24-5.3,14.47,14.47,0,0,1,1.54-8,35,35,0,0,1,5.87-8.94c1-1.13,2-2.27,3-3.33.16-.17.36-.32.36-.59.3-.12.51.17.78.18,0,.67-.5,1-.9,1.41a41.53,41.53,0,0,0-6.68,8.6A19.05,19.05,0,0,0,362.4,597a10.21,10.21,0,0,0,.25,5.23,6.88,6.88,0,0,0,4.05,4.09,16.86,16.86,0,0,0,7.68,1.06A42.92,42.92,0,0,0,385,605c.29-.1.61-.28.82.13A1.18,1.18,0,0,1,385.54,605.77Z"/><path class="cls-221" d="M431,580l.16.13a5.2,5.2,0,0,1,1.55,1.33,30.78,30.78,0,0,1,6.45,9.6,15.64,15.64,0,0,1,1.19,5.71,11.27,11.27,0,0,1-3.08,7.92c-2.73,2.92-6.21,4.37-10,5.27a41.81,41.81,0,0,1-11.1.79c-1.16,0-2.31-.2-3.47-.32a1.94,1.94,0,0,1-.87-.34,1.3,1.3,0,0,1-.34-.63c1,.12,2,.12,2.94.29a32.14,32.14,0,0,0,3.65.16,23.15,23.15,0,0,0,5.26-.17,31,31,0,0,0,4.92-1,18.65,18.65,0,0,0,6.93-3.65,10.81,10.81,0,0,0,3.75-6.38,13.71,13.71,0,0,0-.88-7.59,27.6,27.6,0,0,0-6.29-9.28,19.7,19.7,0,0,1-1.72-1.82Z"/><path class="cls-222" d="M419.13,580.87a2.26,2.26,0,0,1,1.09-.17.47.47,0,0,1,.5.15c3.07,2.72,5.82,5.67,7.13,9.69a8.25,8.25,0,0,1-4.28,10.33,20.25,20.25,0,0,1-7.68,2,33.36,33.36,0,0,1-6.92-.33,1.1,1.1,0,0,1-.74-.24l-.31-.64c.07-.51.45-.43.79-.39a31.74,31.74,0,0,0,5.92.33c3.33-.2,6.59-.74,9.27-3a6.85,6.85,0,0,0,2.55-6.63,14.58,14.58,0,0,0-3.89-7.49,30.76,30.76,0,0,0-3-2.92A.91.91,0,0,1,419.13,580.87Z"/><path class="cls-223" d="M385.83,605.13a.57.57,0,0,0-.58,0,41.61,41.61,0,0,1-9.69,2.38,18.09,18.09,0,0,1-8.69-.89,7.39,7.39,0,0,1-4.83-6.25c-.3-3.71,1-6.93,2.73-10a40.79,40.79,0,0,1,7.09-9,6.29,6.29,0,0,0,.67-.87,2.65,2.65,0,0,1,1.5.11,1.26,1.26,0,0,0-1,.38,40.32,40.32,0,0,0-8.42,11.36,14.08,14.08,0,0,0-1.58,7.17,7.08,7.08,0,0,0,5,6.47c2.71,1,5.52.92,8.34.67a38.62,38.62,0,0,0,8.87-2.12,2.72,2.72,0,0,1,.93-.13Z"/><path class="cls-224" d="M383.48,562.16c.58-1.55,1.12-3.12,1.75-4.66A27.57,27.57,0,0,1,392.29,547a11.15,11.15,0,0,1,7.86-3.18,9.59,9.59,0,0,1,5.72,2.19,19.59,19.59,0,0,1,5.87,8.46,24.06,24.06,0,0,1,1.54,5,1.6,1.6,0,0,1-.45.69c-.39-.24-.38-.68-.48-1a28.63,28.63,0,0,0-2.38-6.27,17.68,17.68,0,0,0-4.31-5.52,9.07,9.07,0,0,0-11.11-.63,18.66,18.66,0,0,0-5.34,5.32,35.63,35.63,0,0,0-4.79,10.38.92.92,0,0,1-.32.61A2.59,2.59,0,0,1,383.48,562.16Z"/><path class="cls-225" d="M382.11,582.13a2.9,2.9,0,0,1,1.25.32,18.87,18.87,0,0,0-5,6.44,8.53,8.53,0,0,0-.64,2.2,3.49,3.49,0,0,0,2.48,4,11.32,11.32,0,0,0,6.47-.29c.77-.21,1.51-.5,2.26-.74.3-.09.6-.25.9,0a3.49,3.49,0,0,1-.35,1.26,18.65,18.65,0,0,1-5.79,1.79,12.51,12.51,0,0,1-4.4,0,4.45,4.45,0,0,1-3.73-3.23,7.48,7.48,0,0,1,.36-4,17.51,17.51,0,0,1,3-4.92,24.82,24.82,0,0,1,2.27-2.43C381.42,582.27,381.68,582,382.11,582.13Z"/><path class="cls-226" d="M411.87,610.05a46,46,0,0,0,9.59.45c4.71-.27,9.3-1.15,13.29-3.9a11.61,11.61,0,0,0,5.29-8,14.59,14.59,0,0,0-1-7.47,28.49,28.49,0,0,0-5.42-8.46c-.79-.88-1.68-1.67-2.4-2.6a1.24,1.24,0,0,1,1.07.34,33.75,33.75,0,0,1,7,9.48,15.67,15.67,0,0,1,1.74,7.77,11.46,11.46,0,0,1-4.42,8.56,22.39,22.39,0,0,1-11.3,4.46,34.92,34.92,0,0,1-7.14.43,27.7,27.7,0,0,1-6-.6Z"/><path class="cls-227" d="M378.62,581.34a.83.83,0,0,0-.55.27,30.42,30.42,0,0,0-6.59,8.69,10.91,10.91,0,0,0-1.28,4.6c0,3.14,1.45,5.14,4.68,5.94a17.65,17.65,0,0,0,8.57-.37c1.28-.31,2.52-.74,3.76-1.16a2.32,2.32,0,0,1,1-.2l-.3.79a20,20,0,0,1-5,1.74,22.55,22.55,0,0,1-6.75.7,9.38,9.38,0,0,1-3.9-.92,5.8,5.8,0,0,1-3.46-5.41,12.91,12.91,0,0,1,1.72-6.27,31.19,31.19,0,0,1,6.21-8c.3-.29.56-.67,1.07-.51A1.28,1.28,0,0,1,378.62,581.34Z"/><path class="cls-228" d="M408.23,602.28a54.61,54.61,0,0,0,6.12.46c3.27-.14,6.5-.52,9.41-2.21A7.87,7.87,0,0,0,428,594.3a11.1,11.1,0,0,0-1.75-6.72,26.6,26.6,0,0,0-6.07-6.88,1.74,1.74,0,0,1,.95-.15.2.2,0,0,1,.24,0,29.29,29.29,0,0,1,5.6,6.11,14.16,14.16,0,0,1,2.43,6.37,8,8,0,0,1-2.91,7.1,15.25,15.25,0,0,1-8.42,3.31,37.13,37.13,0,0,1-9.06-.16.77.77,0,0,1-.5-.2A1.77,1.77,0,0,1,408.23,602.28Z"/><path class="cls-229" d="M388.69,597.68a25.71,25.71,0,0,1-7.17,2.06,12.76,12.76,0,0,1-6.31-.45,5,5,0,0,1-3.31-4.64c0-3.09,1.38-5.63,3.09-8a31.34,31.34,0,0,1,3.9-4.55.75.75,0,0,0,.31-.53,3.11,3.11,0,0,1,1.59.29.86.86,0,0,0-.07.1,3.78,3.78,0,0,0-1.14.85,25,25,0,0,0-5.44,7.71,8.61,8.61,0,0,0-.57,4.19,3.68,3.68,0,0,0,1.76,2.87,9,9,0,0,0,5.41,1.12,25.57,25.57,0,0,0,7.74-1.88.66.66,0,0,1,.53,0A2.28,2.28,0,0,1,388.69,597.68Z"/><path class="cls-230" d="M389.82,594c-1.35.24-2.58.89-3.92,1.17a10.73,10.73,0,0,1-6,0,3.75,3.75,0,0,1-2.45-4.18,13.3,13.3,0,0,1,3.19-6.14c.6-.7,1.25-1.35,1.87-2a1,1,0,0,1,.82-.4,1.33,1.33,0,0,1,.75.18c.06.48-.35.68-.6,1a16.25,16.25,0,0,0-3.66,5.58c-.9,2.74.44,4.68,3.34,4.81a15.57,15.57,0,0,0,5.72-1.07c.44-.15.85-.44,1.36-.3A6,6,0,0,1,389.82,594Z"/><path class="cls-231" d="M419.13,580.87l2.11,2c2.75,2.59,4.91,5.55,5.5,9.4a7.56,7.56,0,0,1-3.82,7.34,17.24,17.24,0,0,1-6.79,2.06,32.91,32.91,0,0,1-7.62-.23.55.55,0,0,0-.59.2l-.34-1.1a7.15,7.15,0,0,1,2.35.15,24.3,24.3,0,0,0,8.79-.56,10.28,10.28,0,0,0,4.48-2.45,6.64,6.64,0,0,0,1.9-6.88,15.8,15.8,0,0,0-3.16-5.8,24.67,24.67,0,0,0-3.38-3.32c-.2-.16-.44-.31-.36-.64A1.76,1.76,0,0,1,419.13,580.87Z"/><path class="cls-232" d="M440.71,582.33a19.9,19.9,0,0,0,2,2.87,25.72,25.72,0,0,1,5,11.2,13.58,13.58,0,0,1-3,11.43c-2.93,3.47-6.83,5.27-11.07,6.48a33.21,33.21,0,0,1-7.12,1.25,40.41,40.41,0,0,1-7.54,0,8.55,8.55,0,0,0-3.53-.12c-.21-.09-.23-.32-.34-.47.73-.46,1.52-.14,2.28-.1,2.13.09,4.25.23,6.39.14a46.32,46.32,0,0,0,6.75-.75,24.47,24.47,0,0,0,11.8-5.23,13,13,0,0,0,4.62-8.82,19.18,19.18,0,0,0-2.43-10.72,36.17,36.17,0,0,0-4.68-6.84c-.22-.27-.53-.53-.45-1A2.94,2.94,0,0,1,440.71,582.33Z"/><path class="cls-233" d="M377.81,581.18a.86.86,0,0,0-.6.34,32.4,32.4,0,0,0-6.6,8.49,11.55,11.55,0,0,0-1.54,6.9,5.49,5.49,0,0,0,3.65,4.49,13.79,13.79,0,0,0,6.83.62,30,30,0,0,0,7.9-2,3.4,3.4,0,0,1,.46-.08c.09.34-.36.47-.32.8-1.48.45-2.95.92-4.44,1.34a24.55,24.55,0,0,1-6.28,1,10.76,10.76,0,0,1-6.42-1.58,5.51,5.51,0,0,1-2.5-4.62,14.62,14.62,0,0,1,2.56-8.16,33.73,33.73,0,0,1,5.37-6.59c.37-.35.48-1,1.12-1.05A1.34,1.34,0,0,1,377.81,581.18Z"/><path class="cls-234" d="M433.73,580.24l.95.14c3.85,4,7.15,8.29,8.46,13.81a12.74,12.74,0,0,1-2.66,11.8,16.72,16.72,0,0,1-6.54,4.49,32.6,32.6,0,0,1-9.45,2.19,64.48,64.48,0,0,1-6.81.11,18.62,18.62,0,0,1-4.45-.49.88.88,0,0,1-.31-.49c.28-.29.63-.21,1-.17a47.52,47.52,0,0,0,6.31.39,41.48,41.48,0,0,0,7.92-.8,23.35,23.35,0,0,0,7.68-2.85c3.54-2.14,5.95-5.1,6.51-9.32a14.52,14.52,0,0,0-.9-7,28.57,28.57,0,0,0-6.18-9.76c-.45-.48-.84-1-1.3-1.49C433.79,580.65,433.64,580.48,433.73,580.24Z"/><path class="cls-235" d="M413.23,612.29c2.73.1,5.45.36,8.19.31a33.67,33.67,0,0,0,12.25-2.25,15.56,15.56,0,0,0,7.78-6,11.92,11.92,0,0,0,1.81-5.4c.35-3.81-.85-7.18-2.62-10.45A40.29,40.29,0,0,0,435,581c-.16-.17-.35-.33-.34-.6l.49,0a1.31,1.31,0,0,1,.7.47c2.74,3.08,5.34,6.26,6.9,10.14a16.49,16.49,0,0,1,1.39,8.34,13,13,0,0,1-6.08,9.56,25,25,0,0,1-9.77,3.71,44.07,44.07,0,0,1-7.95.59c-2,0-4-.16-6.05-.33a2,2,0,0,1-.88-.32Z"/><path class="cls-236" d="M382.11,582.13a6.75,6.75,0,0,0-2.26,2,22.3,22.3,0,0,0-2.88,3.93,8.32,8.32,0,0,0-1.23,5.63,3.62,3.62,0,0,0,2.56,2.85,12.27,12.27,0,0,0,7.2,0,12.57,12.57,0,0,0,2.91-1,1.85,1.85,0,0,1,1.06-.25c0,.36-.36.59-.3,1a13.25,13.25,0,0,1-3.4,1.26,15.37,15.37,0,0,1-7.25.67,6.74,6.74,0,0,1-2.5-1,4.53,4.53,0,0,1-2-4.51,11.91,11.91,0,0,1,1.92-5.15,25.47,25.47,0,0,1,4.83-5.72l0,0A3.19,3.19,0,0,1,382.11,582.13Z"/><path class="cls-237" d="M379.81,556.2a20.38,20.38,0,0,1,1.24-3.57,47.56,47.56,0,0,1,4.9-9.07,23.14,23.14,0,0,1,9.08-8.09,12.46,12.46,0,0,1,13.34,1.71c4.11,3.28,6.43,7.7,8.22,12.48.26.69.45,1.4.68,2.1a.27.27,0,0,1-.15.28c-.58.05-.57-.46-.68-.79a34.61,34.61,0,0,0-3.74-8,18.76,18.76,0,0,0-5.87-6.12c-4.39-2.75-8.79-2.54-13.16,0a24.26,24.26,0,0,0-7.52,7.37,46.66,46.66,0,0,0-5.5,11c-.14.39-.19.85-.68,1Z"/><path class="cls-238" d="M410.42,563.57a1.19,1.19,0,0,1-.41.53c-.56,0-.5-.53-.59-.87a25.47,25.47,0,0,0-1.83-5.22,13.69,13.69,0,0,0-3.82-5,6.92,6.92,0,0,0-8.47-.29,16.7,16.7,0,0,0-5.61,6.53,28.17,28.17,0,0,0-2.46,6.33c-.09.33-.11.69-.44.9a1.28,1.28,0,0,1-.45-.55,1.25,1.25,0,0,1,0-1.07,31.46,31.46,0,0,1,4.29-9.3,14,14,0,0,1,5-4.63,7.76,7.76,0,0,1,9.46,1.42,18.93,18.93,0,0,1,4.67,8.16c.25.75.44,1.52.63,2.29C410.47,563.07,410.59,563.32,410.42,563.57Z"/><path class="cls-239" d="M382.53,560.75l-.32-.48a2.35,2.35,0,0,1,.24-1.52,36.44,36.44,0,0,1,7.12-13,15.72,15.72,0,0,1,8.39-5.35,9.9,9.9,0,0,1,7.51,1.35,17.56,17.56,0,0,1,6.25,6.77,37.2,37.2,0,0,1,2.62,6c.25.69.32,1.44.56,2.13a1.59,1.59,0,0,1-.49,1c-.27-.2-.22-.52-.3-.79a31.37,31.37,0,0,0-3.7-8.62,16.47,16.47,0,0,0-5.16-5.28,9.91,9.91,0,0,0-10.66,0,20,20,0,0,0-6.59,6.39,39.72,39.72,0,0,0-4.94,10.22A2.73,2.73,0,0,1,382.53,560.75Z"/><path class="cls-240" d="M390.27,592.61a17.76,17.76,0,0,1-7.1,1.59,3.77,3.77,0,0,1-3.77-2.66,5.4,5.4,0,0,1,.63-3.43,18.34,18.34,0,0,1,3.17-4.49c.3-.34.61-.66.91-1a6.12,6.12,0,0,1,1.62.46,14.37,14.37,0,0,0-3.09,3.55,7.07,7.07,0,0,0-1.07,2.69,2.39,2.39,0,0,0,1.68,2.84,6.64,6.64,0,0,0,3,.16,12.79,12.79,0,0,0,3.43-.91c.29-.13.61-.35,1-.08C390.66,591.81,390.19,592.14,390.27,592.61Z"/><path class="cls-241" d="M386.79,566.5a28.93,28.93,0,0,1,3.79-9.15c1.84-2.82,4.07-5.2,7.51-6a6.69,6.69,0,0,1,5.77,1.47c2.85,2.22,4.23,5.35,5.31,8.67a8.74,8.74,0,0,0,.84,2.59,2.7,2.7,0,0,1-.69.88c-.28-.15-.3-.41-.36-.67a20.16,20.16,0,0,0-2.9-7.4,10.44,10.44,0,0,0-4-3.75c-2.64-1.29-5.49-.54-7.84,1.49-3.24,2.8-4.94,6.51-6.21,10.49a4.81,4.81,0,0,1-.73,2A1.43,1.43,0,0,1,386.79,566.5Z"/><path class="cls-242" d="M385.7,565.15l-.33-.42a1.1,1.1,0,0,1,0-.92,31.13,31.13,0,0,1,5.32-10.87,14.13,14.13,0,0,1,5.69-4.54c3.42-1.33,6.41-.54,9.08,1.81a18.64,18.64,0,0,1,4.85,7.68,24.53,24.53,0,0,1,1,3.33,1.52,1.52,0,0,1,0,1,1.41,1.41,0,0,1-.47.64,8.19,8.19,0,0,1-.85-2.6,19.91,19.91,0,0,0-4.71-8.49c-3.52-3.5-7.89-3.34-11.55-.37-3,2.47-4.87,5.77-6.34,9.31-.49,1.18-.86,2.39-1.24,3.6C386.13,564.65,386.05,565,385.7,565.15Z"/><path class="cls-243" d="M413.94,558.41c-.73-1.64-1.13-3.39-1.79-5.06a25.11,25.11,0,0,0-3.64-6.23,11.28,11.28,0,0,0-5.83-4.11,9.74,9.74,0,0,0-8.12,1.06A22.22,22.22,0,0,0,387,552.2a41.67,41.67,0,0,0-3.53,8.07,10.61,10.61,0,0,1-.51,1.15.61.61,0,0,1-.32-.47,18.37,18.37,0,0,1,1.41-4.24,34.46,34.46,0,0,1,4.75-8.53c2.17-2.72,4.62-5.12,8.06-6.13a10,10,0,0,1,9.72,2,20.42,20.42,0,0,1,5.93,8.35,31.78,31.78,0,0,1,1.7,5c0,.17.14.35,0,.53A.77.77,0,0,1,413.94,558.41Z"/><path class="cls-244" d="M439.44,581.69c1,1.44,2.2,2.74,3.2,4.19a24.79,24.79,0,0,1,4.54,10.81A13.47,13.47,0,0,1,442.81,609a21.49,21.49,0,0,1-8.84,4.72,44.66,44.66,0,0,1-9.7,1.51c-2.14.14-4.25-.1-6.38-.09-.9,0-1.81-.2-2.73-.12a.67.67,0,0,1-.36-.46c1.68,0,3.34.34,5,.3s3.28.09,4.91,0c5.67-.41,11.17-1.49,15.91-4.89a13.56,13.56,0,0,0,6-9.62,17.67,17.67,0,0,0-1.74-9.48,33.66,33.66,0,0,0-6-9,.61.61,0,0,1-.19-.42A1.66,1.66,0,0,1,439.44,581.69Z"/><path class="cls-245" d="M390.6,591.34c-1.12.25-2.14.84-3.29,1a11.38,11.38,0,0,1-3.59.14,2.75,2.75,0,0,1-2.24-3.81,13,13,0,0,1,3.66-5.43.79.79,0,0,1,.59-.18,2.67,2.67,0,0,1,1.1.31c0,.49-.38.74-.68,1a9.9,9.9,0,0,0-2,2.84,3.23,3.23,0,0,0-.31,1.53,1.67,1.67,0,0,0,1.23,1.66,6.18,6.18,0,0,0,3.66-.16,10.52,10.52,0,0,1,2.32-.7A7,7,0,0,1,390.6,591.34Z"/><path class="cls-246" d="M407.28,599.9l-.22-.78c.37-.34.8-.19,1.21-.14a20.46,20.46,0,0,0,9.55-.64,8.59,8.59,0,0,0,3.49-2.11,6.55,6.55,0,0,0,.88-7.4,19.65,19.65,0,0,0-5.86-7c-.14-.11-.32-.19-.4-.37a1.28,1.28,0,0,1,.79-.15,1.12,1.12,0,0,1,1.15.34,18.77,18.77,0,0,1,5.91,7.42c1.6,3.88.55,7.62-3.43,9.64a17.09,17.09,0,0,1-5.92,1.57,31.34,31.34,0,0,1-6.78-.29A.71.71,0,0,1,407.28,599.9Z"/><path class="cls-247" d="M415.93,581.49c.68,0,1,.61,1.48,1a16.22,16.22,0,0,1,5.35,7.29,6.31,6.31,0,0,1-3.34,8.09,15.3,15.3,0,0,1-6.53,1.57,54,54,0,0,1-5.83-.32,1.73,1.73,0,0,1-.27-.8c.67-.33,1.34,0,2,0,2.94.18,5.86.27,8.66-.83,2.21-.87,3.87-2.3,4.26-4.77a7.59,7.59,0,0,0-1.12-5.08,20.33,20.33,0,0,0-4.26-4.85,7.61,7.61,0,0,1-1.19-1.15A1.26,1.26,0,0,1,415.93,581.49Z"/><path class="cls-248" d="M433.73,580.24c1.47,1.78,3.13,3.4,4.46,5.31a22.31,22.31,0,0,1,4.38,10.5,11.8,11.8,0,0,1-3.21,9.73,19.81,19.81,0,0,1-10.93,5.56,41.36,41.36,0,0,1-7,.8,49.3,49.3,0,0,1-7.29-.33,9.43,9.43,0,0,0-1.19,0,.72.72,0,0,1-.29-.48c1.82.16,3.65.34,5.48.44a26.27,26.27,0,0,0,3.32,0,39.77,39.77,0,0,0,8.54-1.26,18.9,18.9,0,0,0,8.77-4.93,11.47,11.47,0,0,0,3.25-7.81c.1-4.84-1.93-8.85-4.69-12.61a38.77,38.77,0,0,0-3.73-4.37.75.75,0,0,1-.31-.53Z"/><path class="cls-249" d="M412.48,582.3c.32-.28.78-.06,1.12-.29a13.77,13.77,0,0,1,6.12,7.68A5.39,5.39,0,0,1,417,596a11.69,11.69,0,0,1-5,1.43,19.83,19.83,0,0,1-5.27-.29,1.07,1.07,0,0,1-.44-.19,2.3,2.3,0,0,1-.27-1,2.5,2.5,0,0,1,1.46,0,14.74,14.74,0,0,0,7.39-.7,4.83,4.83,0,0,0,2.7-7,14.08,14.08,0,0,0-3.75-4.65C413.32,583.23,412.74,582.92,412.48,582.3Z"/><path class="cls-235" d="M413.43,612.59a46.9,46.9,0,0,0,9.76.44,30.84,30.84,0,0,0,12.91-3.14c3.5-1.84,6.21-4.41,7.4-8.31a13.85,13.85,0,0,0,0-7.84,27.39,27.39,0,0,0-5.68-10.29c-.85-1-1.75-2-2.63-3l.79.15c1.2,1.67,2.75,3.07,3.9,4.77a25.71,25.71,0,0,1,4.52,10.15,13,13,0,0,1-1.28,8.62A14.33,14.33,0,0,1,437,610a28,28,0,0,1-10.2,3.08,29.79,29.79,0,0,1-3.35.36c-1.12,0-2.26-.11-3.38,0a53,53,0,0,1-6.3-.34A.88.88,0,0,1,413.43,612.59Z"/><path class="cls-250" d="M388.69,568.72l-.46-.52a.9.9,0,0,1-.11-.83,25.82,25.82,0,0,1,4.18-9.06,10.62,10.62,0,0,1,4.48-3.65,6.35,6.35,0,0,1,6.9,1.35,13.35,13.35,0,0,1,3.44,5.15,26.47,26.47,0,0,1,1.27,4.24,1,1,0,0,1,0,.77,1.38,1.38,0,0,1-.49.6,1.58,1.58,0,0,1-.53-1.1,21.46,21.46,0,0,0-2.07-5.71,10.47,10.47,0,0,0-2.67-3.1,6.11,6.11,0,0,0-7.9.6,18.81,18.81,0,0,0-4.84,7.77A17.06,17.06,0,0,0,389,568,.94.94,0,0,1,388.69,568.72Z"/><path class="cls-251" d="M427.71,580a4.76,4.76,0,0,0,1.26,1.27,19.29,19.29,0,0,1,2.77,3,24.17,24.17,0,0,1,4.17,7.21,12.74,12.74,0,0,1,.8,4.16,10.13,10.13,0,0,1-2.64,7.07,17.1,17.1,0,0,1-8.58,4.73,36.75,36.75,0,0,1-10.5.88c-1.43,0-2.86-.28-4.29-.44-.09-.16-.17-.32-.25-.49a.69.69,0,0,1,.66-.15,36.82,36.82,0,0,0,8.12.4,23.29,23.29,0,0,0,10.45-2.51c3.65-1.93,6-4.85,6.18-9.11a12.68,12.68,0,0,0-1-5.24,25.34,25.34,0,0,0-5-7.65,17.08,17.08,0,0,0-2.41-2.4c-.21-.15-.37-.38-.67-.38l-.49,0a1.53,1.53,0,0,1-.36-.07.31.31,0,0,1-.18-.16A6.32,6.32,0,0,1,427.71,580Z"/><path class="cls-252" d="M390.12,570.3l-.47-.49a4.55,4.55,0,0,1,.38-2.61,19.1,19.1,0,0,1,3.46-6.79,9.37,9.37,0,0,1,2.45-2.21,5.71,5.71,0,0,1,7.45,1.19c2.09,2.31,2.93,5.13,3.5,8.08a1,1,0,0,1-.09.61,1.42,1.42,0,0,1-.49.59c-.43-.33-.44-.82-.53-1.28a15.25,15.25,0,0,0-2.39-5.89,7.24,7.24,0,0,0-1.71-1.74,5,5,0,0,0-6.38.62,15,15,0,0,0-3.81,5.93,21.2,21.2,0,0,0-1,3.32A.82.82,0,0,1,390.12,570.3Z"/><path class="cls-253" d="M426.28,580.1h.48a16.6,16.6,0,0,1,3.47,3.33,22.21,22.21,0,0,1,4.95,8.38c1.07,3.7.77,7.22-1.77,10.31a12.81,12.81,0,0,1-4.83,3.51,24.16,24.16,0,0,1-7.48,1.9,41.55,41.55,0,0,1-10.39-.29,1.08,1.08,0,0,0-.31,0,.92.92,0,0,1-.26-.52c.73-.5,1.5-.06,2.23,0a46.47,46.47,0,0,0,6.78.16,28.15,28.15,0,0,0,7.34-1.42,13.16,13.16,0,0,0,5.75-3.65,9.33,9.33,0,0,0,2.43-7.35c-.35-3.67-2.08-6.7-4.26-9.54a39,39,0,0,0-3.58-3.91C426.58,580.75,426.21,580.55,426.28,580.1Z"/><path class="cls-254" d="M406.8,568.08a18.38,18.38,0,0,0-2.52-7.22,6.86,6.86,0,0,0-3.65-3.1,5.79,5.79,0,0,0-5.82,1.55,17.49,17.49,0,0,0-4.35,7.23,31.21,31.21,0,0,0-.81,3.27l-.47-.5a1,1,0,0,1-.12-.83c1-3.87,2.45-7.47,5.45-10.27a6.18,6.18,0,0,1,7.13-1.35,8.76,8.76,0,0,1,3.67,3.83,17.76,17.76,0,0,1,2.05,5.95,1.4,1.4,0,0,1-.56,1.44Z"/><path class="cls-255" d="M409.28,604.83c-.14-.07-.13-.2-.12-.33.79-.47,1.6-.06,2.38,0a27.43,27.43,0,0,0,12.93-1.32c2.82-1.1,5.16-2.78,6.3-5.75a9.32,9.32,0,0,0,.08-6.06,19.76,19.76,0,0,0-4.17-7.21A28.17,28.17,0,0,0,423.5,581a1.35,1.35,0,0,0-.76-.4.5.5,0,0,1-.31-.21,3.77,3.77,0,0,1,1.45-.16,27.42,27.42,0,0,1,6.85,8.19,12.38,12.38,0,0,1,1.58,7.62,8.88,8.88,0,0,1-3.49,5.92,17.39,17.39,0,0,1-8,3.23,42.41,42.41,0,0,1-8.2.29,20.24,20.24,0,0,1-2.66-.3A1.48,1.48,0,0,1,409.28,604.83Z"/><path class="cls-256" d="M424.7,580.11l.63,0a17.07,17.07,0,0,1,3.15,3,22.87,22.87,0,0,1,4.69,7.18,11.87,11.87,0,0,1,.85,6.65,10.08,10.08,0,0,1-5.46,7.18,23.75,23.75,0,0,1-9.61,2.58,41.49,41.49,0,0,1-8.34-.35.93.93,0,0,1-.82-.37.34.34,0,0,1-.15-.32,1.27,1.27,0,0,1,.92-.1,37,37,0,0,0,7.65.34,21.48,21.48,0,0,0,10-2.7,9.27,9.27,0,0,0,4.94-8.21,13.5,13.5,0,0,0-1.92-6.69,29.69,29.69,0,0,0-5.79-7.08,3.22,3.22,0,0,1-.74-.82A.23.23,0,0,1,424.7,580.11Z"/><path class="cls-257" d="M391.06,589.6a10.57,10.57,0,0,1-4.83,1.27c-2.19,0-3.2-1.56-2.31-3.57a9.4,9.4,0,0,1,2-2.92c.32-.31.61-.65.92-1a5.89,5.89,0,0,1,1.58.48,10.88,10.88,0,0,1-1.28,1.67,3.11,3.11,0,0,0-.74,1.78c0,.89.33,1.33,1.21,1.41a6.24,6.24,0,0,0,2.76-.53c.34-.12.65-.36,1.05-.2A5.73,5.73,0,0,1,391.06,589.6Z"/><path class="cls-258" d="M415.15,581.66c.62.08.9.63,1.3,1,2.19,2,4.29,4,5.2,6.91,1.14,3.69-.41,6.64-3.92,8.09a18.46,18.46,0,0,1-9.09.86l-1.85-.18c-.19-.17-.16-.41-.24-.62a.47.47,0,0,1,.5-.15,20.43,20.43,0,0,0,3.21.33,12.83,12.83,0,0,0,8.08-1.91,5.48,5.48,0,0,0,1.82-7.2,14.53,14.53,0,0,0-4.37-5.61,3.1,3.1,0,0,1-1.28-1.35A.92.92,0,0,1,415.15,581.66Z"/><path class="cls-259" d="M380.76,581.85c0,.44-.38.62-.63.86a23.55,23.55,0,0,0-4.95,6.69,8.6,8.6,0,0,0-1,3.78,4.23,4.23,0,0,0,2.18,4,9.81,9.81,0,0,0,5.58.89c2.53-.21,4.83-1.21,7.24-1.83a.63.63,0,0,1-.16.47,25.12,25.12,0,0,1-7.72,2.09,10.34,10.34,0,0,1-5.53-.8,4.15,4.15,0,0,1-2.44-3.91c-.16-3.09,1.35-5.51,3-7.88a31.22,31.22,0,0,1,3.47-4A1,1,0,0,1,380.76,581.85Z"/><path class="cls-260" d="M415.67,555.22c0,.17,0,.34-.17.45a3,3,0,0,1-.66-1.32,29.69,29.69,0,0,0-4.88-9.79,14.15,14.15,0,0,0-6.53-4.93,10.45,10.45,0,0,0-7.93.5,20,20,0,0,0-7.91,7,41,41,0,0,0-5.32,10.65c-.18.52-.24,1.1-.72,1.46a.94.94,0,0,1-.33-.52,17.44,17.44,0,0,1,1.43-4,36.76,36.76,0,0,1,6-10.27c2.74-3.23,6-5.7,10.36-6.3a10,10,0,0,1,5.68,1,17.59,17.59,0,0,1,7.71,7.58,30.93,30.93,0,0,1,3.24,7.79A1.11,1.11,0,0,1,415.67,555.22Z"/><path class="cls-261" d="M416.78,553l-.3.67a1.31,1.31,0,0,1-.51-.86,32.16,32.16,0,0,0-4.52-9.45,15.78,15.78,0,0,0-7.06-5.91,11.23,11.23,0,0,0-9,.3c-3.64,1.62-6.26,4.4-8.57,7.54a44.43,44.43,0,0,0-3.94,6.94,29.13,29.13,0,0,0-1.64,4.19,2,2,0,0,1-.64,1.23.69.69,0,0,1-.31-.54,28.34,28.34,0,0,1,1.95-5.25,39.17,39.17,0,0,1,5.33-8.93,19,19,0,0,1,9.42-6.78,5.77,5.77,0,0,1,1.7-.34c1.06,0,2.11,0,3.16,0a.85.85,0,0,1,.24.05,4.28,4.28,0,0,0,.79.17.83.83,0,0,1,.21.06c.45.16.91.3,1.37.44a15.79,15.79,0,0,1,6.84,5.33,32.68,32.68,0,0,1,5,9.57A7.7,7.7,0,0,1,416.78,553Z"/><path class="cls-262" d="M387.28,567.1a27.31,27.31,0,0,1,4.08-9.58,13,13,0,0,1,5.11-4.55,6.9,6.9,0,0,1,7.48,1.2,17.83,17.83,0,0,1,5.22,10.27,5.44,5.44,0,0,0,.15.54l-.49.65a8.8,8.8,0,0,1-.51-1.89,18.82,18.82,0,0,0-3.33-7.2,7.92,7.92,0,0,0-4.19-3,6.77,6.77,0,0,0-6.05,1.53,17.62,17.62,0,0,0-5.34,7.61,29.43,29.43,0,0,0-1.53,4.74.23.23,0,0,1-.17.15Z"/><path class="cls-263" d="M412.48,582.3a15.22,15.22,0,0,1,5.4,6.21,4.88,4.88,0,0,1-2.7,6.85,13.79,13.79,0,0,1-7.86.78,5.85,5.85,0,0,1-1.32-.2l-.22-.62c.31-.32.68-.2,1-.14a13.43,13.43,0,0,0,7.21-.67,4.41,4.41,0,0,0,2.87-3.32,5.22,5.22,0,0,0-.71-3.49,14.32,14.32,0,0,0-4.5-4.79.88.88,0,0,1-.35-.31A2.65,2.65,0,0,1,412.48,582.3Z"/><path class="cls-264" d="M424.7,580.24c3.51,3.17,6.69,6.58,8.1,11.26,1,3.3.74,6.44-1.47,9.23a12.45,12.45,0,0,1-5.38,3.76,23.93,23.93,0,0,1-6.58,1.45,35.08,35.08,0,0,1-9-.3c-.23,0-.47.14-.69,0a.1.1,0,0,1,0-.1c0-.59.51-.39.77-.36,1.43.21,2.87.26,4.32.33a28.22,28.22,0,0,0,8.68-.88,14.35,14.35,0,0,0,6.18-3.22,8.6,8.6,0,0,0,2.87-5.48,12.23,12.23,0,0,0-1.56-7.22,25.45,25.45,0,0,0-6.14-7.66c-.24-.2-.53-.39-.38-.78A.29.29,0,0,1,424.7,580.24Z"/><path class="cls-265" d="M381.55,559.22a44.16,44.16,0,0,1,5.86-12.2,20.2,20.2,0,0,1,7.94-7,10.7,10.7,0,0,1,11.4,1.17c3.49,2.53,5.55,6.11,7.17,10,.62,1.48,1.07,3,1.58,4.52a.26.26,0,0,1-.17.28c-.41-.09-.5-.44-.59-.77a33.87,33.87,0,0,0-2.92-7.07,21.6,21.6,0,0,0-3.42-4.62,12.43,12.43,0,0,0-4.74-3.19,10.29,10.29,0,0,0-7.93.28,19.13,19.13,0,0,0-7.76,6.67,37.64,37.64,0,0,0-5.19,10.08,8.24,8.24,0,0,0-.71,2.17.55.55,0,0,1-.18.31A1,1,0,0,1,381.55,559.22Z"/><path class="cls-266" d="M414.24,557.92a34.75,34.75,0,0,0-2.86-7.59c-1.69-3.1-3.76-5.91-7.05-7.53a10,10,0,0,0-8.82,0,18.73,18.73,0,0,0-6.91,6,35.27,35.27,0,0,0-4.37,8,14.2,14.2,0,0,0-1.26,3.63c0,.19-.2.36-.31.54l-.13-.2a37.64,37.64,0,0,1,7.26-14.12,14.89,14.89,0,0,1,8.55-5.33,9.75,9.75,0,0,1,7.91,2.06,20,20,0,0,1,6.38,8.66,36.65,36.65,0,0,1,1.59,4.44,4.61,4.61,0,0,1,.19,1.16Z"/><path class="cls-267" d="M380.6,557.64a50.4,50.4,0,0,1,5.25-11.32,25,25,0,0,1,6.27-6.92c4-2.95,8.39-4,13.13-1.83a15.39,15.39,0,0,1,5.19,4.16,25.64,25.64,0,0,1,3.38,5.12,34.22,34.22,0,0,1,2.3,5.69c.11.37.24.75.36,1.12,0,.15,0,.3-.19.37a4,4,0,0,1-1-2,29.53,29.53,0,0,0-5.47-9.93,13.21,13.21,0,0,0-8.47-4.83,11.78,11.78,0,0,0-7.57,1.79,23,23,0,0,0-7,6.8,45.62,45.62,0,0,0-5.5,11,1.84,1.84,0,0,1-.59,1.09Z"/><path class="cls-268" d="M408.55,603.07a58.37,58.37,0,0,0,8,.31,17.62,17.62,0,0,0,8.81-2.65,8,8,0,0,0,3.87-7.24,12.71,12.71,0,0,0-2.15-6.28,25.93,25.93,0,0,0-5.43-6.11.71.71,0,0,1-.33-.52c.67-.27,1.05.25,1.42.59a37.93,37.93,0,0,1,2.7,2.68,19.09,19.09,0,0,1,4.12,7,8.64,8.64,0,0,1-1.49,8.65,11.14,11.14,0,0,1-4.95,3.29,26.54,26.54,0,0,1-10.46,1.29c-1.05,0-2.09-.2-3.14-.32a1.47,1.47,0,0,1-.87-.34Z"/><path class="cls-269" d="M398.54,536a14.13,14.13,0,0,0-6.13,2.57c-3.7,2.59-6.2,6.17-8.35,10a46.67,46.67,0,0,0-3.44,8,.86.86,0,0,1-.33.52l-.18-.3a48.17,48.17,0,0,1,6.14-12.57,24,24,0,0,1,7.49-7.15,12.46,12.46,0,0,1,15.61,2.07c3.57,3.35,5.61,7.59,7.18,12.12a8.07,8.07,0,0,1,.44,1.25.68.68,0,0,1-.19.47,7.93,7.93,0,0,1-1.11-2.67A32.15,32.15,0,0,0,411,541.7a16.76,16.76,0,0,0-6.55-5.05,9.88,9.88,0,0,0-1.42-.48c-.24-.19-.56,0-.8-.16A17,17,0,0,0,398.54,536Z"/><path class="cls-270" d="M410.42,563.57a30.43,30.43,0,0,0-2.53-7.11,12.62,12.62,0,0,0-4.92-5.39c-3-1.63-5.86-1.06-8.5.84-3.07,2.21-4.9,5.36-6.38,8.74a26.77,26.77,0,0,0-1.75,5.3l-.34-.42a.62.62,0,0,1,0-.53,31.92,31.92,0,0,1,4.74-10.27,14.33,14.33,0,0,1,5.13-4.59,8,8,0,0,1,9.29,1.43,19,19,0,0,1,5,8.66,10,10,0,0,1,.66,2.9Z"/><path class="cls-271" d="M411.4,562.23a30.19,30.19,0,0,0-2.22-6.56c-1.41-2.82-3.15-5.35-6.07-6.83a7.91,7.91,0,0,0-8.15.52,18.15,18.15,0,0,0-6.15,6.75,35.29,35.29,0,0,0-3.44,8.62.52.52,0,0,1-.33-.45,2,2,0,0,1,.18-1.16,30.55,30.55,0,0,1,6.08-11.63,11.84,11.84,0,0,1,7.43-4.32,8.31,8.31,0,0,1,6,1.7,16.28,16.28,0,0,1,5.16,6.8,28.26,28.26,0,0,1,1.7,5,2.1,2.1,0,0,1,.08,1.14Z"/><path class="cls-272" d="M390.12,570.3a23,23,0,0,1,2.41-6.72,10.1,10.1,0,0,1,4.32-4.45,5,5,0,0,1,5.43.83A13.36,13.36,0,0,1,406,567.3c.1.46.27.9.34,1.37a2.27,2.27,0,0,1-.61.7c-.34-.33-.3-.78-.37-1.18a16.78,16.78,0,0,0-1.77-5.05,7,7,0,0,0-2.34-2.53,4.53,4.53,0,0,0-5.73.69,15.62,15.62,0,0,0-4.06,6.94,9.27,9.27,0,0,1-.81,2.62A1.42,1.42,0,0,1,390.12,570.3Z"/><path class="cls-273" d="M415.67,555.22a35.84,35.84,0,0,0-2.52-6.67,27.08,27.08,0,0,0-2.74-4.49c-2.37-3-5.3-5.29-9.2-5.76a10.69,10.69,0,0,0-6.56,1.42,16.82,16.82,0,0,0-3.63,2.49,31.89,31.89,0,0,0-4.77,5.83,54,54,0,0,0-4.82,10.34,1.36,1.36,0,0,1-.21.32l-.12-.19a.2.2,0,0,1,0-.22,32.52,32.52,0,0,1,2-5.48,36,36,0,0,1,5.47-8.87c2.45-2.81,5.27-5.1,9-6a11,11,0,0,1,8.65,1.46,19,19,0,0,1,6.45,7,37.25,37.25,0,0,1,3.22,7.65,1.3,1.3,0,0,1,.08.62C415.75,554.8,415.91,555.12,415.67,555.22Z"/><path class="cls-274" d="M412.53,560.61a.85.85,0,0,1-.34.49c-.51-.15-.53-.62-.62-1a26.35,26.35,0,0,0-2.57-6.63,13.8,13.8,0,0,0-5.55-5.8,8.16,8.16,0,0,0-8.24.29,16.35,16.35,0,0,0-5.4,5.13,30.7,30.7,0,0,0-4.12,8.43c-.07.19-.13.37-.19.56a7.19,7.19,0,0,1-.75,1.84l-.33-.44a8.68,8.68,0,0,1,.85-3.17,37.06,37.06,0,0,1,3.18-6.63c1.88-2.93,4.07-5.52,7.3-7a8.75,8.75,0,0,1,9.21.82,16.73,16.73,0,0,1,5.57,7.25A32.48,32.48,0,0,1,412.53,560.61Z"/><path class="cls-275" d="M411.34,582.6a4.55,4.55,0,0,1,2.16,1.48c1.77,1.6,3.31,3.38,3.64,5.9a4.14,4.14,0,0,1-1.48,3.78,8.86,8.86,0,0,1-4.64,1.73c-1.78.3-3.5-.16-5.24-.17l-.24-.81c.59-.33,1.18,0,1.76,0a11.37,11.37,0,0,0,5.89-.71c2.66-1.23,3.38-3.57,2-6.16a13.79,13.79,0,0,0-3.55-4c-.33-.28-.79-.45-.91-.94A.87.87,0,0,1,411.34,582.6Z"/><path class="cls-276" d="M381.89,559.81v-.33a60.48,60.48,0,0,1,3-7.36,30.27,30.27,0,0,1,6-8.29,14,14,0,0,1,8.09-4.1,10.59,10.59,0,0,1,6.93,1.71,17.24,17.24,0,0,1,5.41,5.76,35.08,35.08,0,0,1,3.67,8.62.92.92,0,0,1,0,.69l-.14.13a1.4,1.4,0,0,1-.49-.87,27.65,27.65,0,0,0-2.78-7,21.34,21.34,0,0,0-3.26-4.52,11.81,11.81,0,0,0-4.07-2.94,10.8,10.8,0,0,0-3.87-1,10.53,10.53,0,0,0-4.53.92,18.12,18.12,0,0,0-7.31,6,39.64,39.64,0,0,0-5.35,9.79c-.42,1.07-.69,2.19-1,3.29Z"/><path class="cls-277" d="M409.79,605.93a33.75,33.75,0,0,0,16.74-1.13c3.29-1.3,5.94-3.32,7-6.87a11.28,11.28,0,0,0-.58-7.61,23.83,23.83,0,0,0-5.12-7.62l-2.53-2.61.44,0,.19.05a34.8,34.8,0,0,1,6.53,7.78,14.86,14.86,0,0,1,2.22,7.18,9.64,9.64,0,0,1-4,8.13,18.3,18.3,0,0,1-8.49,3.36,31.28,31.28,0,0,1-6,.46,39.19,39.19,0,0,1-5.19-.42c-.34-.05-.67,0-1,0A1.15,1.15,0,0,1,409.79,605.93Z"/><path class="cls-251" d="M410.4,607.24c.24-.35.55-.07.79,0a53.67,53.67,0,0,0,5.8.42,26.87,26.87,0,0,0,4.47-.3,23.41,23.41,0,0,0,6.69-1.74,12.18,12.18,0,0,0,6.18-5.18,9.38,9.38,0,0,0,1.16-4c.27-4.35-1.57-7.92-4.05-11.26a33.62,33.62,0,0,0-4.68-5.08c.8,0,1.19.69,1.63,1.13,3.25,3.31,6.19,6.85,7.3,11.51a10.23,10.23,0,0,1-3.16,10.66,17.13,17.13,0,0,1-7.21,3.58,38.93,38.93,0,0,1-14.87.38S410.4,607.29,410.4,607.24Z"/><path class="cls-278" d="M408.69,603.39a37.93,37.93,0,0,0,7.45.47c3.88-.21,7.64-.88,10.73-3.47a7.87,7.87,0,0,0,2.94-7.56,17,17,0,0,0-5.11-9.48,21.43,21.43,0,0,0-2.63-2.5c-.23-.16-.41-.33-.71-.27l-.19,0a2.38,2.38,0,0,1,1.15-.15c3.36,2.83,6.34,6,7.78,10.24a10.27,10.27,0,0,1,.37,5.46c-.68,3.33-3,5.31-5.94,6.62a21.71,21.71,0,0,1-8.47,1.69,48.63,48.63,0,0,1-6.61-.34,1.09,1.09,0,0,1-.58-.2Z"/><path class="cls-279" d="M381.11,558.36a.76.76,0,0,0,0,.15,1.06,1.06,0,0,1-.33-.58,45.12,45.12,0,0,1,7.06-13.76,18.88,18.88,0,0,1,8.3-6.47c4.35-1.56,8.26-.59,11.8,2.23a22.09,22.09,0,0,1,5.17,6.48,48.88,48.88,0,0,1,3.19,7.62l-.17.21c-.46-.08-.41-.51-.5-.8a33.11,33.11,0,0,0-4.2-8.92,16.62,16.62,0,0,0-6.36-5.78,11,11,0,0,0-9.85,0,20,20,0,0,0-7.13,5.9,43.11,43.11,0,0,0-6.84,13.2C381.17,558,381.23,558.21,381.11,558.36Z"/><path class="cls-280" d="M410.71,582.76a15,15,0,0,1,4.49,4.56c1.8,3.11.76,6-2.81,7a14.82,14.82,0,0,1-6.85.14,1.64,1.64,0,0,1-.22-.78c.41-.2.82,0,1.23,0,2.05.13,4.1.27,6-.7a3.39,3.39,0,0,0,1.91-4.4,9.36,9.36,0,0,0-3.56-4.6,16.34,16.34,0,0,1-1.34-1A2.59,2.59,0,0,1,410.71,582.76Z"/><path class="cls-281" d="M424.38,580.25a.85.85,0,0,0,.42.64,24.65,24.65,0,0,1,4.74,5.25,16.22,16.22,0,0,1,3.11,7.66,8.85,8.85,0,0,1-2.61,7.45,13.3,13.3,0,0,1-6.08,3.39,31.55,31.55,0,0,1-6.44,1,39.65,39.65,0,0,1-6.81-.33c-.37,0-.8-.19-1.11.19-.11-.22-.21-.45-.32-.68a38.71,38.71,0,0,0,10,.32,19.78,19.78,0,0,0,6.46-1.6c3.27-1.46,5.73-3.66,6.36-7.36a11.27,11.27,0,0,0-.79-6.11,22.55,22.55,0,0,0-4-6.27,21.41,21.41,0,0,0-2.9-2.89,1,1,0,0,1-.47-.7h0A.44.44,0,0,1,424.38,580.25Z"/><path class="cls-282" d="M418.2,581c.57.5,1.15,1,1.7,1.5a18.22,18.22,0,0,1,5.43,8.27,7.26,7.26,0,0,1-3.83,8.39,16,16,0,0,1-7.34,1.82,36,36,0,0,1-6.14-.33,3.81,3.81,0,0,1-.44-.15l-.13-.32c.29-.28.64-.15,1-.11a23.91,23.91,0,0,0,9.89-.42,9.88,9.88,0,0,0,4.79-2.8,6.54,6.54,0,0,0,1.36-6.16,13.22,13.22,0,0,0-3-5.59,23.17,23.17,0,0,0-3.51-3.42.93.93,0,0,1-.42-.55A1,1,0,0,1,418.2,581Z"/><path class="cls-283" d="M422.8,580.41c.87,0,1.29.81,1.79,1.3,2.87,2.76,5.38,5.79,6.49,9.72,1,3.67.37,6.94-2.51,9.57a14.64,14.64,0,0,1-6.9,3.3,27.55,27.55,0,0,1-6.95.66c-1.86-.07-3.71-.3-5.56-.46a.34.34,0,0,1-.15-.32c.8-.44,1.62,0,2.39.05a28.88,28.88,0,0,0,4.64.2,25.23,25.23,0,0,0,7.45-1.29,12.33,12.33,0,0,0,5.15-3.28,8,8,0,0,0,2.07-6.33c-.26-3.35-1.88-6.08-3.9-8.65-1.06-1.35-2.39-2.44-3.55-3.7C423.06,581,422.71,580.81,422.8,580.41Z"/><path class="cls-284" d="M408.38,566.17a27.9,27.9,0,0,0-1.92-6,10.9,10.9,0,0,0-4.51-5.12,6.52,6.52,0,0,0-7.28,1.08c-3.15,2.66-4.84,6.21-6,10.08a5.22,5.22,0,0,0-.47,2,.94.94,0,0,1-.52-.6l.06-.05a31,31,0,0,1,3-7.77,15.26,15.26,0,0,1,4-4.72c3.38-2.54,7-2.06,9.76,1a18.64,18.64,0,0,1,4.18,9.56.27.27,0,0,1-.07.21Z"/><path class="cls-285" d="M417.51,581.17a19.55,19.55,0,0,1,6.47,7.51A7.62,7.62,0,0,1,424,596a8,8,0,0,1-4.19,3.42,19.38,19.38,0,0,1-5.75,1.19,47.48,47.48,0,0,1-6.65-.35l-.17-.32a9.32,9.32,0,0,1,3,.2,21.15,21.15,0,0,0,4.64-.05,13.82,13.82,0,0,0,6.1-1.95c3.42-2.14,3.91-5.81,2.48-9.07a19.19,19.19,0,0,0-6.1-7.42,1.12,1.12,0,0,0-.71-.27A1.23,1.23,0,0,1,417.51,581.17Z"/><path class="cls-286" d="M412.53,560.61a9.78,9.78,0,0,1-1-2.71,21.54,21.54,0,0,0-5.49-9.36,9.54,9.54,0,0,0-6-2.67,9.34,9.34,0,0,0-5.44,1.58,19.74,19.74,0,0,0-6.41,7,39.84,39.84,0,0,0-3.33,7.57,4.65,4.65,0,0,1-.45,1.41l-.15-.18c-.18-.26,0-.51.05-.75a34.43,34.43,0,0,1,5.25-11.08,15.55,15.55,0,0,1,6.94-5.68,8.86,8.86,0,0,1,8.51,1.12c2.83,1.93,4.51,4.76,5.86,7.8a35.61,35.61,0,0,1,1.79,5.37c0,.13.08.25,0,.37Z"/><path class="cls-283" d="M422.8,580.41c1.05,1.08,2.11,2.13,3.14,3.23a17.67,17.67,0,0,1,4.83,8.62,8.56,8.56,0,0,1-3.5,9.14,17.17,17.17,0,0,1-8.38,3,25.67,25.67,0,0,1-4.63.3c-1.75-.11-3.5-.31-5.25-.47l-.14-.31c1.13,0,2.24.23,3.36.28a41,41,0,0,0,5.43,0,22.39,22.39,0,0,0,5.76-1.2,11.82,11.82,0,0,0,5.2-3.46c2.14-2.56,2.17-5.49,1.36-8.52a16.49,16.49,0,0,0-3.36-6,34.38,34.38,0,0,0-4.16-4.2.92.92,0,0,1-.14-.35.08.08,0,0,1,.11,0Z"/><path class="cls-287" d="M410.07,606.58c.69-.42,1.4,0,2.08,0a44.07,44.07,0,0,0,7,.16,27,27,0,0,0,7.31-1.46,12.23,12.23,0,0,0,6.76-5.27,9.55,9.55,0,0,0,1.09-6.76,20.08,20.08,0,0,0-4.74-9.21c-1-1.23-2.2-2.27-3.29-3.43-.14-.15-.31-.29-.31-.52h.32c.83.85,1.68,1.68,2.48,2.55,2.79,3.07,5.16,6.39,6,10.56a9.64,9.64,0,0,1-2.49,8.88c-2.42,2.61-5.59,3.75-9,4.46a30.94,30.94,0,0,1-7.43.63c-1.91-.07-3.82-.3-5.72-.46A.27.27,0,0,1,410.07,606.58Z"/><path class="cls-288" d="M415,556.51a33,33,0,0,0-3.76-9.09c-1.87-3-4.17-5.54-7.59-6.86a10.41,10.41,0,0,0-9.44,1c-3.67,2.14-6.2,5.38-8.29,9a45.63,45.63,0,0,0-3.7,8.37c-.07.22-.11.47-.37.57a11.12,11.12,0,0,1,1.1-3.34,35.6,35.6,0,0,1,3.74-7.45c2.55-3.87,5.55-7.27,10.14-8.73a10.41,10.41,0,0,1,9.72,1.67,19.31,19.31,0,0,1,5.71,7,35.53,35.53,0,0,1,2.57,6.34,2.31,2.31,0,0,0,.46,1Z"/><path class="cls-289" d="M417,552.52a38.18,38.18,0,0,1-1.45-3.72,28.21,28.21,0,0,0-4.78-8,15.1,15.1,0,0,0-6.27-4.62,12.72,12.72,0,0,0-3.5-.69,11.86,11.86,0,0,0-5.69,1,20.26,20.26,0,0,0-6.92,5.26,35.93,35.93,0,0,0-4.1,5.87,48,48,0,0,0-3.79,8.4c-.09.27-.1.58-.36.77a.29.29,0,0,1-.14-.29,38.16,38.16,0,0,0,1.59-3.94c2.21-5.21,5.05-10,9.35-13.74a15.21,15.21,0,0,1,7.47-3.72,12,12,0,0,1,9.86,2.77c4.28,3.46,6.6,8.18,8.37,13.24.11.33.1.75.51.92C417.1,552.21,417.12,552.39,417,552.52Z"/><path class="cls-286" d="M412.65,560.43a37.33,37.33,0,0,0-2.85-7.59,15.46,15.46,0,0,0-5.14-6,8.83,8.83,0,0,0-9.78-.11,20,20,0,0,0-7.17,7.9,40.62,40.62,0,0,0-3.21,7.71c-.1.29-.15.6-.23.91l-.17-.28a32.65,32.65,0,0,1,3.28-8.43,24.26,24.26,0,0,1,4.26-5.84,12.88,12.88,0,0,1,6.18-3.63,8.55,8.55,0,0,1,6.46,1c3.41,2,5.33,5.21,6.84,8.71a31.72,31.72,0,0,1,1.71,5.32Z"/><path class="cls-290" d="M392.66,573a1.3,1.3,0,0,1-.47-.49.51.51,0,0,1-.09-.38,13.47,13.47,0,0,1,3.48-7.81c2.15-2.16,4.85-1.85,6.6.66a13.1,13.1,0,0,1,2,5.86.46.46,0,0,1-.1.37,2,2,0,0,1-.62.67c-.48-.51-.33-1.19-.45-1.79a8.21,8.21,0,0,0-2.36-4.79,2.92,2.92,0,0,0-3.89-.23,8.41,8.41,0,0,0-2.88,4.07,15.11,15.11,0,0,0-.71,2.74A1.53,1.53,0,0,1,392.66,573Z"/><path class="cls-291" d="M409.59,583.08c.65,0,1,.48,1.48.83a9.28,9.28,0,0,1,3.64,4.71,3.58,3.58,0,0,1-1.92,4.57c-2,1-4.12.89-6.25.78a8.49,8.49,0,0,1-1.22-.24l-.25-.8a9.93,9.93,0,0,1,2,.18,8,8,0,0,0,4.75-.77,3,3,0,0,0,1.62-3.86,8.26,8.26,0,0,0-2.76-3.78,9.19,9.19,0,0,1-1.66-1.45A.79.79,0,0,1,409.59,583.08Z"/><path class="cls-273" d="M381.11,558.36a17.26,17.26,0,0,1,1.41-4.25,37.16,37.16,0,0,1,5.6-9.76c2.56-3.14,5.56-5.72,9.63-6.66a11.23,11.23,0,0,1,10.08,2.63c4.06,3.39,6.19,8,7.82,12.85a2.29,2.29,0,0,0,.47,1.07c0,.17.07.35-.15.44-.56-1.48-1.12-2.95-1.67-4.43a25.65,25.65,0,0,0-3.78-6.71,14.67,14.67,0,0,0-6.82-5.15,11.21,11.21,0,0,0-9.81,1.26,24.36,24.36,0,0,0-8.41,9,48.6,48.6,0,0,0-4.11,9.13C381.3,558,381.19,558.18,381.11,558.36Z"/><path class="cls-292" d="M404.08,571.19a24,24,0,0,0-1.12-4.41,8,8,0,0,0-1.55-2.45,3.76,3.76,0,0,0-5.49-.09,12.09,12.09,0,0,0-3.24,6c-.2.74-.33,1.49-.49,2.23a1.15,1.15,0,0,1-.47-.48.8.8,0,0,1-.05-.69,15.54,15.54,0,0,1,3.42-7.6,4.61,4.61,0,0,1,5.49-1.35,5.84,5.84,0,0,1,2.22,2.19,15.62,15.62,0,0,1,1.85,5.43c.07.33-.17.53-.22.81A.71.71,0,0,1,404.08,571.19Z"/><path class="cls-293" d="M409,583.25c2.12,1.35,4,2.93,4.71,5.47a3.2,3.2,0,0,1-1.67,3.73,7.9,7.9,0,0,1-5.18.82,4.84,4.84,0,0,1-1.77-.34l-.17-.63c1-.17,2,.21,3.06.12a7.69,7.69,0,0,0,2.6-.59,2.89,2.89,0,0,0,1.32-4.51,10,10,0,0,0-2.37-2.61c-.45-.36-1.13-.54-1.14-1.29A.84.84,0,0,1,409,583.25Z"/><path class="cls-294" d="M403,572.35a3.4,3.4,0,0,1-.81.88c-.3-.33-.17-.75-.2-1.13a7.9,7.9,0,0,0-1.39-4.29c-1.34-1.74-2.88-1.71-4.41.06a9.4,9.4,0,0,0-2,5.22c0,.37,0,.75-.37,1a1.84,1.84,0,0,1-.64-.63,11.14,11.14,0,0,1,1.21-4.93,7.74,7.74,0,0,1,1.64-2.3c1.8-1.74,3.86-1.69,5.34.33A8.9,8.9,0,0,1,403,572.35Z"/><path class="cls-295" d="M406.27,596.9a34.5,34.5,0,0,0,5.27.3c2.46-.23,4.85-.61,6.72-2.5a4.86,4.86,0,0,0,1.23-5,12.36,12.36,0,0,0-4.26-6.21A9.17,9.17,0,0,1,413.6,582l.26,0a.84.84,0,0,1,.86.26,16.81,16.81,0,0,1,5.36,6.51,5.81,5.81,0,0,1-3,7.86c-3.28,1.54-6.68,1.46-10.13.93-.24,0-.36-.21-.54-.31Z"/><path class="cls-296" d="M410.75,563.13a45.88,45.88,0,0,0-1.74-5.48,15.9,15.9,0,0,0-5.05-6.76,7.89,7.89,0,0,0-9.63.38,20.29,20.29,0,0,0-6.18,8.17,36.4,36.4,0,0,0-2.15,6.09l-.3-.38c.69-1.7,1.13-3.49,1.87-5.18a27.69,27.69,0,0,1,4.19-6.83,11.78,11.78,0,0,1,5.34-3.77,7.57,7.57,0,0,1,7.24,1.25,16.25,16.25,0,0,1,5.11,7.27,28.78,28.78,0,0,1,1.48,5Z"/><path class="cls-297" d="M396,576.15a2.85,2.85,0,0,1-.94-.82c-.72-1.76.55-5.59,2.17-6.54a2,2,0,0,1,2.75.49,7,7,0,0,1,1.3,4.39,1.71,1.71,0,0,1-.35.87,3,3,0,0,1-1,.94c-.26-.27-.16-.59-.11-.9a6.48,6.48,0,0,0-.13-2.44,2.82,2.82,0,0,0-.28-.73c-.67-1.2-1.58-1.29-2.39-.18a5.26,5.26,0,0,0-.84,3C396.18,574.87,396.42,575.55,396,576.15Z"/><path class="cls-298" d="M391.41,588a9.29,9.29,0,0,1-3.54,1c-1.4,0-2-.81-1.62-2.17a6.21,6.21,0,0,1,2.16-2.92,2.78,2.78,0,0,1,1.36.5c-.1.49-.55.75-.77,1.18s-.34.68-.11,1,.6.27.94.25a2.28,2.28,0,0,0,1.59-.77A2.68,2.68,0,0,1,391.41,588Z"/><path class="cls-299" d="M406.3,584.05a3.31,3.31,0,0,1,1.26-.36,9.36,9.36,0,0,1,3.83,3.88,2.69,2.69,0,0,1-1.37,3.89,6.68,6.68,0,0,1-5.28.2,3.28,3.28,0,0,1-.31-1.11,10,10,0,0,0,3.37.12c2-.42,2.76-2.09,1.52-3.77a8.44,8.44,0,0,0-2.24-2.1C406.77,584.6,406.41,584.46,406.3,584.05Z"/><path class="cls-300" d="M403,572.35a10.3,10.3,0,0,1-.32-2,8.16,8.16,0,0,0-2-4.27,3,3,0,0,0-4.18,0c-2,1.8-2.69,4.2-3.13,6.71a2.52,2.52,0,0,1-.18.68,1.21,1.21,0,0,1-.48-.47c.5-1.78.7-3.65,1.62-5.31a8.06,8.06,0,0,1,2.44-2.84,3.05,3.05,0,0,1,4.14.36,8,8,0,0,1,2.33,4.93c.09.58.14,1.17.27,1.74A1.17,1.17,0,0,1,403,572.35Z"/><path class="cls-301" d="M406.4,597.22c3.79.71,7.59.89,11.06-1.06a5.26,5.26,0,0,0,2.57-6.95,15.67,15.67,0,0,0-5.87-7.16c-.08-.06-.2,0-.3-.08a.94.94,0,0,1,.65-.16,17.85,17.85,0,0,1,5.78,6.71c1.09,2.43,1,4.72-.77,6.76a7.41,7.41,0,0,1-3.33,2,16.53,16.53,0,0,1-5.66.82c-1.33-.06-2.66-.29-4-.44Z"/><path class="cls-302" d="M385.38,562c0-.17,0-.36.16-.47a41.32,41.32,0,0,1,2.88-6.4,18.64,18.64,0,0,1,6.87-7.25,8.76,8.76,0,0,1,10.63,1.5c3,2.94,4.61,6.62,5.68,10.59.13.46.44.91.27,1.43a.4.4,0,0,1-.18.42,29.29,29.29,0,0,0-2.55-7.28,14.07,14.07,0,0,0-5.71-6.26c-3.26-1.71-6.34-1.12-9.21.88-3.49,2.43-5.56,6-7.26,9.76-.78,1.73-1.31,3.55-1.92,5.35l-.14-.19C384.77,563.33,385.33,562.73,385.38,562Z"/><path class="cls-303" d="M391.4,571.7l-.32-.33c-.35-.72,0-1.4.22-2.06a16.38,16.38,0,0,1,3.25-6.61,6.26,6.26,0,0,1,3.78-2.26,4.33,4.33,0,0,1,3.49,1.17,8.82,8.82,0,0,1,2.56,3.92,17.66,17.66,0,0,1,.95,3.58,1.17,1.17,0,0,1-.13.84l-.31.34a1.37,1.37,0,0,1-.37-.93,13.88,13.88,0,0,0-1.82-5.19,5.82,5.82,0,0,0-2.2-2.12,3.82,3.82,0,0,0-4.52.67,13.65,13.65,0,0,0-4.05,7.28C391.79,570.57,391.84,571.22,391.4,571.7Z"/><path class="cls-304" d="M406.3,584.05a10.18,10.18,0,0,1,3.3,2.89,2.41,2.41,0,0,1-1.82,3.94,7.65,7.65,0,0,1-2.57,0,2.11,2.11,0,0,1-.78-.34l-.15-.64c.41-.33.91-.17,1.37-.2a5,5,0,0,0,1.64-.17,1.44,1.44,0,0,0,.9-2.2,5.26,5.26,0,0,0-1.72-1.82,5.06,5.06,0,0,1-1.3-1A2.13,2.13,0,0,1,406.3,584.05Z"/><path class="cls-274" d="M411.87,561.41a30.1,30.1,0,0,0-2.71-7.47,14.22,14.22,0,0,0-5.27-5.86c-3.29-1.9-6.74-1.46-9.86.79-3.35,2.42-5.42,5.81-7.1,9.5a18.25,18.25,0,0,1-1.39,3.17,13.16,13.16,0,0,1,1.13-3.19,26.19,26.19,0,0,1,3.82-6.52,14.24,14.24,0,0,1,6.59-4.94,8.42,8.42,0,0,1,8.5,2c3.34,2.91,5,6.78,6.12,10.94a3.12,3.12,0,0,0,.49,1.31Z"/><path class="cls-305" d="M393.78,574.08a20.08,20.08,0,0,1,.79-3.74,8.21,8.21,0,0,1,1.52-2.73c1.78-1.79,3.31-1.83,4.78.22a8.34,8.34,0,0,1,1.31,5.4,1.19,1.19,0,0,1-.48.49,2.14,2.14,0,0,1-.3-1.28,7.76,7.76,0,0,0-1-3.39c-.9-1.65-2.46-1.9-3.74-.51a8,8,0,0,0-2,4.64,2.87,2.87,0,0,1-.3,1.52A1.78,1.78,0,0,1,393.78,574.08Z"/><path class="cls-306" d="M408.68,565.81a25.38,25.38,0,0,0-1.89-6.08,11.4,11.4,0,0,0-4.2-5.1c-2.89-1.74-5.82-1.11-8.39,1.18-3.32,3-4.92,6.9-6.11,11.05a1.2,1.2,0,0,1-.32.69,13.12,13.12,0,0,1,1.08-3.93,20.34,20.34,0,0,1,4.74-7.83,8.57,8.57,0,0,1,5.18-2.62,6.43,6.43,0,0,1,5,1.83c2.59,2.34,3.84,5.42,4.7,8.69a4.75,4.75,0,0,1,.32,1.94Z"/><path class="cls-307" d="M391.4,571.7a15.88,15.88,0,0,1,2.86-7.43,7,7,0,0,1,3.16-2.65,3.77,3.77,0,0,1,4,.78c2.12,1.81,2.86,4.28,3.34,6.88.06.34.11.67.17,1l-.46.51a11.52,11.52,0,0,0-.95-4.41,9,9,0,0,0-2-3.17,4.07,4.07,0,0,0-5.33-.13c-2.34,1.92-3.34,4.57-4.06,7.39-.12.5-.22,1-.33,1.53A.54.54,0,0,1,391.4,571.7Z"/><path class="cls-308" d="M394.41,574.7a10.19,10.19,0,0,1,1.37-5.37,4.12,4.12,0,0,1,1.65-1.66,2.39,2.39,0,0,1,3.17,1.23,10.36,10.36,0,0,1,1.1,4.82,2.91,2.91,0,0,1-.78.82,6.89,6.89,0,0,0-.79-4.68c-1.15-2.05-3.08-1.16-3.86.18a9.32,9.32,0,0,0-1.22,5.29A2,2,0,0,1,394.41,574.7Z"/><path class="cls-309" d="M396,576.15a12,12,0,0,1,.46-4.37,3,3,0,0,1,1.13-1.38,1.12,1.12,0,0,1,1.56.21,4.79,4.79,0,0,1,.92,4c0,.28-.09.57-.1.86C399.06,576.71,397.52,577.47,396,576.15Z"/><path class="cls-310" d="M388.69,568.72A22.63,22.63,0,0,1,393,559a8.19,8.19,0,0,1,4.8-3.41,6.08,6.08,0,0,1,5.48,1.53c2.53,2.31,3.54,5.35,4.29,8.53a7.58,7.58,0,0,1,.34,1.12l-.3.36c-.44-.39-.36-1-.47-1.46a15.75,15.75,0,0,0-3.45-7.26,5.81,5.81,0,0,0-8.15-1,15.17,15.17,0,0,0-4.9,6.57,24.61,24.61,0,0,0-1.46,4.42c-.05.2-.08.43-.32.51Z"/><path class="cls-310" d="M388.84,568.89a43.2,43.2,0,0,1,1.62-4.94c1.27-2.78,2.75-5.38,5.46-7.07a5.93,5.93,0,0,1,6.91.46,13.59,13.59,0,0,1,4.1,7c.27.91.45,1.84.66,2.75a.68.68,0,0,1-.34.42,16.34,16.34,0,0,0-3.24-8.4,6.55,6.55,0,0,0-3.6-2.52,5.81,5.81,0,0,0-5.53,1.53c-3.23,2.84-4.73,6.62-5.69,10.68a2.46,2.46,0,0,0,0,.47A.48.48,0,0,1,388.84,568.89Z"/><path class="cls-311" d="M405.2,570c-.38-3-1.09-5.84-3.36-8.05a4.27,4.27,0,0,0-5.42-.55,9.83,9.83,0,0,0-3.27,3.77,18.43,18.43,0,0,0-2.07,6.25.42.42,0,0,1-.31-.32,12.73,12.73,0,0,1,1-3.86,14.42,14.42,0,0,1,3.31-5.51c2.62-2.56,5.86-2.32,8,.66a14,14,0,0,1,2.29,5.65,3.27,3.27,0,0,1,.17,1.61A.6.6,0,0,1,405.2,570Z"/><path class="cls-312" d="M405.17,584.51a7.15,7.15,0,0,1,3,2.36,1.72,1.72,0,0,1,.37,1.91,2.21,2.21,0,0,1-2,1.13h-2.21a2.52,2.52,0,0,1-.21-.94,1.32,1.32,0,0,1,1-.11,2,2,0,0,0,.85-.06c1.18-.35,1.42-1.11.65-2.06a5.38,5.38,0,0,0-1.5-1.13c-.25-.14-.54-.21-.71-.47C404.57,584.87,404.77,584.56,405.17,584.51Z"/><path class="cls-313" d="M405.51,569.6a18.64,18.64,0,0,0-1.45-5.19c-.91-1.91-2-3.64-4.3-4.18a4.75,4.75,0,0,0-4.39,1.4,14.51,14.51,0,0,0-3.94,6.91c-.26.82-.44,1.67-.66,2.51l-.15-.19a18.45,18.45,0,0,1,3.37-8.25,6.85,6.85,0,0,1,4-2.85,4.2,4.2,0,0,1,3.62.88,10.28,10.28,0,0,1,3.37,5.42,15.57,15.57,0,0,1,.68,3.31Z"/><path class="cls-314" d="M404.74,591.66a11.73,11.73,0,0,0,4.3,0c1.72-.41,2.77-1.74,2.47-3.13a4.87,4.87,0,0,0-1.25-2.33,9.27,9.27,0,0,0-2.13-1.87,1.34,1.34,0,0,1-.57-.63c.07-.14.2-.13.33-.12.64.11,1,.64,1.48,1a8.78,8.78,0,0,1,2.36,2.53,3.14,3.14,0,0,1-1.58,4.91,8.4,8.4,0,0,1-5.27.13A.54.54,0,0,1,404.74,591.66Z"/><path class="cls-315" d="M404.35,585.14a4.64,4.64,0,0,1,2.54,1.7c.28.39.57.85.23,1.38a2.06,2.06,0,0,1-1.75.88,7.25,7.25,0,0,1-1.3-.13,2.67,2.67,0,0,1-.27-1.11c.32-.08.6.15.91.11s.7-.12.82-.49-.1-.59-.32-.82-.95-.43-1.28-.87A1,1,0,0,1,404.35,585.14Z"/><path class="cls-316" d="M404.88,592.13a24,24,0,0,0,3.06.17,6.32,6.32,0,0,0,2.85-.83,3,3,0,0,0,.79-4.29,10.62,10.62,0,0,0-2.89-3c-.28-.2-.54-.43-.8-.64a.6.6,0,0,1,.48-.15c.76,1,1.95,1.51,2.73,2.48a6.78,6.78,0,0,1,1.35,2.11c.65,2-.11,3.48-2.2,4.19a9.2,9.2,0,0,1-5.35.1Z"/><path class="cls-317" d="M391.42,586.08c-.24.82-2,1.38-2.64.8a1,1,0,0,1-.06-1.24,3.64,3.64,0,0,1,1-1.26A2.22,2.22,0,0,1,391.42,586.08Z"/><path class="cls-318" d="M403.93,585.79a3.06,3.06,0,0,1,1.21.56c.42.28.84.68.63,1.23s-.8.61-1.35.59c-.27,0-.42-.2-.62-.31A2.8,2.8,0,0,1,403.93,585.79Z"/><path class="cls-274" d="M385.38,562c.13.76-.44,1.36-.48,2.08l-.15-.19A5.55,5.55,0,0,1,385.38,562Z"/><path class="cls-203" d="M368.89,580.1c-.26-.06-.55.08-.78-.14a3.79,3.79,0,0,1,1.46.11Z"/><path class="cls-277" d="M424.38,580.25l-.49,0a1.2,1.2,0,0,1,.81-.12v.13Z"/><path class="cls-319" d="M398.54,536a8.93,8.93,0,0,1,3.64,0Z"/><path class="cls-319" d="M403,536.17a2,2,0,0,1,1.42.48A3.12,3.12,0,0,1,403,536.17Z"/><path class="cls-319" d="M402.18,536c.27,0,.58-.1.8.16C402.71,536.13,402.41,536.28,402.18,536Z"/><path class="cls-320" d="M396.8,574.23a2.94,2.94,0,0,1,.54-2,.9.9,0,0,1,1.64,0,3.53,3.53,0,0,1-.33,3.68c-.58.64-1.11.58-1.56-.17A2.41,2.41,0,0,1,396.8,574.23Z"/></g></svg>