<svg id="Capa_7" data-name="Capa 7" xmlns="http://www.w3.org/2000/svg" viewBox="0 0 916 916"><defs><style>.cls-1{fill:#0022fe;}.cls-2{fill:#00fea6;}.cls-3{fill:#fd4900;}.cls-4{fill:#c100fe;}.cls-5{fill:#fe2700;}.cls-6{fill:#fed800;}.cls-7{fill:#fe3300;}.cls-8{fill:#fe1600;}.cls-9{fill:#fcfd00;}.cls-10{fill:#fec700;}.cls-11{fill:#fef300;}.cls-12{fill:#eefe00;}.cls-13{fill:#fe0021;}.cls-14{fill:#fee900;}.cls-15{fill:#feab00;}.cls-16{fill:#fe7700;}.cls-17{fill:#fe0e00;}.cls-18{fill:#fe6700;}.cls-19{fill:#fe9a00;}.cls-20{fill:#febf00;}.cls-21{fill:#fe0032;}.cls-22{fill:#fe7f00;}.cls-23{fill:#b1fe00;}.cls-24{fill:#0afe00;}.cls-25{fill:#fe0069;}.cls-26{fill:#fe0071;}.cls-27{fill:#fe5200;}.cls-28{fill:#fe008f;}.cls-29{fill:#fe0010;}.cls-30{fill:#fe1f00;}.cls-31{fill:#59fe00;}.cls-32{fill:#fe004a;}.cls-33{fill:#c1fe00;}.cls-34{fill:#fe00a3;}.cls-35{fill:#fe0086;}.cls-36{fill:#73fe00;}.cls-37{fill:#fea100;}.cls-38{fill:#feb300;}.cls-39{fill:#a9fe00;}.cls-40{fill:#fed000;}.cls-41{fill:#fee000;}.cls-42{fill:#fe0054;}.cls-43{fill:#fe0043;}.cls-44{fill:#8bfe00;}.cls-45{fill:#fe0039;}.cls-46{fill:#fe0018;}.cls-47{fill:#e0fe00;}.cls-48{fill:#00fe3e;}.cls-49{fill:#69fe00;}.cls-50{fill:#fe009b;}.cls-51{fill:#fe00e3;}.cls-52{fill:#fe0201;}.cls-53{fill:#fe0007;}.cls-54{fill:#84fe00;}.cls-55{fill:#fe0029;}.cls-56{fill:#fe6f00;}.cls-57{fill:#fe005c;}.cls-58{fill:#51fe00;}.cls-59{fill:#00fe02;}.cls-60{fill:#48fe00;}.cls-61{fill:#b8fe00;}.cls-62{fill:#f5fe00;}.cls-63{fill:#a1fe00;}.cls-64{fill:#00fe6d;}.cls-65{fill:#33fe00;}.cls-66{fill:#e200fe;}.cls-67{fill:#94fe00;}.cls-68{fill:#cffe00;}.cls-69{fill:#7bfe00;}.cls-70{fill:#fe00b8;}.cls-71{fill:#fe007e;}.cls-72{fill:#fe5e00;}.cls-73{fill:#00fe48;}.cls-74{fill:#00fe50;}.cls-75{fill:#00fe5d;}.cls-76{fill:#00fe75;}.cls-77{fill:#fe00c1;}.cls-78{fill:#00fe65;}.cls-79{fill:#fe00d9;}.cls-80{fill:#61fe00;}.cls-81{fill:#00fe90;}.cls-82{fill:#00feb2;}.cls-83{fill:#fe8d00;}.cls-84{fill:#fe00b0;}.cls-85{fill:#9b00fe;}.cls-86{fill:#fe00f5;}.cls-87{fill:#f700fe;}.cls-88{fill:#00fe29;}.cls-89{fill:#00fe11;}.cls-90{fill:#ab00fe;}.cls-91{fill:#1efe00;}.cls-92{fill:#00fe87;}.cls-93{fill:#00fe7f;}.cls-94{fill:#0099fe;}.cls-95{fill:#fe00d2;}.cls-96{fill:#00fec6;}.cls-97{fill:#00a2fe;}.cls-98{fill:#da00fe;}.cls-99{fill:#8200fe;}.cls-100{fill:#d100fe;}.cls-101{fill:#fe00ca;}.cls-102{fill:#00fe1e;}.cls-103{fill:#00fe08;}.cls-104{fill:#00feba;}.cls-105{fill:#7000fe;}.cls-106{fill:#00fe98;}.cls-107{fill:#00fee8;}.cls-108{fill:#0039fe;}.cls-109{fill:#1800fe;}.cls-110{fill:#5700fe;}.cls-111{fill:#00fe37;}.cls-112{fill:#c900fd;}.cls-113{fill:#b800fe;}.cls-114{fill:#00fece;}.cls-115{fill:#eb00fe;}.cls-116{fill:#fe00eb;}.cls-117{fill:#00fdfc;}.cls-118{fill:#4500fe;}.cls-119{fill:#fe00fc;}.cls-120{fill:#00fef0;}.cls-121{fill:#12fe00;}.cls-122{fill:#3cfe00;}.cls-123{fill:#2bfe00;}.cls-124{fill:#00fedf;}.cls-125{fill:#00b7fe;}.cls-126{fill:#00c4fe;}.cls-127{fill:#0092fe;}.cls-128{fill:#9300fe;}.cls-129{fill:#2000fe;}.cls-130{fill:#0028fe;}.cls-131{fill:#0088fe;}.cls-132{fill:#00eefe;}.cls-133{fill:#00fed7;}.cls-134{fill:#0073fe;}.cls-135{fill:#4f00fe;}.cls-136{fill:#fe4100;}.cls-137{fill:#6700fe;}.cls-138{fill:#00d5fe;}.cls-139{fill:#0030fe;}.cls-140{fill:#005afe;}.cls-141{fill:#8a00fe;}.cls-142{fill:#2900fe;}.cls-143{fill:#00abfe;}.cls-144{fill:#006bfe;}.cls-145{fill:#0062fe;}.cls-146{fill:#0b00fe;}.cls-147{fill:#00f7fe;}.cls-148{fill:#00ccfe;}.cls-149{fill:#0041fe;}.cls-150{fill:#00e1fe;}.cls-151{fill:#3100fe;}.cls-152{fill:#a300fe;}.cls-153{fill:#5f00fe;}.cls-154{fill:#004efe;}.cls-155{fill:#007cfe;}.cls-156{fill:#3e00fe;}.cls-157{fill:#7900fe;}.cls-158{fill:#0400fe;}.cls-159{fill:#00fe9f;}.cls-160{fill:#c9fe00;}.cls-161{fill:#9afe00;}.cls-162{fill:#fe9200;}.cls-163{fill:#feb800;}.cls-164{fill:#d5fe00;}.cls-165{fill:#e6fe00;}.cls-166{fill:#fe0700;}.cls-167{fill:#fe5800;}.cls-168{fill:#fe2e00;}.cls-169{fill:#fe0078;}.cls-170{fill:#fe8700;}.cls-171{fill:#dafe00;}.cls-172{fill:#00fe17;}.cls-173{fill:#18fe00;}.cls-174{fill:#fe0062;}.cls-175{fill:#00fe30;}.cls-176{fill:#24fe00;}.cls-177{fill:#00fe24;}.cls-178{fill:#fe00aa;}.cls-179{fill:#f100fe;}.cls-180{fill:#0082fe;}.cls-181{fill:#fe0094;}.cls-182{fill:#b100fe;}.cls-183{fill:#00bdfe;}.cls-184{fill:#00dbfe;}.cls-185{fill:#00fec0;}.cls-186{fill:#3800fe;}.cls-187{fill:#00fe57;}.cls-188{fill:#00fef7;}.cls-189{fill:#00b1fe;}.cls-190{fill:#fef800;}.cls-191{fill:#0048fe;}.cls-192{fill:#00e8fe;}.cls-193{fill:#42fe00;}.cls-194{fill:#fe3a00;}.cls-195{fill:#0054fe;}.cls-196{fill:#1100fe;}.cls-197{fill:#383838;}.cls-198{fill:#009ad7;}.cls-199{fill:#fbfe7c;}.cls-200{fill:#fe3044;}.cls-201{fill:#fbfe83;}.cls-202{fill:#fbfe8a;}.cls-203{fill:#fbfe91;}.cls-204{fill:#fcfe9a;}.cls-205{fill:#fcfea1;}.cls-206{fill:#fcfe95;}.cls-207{fill:#fcfeac;}.cls-208{fill:#fe3649;}.cls-209{fill:#fcfeb2;}.cls-210{fill:#fe6675;}.cls-211{fill:#fe3b4d;}.cls-212{fill:#fe4557;}.cls-213{fill:#fe6c7a;}.cls-214{fill:#fe495b;}.cls-215{fill:#079dd8;}.cls-216{fill:#fdfec2;}.cls-217{fill:#fe5969;}.cls-218{fill:#40b4e1;}.cls-219{fill:#fcfeb7;}.cls-220{fill:#fcfea6;}.cls-221{fill:#fe6170;}.cls-222{fill:#fe97a1;}.cls-223{fill:#fcfea7;}.cls-224{fill:#48b7e2;}.cls-225{fill:#fdfed2;}.cls-226{fill:#fe5e6d;}.cls-227{fill:#fdfebd;}.cls-228{fill:#fe919c;}.cls-229{fill:#fdfec7;}.cls-230{fill:#fdfed8;}.cls-231{fill:#fe9da6;}.cls-232{fill:#fe3f52;}.cls-233{fill:#fcfeba;}.cls-234{fill:#fe5464;}.cls-235{fill:#fe4e5f;}.cls-236{fill:#fdfecd;}.cls-237{fill:#0da0d9;}.cls-238{fill:#6fc6e8;}.cls-239{fill:#32aedf;}.cls-240{fill:#fdfede;}.cls-241{fill:#76c9e9;}.cls-242{fill:#61c1e6;}.cls-243{fill:#39b1e0;}.cls-244{fill:#fe4053;}.cls-245{fill:#fdfee4;}.cls-246{fill:#fea7af;}.cls-247{fill:#feacb4;}.cls-248{fill:#fe5565;}.cls-249{fill:#febcc2;}.cls-250{fill:#88d0ec;}.cls-251{fill:#fe717f;}.cls-252{fill:#9cd7ef;}.cls-253{fill:#fe7582;}.cls-254{fill:#95d5ee;}.cls-255{fill:#fe838f;}.cls-256{fill:#fe7c88;}.cls-257{fill:#fefeeb;}.cls-258{fill:#feb1b8;}.cls-259{fill:#fdfeca;}.cls-260{fill:#26a9dd;}.cls-261{fill:#15a3da;}.cls-262{fill:#7ccbea;}.cls-263{fill:#fec1c7;}.cls-264{fill:#fe7e8b;}.cls-265{fill:#27aadd;}.cls-266{fill:#37b0e0;}.cls-267{fill:#1aa4db;}.cls-268{fill:#fe8d98;}.cls-269{fill:#13a2da;}.cls-270{fill:#68c3e7;}.cls-271{fill:#5bbee5;}.cls-272{fill:#a3daf0;}.cls-273{fill:#20a7dc;}.cls-274{fill:#55bce4;}.cls-275{fill:#fec6cc;}.cls-276{fill:#2dacde;}.cls-277{fill:#fe7986;}.cls-278{fill:#fe8b97;}.cls-279{fill:#1ba5db;}.cls-280{fill:#fecbd0;}.cls-281{fill:#fe818d;}.cls-282{fill:#fea1aa;}.cls-283{fill:#fe8793;}.cls-284{fill:#82cdeb;}.cls-285{fill:#fea2ab;}.cls-286{fill:#4eb9e3;}.cls-287{fill:#fe7784;}.cls-288{fill:#2cacde;}.cls-289{fill:#0fa0d9;}.cls-290{fill:#bee5f4;}.cls-291{fill:#fed0d4;}.cls-292{fill:#b7e2f3;}.cls-293{fill:#fed5d9;}.cls-294{fill:#cbeaf6;}.cls-295{fill:#feb6bd;}.cls-296{fill:#67c3e7;}.cls-297{fill:#e1f3fa;}.cls-298{fill:#fefef3;}.cls-299{fill:#fedfe2;}.cls-300{fill:#c5e8f5;}.cls-301{fill:#feb5bc;}.cls-302{fill:#5abee5;}.cls-303{fill:#aedff2;}.cls-304{fill:#fee6e9;}.cls-305{fill:#d2edf7;}.cls-306{fill:#80cdeb;}.cls-307{fill:#b2e0f2;}.cls-308{fill:#d8eff8;}.cls-309{fill:#ebf7fb;}.cls-310{fill:#8fd2ed;}.cls-311{fill:#a9ddf1;}.cls-312{fill:#feecee;}.cls-313{fill:#a8dcf1;}.cls-314{fill:#fedade;}.cls-315{fill:#fef3f4;}.cls-316{fill:#fedadd;}.cls-317{fill:#fdfdf9;}.cls-318{fill:#fbf8f8;}.cls-319{fill:#14a2da;}.cls-320{fill:#f4fafc;}</style></defs><g id="Capa_15" data-name="Capa 15"><path class="cls-1" d="M258.77,273.54a77.25,77.25,0,0,1,8.41,6.81,16,16,0,0,1-2.56,3.23c-.89-.29-1.39-1.09-2.06-1.65-1.89-1.57-3.79-3.11-5.77-4.56-.31-.23-.69-.4-.81-.82a10.71,10.71,0,0,1,2.22-2.92A.42.42,0,0,1,258.77,273.54Z"/><path class="cls-2" d="M151.85,276.38a42.3,42.3,0,0,1,3.55-2.68c.49,0,.58.39.76.67.55.88,1.05,1.8,1.65,2.65a.44.44,0,0,1-.21.4,19.11,19.11,0,0,1-3,2.12c-.47,0-.67-.34-.9-.65A30.61,30.61,0,0,0,151.85,276.38Z"/><path class="cls-3" d="M210.29,434.48a21.55,21.55,0,0,1-3.85.1l-.23-.05c-1.34,0-1.34,0-1.26-1.4,0-.45.15-.89.15-1.34s.16-1.07-.53-1.31c-.09,0,0-.18.06-.25a13.51,13.51,0,0,1,3.36-.14,4.06,4.06,0,0,1,1.86.15c-.06.38-.06.44-.44.45-.72,0-.88.4-.83,1a8.15,8.15,0,0,1-.13,1.56c-.08.8,0,.92.82,1C209.62,434.24,210,434.16,210.29,434.48Z"/><path class="cls-4" d="M295.85,341.71a25.86,25.86,0,0,1,.13,3.17,10.68,10.68,0,0,1-3,0c-.59-.08-.83.11-.82.7s0,1.36,0,2c-.07.34.17.82-.45.87a1.35,1.35,0,0,1-.19-.83c0-1.69,0-3.37,0-5a1.45,1.45,0,0,1,.21-.91c.93-.45,1.92-.16,2.88-.22A1.67,1.67,0,0,1,295.85,341.71Z"/><path class="cls-5" d="M220.56,433.54a20.09,20.09,0,0,1-3.18.43c0-.09,0,0,0-.06a12.3,12.3,0,0,1-.2-4.19,4.55,4.55,0,0,1,3-.42c.52.44.33,1.07.41,1.62A6.6,6.6,0,0,1,220.56,433.54Z"/><path class="cls-6" d="M158.41,420l-2.54-1.74c-.07-.09-.12-.2-.05-.28a19.64,19.64,0,0,1,2.59-3.09,5.69,5.69,0,0,1,2.58,1.64c-.08.67-.62,1.06-1,1.57A7,7,0,0,1,158.41,420Z"/><path class="cls-7" d="M216,434.12a11.49,11.49,0,0,1-2.62.19c-.47.17-.74,0-.76-.48a14,14,0,0,1,.1-3.6.53.53,0,0,1,.35-.29,5.86,5.86,0,0,1,2.82-.11,1.78,1.78,0,0,1,.2,1.06,24.51,24.51,0,0,0,.07,2.57A.75.75,0,0,1,216,434.12Z"/><path class="cls-8" d="M226.58,432.41a18.07,18.07,0,0,1-3,.62.66.66,0,0,1-.27-.47,18.58,18.58,0,0,1-.35-3.65,4.25,4.25,0,0,1,3-.69c.57.77.43,1.71.61,2.58C226.69,431.32,226.92,431.88,226.58,432.41Z"/><path class="cls-9" d="M147.29,411.32l-2.18-2.08c.1-.44.47-.68.78-1,.55-.52,1.16-1,1.69-1.54a.89.89,0,0,1,.84-.32,5,5,0,0,1,2,2A6.92,6.92,0,0,1,147.29,411.32Z"/><path class="cls-10" d="M163.64,423.17,161,421.58c-.07-.24.09-.4.21-.56a30,30,0,0,1,2.17-3,5.59,5.59,0,0,1,2.6,1.47.74.74,0,0,1-.12.66c-.54.86-1.07,1.72-1.62,2.58A.82.82,0,0,1,163.64,423.17Z"/><path class="cls-11" d="M150.77,414.33l-2.2-1.89a.29.29,0,0,1,.06-.36,23.37,23.37,0,0,1,2.81-2.73,5.38,5.38,0,0,1,2.33,2,1,1,0,0,1-.37.75c-.65.69-1.37,1.31-2,2.06C151.28,414.34,151.07,414.51,150.77,414.33Z"/><path class="cls-12" d="M143,407.09l-2.29-2.44c.94-.71,1.84-1.47,2.79-2.17a1,1,0,0,1,.78-.29,6.19,6.19,0,0,1,2,2.15A12,12,0,0,1,143,407.09Z"/><path class="cls-13" d="M245.63,425.81l-2.88,1.33c-.43-.3-.47-.81-.62-1.25a11.36,11.36,0,0,1-.87-2.68,5.08,5.08,0,0,1,2.79-1.32,2.46,2.46,0,0,1,.75,1.35A7.46,7.46,0,0,1,245.63,425.81Z"/><path class="cls-14" d="M150.77,414.33c.36,0,.5-.3.71-.54.55-.63,1.15-1.21,1.74-1.81.19-.2.44-.37.44-.7a4.56,4.56,0,0,1,2.44,1.92,1.46,1.46,0,0,1-.57.92,11.12,11.12,0,0,1-2.19,2.25Z"/><path class="cls-15" d="M173.47,427.92l-2.86-1.25a.35.35,0,0,1,0-.44,30.77,30.77,0,0,1,1.93-3.39,5.33,5.33,0,0,1,2.79,1.27A12.31,12.31,0,0,1,173.47,427.92Z"/><path class="cls-16" d="M191.38,433.15l-3.17-.62c-.25-.51,0-1,.16-1.44a10.25,10.25,0,0,1,1-2.72,5.94,5.94,0,0,1,2.93.6,2.7,2.7,0,0,1-.16,1.54A17.17,17.17,0,0,1,191.38,433.15Z"/><path class="cls-17" d="M226.58,432.41l-.64-4.13a5.24,5.24,0,0,1,3-.85,28.62,28.62,0,0,1,.83,4.18A17.53,17.53,0,0,1,226.58,432.41Z"/><path class="cls-18" d="M197.41,434a28.26,28.26,0,0,1-3.17-.38,7.5,7.5,0,0,1,.44-2.85c.12-.46,0-1,.53-1.35a4.72,4.72,0,0,1,2.87.38.81.81,0,0,1,.14.6c-.18,1.07-.34,2.14-.57,3.19A.75.75,0,0,1,197.41,434Z"/><path class="cls-19" d="M179.17,430l-2.85-1a.45.45,0,0,1,0-.52c.57-1.13.94-2.36,1.59-3.46a6.51,6.51,0,0,1,2.77.9.67.67,0,0,1,.11.73c-.33,1-.78,2-1.2,3A.69.69,0,0,1,179.17,430Z"/><path class="cls-20" d="M163.64,423.17a23.39,23.39,0,0,0,2.22-3.6c.34-.16.6.06.86.21A7.35,7.35,0,0,1,168.6,421c.07.44-.24.74-.43,1.07a17.3,17.3,0,0,1-1.69,2.63A25.59,25.59,0,0,1,163.64,423.17Z"/><path class="cls-21" d="M251,423l-2.69,1.45a16.64,16.64,0,0,1-1.71-3.8,4.51,4.51,0,0,1,2.66-1.51,10.69,10.69,0,0,1,1.84,3.42A.43.43,0,0,1,251,423Z"/><path class="cls-22" d="M189.32,428.46l-1.11,4.07-3-.74a.45.45,0,0,1-.09-.37c.34-1.18.72-2.35,1.15-3.49a.52.52,0,0,1,.22-.22A4.8,4.8,0,0,1,189.32,428.46Z"/><path class="cls-23" d="M130,389.61l-1.48-2.72A13,13,0,0,1,131,385.7c.43-.23.82-.58,1.37-.47a5.55,5.55,0,0,1,1.49,2.66,14.89,14.89,0,0,1-3.39,1.8A.52.52,0,0,1,130,389.61Z"/><path class="cls-24" d="M119.89,329.82a20.18,20.18,0,0,1,.62-3.17,36.86,36.86,0,0,1,3.7,1,.62.62,0,0,1,.36.28,5.25,5.25,0,0,1-.66,2.93,8.34,8.34,0,0,1-2.93-.52C120.58,330.28,120.12,330.26,119.89,329.82Z"/><path class="cls-25" d="M267.38,411a24.23,24.23,0,0,1-2.44,2.2,24.22,24.22,0,0,1-2.39-3,.59.59,0,0,1-.1-.45,5.46,5.46,0,0,1,2.33-2A18,18,0,0,1,267.38,411Z"/><path class="cls-26" d="M267.38,411a20.73,20.73,0,0,1-2.61-3.23,4.4,4.4,0,0,1,2.09-2.08,22.3,22.3,0,0,1,2.71,3c.05.06,0,.15,0,.22A16.9,16.9,0,0,1,267.38,411Z"/><path class="cls-27" d="M204.54,430.38c1.08,0,.78.76.79,1.36a2.05,2.05,0,0,1-.05.7,3.93,3.93,0,0,0-.1,1.63c.08.86.94.07,1.26.51-1.49.08-3-.11-4.44-.15a.65.65,0,0,1-.15-.51c.18-1.27.27-2.54.36-3.82A2.89,2.89,0,0,1,204.54,430.38Z"/><path class="cls-28" d="M276.68,401l-1.91,2.34a21.38,21.38,0,0,1-2.61-2.42,1.11,1.11,0,0,1-.37-.6,5.12,5.12,0,0,1,2-2.4c.85.73,1.64,1.53,2.5,2.24C276.57,400.4,276.89,400.61,276.68,401Z"/><path class="cls-29" d="M239.91,428.31a22,22,0,0,1-2.87,1.08c-.1,0-.21-.09-.24-.19a17.06,17.06,0,0,1-1-3.77,4.4,4.4,0,0,1,2.52-1.12.73.73,0,0,1,.66.48,20.6,20.6,0,0,1,1,3.06A.67.67,0,0,1,239.91,428.31Z"/><path class="cls-30" d="M223.08,428.87c.16,1.39.32,2.78.49,4.16a19.12,19.12,0,0,1-3,.51c-.11-1.16-.22-2.32-.32-3.48a1.74,1.74,0,0,0-.16-.68A3.87,3.87,0,0,1,223.08,428.87Z"/><path class="cls-31" d="M119.43,359.15a33.83,33.83,0,0,1-.47-3.48,17.42,17.42,0,0,0,3.61,0,.86.86,0,0,1,.68.13,4.6,4.6,0,0,1,.32,3.1A10,10,0,0,1,119.43,359.15Z"/><path class="cls-32" d="M258.91,418l-2.54,1.75c-.79-.55-1-1.49-1.51-2.24a2.47,2.47,0,0,1-.65-1.38,6.45,6.45,0,0,1,2.48-1.81A11,11,0,0,1,258.91,418Z"/><path class="cls-33" d="M133.19,394.83l-1.63-2.53a18,18,0,0,1,3.68-2A5.37,5.37,0,0,1,137,393a32.16,32.16,0,0,1-3,1.84A.69.69,0,0,1,133.19,394.83Z"/><path class="cls-34" d="M281.28,394.69l-1.74,2.54a12,12,0,0,1-3.28-2.73,6.6,6.6,0,0,1,1.83-2.57c1,.7,1.91,1.39,2.82,2.15C281.09,394.23,281.39,394.35,281.28,394.69Z"/><path class="cls-35" d="M271.89,400.32a17.92,17.92,0,0,0,2.37,2.4c.21.19.49.31.51.65l-2.06,2.34a17.56,17.56,0,0,1-2.52-2.58,1,1,0,0,1-.3-.71A5.75,5.75,0,0,1,271.89,400.32Z"/><path class="cls-36" d="M121.3,368.19l-.75-3a11.33,11.33,0,0,1,4.08-.69,4.57,4.57,0,0,1,.8,3.13c-1.13.35-2.31.5-3.46.74A.79.79,0,0,1,121.3,368.19Z"/><path class="cls-37" d="M177.91,425.13a26.62,26.62,0,0,1-1.46,3.54,2.32,2.32,0,0,0-.13.37l-2.85-1.12c.59-1.27,1.17-2.55,1.76-3.83A3.81,3.81,0,0,1,177.91,425.13Z"/><path class="cls-38" d="M172.52,422.92c-.53,1-1.05,2-1.59,3a2.07,2.07,0,0,0-.32.71l-2.84-1.3a.46.46,0,0,1,0-.38,34.57,34.57,0,0,1,2-3.42A5.77,5.77,0,0,1,172.52,422.92Z"/><path class="cls-39" d="M132.39,385.31l-3.16,1.36a1.49,1.49,0,0,1-.74.22l-1.33-2.68a.6.6,0,0,1,.39-.37c1-.4,1.9-.77,2.86-1.14a.92.92,0,0,1,.69,0A4.65,4.65,0,0,1,132.39,385.31Z"/><path class="cls-40" d="M163.33,418.1a29.69,29.69,0,0,1-2.38,3.48l-2.54-1.6,2.53-3.4A3.83,3.83,0,0,1,163.33,418.1Z"/><path class="cls-41" d="M153.34,416.37l2.69-3.16s.1-.08.13-.07a4.91,4.91,0,0,1,2.27,1.75c-.76,1-1.52,1.93-2.29,2.88-.12.15-.26.27-.27.47Z"/><path class="cls-42" d="M258.91,418l-2.21-3.57a5.19,5.19,0,0,1,2.39-1.85,18.28,18.28,0,0,1,2.21,3.09.42.42,0,0,1,0,.57Z"/><path class="cls-43" d="M254.32,416.06c.68,1.21,1.37,2.42,2.05,3.64l-2.69,1.73a7.71,7.71,0,0,1-1.18-2.09c-.28-.55-.77-1-.78-1.68A5.2,5.2,0,0,1,254.32,416.06Z"/><path class="cls-44" d="M124.12,377.08a27.08,27.08,0,0,1-1.07-3,24.46,24.46,0,0,1,3.67-1.06.61.61,0,0,1,.51.15,5.11,5.11,0,0,1,.92,2.85,23.5,23.5,0,0,1-3.65,1.17A.49.49,0,0,1,124.12,377.08Z"/><path class="cls-45" d="M251.78,417.68a27.48,27.48,0,0,1,1.9,3.75L251,423a12,12,0,0,0-1.32-3c-.15-.27-.29-.55-.43-.83a.43.43,0,0,1,.29-.43C250.31,418.47,250.86,417.68,251.78,417.68Z"/><path class="cls-46" d="M239.91,428.31c-.33-1-.65-2.09-1-3.13-.1-.33-.18-.68-.62-.71a.25.25,0,0,1,.17-.31c.81-.4,1.64-.71,2.48-1a.33.33,0,0,1,.36.08l1.43,3.93Z"/><path class="cls-47" d="M139.75,403.54l-1.95-2.38a24.45,24.45,0,0,1,3-2.23.69.69,0,0,1,.61-.11,5.2,5.2,0,0,1,1.8,2.34,27.22,27.22,0,0,1-2.86,2.25C140.22,403.54,140,403.72,139.75,403.54Z"/><path class="cls-48" d="M128.31,305.09l1.44-2.69a.44.44,0,0,1,.58,0,24.12,24.12,0,0,1,3.07,2.05A7.93,7.93,0,0,1,132,307.2a.78.78,0,0,1-.66-.19A23.38,23.38,0,0,1,128.31,305.09Z"/><path class="cls-49" d="M124.64,364.54a40,40,0,0,1-4.09.64l-.63-3a8,8,0,0,1,3-.58c.46-.07.94-.22,1.34.2A4.19,4.19,0,0,1,124.64,364.54Z"/><path class="cls-50" d="M276.36,394.53l3.18,2.7-1.89,2.57c-1-.78-1.93-1.69-2.93-2.5a.6.6,0,0,1-.2-.42A5.13,5.13,0,0,1,276.36,394.53Z"/><path class="cls-51" d="M291.43,373.74a23.5,23.5,0,0,1-1.12,3.18c-1-.55-2-.95-3-1.41-.28-.13-.59-.22-.74-.54a6.7,6.7,0,0,1,1.16-3.17,8.15,8.15,0,0,0,2.38,1.18C290.57,373.19,291.16,373.2,291.43,373.74Z"/><path class="cls-52" d="M233.87,430.47a12.92,12.92,0,0,1-2.36.66c-.33.16-.59.07-.66-.28a19.61,19.61,0,0,1-.7-3.65,4.65,4.65,0,0,1,2.95-.9,1.27,1.27,0,0,1,.44.89c.2.77.41,1.53.58,2.31C234.2,429.85,234.31,430.24,233.87,430.47Z"/><path class="cls-53" d="M233.87,430.47a.78.78,0,0,0,.14-.59c-.31-1.18-.63-2.36-.94-3.53a.26.26,0,0,1,.14-.26,6,6,0,0,1,2.7-.73l1.13,4A29.58,29.58,0,0,1,233.87,430.47Z"/><path class="cls-54" d="M127.16,373.26c-.83-.19-1.53.3-2.3.45a7.43,7.43,0,0,1-1.81.35l-.92-2.86c.37-.41.91-.39,1.38-.5a11.31,11.31,0,0,1,2.7-.52A5.17,5.17,0,0,1,127.16,373.26Z"/><path class="cls-55" d="M246.69,420.6c.45,1,.91,2,1.35,3.06.11.26.17.54.26.81l-2.67,1.34c-.54-1.29-1.08-2.57-1.61-3.86A4.63,4.63,0,0,1,246.69,420.6Z"/><path class="cls-56" d="M195.19,429.53c-.32,1.37-.63,2.74-.95,4.1l-2.86-.48a6.4,6.4,0,0,1,.38-2.12c.11-.66.28-1.32.42-2A3.85,3.85,0,0,1,195.19,429.53Z"/><path class="cls-57" d="M261.29,416.19c-.22-.92-1-1.53-1.37-2.34a12.85,12.85,0,0,0-.84-1.24,5.23,5.23,0,0,1,2.39-2c.75,1,1.42,2,2.16,2.95.13.16.28.32.2.56Z"/><path class="cls-58" d="M123.18,355.82a20.34,20.34,0,0,1-3.4.17c-.33,0-.62,0-.82-.32a32.28,32.28,0,0,1-.32-3.8h.08c.35,1,1.18.84,2,.86a5.11,5.11,0,0,1,2.23.18A3.85,3.85,0,0,1,123.18,355.82Z"/><path class="cls-59" d="M124.46,327.92l-3.19-.89a1.26,1.26,0,0,1-.76-.38l.67-2.85c.06-.05.13-.12.2-.11a10.33,10.33,0,0,1,3.83,1.39A5,5,0,0,1,124.46,327.92Z"/><path class="cls-60" d="M122.88,353c-1.07,0-2.15,0-3.21,0-.66,0-1-.11-.91-.84,0-.08-.08-.18-.12-.27a17,17,0,0,1-.16-3s.07,0,.08,0c.35,1,1.18.85,2,.86a4.46,4.46,0,0,1,2.08.18A3.61,3.61,0,0,1,122.88,353Z"/><path class="cls-61" d="M135.29,390.37a34.62,34.62,0,0,1-3.73,1.93L130,389.61a21.32,21.32,0,0,0,3.82-1.76A4.11,4.11,0,0,1,135.29,390.37Z"/><path class="cls-62" d="M143,407.09l3.17-2.75c.23-.13.33.07.44.19.52.55,1.06,1.08,1.6,1.61.11.1.35.19.17.42-.38-.06-.56.22-.79.43l-2.48,2.25A20.41,20.41,0,0,1,143,407.09Z"/><path class="cls-63" d="M131.11,382.78a14.72,14.72,0,0,0-3,1.05,9.25,9.25,0,0,0-.94.38l-1.31-2.84a10.43,10.43,0,0,1,4-1.4A4.94,4.94,0,0,1,131.11,382.78Z"/><path class="cls-64" d="M137.5,290.83a26.27,26.27,0,0,1,2.06-2.54,3.09,3.09,0,0,1,1.29,1,12.13,12.13,0,0,1,1.76,1.89,5.08,5.08,0,0,1-1.94,2.31,1.12,1.12,0,0,1-.68-.37C139.14,292.36,138.28,291.64,137.5,290.83Z"/><path class="cls-65" d="M118.43,345.21a31.44,31.44,0,0,1,.16-4.34c.21,1.25,1.2,1.17,2.12,1.26a4,4,0,0,1,2,.4,5.58,5.58,0,0,1,0,3c-.06.05-.11.13-.19.13A9.19,9.19,0,0,1,118.43,345.21Z"/><path class="cls-66" d="M295.56,354.07a15.28,15.28,0,0,1-.35,3c-.33.29-.7.16-1.06.09a13.55,13.55,0,0,0-3.1-.43,6.94,6.94,0,0,1,.21-2.68c.12-.69.54-.89,1.2-.74s1.51.22,2.26.35A1.34,1.34,0,0,1,295.56,354.07Z"/><path class="cls-67" d="M124.12,377.08c1.36-.31,2.63-.91,4-1.13a.27.27,0,0,1,.3.19c.3.84.92,1.58.82,2.55a31.13,31.13,0,0,1-3.49,1.3.54.54,0,0,1-.52-.06A24.13,24.13,0,0,1,124.12,377.08Z"/><path class="cls-68" d="M135.86,398.64l-1.71-2.39A5.51,5.51,0,0,1,136,395a4.24,4.24,0,0,1,1.79-.91,4.78,4.78,0,0,1,1.78,2.52c-.91.68-1.87,1.29-2.82,1.89A.83.83,0,0,1,135.86,398.64Z"/><path class="cls-69" d="M126.2,370.25l-4.07.95-.83-3a20.79,20.79,0,0,0,3-.53,7.89,7.89,0,0,1,1.08-.1A3.44,3.44,0,0,1,126.2,370.25Z"/><path class="cls-70" d="M285.26,388.06l-1.61,2.82c-.88-.65-1.77-1.3-2.69-1.9-.3-.2-.63-.39-.64-.83a6.18,6.18,0,0,1,1.57-2.56c.94.61,1.89,1.2,2.85,1.79C285,387.53,285.34,387.64,285.26,388.06Z"/><path class="cls-71" d="M270,402.46a6.75,6.75,0,0,0,1.53,1.91c.39.44.95.74,1.16,1.34a25.9,25.9,0,0,1-2,2.14c-.45-.14-.69-.53-1-.84-.56-.54-1-1.2-1.57-1.73a.75.75,0,0,1-.26-.63A6.05,6.05,0,0,1,270,402.46Z"/><path class="cls-72" d="M197.41,434c.18-1.1.33-2.2.54-3.29a4.79,4.79,0,0,0,.09-.84c.56-.45,1.12-.07,1.69,0,.37.16.79.06,1.17.19a.5.5,0,0,1,.21.17,10.39,10.39,0,0,1-.69,4.09A16,16,0,0,1,197.41,434Z"/><path class="cls-73" d="M133.33,304.46c-.91-.57-1.82-1.14-2.74-1.69-.26-.16-.48-.43-.84-.37a26.07,26.07,0,0,1,1.58-2.7.31.31,0,0,1,.36-.05,16.32,16.32,0,0,1,3.16,2.27A4.83,4.83,0,0,1,133.33,304.46Z"/><path class="cls-74" d="M134.79,301.92c-1.21-.65-2.16-1.71-3.46-2.22A22.22,22.22,0,0,1,133,297a.57.57,0,0,1,.57.16,28.54,28.54,0,0,1,2.81,2.22A4.57,4.57,0,0,1,134.79,301.92Z"/><path class="cls-75" d="M133.87,295.74l1.82-2.56c.25-.11.4.06.55.19a27.59,27.59,0,0,1,2.71,2.36,5.13,5.13,0,0,1-1.75,2.5c-.66,0-1-.54-1.44-.87A9.71,9.71,0,0,1,133.87,295.74Z"/><path class="cls-76" d="M142.54,291.14l-3-2.85a20.25,20.25,0,0,1,2-2.24.34.34,0,0,1,.43.09,13.59,13.59,0,0,1,2.52,2.78A4.53,4.53,0,0,1,142.54,291.14Z"/><path class="cls-77" d="M285.26,388.06a18,18,0,0,0-2.59-1.73c-.29-.21-.69-.29-.77-.72,0,0-.09-.09-.07-.13a5.71,5.71,0,0,1,1.48-2.59,16.63,16.63,0,0,0,2.73,1.67c.3.19.69.29.63.77Z"/><path class="cls-78" d="M138.92,295.74c-.79-.29-1.2-1.05-1.88-1.49a17.12,17.12,0,0,1-1.35-1.07,22.93,22.93,0,0,1,1.81-2.35,4.72,4.72,0,0,1,1.48,1.11,10,10,0,0,0,1.73,1.44.56.56,0,0,1-.2.63C140,294.58,139.7,295.4,138.92,295.74Z"/><path class="cls-79" d="M286.67,375c1,.45,2,.9,3.05,1.37.24.12.57.17.59.54a22.41,22.41,0,0,1-1.11,2.85c-1-.44-1.91-1-2.91-1.41-.37-.15-.71-.35-.74-.83A4.82,4.82,0,0,1,286.67,375Z"/><path class="cls-80" d="M124.12,361.85c-.77-.34-1.52.07-2.28.07a18,18,0,0,0-1.92.24l-.49-3,4.14-.32s.06,0,.07,0A4.66,4.66,0,0,1,124.12,361.85Z"/><path class="cls-81" d="M146,281.45l2.07-1.88c.29-.21.44,0,.58.2a29.47,29.47,0,0,1,2.17,2.8,4.8,4.8,0,0,1-2.29,2.16,13.46,13.46,0,0,1-2.56-2.92A.29.29,0,0,1,146,281.45Z"/><path class="cls-82" d="M157.77,277c-.86-.55-1.06-1.57-1.63-2.33-.25-.33-.38-.75-.74-1a23.14,23.14,0,0,1,2.53-1.74c.42-.07.49.3.65.55a22.64,22.64,0,0,0,1.76,2.76c0,.42-.37.55-.65.7C159.05,276.33,158.58,277,157.77,277Z"/><path class="cls-83" d="M183.62,431.41l-2.88-.89c-.15-.38.06-.71.19-1,.38-1,.69-2,1.12-3a5.41,5.41,0,0,1,3,1c.14.45-.14.81-.26,1.2-.21.71-.49,1.39-.72,2.09C184,431,183.94,431.3,183.62,431.41Z"/><path class="cls-84" d="M280.47,388.16c0,.32.25.42.47.57l2.26,1.57c.22.15.46.26.45.58l-1.56,2.57a20.83,20.83,0,0,1-3.31-2.6A5.28,5.28,0,0,1,280.47,388.16Z"/><path class="cls-85" d="M294.13,327.91a24,24,0,0,1,.59,3c-.78.6-1.73.33-2.59.5a2.9,2.9,0,0,0-1.38.49.28.28,0,0,1-.24-.19,16.23,16.23,0,0,1-.53-3,.52.52,0,0,1,.14-.37,16,16,0,0,1,3.59-.6A.63.63,0,0,1,294.13,327.91Z"/><path class="cls-86" d="M293.19,367.72a16.58,16.58,0,0,1-.83,3s0,0-.06,0a7.41,7.41,0,0,1-3.86-1.46,5.89,5.89,0,0,1,.84-2.92A15.84,15.84,0,0,1,293.19,367.72Z"/><path class="cls-87" d="M294.44,362a17.33,17.33,0,0,1-.62,3c-1-.44-2.14-.63-3.19-1a1.52,1.52,0,0,1-.71-.31,5.13,5.13,0,0,1,.45-2.86.79.79,0,0,1,.86-.18c.9.2,1.78.42,2.66.67C294.19,361.47,294.61,361.52,294.44,362Z"/><path class="cls-88" d="M125.09,312.06a17.74,17.74,0,0,1,1.16-2.69c.15-.31.4-.21.61-.12,1,.45,1.9,1,2.86,1.52a.61.61,0,0,1,.31.52,5.84,5.84,0,0,1-1.22,2.6A13,13,0,0,1,125.09,312.06Z"/><path class="cls-89" d="M122,320.94l1-3.16a11.49,11.49,0,0,1,3.86,1.6,5.23,5.23,0,0,1-.8,2.85.92.92,0,0,1-.76-.06C124.15,321.75,123,321.42,122,320.94Z"/><path class="cls-90" d="M295.19,334.1l.34,3a5.14,5.14,0,0,1-2.52.21,1.74,1.74,0,0,0-1.44.61.36.36,0,0,1-.33-.38c-.09-1-.28-2-.32-2.95a.61.61,0,0,1,.13-.36,3.94,3.94,0,0,1,1.76-.36c.52-.06,1.05,0,1.57-.11C294.7,333.73,295,333.74,295.19,334.1Z"/><path class="cls-91" d="M118.92,336.76a11.74,11.74,0,0,1,.31-2.71,13.65,13.65,0,0,0,3,.76,1.67,1.67,0,0,1,1.06.45,4.2,4.2,0,0,1-.39,2.89,2.14,2.14,0,0,1-1.39,0c-.63-.09-1.25-.2-1.87-.31C118.81,337.71,118.8,337.69,118.92,336.76Z"/><path class="cls-92" d="M146,281.45a10.83,10.83,0,0,0,1.76,2.29c.24.32.43.73.83.92a4.89,4.89,0,0,1-2.13,2.14,1.31,1.31,0,0,1-.8-.6,19,19,0,0,0-1.55-1.68c-.23-.24-.52-.48-.34-.89Z"/><path class="cls-93" d="M143.8,283.63c0,.11,0,.24.09.3.93.89,1.65,2,2.66,2.79a4.6,4.6,0,0,1-2.08,2.21c-.73-.76-1.46-1.52-2.21-2.28-.21-.21-.46-.4-.7-.6A25.68,25.68,0,0,1,143.8,283.63Z"/><path class="cls-94" d="M217.06,257.56a28.45,28.45,0,0,1,3.19.44q-.28,1.72-.66,3.45a1,1,0,0,1-.33.6,7,7,0,0,1-3.33-.45,15.13,15.13,0,0,0,.73-3.25C216.72,258.05,216.7,257.71,217.06,257.56Z"/><path class="cls-95" d="M285.7,377.52c0,.48.43.59.76.7.81.25,1.46.83,2.27,1.08.22.07.46.17.47.47a24.46,24.46,0,0,1-1.26,2.87c-.91-.62-1.92-1.06-2.88-1.61a1.78,1.78,0,0,1-.69-.5A5.3,5.3,0,0,1,285.7,377.52Z"/><path class="cls-96" d="M161.92,269.43l2.83-1.59a11.21,11.21,0,0,1,1.11,2.15,15.69,15.69,0,0,1,.69,1.5,5.35,5.35,0,0,1-2.59,1.57.45.45,0,0,1-.41-.19A13.73,13.73,0,0,1,161.92,269.43Z"/><path class="cls-97" d="M217.06,257.56c-.21,1.13-.44,2.25-.62,3.38-.05.34-.17.54-.52.57a.57.57,0,0,1-.42.19c-1.12,0-2.23-.14-3.35-.19a.38.38,0,0,1-.35-.27.59.59,0,0,1,.61-.27c.69,0,.88-.38.93-1a16.39,16.39,0,0,1,.28-2.09c.09-.43.29-.74.82-.54A16.42,16.42,0,0,1,217.06,257.56Z"/><path class="cls-98" d="M295.56,354.07c-1.17-.2-2.34-.38-3.51-.6-.57-.12-.39.42-.61.61a.36.36,0,0,1-.17-.25,9.6,9.6,0,0,1,.4-3.37,8.36,8.36,0,0,1,3,.19c.4,0,.88-.07,1.12.41C295.74,352.07,295.65,353.07,295.56,354.07Z"/><path class="cls-99" d="M291.77,318.87a22.94,22.94,0,0,1,.91,3,9.45,9.45,0,0,1-3.95.88,4.26,4.26,0,0,1-.86-3A8.5,8.5,0,0,1,291.77,318.87Z"/><path class="cls-100" d="M295.82,351.06a28.5,28.5,0,0,0-3.32-.46,2,2,0,0,1-.76-.17,1.67,1.67,0,0,1,0-1.9c.23-.29.07-.63.14-.95,0,0,.08-.09.12-.09a7.78,7.78,0,0,1,3.94.41Z"/><path class="cls-101" d="M284.4,380.54a27.19,27.19,0,0,1,3.3,1.72.48.48,0,0,1,.24.38,22,22,0,0,1-1.27,2.69c-.47-.68-1.3-.81-1.92-1.27s-1.29-.4-1.45-1.19A3.1,3.1,0,0,1,284.4,380.54Z"/><path class="cls-102" d="M123.4,316.5a22.92,22.92,0,0,1,1.1-3c.2-.17.4-.08.59,0,.9.4,1.8.82,2.68,1.27a.82.82,0,0,1,.53.63,7.07,7.07,0,0,1-1,2.73C126,317.63,124.67,317.09,123.4,316.5Z"/><path class="cls-103" d="M122,320.94c.68-.17,1.18.33,1.78.49s1.42.52,2.13.78a3.81,3.81,0,0,1-.77,2.86,36,36,0,0,0-3.93-1.27Z"/><path class="cls-104" d="M160.29,275.28c-.61-.14-.73-.73-1-1.15a15.84,15.84,0,0,0-1.37-2.17l2.7-1.75c.73.6.91,1.54,1.41,2.28.26.39.45.82.69,1.22A3.94,3.94,0,0,1,160.29,275.28Z"/><path class="cls-105" d="M289.68,313a26.45,26.45,0,0,1,1.14,3,1,1,0,0,1-.73.4,30.35,30.35,0,0,1-3.12.8,5,5,0,0,1-1.16-3A10.18,10.18,0,0,1,289.68,313Z"/><path class="cls-106" d="M150.84,282.6a33.24,33.24,0,0,1-2.37-2.79c-.11-.12-.2-.23-.37-.24a23.27,23.27,0,0,1,2.38-2.06c.25-.09.41.07.52.24.66,1,1.5,1.86,2.08,2.92A4.2,4.2,0,0,1,150.84,282.6Z"/><path class="cls-107" d="M173,263.88l3-1.23a17.53,17.53,0,0,1,1.18,3.94,4.53,4.53,0,0,1-2.93,1.14A11.4,11.4,0,0,1,173,263.88Z"/><path class="cls-108" d="M250.7,268.41l2.81,1.65a36,36,0,0,1-2.37,3.38,5.66,5.66,0,0,1-2.65-1.62c.25-1.14,1.12-1.92,1.65-2.89A1,1,0,0,1,250.7,268.41Z"/><path class="cls-109" d="M272.4,285.58a18.59,18.59,0,0,1,2.08,2.35c.09.21,0,.35-.18.46-.85.66-1.68,1.32-2.55,2a.69.69,0,0,1-.44.13,6.47,6.47,0,0,1-2.13-2.34A35.78,35.78,0,0,1,272.4,285.58Z"/><path class="cls-110" d="M285.71,304.45a16.46,16.46,0,0,1,1.44,2.84c.09.24-.09.35-.24.41a18,18,0,0,1-3.41,1.3,5,5,0,0,1-1.4-2.63,1.17,1.17,0,0,1,.8-.7C283.87,305.32,284.76,304.81,285.71,304.45Z"/><path class="cls-111" d="M128.31,305.09a38.56,38.56,0,0,1,3.58,2.06.32.32,0,0,1,0,.43c-.46.78-.6,1.74-1.37,2.32a15.91,15.91,0,0,1-3.57-2.13Z"/><path class="cls-112" d="M296,347.9l-4.06-.32c0-.81,0-1.62,0-2.43,0-.26,0-.64.35-.56,1.23.27,2.51,0,3.73.29Z"/><path class="cls-113" d="M295.85,341.71h-4.1a4.64,4.64,0,0,1-.23-3,1.7,1.7,0,0,1,1.12-.22h2.27c.28,0,.59-.08.77.25A21.61,21.61,0,0,1,295.85,341.71Z"/><path class="cls-114" d="M166.51,271.49a12.56,12.56,0,0,1-1.76-3.65l2.7-1.42a9.72,9.72,0,0,1,1.18,2.45c.21.39.38.81.6,1.19,0,.25-.2.35-.38.45-.59.32-1.19.61-1.77.95A.45.45,0,0,1,166.51,271.49Z"/><path class="cls-115" d="M291.13,356.77c.22-.33.51-.33.88-.26a21.69,21.69,0,0,0,3.2.58,19,19,0,0,1-.45,3.18,10,10,0,0,1-4.06-1A3.36,3.36,0,0,1,291.13,356.77Z"/><path class="cls-116" d="M288.55,369.28a18.12,18.12,0,0,0,3.81,1.45,18.7,18.7,0,0,1-.93,3c-1-.42-2.07-.86-3.11-1.27-.32-.12-.6-.22-.55-.64A3.37,3.37,0,0,1,288.55,369.28Z"/><path class="cls-117" d="M180.29,261.2l3-.92a2.6,2.6,0,0,1,.54,1.6,5.45,5.45,0,0,1,.33,2.47,5.25,5.25,0,0,1-3,.84A12,12,0,0,1,180.29,261.2Z"/><path class="cls-118" d="M282.74,299.21a22.7,22.7,0,0,1,1.6,2.69c-.29.52-.87.62-1.33.87a15,15,0,0,1-2.2,1,4.65,4.65,0,0,1-1.66-2.64.88.88,0,0,1,.42-.45c.93-.48,1.87-.95,2.79-1.45A.39.39,0,0,1,282.74,299.21Z"/><path class="cls-119" d="M289.94,363.74a32.94,32.94,0,0,1,3.63,1c.18.05.22.21.25.36a14,14,0,0,1-.63,2.65,15.79,15.79,0,0,1-3.85-1.32A3.28,3.28,0,0,1,289.94,363.74Z"/><path class="cls-120" d="M177.14,266.58a17.88,17.88,0,0,1-1.14-3.93l2.86-1a8.42,8.42,0,0,1,.84,2.49,2.41,2.41,0,0,1,.24,1.45A4.19,4.19,0,0,1,177.14,266.58Z"/><path class="cls-121" d="M119.89,329.82a28.62,28.62,0,0,0,4,1c.37.89,0,1.71-.23,2.56a.82.82,0,0,1-1,.45c-1-.16-1.9-.35-2.84-.57-.25-.06-.62-.11-.43-.55A17.31,17.31,0,0,1,119.89,329.82Z"/><path class="cls-122" d="M118.43,345.21l4.12.31a4.22,4.22,0,0,1,.09,3,6.73,6.73,0,0,1-2.41.07,2.41,2.41,0,0,1-1.76-.23Z"/><path class="cls-123" d="M122.55,342.51c-1.18,0-2.34-.24-3.52-.32-.31,0-.42-.17-.41-.45s0-.58,0-.87a9,9,0,0,1,.16-2.38,1.47,1.47,0,0,0,1,.5c1.07.13,2.15.25,3.22.41A6.62,6.62,0,0,1,122.55,342.51Z"/><path class="cls-124" d="M173,263.88a35,35,0,0,1,1.29,3.86,4,4,0,0,1-2.59,1.18c-.1,0-.22-.08-.26-.17a13.68,13.68,0,0,1-1.3-3.61A25.87,25.87,0,0,1,173,263.88Z"/><path class="cls-125" d="M206.28,257l3,0c.35.49.11,1,.06,1.52a7.76,7.76,0,0,1-.38,2.66,5.41,5.41,0,0,1-3,0A7.61,7.61,0,0,1,206.28,257Z"/><path class="cls-126" d="M201.53,257.22a18.66,18.66,0,0,1,3.17-.15,12.25,12.25,0,0,1-.12,4.14,5.58,5.58,0,0,1-3.11.14A7.93,7.93,0,0,1,201.53,257.22Z"/><path class="cls-127" d="M219.28,262c.21-1.09.43-2.18.63-3.28a1,1,0,0,1,.34-.67,16.07,16.07,0,0,1,2.84.49.86.86,0,0,1,.1.82c-.19.84-.46,1.66-.63,2.5a.81.81,0,0,1-.89.7A4,4,0,0,1,219.28,262Z"/><path class="cls-128" d="M294.13,327.91l-4,.49c-.24,0-.31-.2-.34-.37-.14-.84-.63-1.63-.32-2.53a8.07,8.07,0,0,1,4-.59A22.33,22.33,0,0,1,294.13,327.91Z"/><path class="cls-129" d="M271.27,290.35a18.89,18.89,0,0,0,3.21-2.42,22.4,22.4,0,0,1,2,2.41c.09.29-.15.37-.31.48-.95.65-1.86,1.37-2.86,2A4.48,4.48,0,0,1,271.27,290.35Z"/><path class="cls-130" d="M258.77,273.54c-.42,0-.64.36-.86.63-.64.78-1.24,1.6-1.85,2.4a5,5,0,0,1-2.49-1.59.88.88,0,0,1,.19-.67c.54-.75,1.07-1.51,1.67-2.21.19-.23.42-.5.8-.3Z"/><path class="cls-131" d="M221.64,262.3c.24-.05.58.09.64-.29.21-1.19.71-2.31.81-3.52a15.51,15.51,0,0,1,3,.59.66.66,0,0,1,.12.52c-.24,1-.54,2.06-.88,3.07a.58.58,0,0,1-.36.39,11.42,11.42,0,0,1-3.13-.48A.27.27,0,0,1,221.64,262.3Z"/><path class="cls-132" d="M186.31,259.49l3-.66a10.26,10.26,0,0,1,.57,4.07,4.67,4.67,0,0,1-3,.69,14.29,14.29,0,0,1-.78-3.6A.6.6,0,0,1,186.31,259.49Z"/><path class="cls-133" d="M170.13,265.14a25.55,25.55,0,0,1,1.17,2.93c.09.29.12.64.49.75a3.92,3.92,0,0,1-2.57,1.25c-.57-.16-.57-.7-.74-1.11-.35-.84-.69-1.69-1-2.54A23.52,23.52,0,0,1,170.13,265.14Z"/><path class="cls-134" d="M230.7,260.21a20.78,20.78,0,0,1,3.21,1c-.44.95-.76,2-1.2,2.91a2.08,2.08,0,0,1-.44.83,5.42,5.42,0,0,1-2.9-.82.69.69,0,0,1,0-.61c.34-.9.61-1.82.93-2.72A.85.85,0,0,1,230.7,260.21Z"/><path class="cls-135" d="M280.74,303.68l3.6-1.78a16.46,16.46,0,0,1,1.37,2.55c-.51.7-1.38.76-2.08,1.12a4.68,4.68,0,0,0-1.41.8A4.37,4.37,0,0,1,280.74,303.68Z"/><path class="cls-136" d="M210.29,434.48c-.49,0-1-.05-1.49,0s-.64-.18-.62-.64a20,20,0,0,0,.17-2.89c0-.35.19-.43.5-.44a2.47,2.47,0,0,0,1.08-.09c.25-.38.63-.29,1-.28a.67.67,0,0,1,.65.66,21.66,21.66,0,0,1,0,3.12.69.69,0,0,1-.36.57Z"/><path class="cls-137" d="M289.68,313l-3.81,1.27a4.42,4.42,0,0,1-1.19-2.7,1.06,1.06,0,0,1,.69-.48c1-.33,2-.79,3-1.09A19.89,19.89,0,0,1,289.68,313Z"/><path class="cls-138" d="M196.29,257.72a18.8,18.8,0,0,1,2.69-.32,9.9,9.9,0,0,0-.21,3.34,1.59,1.59,0,0,1-.05.78c-.37.42-.89.35-1.37.4a4.69,4.69,0,0,1-2.14.1c.37-1.13,0-2.27,0-3.41,0-.26-.09-.53.09-.77h0C195.64,257.67,196,257.86,196.29,257.72Z"/><path class="cls-139" d="M256.23,271.8c-1,.33-1.24,1.29-1.83,2a2,2,0,0,0-.71,1.19.3.3,0,0,1-.37,0c-.72-.53-1.66-.77-2.17-1.6a13.52,13.52,0,0,1,2.36-3.3Z"/><path class="cls-140" d="M239.76,263.23a20.37,20.37,0,0,1,2.7,1.1,10.73,10.73,0,0,1-2,3.63,5.22,5.22,0,0,1-2.76-1.2,16.52,16.52,0,0,1,1.42-3.32A.4.4,0,0,1,239.76,263.23Z"/><path class="cls-141" d="M293.47,324.91l-4,.64c-.08,0-.18,0-.21-.09a5.21,5.21,0,0,1-.55-2.77l3.95-.79C292.94,322.9,293.2,323.91,293.47,324.91Z"/><path class="cls-142" d="M273.31,292.79c.54-.78,1.46-1.07,2.14-1.66.33-.29.71-.53,1.07-.79l2,2.53A9.54,9.54,0,0,1,275,295,4.38,4.38,0,0,1,273.31,292.79Z"/><path class="cls-143" d="M214.44,257.36c-.74,0-.6.61-.68,1a16.51,16.51,0,0,0-.19,1.86c-.06.64-.28,1.1-1.06,1a3.37,3.37,0,0,0-.71,0,1.29,1.29,0,0,1-1.41,0,.92.92,0,0,1-.13-.74c.06-.86.23-1.72.24-2.58a1,1,0,0,1,.38-.82A23.61,23.61,0,0,1,214.44,257.36Z"/><path class="cls-144" d="M232.28,264.83c.23-1.21,1-2.24,1.26-3.43,0-.17.21-.22.37-.24a21.74,21.74,0,0,1,2.86.94,28.26,28.26,0,0,1-1.64,3.74A4.76,4.76,0,0,1,232.28,264.83Z"/><path class="cls-145" d="M235.14,265.78a12.14,12.14,0,0,1,1.63-3.68,22.94,22.94,0,0,1,3,1.13c-.31,0-.41.21-.53.48-.45,1-.94,2-1.41,3.06A3.72,3.72,0,0,1,235.14,265.78Z"/><path class="cls-146" d="M269.22,282.29l2.21,2.23a.3.3,0,0,1-.07.29c-.88.78-1.79,1.51-2.71,2.25a.52.52,0,0,1-.37.08,5.57,5.57,0,0,1-2.13-2.15A16.79,16.79,0,0,1,269.22,282.29Z"/><path class="cls-147" d="M186.31,259.49a30.24,30.24,0,0,0,.55,3.43c0,.2.06.41.08.61a3.89,3.89,0,0,1-2.85.78l-.79-4Z"/><path class="cls-148" d="M198.67,261.5a18.47,18.47,0,0,1-.16-3.56c0-.38.31-.37.47-.54a16.73,16.73,0,0,1,2.55-.18v4.1A3.6,3.6,0,0,1,198.67,261.5Z"/><path class="cls-149" d="M250.7,268.41a31.2,31.2,0,0,0-2.11,3.45,5.17,5.17,0,0,1-2.76-1.46,17.37,17.37,0,0,1,1.85-3.25.31.31,0,0,1,.47-.11Z"/><path class="cls-150" d="M190.91,258.51l3-.48a8.7,8.7,0,0,1,.22,4.15,4.58,4.58,0,0,1-3,.42,17.94,17.94,0,0,1-.48-3.43A.83.83,0,0,1,190.91,258.51Z"/><path class="cls-151" d="M275,295a18.42,18.42,0,0,0,2.94-1.81,1.09,1.09,0,0,1,.56-.27l1.69,2.39c.09.22-.06.35-.21.45-.89.56-1.78,1.12-2.71,1.62a.8.8,0,0,1-.53.09A5,5,0,0,1,275,295Z"/><path class="cls-152" d="M295.19,334.1a10.4,10.4,0,0,0-2.84.07c-.39,0-.82.08-1.23.09a2.38,2.38,0,0,1-.35-2.34c0-.43.23-.62.61-.66l3.34-.33Z"/><path class="cls-153" d="M288.4,310c-.53.63-1.37.61-2,.94s-1.07.43-1.61.64a.33.33,0,0,1-.36-.23c-.29-.67-.64-1.31-.93-2a.42.42,0,0,1,0-.5,24.34,24.34,0,0,0,3.66-1.61A15,15,0,0,1,288.4,310Z"/><path class="cls-154" d="M243.89,265a18.59,18.59,0,0,1,2.66,1.28.64.64,0,0,1-.05.47,21.11,21.11,0,0,1-1.86,3.09,5.26,5.26,0,0,1-2.77-1.31,15,15,0,0,1,1.75-3.48A.19.19,0,0,1,243.89,265Z"/><path class="cls-155" d="M230.7,260.21,229.43,264c-.06.05-.12.13-.19.12a7.2,7.2,0,0,1-2.87-.83,25.49,25.49,0,0,1,.95-3.23c.12-.4.38-.7.88-.5A11.75,11.75,0,0,1,230.7,260.21Z"/><path class="cls-156" d="M282.74,299.21l-3.52,1.92c-.71-.22-.79-1-1.19-1.44-.25-.31-.6-.63-.46-1.11a20.67,20.67,0,0,1,3.12-1.88.45.45,0,0,1,.45,0A22.93,22.93,0,0,1,282.74,299.21Z"/><path class="cls-157" d="M287,317.16a27.4,27.4,0,0,1,3.85-1.14,24.42,24.42,0,0,1,.95,2.85l-3.89,1A3.73,3.73,0,0,1,287,317.16Z"/><path class="cls-158" d="M269.22,282.29a19.31,19.31,0,0,1-3,2.68,2.53,2.53,0,0,1-1.56-1.47,28.54,28.54,0,0,1,2.55-3.15Z"/><path class="cls-159" d="M153,280.69a21.4,21.4,0,0,1-2-2.56c-.17-.23-.29-.5-.57-.62l1.37-1.13c.36,0,.54.26.72.54.45.67.93,1.33,1.39,2,.16.25.32.48.65.49A2,2,0,0,1,153,280.69Z"/><path class="cls-160" d="M137.81,394.18c-1.29.56-2.39,1.47-3.66,2.07l-1-1.42c1.19-.2,2-1.1,3.07-1.58a2.81,2.81,0,0,1,.7-.33A1.29,1.29,0,0,1,137.81,394.18Z"/><path class="cls-161" d="M125.25,379.93c1.36-.31,2.59-1,4-1.28a1.3,1.3,0,0,1,.63,1.43c-1.39.24-2.63,1-4,1.29Z"/><path class="cls-162" d="M182,426.55a.51.51,0,0,1,.05.51c-.45,1.15-.89,2.31-1.34,3.46l-1.57-.5c.46-1.07.92-2.12,1.35-3.19.1-.23.25-.48.08-.75A1.14,1.14,0,0,1,182,426.55Z"/><path class="cls-163" d="M169.82,421.65a35.41,35.41,0,0,1-2,3.72l-1.29-.71c.52-1.31,1.43-2.4,2.07-3.65A1.13,1.13,0,0,1,169.82,421.65Z"/><path class="cls-164" d="M135.86,398.64A12.84,12.84,0,0,0,138.7,397a2.1,2.1,0,0,1,.85-.41,1.06,1.06,0,0,1,.86,1.12,14.81,14.81,0,0,1-3.08,2.24.49.49,0,0,1-.52,0Z"/><path class="cls-165" d="M139.75,403.54a21.87,21.87,0,0,0,2.84-2c.21-.15.37-.36.66-.37.52.21,1,.47,1,1.14a13.25,13.25,0,0,0-2.41,1.73c-.36.26-.65.62-1.14.64Z"/><path class="cls-166" d="M230.22,427.19c.26,1.14.55,2.28.77,3.43.07.33.14.54.52.51a4.61,4.61,0,0,1-1.74.48,11.92,11.92,0,0,1-.82-4.09A1,1,0,0,1,230.22,427.19Z"/><path class="cls-167" d="M200.42,434.3l.63-4.13a.77.77,0,0,1,1.11.05.58.58,0,0,1,.29.65c-.17,1.18-.3,2.37-.45,3.56Z"/><path class="cls-168" d="M216,434.12a26,26,0,0,1-.15-4.23,1.1,1.1,0,0,1,1.42-.15c.05,1.41.25,2.82.16,4.23A4.58,4.58,0,0,1,216,434.12Z"/><path class="cls-169" d="M268,404.66c.4.87,1.23,1.38,1.76,2.14.27.39.71.63.94,1.05L269.55,409l-2.7-3.17A1.17,1.17,0,0,1,268,404.66Z"/><path class="cls-170" d="M183.62,431.41l1.42-3.94a1.06,1.06,0,0,1,1.43.34c-.43,1.32-.85,2.65-1.28,4Z"/><path class="cls-171" d="M136.81,399.91a18.92,18.92,0,0,0,3.33-2.11l.2-.12a1.32,1.32,0,0,1,1.08,1.27c-1.06.25-1.72,1.13-2.63,1.63-.33.18-.59.51-1,.58Z"/><path class="cls-172" d="M123.4,316.5a7,7,0,0,1,2.44.85c.46.19,1.06.22,1.34.75a1.05,1.05,0,0,1-.42,1.28c-1.29-.51-2.59-1-3.83-1.6Z"/><path class="cls-173" d="M119.41,332.67a9.54,9.54,0,0,0,3.88.87c.08,0,.14-.15.21-.23a1.65,1.65,0,0,1-.29,1.9l-3.46-.65a.57.57,0,0,1-.52-.51A4,4,0,0,1,119.41,332.67Z"/><path class="cls-174" d="M263.83,414.15l-2.1-2.82a1.15,1.15,0,0,1-.27-.64,1.19,1.19,0,0,1,1.11-.94,21.6,21.6,0,0,0,2.14,3,.93.93,0,0,1,.23.49Z"/><path class="cls-175" d="M127,307.77a20.9,20.9,0,0,1,3.55,2.11,1.22,1.22,0,0,1-.64,1.41c0-.1-.06-.24-.13-.28-1.06-.58-2.13-1.14-3.2-1.7-.07,0-.2,0-.3.06A10.44,10.44,0,0,1,127,307.77Z"/><path class="cls-176" d="M122.84,339.34c-.43.53-1,.1-1.42.09-.67,0-1.34-.22-2-.23s-.69-.24-.67-.71a5.34,5.34,0,0,1,.17-1.73c-.08.62.16.82.82.87,1.06.07,2.09.43,3.17.44A.91.91,0,0,1,122.84,339.34Z"/><path class="cls-177" d="M128.14,315.43c-.3-.76-1.15-.71-1.71-1.09a11.49,11.49,0,0,0-1.93-.84l.59-1.44c1.3.46,2.45,1.2,3.7,1.76A1.38,1.38,0,0,1,128.14,315.43Z"/><path class="cls-178" d="M278.87,390.8c.86.66,1.72,1.32,2.59,2a2,2,0,0,1,.63.68l-.81,1.24a21.51,21.51,0,0,0-2.42-1.95c-.28-.22-.65-.36-.76-.76A1.07,1.07,0,0,1,278.87,390.8Z"/><path class="cls-179" d="M290.78,359.31c1.33.3,2.68.54,4,1a7.16,7.16,0,0,1-.32,1.77c0-.1-.06-.25-.13-.27a15.13,15.13,0,0,0-3.82-.87A1.26,1.26,0,0,1,290.78,359.31Z"/><path class="cls-180" d="M228.2,259.58c-.65,0-.68.53-.83,1a10,10,0,0,1-1,2.71,1,1,0,0,1-1.42-.32,19,19,0,0,0,1.14-3.85A8.85,8.85,0,0,1,228.2,259.58Z"/><path class="cls-181" d="M274.62,396.91c.91.82,1.82,1.64,2.75,2.45a.64.64,0,0,1,.28.44l-1,1.23c-.5-1-1.49-1.47-2.23-2.23-.25-.26-.6-.42-.64-.83S274,397,274.62,396.91Z"/><path class="cls-182" d="M295.68,338.7H291.6a.51.51,0,0,1,0-.76c-.05-.61.27-.83.84-.83h3.13A8.3,8.3,0,0,1,295.68,338.7Z"/><path class="cls-183" d="M204.54,261.15v-3.24a1.44,1.44,0,0,1,.16-.84l1.58,0a1.53,1.53,0,0,0-.16.76,26.83,26.83,0,0,1-.15,3.35A1.06,1.06,0,0,1,204.54,261.15Z"/><path class="cls-184" d="M194.08,262.11c.12-1.37-.28-2.72-.16-4.08l1.42-.19c.27,1.15.13,2.34.33,3.49.06.4-.27.45-.48.62C194.86,262.29,194.5,262.44,194.08,262.11Z"/><path class="cls-185" d="M162.71,273.71c-.8-.47-.86-1.43-1.37-2.1a8.36,8.36,0,0,1-.71-1.4l1.29-.78,1.52,2.92c.13.25.2.56.56.58A1.15,1.15,0,0,1,162.71,273.71Z"/><path class="cls-186" d="M281.14,296.68l-3.55,1.92a1.29,1.29,0,0,1-.89-1.28,16.56,16.56,0,0,0,3.46-2.06Z"/><path class="cls-187" d="M133.87,295.74a26.22,26.22,0,0,1,2.69,2c.21.15.37.37.67.38a1.29,1.29,0,0,1-.85,1.25,19.14,19.14,0,0,1-2.45-1.75c-.31-.18-.6-.42-.89-.63Z"/><path class="cls-188" d="M179.81,265.62c-.13-1.21-.65-2.31-.87-3.49,0-.15-.06-.31-.08-.46l1.43-.47a29.36,29.36,0,0,1,1,3.94A1.25,1.25,0,0,1,179.81,265.62Z"/><path class="cls-189" d="M210.88,257.09l-.47,4.06a1.06,1.06,0,0,1-1.43,0,33,33,0,0,1,.32-4.09Z"/><path class="cls-190" d="M151.44,409.39c-.69.89-1.56,1.59-2.32,2.41-.19.21-.37.43-.55.64l-1.28-1.12a17.12,17.12,0,0,0,3-2.86A1.07,1.07,0,0,1,151.44,409.39Z"/><path class="cls-191" d="M244.64,269.76c.5-1.25,1.35-2.3,1.91-3.51a7.94,7.94,0,0,1,1.6.79c-.7.39-.85,1.19-1.28,1.78s-.64,1.05-1,1.59A1.11,1.11,0,0,1,244.64,269.76Z"/><path class="cls-192" d="M190.91,258.51c-.11,1.38.36,2.71.31,4.08a1.13,1.13,0,0,1-1.42.3c0-1.37-.51-2.68-.48-4.06Z"/><path class="cls-193" d="M118.47,348.37a23.18,23.18,0,0,1,4.08.16,1.06,1.06,0,0,1,0,1.43c-1,0-2,0-3,0-.65,0-1-.12-.9-.84,0-.09-.07-.18-.12-.28Z"/><path class="cls-194" d="M211.2,434.47a16.17,16.17,0,0,0,.13-3.87c0-.29-.28-.25-.48-.28a1.57,1.57,0,0,1,1.93-.15c0,1.17,0,2.34,0,3.51,0,.41.09.66.55.63A7.63,7.63,0,0,1,211.2,434.47Z"/><path class="cls-195" d="M243.89,265a38.8,38.8,0,0,0-1.94,3.52,1.27,1.27,0,0,1-1.45-.64,22.77,22.77,0,0,0,1.44-2.66c.16-.29.23-.64.52-.86Z"/><path class="cls-196" d="M268.24,287a17.41,17.41,0,0,0,2.42-1.85,8.11,8.11,0,0,0,.77-.66l1,1.06a14,14,0,0,1-3.14,2.54A1.27,1.27,0,0,1,268.24,287Z"/><path class="cls-184" d="M196.29,257.72c-.29.24-.63.09-.95.13A1.36,1.36,0,0,1,196.29,257.72Z"/><path class="cls-197" d="M268.24,287l1,1.09,2,2.23,2,2.44L275,295l1.73,2.37a6.09,6.09,0,0,0,.89,1.28c.55.84,1.09,1.69,1.63,2.53l1.52,2.55c.49.9,1,1.8,1.48,2.69a19.94,19.94,0,0,0,1.27,2.53,22.81,22.81,0,0,0,1.26,2.7,23.46,23.46,0,0,0,1.12,2.69c.37.95.74,1.91,1.1,2.87s.6,1.79.91,2.69.57,1.89.85,2.84a21.5,21.5,0,0,0,.76,2.86,19.89,19.89,0,0,0,.64,2.85,30.22,30.22,0,0,0,.64,3.52,13.22,13.22,0,0,0,.35,2.34c.14,1.23.29,2.46.44,3.68,0,.26,0,.51,0,.76l.15,3q0,3.42,0,6.82a8.62,8.62,0,0,0,0,1.9l-.3,3.65c-.1.9-.21,1.8-.31,2.69s-.23,1.7-.35,2.54a5.72,5.72,0,0,0-.29,1.59c-.18.94-.37,1.89-.55,2.84l-.6,2.66a21.89,21.89,0,0,0-.79,2.88,17.45,17.45,0,0,0-.78,2.55l-1.1,3.18a18.6,18.6,0,0,0-1,2.51c-.43,1-.86,2-1.3,3a19,19,0,0,0-1.1,2.33l-1.4,2.74-1.43,2.55-1.6,2.64a5.32,5.32,0,0,0-.77,1.18l-1.74,2.55-1.74,2.38-.81,1.06-1.92,2.35c-.62.71-1.25,1.42-1.87,2.14l-2.06,2.2a5.66,5.66,0,0,0-1.11,1.13,20.67,20.67,0,0,0-2.08,2l-2.2,2-1.11.94-2.38,1.92-2.38,1.77-2.38,1.68-2.54,1.62-2.54,1.53-2.55,1.39L244,422l-2.7,1.26-3,1.26-2.4.89-2.84,1-2.85.84-1.27.33-3,.76a21.34,21.34,0,0,0-2.86.59l-3,.51-2.86.36-1.42.15-3,.28a6.6,6.6,0,0,0-1.93.15l-.92.08-5.39,0-2.38-.16-1.11-.05-.06,0h-.06c-.37-.17-.77,0-1.14-.12a9.34,9.34,0,0,0-1.75-.16,19.46,19.46,0,0,0-2.85-.35c-1-.09-2-.49-3-.48l-2.86-.59-2.85-.65a3.75,3.75,0,0,0-1.43-.34,22.71,22.71,0,0,0-3-.92l-1.43-.47-2.69-.95-2.68-1-2.71-1.17-2.7-1.27-1.27-.64-2.69-1.44-2.53-1.47-2.39-1.52-2.51-1.69a15.42,15.42,0,0,0-2.4-1.68,15.62,15.62,0,0,0-2.37-1.93l-2.22-1.89a3.36,3.36,0,0,0-1.12-.93,14.52,14.52,0,0,0-1.94-1.9l-2.21-2.22-1.91-2.06-1-1.14L141.42,399a4.7,4.7,0,0,0-1.08-1.27,3,3,0,0,0-.79-1.12l-1.74-2.38-.85-1.26c-.55-.85-1.11-1.7-1.67-2.55l-1.5-2.52-1.4-2.54-1.28-2.53-1.26-2.7-.63-1.43-1.08-2.7-1-2.69-1-3-.78-2.69-.78-3a20.6,20.6,0,0,0-.52-2.69c-.18-1-.37-2-.55-3l-.39-3-.3-2.85a10.91,10.91,0,0,0-.33-3v-7.45c.1-1.06.2-2.12.29-3.17,0-.43,0-.85.07-1.27a18.25,18.25,0,0,0,.3-2.86,10,10,0,0,0,.29-1.9c.13-.84.25-1.68.38-2.53s.38-1.9.58-2.86l.65-2.85.77-2.86c.3-.94.59-1.89.88-2.83l.42-1.28a18.5,18.5,0,0,0,1-2.67,5.79,5.79,0,0,0,.65-1.61,21,21,0,0,0,1.09-2.53,5.77,5.77,0,0,0,.64-1.41c.45-.91.91-1.82,1.37-2.73l1.44-2.69c.48-.85,1-1.69,1.46-2.54l1.59-2.53.85-1.25,1.69-2.4,1.79-2.36,1.83-2.24,1.93-2.21,2.08-2.21,2.07-2.06,2.22-2.06a22.31,22.31,0,0,0,2.2-1.91,8.79,8.79,0,0,0,1.57-1.28l3.16-2.38,2.52-1.75,2.42-1.57a5.48,5.48,0,0,0,1.29-.78l2.51-1.44,2.71-1.42a21,21,0,0,0,2.57-1.25l2.49-1.08,2.86-1.16a21.24,21.24,0,0,0,2.67-1,4.92,4.92,0,0,0,1.43-.48l2.85-.83,2.85-.78,2.86-.64,1.42-.3,2.86-.48,1.11-.16,3.48-.45,2.86-.18,3-.17h5.87l1.39,0,4.12.32,3.36.44a14.45,14.45,0,0,0,2.36.35,26.77,26.77,0,0,0,3.33.63,4.13,4.13,0,0,0,1.42.32l3,.77,2.85.81,2.86.95,2.68,1a23.08,23.08,0,0,0,2.68,1.08,6,6,0,0,0,1.45.64,22.74,22.74,0,0,0,2.69,1.27,4.62,4.62,0,0,0,1.27.65l2.68,1.45,2.56,1.5,2.54,1.6,2.37,1.61c3,2.18,5.83,4.48,8.57,6.93l1.56,1.47Z"/><path class="cls-167" d="M199.79,430a2.47,2.47,0,0,1,1.14.12C200.55,430.13,200.15,430.3,199.79,430Z"/><path class="cls-198" d="M188,321.16c-4-7.58-3.84-15.11.51-22.45a20.16,20.16,0,0,1,14.57-10,19.45,19.45,0,0,1,16.18,4.43A22.29,22.29,0,0,1,227.34,308a17.23,17.23,0,0,1-.92,8.32c-.46-.13-.52-.56-.65-.92a33.54,33.54,0,0,0-4.88-9.38,17.33,17.33,0,0,0-7.44-6,12.05,12.05,0,0,0-9.12.18,22.08,22.08,0,0,0-9,7.39,45.56,45.56,0,0,0-6.47,12.11C188.65,320.28,188.58,320.86,188,321.16Z"/><path class="cls-199" d="M188.54,381.19a17.51,17.51,0,0,1-9.39,6.09,21.32,21.32,0,0,1-26.69-15.69c-2.82-12.36,5.71-22.36,13.9-24.71a22.4,22.4,0,0,1,4.73-.87c.18.61-.3.93-.62,1.26-1,1-1.88,2.07-2.78,3.14a47.84,47.84,0,0,0-8.52,13.91,18.91,18.91,0,0,0-1.25,9.08c.53,4.09,2.89,6.81,6.59,8.44a20,20,0,0,0,7.4,1.51,46.14,46.14,0,0,0,15.21-2.2C187.59,381,188.08,380.82,188.54,381.19Z"/><path class="cls-200" d="M254.48,352a19.89,19.89,0,0,1,6,11.53c1,7.38-1.06,13.82-6.58,19A20.7,20.7,0,0,1,240.65,388a20.29,20.29,0,0,1-13.93-4.18c-.35-.27-.65-.61-1-.91.28-.34.67-.28,1-.25a64.41,64.41,0,0,0,7.35.16c5.47-.26,10.82-1.12,15.73-3.73a16.24,16.24,0,0,0,7.77-7.91,14.18,14.18,0,0,0,1.13-6.87,24.57,24.57,0,0,0-4-11.2C254.5,352.8,254.16,352.46,254.48,352Z"/><path class="cls-201" d="M188.54,381.19a7.5,7.5,0,0,0-2.91.63,48.25,48.25,0,0,1-7.71,1.53c-4.17.42-8.36.52-12.41-.89a11.22,11.22,0,0,1-6.85-5.71,11.34,11.34,0,0,1-1.06-4.42A22.49,22.49,0,0,1,160,361.89a50.27,50.27,0,0,1,7.72-11.77c1.06-1.24,2.14-2.46,3.21-3.69a2.71,2.71,0,0,0,.2-.42,8.38,8.38,0,0,1,2.06-.15c.24.54-.19.83-.48,1.14a62.92,62.92,0,0,0-6.31,7.61,33.86,33.86,0,0,0-5.67,11.86,14.38,14.38,0,0,0-.05,7,9.23,9.23,0,0,0,3.76,5.32,14.59,14.59,0,0,0,6.87,2.44,36.66,36.66,0,0,0,12.35-.8c1.77-.4,3.54-.84,5.28-1.4a1.15,1.15,0,0,1,1.2,0A11.24,11.24,0,0,1,188.54,381.19Z"/><path class="cls-202" d="M190.1,379.12a17.26,17.26,0,0,0-4.19,1,41.65,41.65,0,0,1-13.41,1.48,15.05,15.05,0,0,1-8.62-2.9,9.6,9.6,0,0,1-3.75-6.86,20.41,20.41,0,0,1,2.09-10.52,45.81,45.81,0,0,1,6.6-10.33,53.63,53.63,0,0,1,3.89-4.35,1.44,1.44,0,0,0,.44-.82l1.9,0c0,.62-.42.94-.78,1.31a53.32,53.32,0,0,0-8.05,10.45,26.28,26.28,0,0,0-3.67,10c-.6,4.66,1.29,9,6.25,11a17.43,17.43,0,0,0,5.79,1.18,43.41,43.41,0,0,0,15.49-2.4c.36-.11.78-.46,1.13.07A6.36,6.36,0,0,1,190.1,379.12Z"/><path class="cls-203" d="M191.21,377.38c-.29-.23-.57-.05-.83,0a44.54,44.54,0,0,1-9.71,2.29,26.09,26.09,0,0,1-10.41-.44c-3.37-1-6.13-2.81-7.4-6.3a11.77,11.77,0,0,1-.42-6.2c.95-5.34,3.66-9.82,6.81-14.08a50.27,50.27,0,0,1,5.14-6,6.52,6.52,0,0,0,.66-.88l1.43,0c.21.47-.18.68-.42.92a53.41,53.41,0,0,0-6.74,8.18c-2.35,3.52-4.3,7.23-4.89,11.49a9.8,9.8,0,0,0,1.91,7.93,10.75,10.75,0,0,0,5.93,3.42c3.94,1,7.86.6,11.78-.1a57.05,57.05,0,0,0,7-1.84c.34-.11.68-.34,1.05-.06A4.77,4.77,0,0,1,191.21,377.38Z"/><path class="cls-204" d="M178.27,346a5.72,5.72,0,0,1,1.89.16c-1.74.36-2.53,1.9-3.58,3.05a39.3,39.3,0,0,0-6.83,9.95,17,17,0,0,0-1.92,7.86,7.88,7.88,0,0,0,4.83,7.31,15.16,15.16,0,0,0,6.07,1.29,39.06,39.06,0,0,0,13.58-2.36c.4-.13.81-.45,1.27-.14a4.18,4.18,0,0,1-.89,1.61A46.88,46.88,0,0,1,180,377.47a19.47,19.47,0,0,1-8.47-1.13A9.22,9.22,0,0,1,165.59,366c.6-4.54,2.69-8.41,5.21-12.1a56.72,56.72,0,0,1,6.52-7.74,1.07,1.07,0,0,1,.31-.25A1.27,1.27,0,0,1,178.27,346Z"/><path class="cls-205" d="M193.58,373.1c-1.58.47-3.17,1-4.76,1.41a31.55,31.55,0,0,1-11.46,1.25,11.17,11.17,0,0,1-7.58-3.25,8,8,0,0,1-2.16-5.2,16.91,16.91,0,0,1,1.84-8.07,39.48,39.48,0,0,1,6.34-9.48c.84-.94,1.7-1.87,2.51-2.83a1.92,1.92,0,0,1,1.85-.79l.28,0c.23.5-.21.72-.46,1a51.46,51.46,0,0,0-6.66,8.33,22.59,22.59,0,0,0-3.49,9,7.88,7.88,0,0,0,5.37,8.8,17.93,17.93,0,0,0,7.49.79,42.61,42.61,0,0,0,10.41-2.3,1.3,1.3,0,0,1,1.14-.08C194.16,372.22,193.75,372.6,193.58,373.1Z"/><path class="cls-206" d="M177.59,346c-.06.47-.48.68-.76,1a49.63,49.63,0,0,0-8.76,11.91,19.1,19.1,0,0,0-2.36,8.67,8.65,8.65,0,0,0,5.45,8.41,15.87,15.87,0,0,0,5.57,1.27c5.08.35,9.91-.8,14.68-2.32.41-.13.8-.44,1.28-.21,0,.45-.47.67-.54,1.09-1.61.46-3.22,1-4.85,1.38a37.75,37.75,0,0,1-6.26,1.17,27.89,27.89,0,0,1-4.08.29c-3.16-.2-6.27-.6-9-2.49a9,9,0,0,1-3.86-7.31,18.15,18.15,0,0,1,2-8.53,42.56,42.56,0,0,1,6.72-10.26c1-1.2,2.07-2.39,3.19-3.5.21-.19.48-.36.49-.69h.32C177.05,346,177.36,345.8,177.59,346Z"/><path class="cls-207" d="M195.48,368.82a5.32,5.32,0,0,1-.61,1.43,38.16,38.16,0,0,1-9.33,2.42,20,20,0,0,1-7.93-.34,7.74,7.74,0,0,1-5.53-4.56,9.63,9.63,0,0,1-.28-5.84,23.66,23.66,0,0,1,3.65-7.95,44.46,44.46,0,0,1,5.88-7,1.3,1.3,0,0,1,1.4-.49,2.27,2.27,0,0,1,1.09.16,34.81,34.81,0,0,0-9,12.34,11.74,11.74,0,0,0-1,5.56,6.68,6.68,0,0,0,5.2,6,19.36,19.36,0,0,0,8.4.21,34.87,34.87,0,0,0,6.88-1.81C194.66,368.75,195.06,368.49,195.48,368.82Z"/><path class="cls-208" d="M254.48,352c0,.87.68,1.41,1.07,2.08a24.71,24.71,0,0,1,3.33,9.13,14.43,14.43,0,0,1-3.67,12.11,20.36,20.36,0,0,1-7.22,4.94,36.8,36.8,0,0,1-10.28,2.54,59.18,59.18,0,0,1-8.52.26c-1.15,0-2.29-.19-3.45-.11a4.08,4.08,0,0,1-.94-1,1.41,1.41,0,0,1,1.21-.2,51.34,51.34,0,0,0,6.79.28c5.5-.21,10.89-1,15.86-3.53a17,17,0,0,0,6.68-5.81,14.21,14.21,0,0,0,1.77-11.33,28,28,0,0,0-5.25-10.73c-.26-.34-.75-.67-.38-1.23A13.13,13.13,0,0,1,254.48,352Z"/><path class="cls-209" d="M195.48,368.82a16.17,16.17,0,0,0-3.39,1,28.7,28.7,0,0,1-10.72,1.32c-2.73-.22-5.24-1.13-6.8-3.58a7,7,0,0,1-1-4.51c.38-4.55,2.78-8.13,5.42-11.61a40.07,40.07,0,0,1,3.93-4.41,1.11,1.11,0,0,1,.88-.45,1.84,1.84,0,0,1,1,.16,6.05,6.05,0,0,1-1.24,1.43,37.16,37.16,0,0,0-5.63,7.23,15.7,15.7,0,0,0-2.22,5.82,7.48,7.48,0,0,0,.66,5,7,7,0,0,0,4.92,3.15,19.73,19.73,0,0,0,8.48-.31,44.9,44.9,0,0,0,5.18-1.48c.33-.11.68-.33,1.05-.06A5,5,0,0,1,195.48,368.82Z"/><path class="cls-210" d="M237.67,345.85h1.12a16.46,16.46,0,0,1,2.6,2.4,25.73,25.73,0,0,1,6.1,10.17c1.28,4.44.65,8.53-2.64,12a15.74,15.74,0,0,1-5.84,3.71A29.1,29.1,0,0,1,228.64,376c-1.37,0-2.74,0-4.11,0a31.38,31.38,0,0,1-3.61-.3,1.13,1.13,0,0,1-.69-.36,2,2,0,0,1-.44-.79c.76-.46,1.55-.07,2.3,0a36.55,36.55,0,0,0,14.12-1,15.69,15.69,0,0,0,7.68-4.65,9.75,9.75,0,0,0,2.44-6.05c.21-4.09-1.43-7.56-3.67-10.82a34.33,34.33,0,0,0-4.53-5.18C237.88,346.57,237.45,346.35,237.67,345.85Z"/><path class="cls-211" d="M251.48,349.44c0,.8.65,1.23,1.06,1.78a25.9,25.9,0,0,1,5.06,11.6A13.86,13.86,0,0,1,253.8,375a22,22,0,0,1-10.2,5.74,45.4,45.4,0,0,1-9.06,1.45c-2.56.2-5.08,0-7.62-.06a21.16,21.16,0,0,0-2.12-.13l-.6-.64c.15-.35.44-.29.74-.27,2.31.1,4.61.46,6.93.37a40.38,40.38,0,0,0,13.71-2.52,20.82,20.82,0,0,0,6.27-3.79,13.53,13.53,0,0,0,4.47-8.25,18,18,0,0,0-1.72-10,32.21,32.21,0,0,0-4.37-7c-.36-.46-1-.86-.83-1.61A6.38,6.38,0,0,1,251.48,349.44Z"/><path class="cls-212" d="M223.5,380.42a1.71,1.71,0,0,1-.47-.63c.19-.42.55-.31.89-.29,2.13.15,4.26.41,6.39.35a41.23,41.23,0,0,0,11.94-1.75c4-1.31,7.54-3.31,9.89-7a12.85,12.85,0,0,0,1.88-8.56c-.44-4.1-2.28-7.59-4.56-10.9a48.09,48.09,0,0,0-3.16-4c-.22-.26-.49-.5-.38-.9a4.4,4.4,0,0,1,1.42.47,30.28,30.28,0,0,1,5.39,7.29,22.1,22.1,0,0,1,2.8,8.28A13.31,13.31,0,0,1,252,373.72c-2.74,3-6.28,4.67-10.11,5.8a45.48,45.48,0,0,1-14.83,1.37A10.39,10.39,0,0,1,223.5,380.42Z"/><path class="cls-213" d="M237.67,345.85c.05.44.43.65.71.91a30,30,0,0,1,6.53,8.64,14.61,14.61,0,0,1,1.62,7.86,10,10,0,0,1-2.59,5.88c-2.75,3-6.32,4.44-10.21,5.22a36.12,36.12,0,0,1-8.62.63c-1.78-.08-3.55-.3-5.32-.46l-.4-.78c.66-.43,1.34-.07,2,0,5.22.54,10.38.41,15.37-1.45a13.53,13.53,0,0,0,6.62-4.83,10,10,0,0,0,1.62-7.69,19.64,19.64,0,0,0-3.37-7.7,46.24,46.24,0,0,0-3.56-4.35,6.78,6.78,0,0,0-1-.79c-.36-.27-.71-.56-.67-1.08Z"/><path class="cls-214" d="M245.92,346.81c.81,1.27,1.92,2.29,2.81,3.49a27.4,27.4,0,0,1,5.16,10.21c1,4.43.38,8.53-2.54,12.11a17.06,17.06,0,0,1-6.45,4.71,31.31,31.31,0,0,1-9.26,2.4,37.24,37.24,0,0,1-6.92.32,43.29,43.29,0,0,1-5.09-.41,1,1,0,0,0-.6.15,1.84,1.84,0,0,1-.58-.82.62.62,0,0,1,.59-.17,38.43,38.43,0,0,0,3.85.32c1.39,0,2.79-.05,4.18,0a32,32,0,0,0,12.49-2.39,16,16,0,0,0,7.23-5.47,12.54,12.54,0,0,0,2.13-9.48,22.35,22.35,0,0,0-3.41-8.63,38.48,38.48,0,0,0-3.39-4.56,7.62,7.62,0,0,1-1.33-1.55c-.08-.16-.2-.31-.14-.51C245.12,346.41,245.47,346.83,245.92,346.81Z"/><path class="cls-215" d="M188,321.16c1.13-2.64,2.09-5.35,3.47-7.88a40.7,40.7,0,0,1,5.15-7.54,21.93,21.93,0,0,1,5.87-4.83c4.48-2.45,9-2.55,13.4.2A21.8,21.8,0,0,1,223,308.9a40.27,40.27,0,0,1,3,6.77,6.39,6.39,0,0,0,.36.69,3.07,3.07,0,0,1-.46,1.31,4.18,4.18,0,0,1-.73-1.64,31.59,31.59,0,0,0-5.09-9.61,15.37,15.37,0,0,0-8-5.64,11.8,11.8,0,0,0-8.46.86,21.62,21.62,0,0,0-7.92,6.67,47.83,47.83,0,0,0-6.88,13.12,1.14,1.14,0,0,1-.36.68A2.54,2.54,0,0,1,188,321.16Z"/><path class="cls-216" d="M197.39,363.59l-.48,1.43a19,19,0,0,1-3.34,1.2,22.17,22.17,0,0,1-8.13,1.06,8.09,8.09,0,0,1-4.58-1.56,5.63,5.63,0,0,1-2.12-5.49,16.56,16.56,0,0,1,3-7.11,32,32,0,0,1,4.54-5.38c.3-.28.57-.65,1.08-.5l.57.2c.21.53-.25.75-.52,1a31,31,0,0,0-4.72,6,11.34,11.34,0,0,0-1.83,6.06,4.58,4.58,0,0,0,2.64,4.2,8.63,8.63,0,0,0,3.44.84,24.2,24.2,0,0,0,9.36-1.75C196.62,363.73,197,363.47,197.39,363.59Z"/><path class="cls-217" d="M221.32,377.23l-.49-.79a7.36,7.36,0,0,1,2.34.16,64.31,64.31,0,0,0,7.35.16,38.7,38.7,0,0,0,7.34-1.16,20,20,0,0,0,6.95-3.34c4.37-3.37,5.59-8.36,4.06-13.49a27.35,27.35,0,0,0-5.61-9.66,31,31,0,0,0-2.21-2.37,1.87,1.87,0,0,0-1.09-.59c-.12-.06-.23-.13-.22-.28a4.76,4.76,0,0,1,2.21.31,21.59,21.59,0,0,1,3.12,3.36,26.58,26.58,0,0,1,5.14,9,14.88,14.88,0,0,1,.6,6.42,12.22,12.22,0,0,1-5.51,8.62,23.31,23.31,0,0,1-9.37,3.65,38.29,38.29,0,0,1-8.27.63,44.25,44.25,0,0,1-5.75-.44A1.15,1.15,0,0,1,221.32,377.23Z"/><path class="cls-218" d="M222.64,324.32a3.15,3.15,0,0,1-.66,1.06,7.21,7.21,0,0,1-.67-2,25.58,25.58,0,0,0-4.76-9.31c-2.2-2.58-4.88-4.27-8.41-4.16a10.39,10.39,0,0,0-5.78,2.16,22.65,22.65,0,0,0-6.27,7.35,40.79,40.79,0,0,0-3.3,7.69c-.12.37-.17.8-.61,1a1.87,1.87,0,0,1-.5-.74,16.27,16.27,0,0,1,.94-3.07,36.78,36.78,0,0,1,3.07-6.5,22.69,22.69,0,0,1,7.18-7.78,10.53,10.53,0,0,1,12.07.54,20.1,20.1,0,0,1,5.95,8.33,42.83,42.83,0,0,1,1.65,4.78A1,1,0,0,1,222.64,324.32Z"/><path class="cls-219" d="M196,367.55c-2,.5-3.85,1.23-5.83,1.67a23.35,23.35,0,0,1-6.8.69,10.07,10.07,0,0,1-5.69-1.84,5.81,5.81,0,0,1-2.28-4.24c-.29-3.43,1-6.4,2.76-9.22a43.87,43.87,0,0,1,6.41-7.78.7.7,0,0,1,.23-.06,1.62,1.62,0,0,1,.92.17c-.95,1.33-2.24,2.37-3.28,3.64-2.3,2.79-4.4,5.69-5.25,9.29a9,9,0,0,0-.27,3.3,5.68,5.68,0,0,0,4,4.82,14.28,14.28,0,0,0,6.71.55,33.84,33.84,0,0,0,7.53-1.85c.35-.13.72-.38,1.12-.09Z"/><path class="cls-220" d="M194.24,371.68c-2.11.53-4.15,1.35-6.28,1.8a31.45,31.45,0,0,1-8.36.87,12.4,12.4,0,0,1-6.71-2,7.65,7.65,0,0,1-3.24-5.3,14.37,14.37,0,0,1,1.53-8,35.13,35.13,0,0,1,5.88-8.94c1-1.13,2-2.27,3-3.33.17-.17.37-.32.36-.59.31-.12.52.17.79.18,0,.67-.51,1-.9,1.41a41.92,41.92,0,0,0-6.69,8.6,19.23,19.23,0,0,0-2.54,6.53,10.1,10.1,0,0,0,.25,5.23,6.85,6.85,0,0,0,4.05,4.09,16.84,16.84,0,0,0,7.68,1.06,42.92,42.92,0,0,0,10.63-2.35c.29-.1.61-.28.82.13A1.18,1.18,0,0,1,194.24,371.68Z"/><path class="cls-221" d="M239.74,345.87l.15.13a5,5,0,0,1,1.55,1.33,30.44,30.44,0,0,1,6.45,9.6,15.65,15.65,0,0,1,1.2,5.71,11.31,11.31,0,0,1-3.08,7.92c-2.73,2.92-6.22,4.37-10,5.27a41.81,41.81,0,0,1-11.1.79c-1.16,0-2.31-.2-3.47-.32a2,2,0,0,1-.88-.34,1.27,1.27,0,0,1-.33-.64c1,.12,2,.13,2.94.3a30,30,0,0,0,3.65.15,23.06,23.06,0,0,0,5.25-.16,30.85,30.85,0,0,0,4.93-1,18.53,18.53,0,0,0,6.92-3.65,10.83,10.83,0,0,0,3.76-6.38,13.78,13.78,0,0,0-.88-7.59,27.75,27.75,0,0,0-6.29-9.28,19.81,19.81,0,0,1-1.72-1.83Z"/><path class="cls-222" d="M227.83,346.78a2.26,2.26,0,0,1,1.09-.17.48.48,0,0,1,.5.14c3.06,2.73,5.82,5.68,7.13,9.7a8.26,8.26,0,0,1-4.28,10.33,20.06,20.06,0,0,1-7.68,2,33.42,33.42,0,0,1-6.93-.32,1.18,1.18,0,0,1-.73-.24l-.31-.64c.07-.51.44-.43.79-.39a31.65,31.65,0,0,0,5.92.33c3.33-.2,6.59-.74,9.27-2.95a6.87,6.87,0,0,0,2.55-6.63,14.53,14.53,0,0,0-3.9-7.49,30.65,30.65,0,0,0-3-2.92A.89.89,0,0,1,227.83,346.78Z"/><path class="cls-223" d="M194.53,371a.59.59,0,0,0-.59,0,41.37,41.37,0,0,1-9.69,2.38,18,18,0,0,1-8.69-.9,7.37,7.37,0,0,1-4.82-6.24c-.3-3.71,1-6.93,2.73-10a41,41,0,0,1,7.09-9,7.18,7.18,0,0,0,.67-.87,2.65,2.65,0,0,1,1.5.11,1.26,1.26,0,0,0-1,.38,40.13,40.13,0,0,0-8.42,11.36,14.07,14.07,0,0,0-1.58,7.16,7.08,7.08,0,0,0,5,6.48c2.7,1,5.52.92,8.34.67a39.15,39.15,0,0,0,8.87-2.12,2.68,2.68,0,0,1,.93-.13Z"/><path class="cls-224" d="M192.18,328.07c.58-1.56,1.12-3.13,1.75-4.66A27.46,27.46,0,0,1,201,312.87a11.09,11.09,0,0,1,7.86-3.18,9.61,9.61,0,0,1,5.72,2.19,19.48,19.48,0,0,1,5.86,8.46,23.51,23.51,0,0,1,1.55,5,1.59,1.59,0,0,1-.46.69c-.39-.25-.37-.68-.47-1.05a29.25,29.25,0,0,0-2.39-6.28,17.58,17.58,0,0,0-4.3-5.51,9.08,9.08,0,0,0-11.11-.64,18.7,18.7,0,0,0-5.34,5.33,35.25,35.25,0,0,0-4.79,10.38.89.89,0,0,1-.33.61A2.67,2.67,0,0,1,192.18,328.07Z"/><path class="cls-225" d="M190.81,348a2.82,2.82,0,0,1,1.24.32,19,19,0,0,0-5,6.44,8.53,8.53,0,0,0-.64,2.2,3.49,3.49,0,0,0,2.48,4,11.32,11.32,0,0,0,6.47-.29c.76-.21,1.5-.5,2.26-.74.29-.09.6-.25.9,0a3.49,3.49,0,0,1-.35,1.26,18.73,18.73,0,0,1-5.79,1.79,12.56,12.56,0,0,1-4.41,0,4.45,4.45,0,0,1-3.72-3.23,7.38,7.38,0,0,1,.36-4,17.28,17.28,0,0,1,3-4.92,26.12,26.12,0,0,1,2.26-2.44C190.11,348.17,190.37,347.89,190.81,348Z"/><path class="cls-226" d="M220.56,376a46.1,46.1,0,0,0,9.6.45c4.71-.27,9.3-1.16,13.28-3.9a11.57,11.57,0,0,0,5.29-8,14.44,14.44,0,0,0-1-7.46,28.56,28.56,0,0,0-5.42-8.46c-.79-.88-1.68-1.67-2.41-2.6a1.26,1.26,0,0,1,1.08.34,33.8,33.8,0,0,1,7,9.48,15.89,15.89,0,0,1,1.74,7.77,11.47,11.47,0,0,1-4.43,8.56A22.44,22.44,0,0,1,234,376.61a35.7,35.7,0,0,1-7.15.43,28.3,28.3,0,0,1-6-.6Z"/><path class="cls-227" d="M187.32,347.24a.86.86,0,0,0-.56.28,30.57,30.57,0,0,0-6.58,8.69,10.93,10.93,0,0,0-1.29,4.6c0,3.13,1.46,5.14,4.69,5.94a17.61,17.61,0,0,0,8.56-.37c1.28-.31,2.53-.74,3.77-1.16a2.14,2.14,0,0,1,1-.2l-.3.79a20,20,0,0,1-5,1.74,22.55,22.55,0,0,1-6.75.7,9.5,9.5,0,0,1-3.9-.92,5.8,5.8,0,0,1-3.46-5.41,12.87,12.87,0,0,1,1.71-6.27,31.45,31.45,0,0,1,6.22-8.06c.3-.28.56-.66,1.07-.5A1.34,1.34,0,0,1,187.32,347.24Z"/><path class="cls-228" d="M216.93,368.19a57.09,57.09,0,0,0,6.11.46c3.27-.14,6.51-.52,9.42-2.21a7.87,7.87,0,0,0,4.28-6.23,11.1,11.1,0,0,0-1.75-6.72,26.78,26.78,0,0,0-6.07-6.88,1.71,1.71,0,0,1,1-.15.2.2,0,0,1,.24,0,29.44,29.44,0,0,1,5.59,6.1,14.15,14.15,0,0,1,2.44,6.37,8,8,0,0,1-2.91,7.11,15.32,15.32,0,0,1-8.42,3.31,37.63,37.63,0,0,1-9.06-.16.77.77,0,0,1-.5-.2A1.56,1.56,0,0,1,216.93,368.19Z"/><path class="cls-229" d="M197.39,363.59a25.71,25.71,0,0,1-7.17,2.06,12.76,12.76,0,0,1-6.31-.45,5,5,0,0,1-3.31-4.64c0-3.09,1.38-5.63,3.09-8.05a30.65,30.65,0,0,1,3.9-4.54.73.73,0,0,0,.3-.53,3.15,3.15,0,0,1,1.6.29l-.08.09a4.09,4.09,0,0,0-1.13.85,25.2,25.2,0,0,0-5.44,7.72,8.61,8.61,0,0,0-.57,4.19,3.66,3.66,0,0,0,1.76,2.86,9,9,0,0,0,5.41,1.13,25.57,25.57,0,0,0,7.74-1.88.65.65,0,0,1,.53-.05A2.43,2.43,0,0,1,197.39,363.59Z"/><path class="cls-230" d="M198.52,360c-1.35.23-2.58.89-3.92,1.17a10.85,10.85,0,0,1-6,0,3.75,3.75,0,0,1-2.44-4.18,13.11,13.11,0,0,1,3.19-6.14c.6-.7,1.25-1.36,1.87-2a1,1,0,0,1,.81-.39,1.34,1.34,0,0,1,.76.18c.06.48-.35.68-.6,1a16.1,16.1,0,0,0-3.66,5.58c-.9,2.74.43,4.68,3.34,4.81a15.6,15.6,0,0,0,5.72-1.07c.44-.15.85-.44,1.35-.3A5.92,5.92,0,0,1,198.52,360Z"/><path class="cls-231" d="M227.83,346.78l2.11,2c2.75,2.59,4.91,5.55,5.49,9.39a7.54,7.54,0,0,1-3.81,7.34,17.14,17.14,0,0,1-6.8,2.07,32.82,32.82,0,0,1-7.61-.23.55.55,0,0,0-.59.2l-.34-1.1a6.84,6.84,0,0,1,2.34.15,24.13,24.13,0,0,0,8.8-.57,10.26,10.26,0,0,0,4.48-2.44,6.64,6.64,0,0,0,1.9-6.88,15.8,15.8,0,0,0-3.16-5.8,24.17,24.17,0,0,0-3.39-3.32c-.19-.17-.44-.32-.36-.64A1.72,1.72,0,0,1,227.83,346.78Z"/><path class="cls-232" d="M249.4,348.23a19.52,19.52,0,0,0,2,2.88,25.83,25.83,0,0,1,5,11.2,13.59,13.59,0,0,1-3,11.43c-2.94,3.47-6.83,5.26-11.07,6.47a32.12,32.12,0,0,1-7.12,1.25,39.57,39.57,0,0,1-7.54,0,8.55,8.55,0,0,0-3.53-.12c-.21-.09-.23-.32-.35-.47.74-.46,1.53-.14,2.28-.11,2.14.09,4.26.24,6.4.14a46.3,46.3,0,0,0,6.75-.74,24.4,24.4,0,0,0,11.79-5.23,13.07,13.07,0,0,0,4.63-8.82,19.11,19.11,0,0,0-2.44-10.72,36.6,36.6,0,0,0-4.67-6.84c-.22-.27-.54-.53-.45-1A2.94,2.94,0,0,1,249.4,348.23Z"/><path class="cls-233" d="M186.51,347.09a.86.86,0,0,0-.6.34,32.35,32.35,0,0,0-6.6,8.48,11.46,11.46,0,0,0-1.54,6.91,5.48,5.48,0,0,0,3.64,4.49,13.94,13.94,0,0,0,6.84.62,30.43,30.43,0,0,0,7.9-2,2.33,2.33,0,0,1,.46-.08c.08.34-.36.47-.32.79-1.48.45-3,.93-4.45,1.35a24.85,24.85,0,0,1-6.28,1,10.71,10.71,0,0,1-6.41-1.58,5.53,5.53,0,0,1-2.5-4.62,14.62,14.62,0,0,1,2.56-8.16,33.73,33.73,0,0,1,5.37-6.6c.37-.35.48-1,1.11-1A1.29,1.29,0,0,1,186.51,347.09Z"/><path class="cls-234" d="M242.43,346.15l.95.14c3.85,4,7.15,8.29,8.46,13.81a12.74,12.74,0,0,1-2.66,11.8,16.93,16.93,0,0,1-6.54,4.49,32.67,32.67,0,0,1-9.45,2.19,61.9,61.9,0,0,1-6.81.1,18.14,18.14,0,0,1-4.46-.48.93.93,0,0,1-.3-.49c.28-.29.63-.21,1-.17a49.22,49.22,0,0,0,6.3.39,42.32,42.32,0,0,0,7.93-.8,23.66,23.66,0,0,0,7.68-2.85c3.54-2.15,5.95-5.1,6.51-9.32a14.64,14.64,0,0,0-.9-7,28.57,28.57,0,0,0-6.18-9.76c-.45-.49-.84-1-1.3-1.49C242.48,346.56,242.34,346.39,242.43,346.15Z"/><path class="cls-235" d="M221.92,378.2c2.74.1,5.46.35,8.2.31a33.67,33.67,0,0,0,12.25-2.25,15.61,15.61,0,0,0,7.78-6,12,12,0,0,0,1.81-5.4c.35-3.8-.86-7.18-2.62-10.44a40.29,40.29,0,0,0-5.62-7.49c-.16-.18-.35-.33-.34-.6l.48,0a1.35,1.35,0,0,1,.71.48c2.74,3.08,5.34,6.26,6.9,10.14a16.6,16.6,0,0,1,1.39,8.34,13.05,13.05,0,0,1-6.08,9.56,25,25,0,0,1-9.77,3.7,44.08,44.08,0,0,1-7.95.6c-2,0-4-.16-6.05-.33a2,2,0,0,1-.88-.32Z"/><path class="cls-236" d="M190.81,348a6.78,6.78,0,0,0-2.27,2,21.89,21.89,0,0,0-2.87,3.93,8.39,8.39,0,0,0-1.24,5.63,3.65,3.65,0,0,0,2.56,2.85,12.3,12.3,0,0,0,7.21-.06,12.55,12.55,0,0,0,2.91-1,1.85,1.85,0,0,1,1.06-.25c0,.36-.36.59-.3,1a13,13,0,0,1-3.4,1.27,15.37,15.37,0,0,1-7.25.67,6.67,6.67,0,0,1-2.5-1,4.53,4.53,0,0,1-2-4.51,11.87,11.87,0,0,1,1.92-5.15,25,25,0,0,1,4.83-5.72l0,0A3.19,3.19,0,0,1,190.81,348Z"/><path class="cls-237" d="M188.51,322.11a19.6,19.6,0,0,1,1.24-3.57,47.94,47.94,0,0,1,4.9-9.08,23.19,23.19,0,0,1,9.08-8.08,12.45,12.45,0,0,1,13.33,1.71c4.12,3.28,6.43,7.7,8.23,12.48.25.69.45,1.4.67,2.1a.26.26,0,0,1-.14.28c-.58.05-.58-.46-.68-.79a34.61,34.61,0,0,0-3.74-8,19,19,0,0,0-5.87-6.12c-4.39-2.75-8.8-2.54-13.17,0a24.23,24.23,0,0,0-7.51,7.37,47.08,47.08,0,0,0-5.51,11c-.14.39-.18.85-.68,1Z"/><path class="cls-238" d="M219.12,329.48a1.27,1.27,0,0,1-.41.53c-.56,0-.5-.53-.59-.87a25.5,25.5,0,0,0-1.84-5.22,13.48,13.48,0,0,0-3.81-5,7,7,0,0,0-8.48-.3,16.63,16.63,0,0,0-5.6,6.54,28.17,28.17,0,0,0-2.46,6.33c-.09.33-.11.69-.45.9a1.32,1.32,0,0,1-.44-.55,1.22,1.22,0,0,1,0-1.07,31.57,31.57,0,0,1,4.28-9.3,14,14,0,0,1,5-4.63,7.75,7.75,0,0,1,9.46,1.42,19,19,0,0,1,4.67,8.15c.24.76.44,1.52.63,2.29C219.17,329,219.29,329.23,219.12,329.48Z"/><path class="cls-239" d="M191.22,326.66l-.32-.48a2.49,2.49,0,0,1,.24-1.52,36.66,36.66,0,0,1,7.13-13,15.84,15.84,0,0,1,8.39-5.35,10,10,0,0,1,7.51,1.35,17.66,17.66,0,0,1,6.25,6.78,37.7,37.7,0,0,1,2.62,6c.25.69.32,1.43.56,2.13a1.62,1.62,0,0,1-.49,1c-.27-.2-.22-.52-.3-.79a31.37,31.37,0,0,0-3.7-8.62,16.47,16.47,0,0,0-5.16-5.28,9.93,9.93,0,0,0-10.66,0,20.15,20.15,0,0,0-6.59,6.4,40.08,40.08,0,0,0-4.95,10.22A2.62,2.62,0,0,1,191.22,326.66Z"/><path class="cls-240" d="M199,358.52a17.71,17.71,0,0,1-7.09,1.59,3.76,3.76,0,0,1-3.77-2.66,5.43,5.43,0,0,1,.63-3.44,18.73,18.73,0,0,1,3.17-4.49c.29-.33.6-.65.91-1a5.93,5.93,0,0,1,1.61.45,14.62,14.62,0,0,0-3.09,3.56,7.22,7.22,0,0,0-1.06,2.69,2.39,2.39,0,0,0,1.68,2.84,6.79,6.79,0,0,0,3,.16,13,13,0,0,0,3.42-.91c.3-.13.62-.36,1-.08C199.36,357.72,198.89,358.05,199,358.52Z"/><path class="cls-241" d="M195.48,332.41a28.86,28.86,0,0,1,3.8-9.15c1.83-2.82,4.06-5.2,7.51-6a6.66,6.66,0,0,1,5.76,1.47c2.86,2.22,4.24,5.35,5.32,8.67a8.46,8.46,0,0,0,.84,2.59,2.57,2.57,0,0,1-.7.87c-.27-.14-.3-.41-.35-.67a20.36,20.36,0,0,0-2.9-7.39,10.37,10.37,0,0,0-4-3.75c-2.64-1.29-5.49-.54-7.84,1.49-3.24,2.8-4.95,6.51-6.21,10.48a4.82,4.82,0,0,1-.74,2A1.43,1.43,0,0,1,195.48,332.41Z"/><path class="cls-242" d="M194.4,331.06l-.33-.42a1.1,1.1,0,0,1,0-.92,30.71,30.71,0,0,1,5.32-10.87,14,14,0,0,1,5.69-4.54c3.42-1.33,6.41-.54,9.07,1.81A18.56,18.56,0,0,1,219,323.8a24.11,24.11,0,0,1,1,3.33,1.49,1.49,0,0,1,0,1,1.54,1.54,0,0,1-.47.65,8,8,0,0,1-.86-2.6,19.89,19.89,0,0,0-4.7-8.49c-3.52-3.5-7.89-3.34-11.55-.37-3,2.46-4.87,5.77-6.35,9.31-.49,1.17-.85,2.39-1.23,3.59C194.83,330.56,194.75,330.89,194.4,331.06Z"/><path class="cls-243" d="M222.64,324.32c-.73-1.64-1.13-3.39-1.79-5.06A25.46,25.46,0,0,0,217.2,313a11.25,11.25,0,0,0-5.82-4.11,9.77,9.77,0,0,0-8.12,1.05,22.32,22.32,0,0,0-7.54,8.14,41.24,41.24,0,0,0-3.53,8.06c-.13.4-.34.77-.51,1.16a.58.58,0,0,1-.32-.47,17.91,17.91,0,0,1,1.41-4.24,34.46,34.46,0,0,1,4.75-8.53c2.17-2.72,4.61-5.12,8-6.13a10.08,10.08,0,0,1,9.73,2,20.61,20.61,0,0,1,5.93,8.36,30.65,30.65,0,0,1,1.69,5c0,.18.15.35,0,.54A.82.82,0,0,1,222.64,324.32Z"/><path class="cls-244" d="M248.14,347.6c1,1.44,2.2,2.74,3.2,4.19a24.91,24.91,0,0,1,4.54,10.81,13.52,13.52,0,0,1-4.37,12.26,21.49,21.49,0,0,1-8.84,4.72,45.37,45.37,0,0,1-9.7,1.51c-2.15.14-4.26-.11-6.38-.09-.91,0-1.82-.21-2.74-.12a.68.68,0,0,1-.35-.46c1.68,0,3.34.34,5,.3s3.28.09,4.91,0c5.67-.41,11.17-1.49,15.91-4.89a13.52,13.52,0,0,0,5.95-9.62,17.66,17.66,0,0,0-1.73-9.48,33.66,33.66,0,0,0-6-9,.69.69,0,0,1-.2-.42A1.69,1.69,0,0,1,248.14,347.6Z"/><path class="cls-245" d="M199.3,357.25c-1.13.25-2.14.84-3.29,1a11.44,11.44,0,0,1-3.6.14,2.75,2.75,0,0,1-2.24-3.81,13.15,13.15,0,0,1,3.67-5.44.86.86,0,0,1,.58-.18,2.8,2.8,0,0,1,1.1.32c0,.48-.38.74-.67,1a9.71,9.71,0,0,0-2,2.84,3.24,3.24,0,0,0-.32,1.53,1.69,1.69,0,0,0,1.24,1.66,6.26,6.26,0,0,0,3.66-.16,10.52,10.52,0,0,1,2.32-.7A7.58,7.58,0,0,1,199.3,357.25Z"/><path class="cls-246" d="M216,365.81l-.22-.78c.37-.34.79-.19,1.2-.14a20.59,20.59,0,0,0,9.55-.64,8.56,8.56,0,0,0,3.5-2.11,6.55,6.55,0,0,0,.87-7.4,19.62,19.62,0,0,0-5.85-7c-.14-.11-.32-.19-.4-.37a1.33,1.33,0,0,1,.78-.16,1.17,1.17,0,0,1,1.16.35,18.81,18.81,0,0,1,5.91,7.41c1.59,3.89.55,7.63-3.43,9.65a17.09,17.09,0,0,1-5.93,1.57,30.63,30.63,0,0,1-6.77-.3A.62.62,0,0,1,216,365.81Z"/><path class="cls-247" d="M224.63,347.4c.68.05,1,.61,1.48,1a16.25,16.25,0,0,1,5.35,7.3,6.32,6.32,0,0,1-3.35,8.09,15.23,15.23,0,0,1-6.53,1.57,53.91,53.91,0,0,1-5.82-.32,1.56,1.56,0,0,1-.27-.8c.67-.33,1.34,0,2,0,2.93.19,5.86.28,8.66-.82,2.21-.87,3.86-2.31,4.26-4.78a7.56,7.56,0,0,0-1.12-5.07,20.14,20.14,0,0,0-4.26-4.85,8.09,8.09,0,0,1-1.19-1.15A1.25,1.25,0,0,1,224.63,347.4Z"/><path class="cls-248" d="M242.43,346.15c1.47,1.78,3.13,3.4,4.45,5.31a22.23,22.23,0,0,1,4.39,10.5,11.81,11.81,0,0,1-3.22,9.73,19.78,19.78,0,0,1-10.92,5.56,41.36,41.36,0,0,1-7,.8,49.24,49.24,0,0,1-7.29-.33,9.43,9.43,0,0,0-1.19,0,.77.77,0,0,1-.3-.48c1.83.15,3.66.33,5.48.44a26.43,26.43,0,0,0,3.33,0,39.08,39.08,0,0,0,8.53-1.27,18.79,18.79,0,0,0,8.77-4.92,11.43,11.43,0,0,0,3.25-7.81c.11-4.84-1.92-8.86-4.68-12.61a39.83,39.83,0,0,0-3.73-4.37.8.8,0,0,1-.32-.53Z"/><path class="cls-249" d="M221.17,348.21c.33-.28.79-.06,1.13-.29a13.73,13.73,0,0,1,6.12,7.68,5.4,5.4,0,0,1-2.69,6.26,11.7,11.7,0,0,1-5.06,1.43,19.85,19.85,0,0,1-5.27-.29,1.18,1.18,0,0,1-.43-.19,2.48,2.48,0,0,1-.28-1,2.54,2.54,0,0,1,1.47,0,14.85,14.85,0,0,0,7.39-.7,4.82,4.82,0,0,0,2.69-7,13.83,13.83,0,0,0-3.74-4.65C222,349.14,221.43,348.83,221.17,348.21Z"/><path class="cls-235" d="M222.13,378.5a46.9,46.9,0,0,0,9.76.44,30.76,30.76,0,0,0,12.9-3.14c3.5-1.84,6.22-4.41,7.41-8.31a13.89,13.89,0,0,0,0-7.85,27.43,27.43,0,0,0-5.68-10.28c-.86-1-1.76-2-2.64-3l.79.16c1.21,1.67,2.75,3.06,3.91,4.77a25.73,25.73,0,0,1,4.52,10.14A13.13,13.13,0,0,1,251.8,370a14.25,14.25,0,0,1-6.11,5.87,28.09,28.09,0,0,1-10.2,3.09,32.31,32.31,0,0,1-3.35.36c-1.12,0-2.27-.11-3.39,0a57.55,57.55,0,0,1-6.3-.34A.89.89,0,0,1,222.13,378.5Z"/><path class="cls-250" d="M197.39,334.63l-.46-.52a.94.94,0,0,1-.12-.83,26.31,26.31,0,0,1,4.18-9.07,10.7,10.7,0,0,1,4.49-3.64,6.33,6.33,0,0,1,6.9,1.35,13.35,13.35,0,0,1,3.44,5.15,27.53,27.53,0,0,1,1.27,4.24,1,1,0,0,1,0,.77,1.5,1.5,0,0,1-.49.6,1.59,1.59,0,0,1-.54-1.1,21.1,21.1,0,0,0-2.06-5.71,10.5,10.5,0,0,0-2.68-3.1,6.09,6.09,0,0,0-7.89.6,18.71,18.71,0,0,0-4.84,7.77,17.06,17.06,0,0,0-.85,2.8A1,1,0,0,1,197.39,334.63Z"/><path class="cls-251" d="M236.41,345.86a4.76,4.76,0,0,0,1.26,1.27,19.68,19.68,0,0,1,2.77,3,24.35,24.35,0,0,1,4.17,7.22,13.28,13.28,0,0,1,.8,4.16,10.18,10.18,0,0,1-2.64,7.07,17.13,17.13,0,0,1-8.59,4.73,36.71,36.71,0,0,1-10.49.88c-1.43,0-2.86-.28-4.3-.44l-.25-.49a.72.72,0,0,1,.67-.15,36.82,36.82,0,0,0,8.12.4A23.21,23.21,0,0,0,238.37,371c3.66-1.93,6-4.86,6.18-9.11a12.71,12.71,0,0,0-1-5.25,25.43,25.43,0,0,0-5-7.65,18.07,18.07,0,0,0-2.4-2.39c-.21-.16-.38-.38-.67-.38l-.49,0a1.53,1.53,0,0,1-.36-.07.37.37,0,0,1-.19-.16A6.09,6.09,0,0,1,236.41,345.86Z"/><path class="cls-252" d="M198.82,336.21l-.47-.49a4.47,4.47,0,0,1,.38-2.61,19.1,19.1,0,0,1,3.46-6.79,9.09,9.09,0,0,1,2.45-2.22,5.7,5.7,0,0,1,7.44,1.2c2.09,2.31,2.93,5.13,3.51,8.08a1.08,1.08,0,0,1-.09.61,1.43,1.43,0,0,1-.5.59,1.86,1.86,0,0,1-.52-1.28,15.4,15.4,0,0,0-2.39-5.89,7.48,7.48,0,0,0-1.72-1.74,5,5,0,0,0-6.37.62,14.84,14.84,0,0,0-3.81,5.93,19.26,19.26,0,0,0-1,3.32A.84.84,0,0,1,198.82,336.21Z"/><path class="cls-253" d="M235,346h.47a16.81,16.81,0,0,1,3.47,3.32,22.11,22.11,0,0,1,5,8.38c1.07,3.7.77,7.22-1.77,10.32a12.74,12.74,0,0,1-4.83,3.51,24,24,0,0,1-7.47,1.9,41.53,41.53,0,0,1-10.39-.29.8.8,0,0,0-.31,0,1,1,0,0,1-.26-.52c.73-.5,1.49-.06,2.23,0a46.3,46.3,0,0,0,6.77.16,28.14,28.14,0,0,0,7.35-1.42,13.25,13.25,0,0,0,5.75-3.65,9.37,9.37,0,0,0,2.43-7.35c-.36-3.67-2.08-6.7-4.26-9.54a39,39,0,0,0-3.58-3.91C235.28,346.66,234.91,346.46,235,346Z"/><path class="cls-254" d="M215.5,334a18.38,18.38,0,0,0-2.52-7.22,6.89,6.89,0,0,0-3.65-3.1,5.79,5.79,0,0,0-5.82,1.55,17.62,17.62,0,0,0-4.36,7.23,30.56,30.56,0,0,0-.8,3.27l-.47-.5a1,1,0,0,1-.12-.83c1-3.87,2.44-7.47,5.44-10.27a6.2,6.2,0,0,1,7.14-1.35A8.71,8.71,0,0,1,214,326.6a17.9,17.9,0,0,1,2.05,5.95,1.15,1.15,0,0,1-.11.91A1.11,1.11,0,0,1,215.5,334Z"/><path class="cls-255" d="M218,370.74c-.14-.07-.13-.21-.13-.33.8-.47,1.61-.06,2.39,0a27.57,27.57,0,0,0,12.93-1.32c2.81-1.1,5.16-2.78,6.3-5.75a9.32,9.32,0,0,0,.08-6.06,19.76,19.76,0,0,0-4.17-7.21,28.26,28.26,0,0,0-3.19-3.19,1.29,1.29,0,0,0-.75-.4.49.49,0,0,1-.31-.21,3.75,3.75,0,0,1,1.45-.16,27.42,27.42,0,0,1,6.85,8.19,12.45,12.45,0,0,1,1.58,7.62,8.88,8.88,0,0,1-3.49,5.92,17.44,17.44,0,0,1-8,3.23,42.41,42.41,0,0,1-8.2.29,19.87,19.87,0,0,1-2.66-.3A1.58,1.58,0,0,1,218,370.74Z"/><path class="cls-256" d="M233.39,346l.64,0a17.07,17.07,0,0,1,3.15,3,23,23,0,0,1,4.69,7.18,12,12,0,0,1,.85,6.65,10,10,0,0,1-5.46,7.17,23.44,23.44,0,0,1-9.61,2.58,40.77,40.77,0,0,1-8.34-.34.94.94,0,0,1-.83-.37.34.34,0,0,1-.14-.32,1.33,1.33,0,0,1,.92-.11,36.18,36.18,0,0,0,7.64.35,21.45,21.45,0,0,0,10-2.7,9.28,9.28,0,0,0,5-8.21,13.56,13.56,0,0,0-1.92-6.7,29.83,29.83,0,0,0-5.79-7.07,3.4,3.4,0,0,1-.74-.82A.26.26,0,0,1,233.39,346Z"/><path class="cls-257" d="M199.76,355.51a10.73,10.73,0,0,1-4.83,1.27c-2.2,0-3.2-1.56-2.31-3.57a9.4,9.4,0,0,1,2-2.92c.32-.31.61-.65.91-1a5.85,5.85,0,0,1,1.59.48,10.88,10.88,0,0,1-1.28,1.67,3.19,3.19,0,0,0-.75,1.78,1.18,1.18,0,0,0,1.22,1.41,6.24,6.24,0,0,0,2.76-.53c.33-.12.65-.36,1-.2A5.45,5.45,0,0,1,199.76,355.51Z"/><path class="cls-258" d="M223.85,347.57c.61.08.9.63,1.29,1,2.2,1.95,4.3,4,5.21,6.91,1.14,3.69-.41,6.64-3.92,8.09a18.69,18.69,0,0,1-9.09.86l-1.85-.18c-.19-.17-.17-.41-.24-.62a.44.44,0,0,1,.49-.15,20.68,20.68,0,0,0,3.22.33,12.84,12.84,0,0,0,8.08-1.91,5.49,5.49,0,0,0,1.82-7.2,14.63,14.63,0,0,0-4.37-5.61,3.1,3.1,0,0,1-1.28-1.35A.92.92,0,0,1,223.85,347.57Z"/><path class="cls-259" d="M189.46,347.76c0,.43-.38.62-.64.86a23.57,23.57,0,0,0-4.94,6.69,8.75,8.75,0,0,0-1,3.78,4.25,4.25,0,0,0,2.18,4,9.76,9.76,0,0,0,5.59.88c2.53-.2,4.83-1.2,7.24-1.83a.68.68,0,0,1-.16.48,25.12,25.12,0,0,1-7.72,2.09,10.33,10.33,0,0,1-5.53-.81A4.14,4.14,0,0,1,182,360c-.15-3.09,1.36-5.52,3-7.88a31.22,31.22,0,0,1,3.47-4A.94.94,0,0,1,189.46,347.76Z"/><path class="cls-260" d="M224.37,321.13c0,.17,0,.34-.17.45a2.85,2.85,0,0,1-.66-1.32,29.69,29.69,0,0,0-4.88-9.79,14.13,14.13,0,0,0-6.53-4.93,10.44,10.44,0,0,0-7.93.5,19.91,19.91,0,0,0-7.91,7A40.54,40.54,0,0,0,191,323.67a2.64,2.64,0,0,1-.73,1.46,1,1,0,0,1-.32-.52,16.82,16.82,0,0,1,1.43-4,36.28,36.28,0,0,1,6-10.27c2.74-3.23,6-5.7,10.36-6.3a10,10,0,0,1,5.67,1,17.49,17.49,0,0,1,7.71,7.58,30.42,30.42,0,0,1,3.24,7.79A1.05,1.05,0,0,1,224.37,321.13Z"/><path class="cls-261" d="M225.47,318.9l-.3.67a1.38,1.38,0,0,1-.51-.86,32.14,32.14,0,0,0-4.51-9.45,15.92,15.92,0,0,0-7.06-5.92,11.27,11.27,0,0,0-9,.31c-3.64,1.62-6.26,4.4-8.58,7.53a45.29,45.29,0,0,0-3.93,6.95,27.6,27.6,0,0,0-1.64,4.19,2,2,0,0,1-.65,1.23.68.68,0,0,1-.3-.54,28.34,28.34,0,0,1,1.95-5.25,39.09,39.09,0,0,1,5.33-8.94,19.15,19.15,0,0,1,9.41-6.78,6.24,6.24,0,0,1,1.71-.33c1.05,0,2.11,0,3.16,0l.24,0a3.53,3.53,0,0,0,.78.18.79.79,0,0,1,.22.06c.45.16.91.3,1.37.44a15.83,15.83,0,0,1,6.84,5.32,32.86,32.86,0,0,1,5,9.58A6.93,6.93,0,0,1,225.47,318.9Z"/><path class="cls-262" d="M196,333a27.26,27.26,0,0,1,4.09-9.58,13,13,0,0,1,5.11-4.55,6.9,6.9,0,0,1,7.48,1.2,17.83,17.83,0,0,1,5.22,10.27,4.58,4.58,0,0,0,.14.53l-.48.66a8.26,8.26,0,0,1-.51-1.89,19,19,0,0,0-3.33-7.2,7.92,7.92,0,0,0-4.19-3,6.79,6.79,0,0,0-6.05,1.52,17.62,17.62,0,0,0-5.34,7.62,29.11,29.11,0,0,0-1.53,4.74.3.3,0,0,1-.18.15Z"/><path class="cls-263" d="M221.17,348.21a15.11,15.11,0,0,1,5.41,6.21,4.9,4.9,0,0,1-2.7,6.85,13.82,13.82,0,0,1-7.87.78,5.94,5.94,0,0,1-1.32-.2l-.22-.62c.31-.32.69-.2,1-.14a13.46,13.46,0,0,0,7.22-.67,4.41,4.41,0,0,0,2.87-3.32,5.28,5.28,0,0,0-.71-3.49,14.42,14.42,0,0,0-4.5-4.79,1,1,0,0,1-.36-.31A2.69,2.69,0,0,1,221.17,348.21Z"/><path class="cls-264" d="M233.39,346.15c3.51,3.17,6.7,6.58,8.1,11.26,1,3.3.74,6.44-1.46,9.23a12.41,12.41,0,0,1-5.38,3.75,24,24,0,0,1-6.59,1.46,35,35,0,0,1-9-.3c-.23,0-.47.14-.69,0a.08.08,0,0,1,0-.1c0-.59.5-.39.76-.36,1.44.21,2.88.25,4.32.33a28.16,28.16,0,0,0,8.68-.88,14.39,14.39,0,0,0,6.19-3.22,8.67,8.67,0,0,0,2.87-5.48,12.28,12.28,0,0,0-1.56-7.23,25.29,25.29,0,0,0-6.15-7.65c-.23-.2-.52-.39-.37-.78A.27.27,0,0,1,233.39,346.15Z"/><path class="cls-265" d="M190.24,325.13a44.47,44.47,0,0,1,5.87-12.2,20.2,20.2,0,0,1,7.94-7,10.68,10.68,0,0,1,11.39,1.16c3.5,2.53,5.55,6.12,7.18,10,.62,1.48,1.07,3,1.58,4.52a.26.26,0,0,1-.17.28c-.41-.09-.51-.44-.6-.77a32.83,32.83,0,0,0-2.92-7.07,21.22,21.22,0,0,0-3.41-4.62,12.43,12.43,0,0,0-4.74-3.19,10.29,10.29,0,0,0-7.93.28,19.23,19.23,0,0,0-7.77,6.67,37,37,0,0,0-5.18,10.08,8.24,8.24,0,0,0-.71,2.17.51.51,0,0,1-.19.31A1.1,1.1,0,0,1,190.24,325.13Z"/><path class="cls-266" d="M222.94,323.83a34.56,34.56,0,0,0-2.86-7.59c-1.7-3.1-3.76-5.91-7.05-7.53a10,10,0,0,0-8.82,0,18.73,18.73,0,0,0-6.91,6,34.89,34.89,0,0,0-4.37,8,13.53,13.53,0,0,0-1.26,3.62c0,.19-.2.37-.31.55l-.14-.2a33.57,33.57,0,0,1,1.92-5.42,32.84,32.84,0,0,1,5.35-8.7,14.9,14.9,0,0,1,8.54-5.33,9.73,9.73,0,0,1,7.91,2.06,20,20,0,0,1,6.38,8.66,38.49,38.49,0,0,1,1.6,4.44,4.54,4.54,0,0,1,.19,1.16Z"/><path class="cls-267" d="M189.29,323.55a50.44,50.44,0,0,1,5.26-11.32,24.84,24.84,0,0,1,6.27-6.92c4-2.95,8.39-4,13.13-1.83a15.49,15.49,0,0,1,5.19,4.16,26.23,26.23,0,0,1,3.38,5.12,34.74,34.74,0,0,1,2.3,5.69c.11.37.23.75.35,1.12,0,.14,0,.3-.18.37a4,4,0,0,1-1-2.05,29.93,29.93,0,0,0-5.47-9.92,13.26,13.26,0,0,0-8.47-4.83,11.72,11.72,0,0,0-7.57,1.79,23,23,0,0,0-7,6.8,46,46,0,0,0-5.49,11,1.88,1.88,0,0,1-.6,1.09Z"/><path class="cls-268" d="M217.25,369a59.93,59.93,0,0,0,8,.31,17.62,17.62,0,0,0,8.81-2.65,8,8,0,0,0,3.86-7.25,12.59,12.59,0,0,0-2.14-6.27,25.56,25.56,0,0,0-5.44-6.11.74.74,0,0,1-.32-.52c.67-.27,1,.24,1.42.59a37.93,37.93,0,0,1,2.7,2.68,19.15,19.15,0,0,1,4.12,7,8.66,8.66,0,0,1-1.49,8.65,11.18,11.18,0,0,1-5,3.29A26.47,26.47,0,0,1,221.4,370c-1.05,0-2.1-.2-3.14-.33a1.43,1.43,0,0,1-.88-.33Z"/><path class="cls-269" d="M207.24,301.92a14.22,14.22,0,0,0-6.14,2.57c-3.69,2.59-6.2,6.16-8.34,10.05a46.17,46.17,0,0,0-3.45,7.94.87.87,0,0,1-.32.53l-.18-.3A43.87,43.87,0,0,1,191,317a43.05,43.05,0,0,1,3.91-6.86,23.89,23.89,0,0,1,7.49-7.15,12.46,12.46,0,0,1,15.61,2.07c3.57,3.35,5.61,7.59,7.17,12.11a7.29,7.29,0,0,1,.45,1.26.65.65,0,0,1-.2.47,7.9,7.9,0,0,1-1.1-2.67,32.18,32.18,0,0,0-4.73-8.62,16.47,16.47,0,0,0-6.54-5.05,7.75,7.75,0,0,0-1.43-.48c-.23-.19-.55,0-.79-.16A17,17,0,0,0,207.24,301.92Z"/><path class="cls-270" d="M219.12,329.48a31.37,31.37,0,0,0-2.53-7.11,12.59,12.59,0,0,0-4.93-5.39c-3-1.63-5.85-1.06-8.5.84-3.06,2.21-4.9,5.36-6.38,8.74a26.74,26.74,0,0,0-1.74,5.3l-.34-.42a.62.62,0,0,1,0-.53,31.62,31.62,0,0,1,4.74-10.27,14.28,14.28,0,0,1,5.13-4.6,8,8,0,0,1,9.29,1.44,19,19,0,0,1,5,8.66,9.94,9.94,0,0,1,.66,2.9Z"/><path class="cls-271" d="M220.1,328.13a30.29,30.29,0,0,0-2.22-6.55c-1.41-2.83-3.15-5.35-6.07-6.83a7.88,7.88,0,0,0-8.15.52,18.07,18.07,0,0,0-6.15,6.75,35.14,35.14,0,0,0-3.44,8.62.52.52,0,0,1-.33-.46,2.06,2.06,0,0,1,.17-1.15A30.64,30.64,0,0,1,200,317.4a11.85,11.85,0,0,1,7.43-4.33,8.25,8.25,0,0,1,6,1.71,16.34,16.34,0,0,1,5.17,6.79,28,28,0,0,1,1.69,5,2.15,2.15,0,0,1,.09,1.15Z"/><path class="cls-272" d="M198.82,336.21a22.61,22.61,0,0,1,2.41-6.72,10.1,10.1,0,0,1,4.32-4.45,5,5,0,0,1,5.43.83c2.15,2,3.08,4.59,3.68,7.34.1.46.27.9.34,1.37a2.51,2.51,0,0,1-.6.7c-.34-.33-.3-.78-.37-1.18a16.8,16.8,0,0,0-1.78-5.05,7,7,0,0,0-2.33-2.54,4.55,4.55,0,0,0-5.73.69,15.62,15.62,0,0,0-4.06,6.95,9.78,9.78,0,0,1-.81,2.61A1.39,1.39,0,0,1,198.82,336.21Z"/><path class="cls-273" d="M224.37,321.13a36.29,36.29,0,0,0-2.52-6.67,27.78,27.78,0,0,0-2.74-4.49c-2.38-3-5.3-5.29-9.21-5.76a10.68,10.68,0,0,0-6.55,1.42,16.82,16.82,0,0,0-3.63,2.49,32.16,32.16,0,0,0-4.77,5.82,53.79,53.79,0,0,0-4.82,10.35,1.77,1.77,0,0,1-.21.32l-.12-.19a.2.2,0,0,1,0-.22,33.11,33.11,0,0,1,2.05-5.48,35.43,35.43,0,0,1,5.47-8.87c2.45-2.81,5.27-5.1,9-6a11.08,11.08,0,0,1,8.65,1.47,19.06,19.06,0,0,1,6.45,7,36.67,36.67,0,0,1,3.21,7.65,1.19,1.19,0,0,1,.08.62C224.45,320.71,224.61,321,224.37,321.13Z"/><path class="cls-274" d="M221.23,326.51a.89.89,0,0,1-.34.5c-.51-.15-.53-.63-.63-1a25.67,25.67,0,0,0-2.56-6.63,13.76,13.76,0,0,0-5.56-5.8,8.14,8.14,0,0,0-8.23.29A16.46,16.46,0,0,0,198.5,319a31.49,31.49,0,0,0-4.12,8.44l-.18.56a7.19,7.19,0,0,1-.75,1.84l-.34-.44a9,9,0,0,1,.86-3.18,36,36,0,0,1,3.18-6.62c1.87-2.93,4.07-5.52,7.29-7.05a8.76,8.76,0,0,1,9.22.83,16.8,16.8,0,0,1,5.57,7.25A33.44,33.44,0,0,1,221.23,326.51Z"/><path class="cls-275" d="M220,348.51A4.51,4.51,0,0,1,222.2,350c1.77,1.59,3.31,3.38,3.63,5.9a4.09,4.09,0,0,1-1.48,3.78,8.8,8.8,0,0,1-4.64,1.73c-1.77.3-3.49-.16-5.24-.17l-.23-.81c.59-.33,1.18,0,1.76,0a11.27,11.27,0,0,0,5.89-.72c2.66-1.22,3.38-3.56,2-6.15a13.8,13.8,0,0,0-3.55-4c-.34-.28-.79-.46-.92-.94A.88.88,0,0,1,220,348.51Z"/><path class="cls-276" d="M190.58,325.72v-.33a60.48,60.48,0,0,1,3-7.36,29.88,29.88,0,0,1,6-8.29,14,14,0,0,1,8.1-4.1,10.56,10.56,0,0,1,6.92,1.71,17.17,17.17,0,0,1,5.42,5.76,35.08,35.08,0,0,1,3.67,8.62.91.91,0,0,1,0,.69l-.14.13a1.42,1.42,0,0,1-.49-.88,27.39,27.39,0,0,0-2.79-7,21.62,21.62,0,0,0-3.25-4.53,12.11,12.11,0,0,0-4.07-2.93,10.8,10.8,0,0,0-3.87-1,10.36,10.36,0,0,0-4.53.92,18.12,18.12,0,0,0-7.31,6,39.31,39.31,0,0,0-5.35,9.79c-.42,1.07-.7,2.19-1,3.29Z"/><path class="cls-277" d="M218.48,371.84a33.8,33.8,0,0,0,16.75-1.13c3.28-1.3,5.94-3.32,7-6.87a11.28,11.28,0,0,0-.58-7.61,23.72,23.72,0,0,0-5.12-7.62c-.84-.88-1.69-1.74-2.53-2.61l.43,0,.2,0a35.07,35.07,0,0,1,6.53,7.79A14.85,14.85,0,0,1,243.4,361a9.63,9.63,0,0,1-4,8.13,18.3,18.3,0,0,1-8.49,3.36,31.38,31.38,0,0,1-6,.46,39.18,39.18,0,0,1-5.18-.42c-.34-.06-.68,0-1,0A1.24,1.24,0,0,1,218.48,371.84Z"/><path class="cls-251" d="M219.1,373.15c.24-.35.55-.07.79,0a53.67,53.67,0,0,0,5.8.42,26.88,26.88,0,0,0,4.47-.31,23.07,23.07,0,0,0,6.69-1.73,12.22,12.22,0,0,0,6.18-5.18,9.38,9.38,0,0,0,1.16-4c.27-4.35-1.57-7.92-4.05-11.26a33.18,33.18,0,0,0-4.69-5.08c.8,0,1.2.69,1.63,1.13,3.25,3.31,6.19,6.85,7.31,11.51a10.21,10.21,0,0,1-3.17,10.66,17,17,0,0,1-7.21,3.58c-3.63,1-7.34.92-11,.83-1.27,0-2.54-.29-3.82-.45A.11.11,0,0,1,219.1,373.15Z"/><path class="cls-278" d="M217.38,369.3a38.08,38.08,0,0,0,7.46.47c3.88-.21,7.64-.88,10.73-3.48a7.88,7.88,0,0,0,2.94-7.55,17,17,0,0,0-5.12-9.48,20.09,20.09,0,0,0-2.63-2.5c-.22-.16-.4-.34-.7-.27l-.19,0a2.26,2.26,0,0,1,1.15-.15c3.36,2.83,6.34,5.95,7.78,10.24a10.37,10.37,0,0,1,.37,5.46c-.68,3.33-3,5.31-5.94,6.62a21.93,21.93,0,0,1-8.47,1.69,48.63,48.63,0,0,1-6.61-.34,1.17,1.17,0,0,1-.59-.21Z"/><path class="cls-279" d="M189.8,324.27v.15a1.11,1.11,0,0,1-.34-.58,45.51,45.51,0,0,1,7.06-13.77,19,19,0,0,1,8.31-6.46c4.35-1.57,8.26-.59,11.8,2.23a21.89,21.89,0,0,1,5.16,6.48,48,48,0,0,1,3.2,7.62l-.18.21c-.45-.08-.4-.51-.49-.8a33.41,33.41,0,0,0-4.2-8.92,16.54,16.54,0,0,0-6.36-5.78,11,11,0,0,0-9.85,0,20,20,0,0,0-7.13,5.9,43,43,0,0,0-6.85,13.19C189.87,323.92,189.93,324.12,189.8,324.27Z"/><path class="cls-280" d="M219.4,348.67a15.05,15.05,0,0,1,4.5,4.56c1.8,3.11.76,6-2.81,7a14.82,14.82,0,0,1-6.85.14,1.81,1.81,0,0,1-.23-.79c.42-.19.83,0,1.24,0,2.05.13,4.1.27,6-.71a3.38,3.38,0,0,0,1.91-4.39,9.39,9.39,0,0,0-3.57-4.61,14,14,0,0,1-1.33-1A2.58,2.58,0,0,1,219.4,348.67Z"/><path class="cls-281" d="M233.08,346.16a.84.84,0,0,0,.41.64,24.43,24.43,0,0,1,4.75,5.25,16.1,16.1,0,0,1,3.1,7.66,8.79,8.79,0,0,1-2.61,7.45,13.3,13.3,0,0,1-6.07,3.39,31.77,31.77,0,0,1-6.44,1,39.82,39.82,0,0,1-6.82-.33c-.36,0-.79-.19-1.1.19-.11-.23-.22-.45-.32-.68a38.63,38.63,0,0,0,10,.32,20,20,0,0,0,6.46-1.6c3.28-1.46,5.74-3.67,6.37-7.36A11.17,11.17,0,0,0,240,356a22.16,22.16,0,0,0-4-6.27,21.41,21.41,0,0,0-2.9-2.89,1,1,0,0,1-.47-.7h0A.45.45,0,0,1,233.08,346.16Z"/><path class="cls-282" d="M226.89,347c.57.5,1.16,1,1.71,1.5a18.17,18.17,0,0,1,5.43,8.27,7.26,7.26,0,0,1-3.83,8.39,15.82,15.82,0,0,1-7.35,1.81,34,34,0,0,1-6.13-.33,2.25,2.25,0,0,1-.44-.14l-.14-.32c.3-.29.65-.16,1-.11a23.85,23.85,0,0,0,9.88-.43,9.89,9.89,0,0,0,4.8-2.79,6.57,6.57,0,0,0,1.36-6.16,13.43,13.43,0,0,0-3-5.6,23.59,23.59,0,0,0-3.51-3.41.89.89,0,0,1-.42-.55A1,1,0,0,1,226.89,347Z"/><path class="cls-283" d="M231.49,346.32c.88,0,1.29.81,1.8,1.3,2.87,2.75,5.37,5.79,6.49,9.72,1,3.67.36,6.94-2.51,9.57a14.69,14.69,0,0,1-6.9,3.3,28.1,28.1,0,0,1-7,.66c-1.85-.07-3.7-.3-5.56-.46a.36.36,0,0,1-.14-.32c.8-.44,1.61,0,2.39.05a28.83,28.83,0,0,0,4.64.2,25.49,25.49,0,0,0,7.44-1.29,12.2,12.2,0,0,0,5.15-3.28,8,8,0,0,0,2.08-6.33c-.26-3.36-1.88-6.08-3.9-8.65-1.07-1.36-2.4-2.45-3.55-3.71C231.75,346.86,231.41,346.72,231.49,346.32Z"/><path class="cls-284" d="M217.08,332.08a27.9,27.9,0,0,0-1.92-6,10.87,10.87,0,0,0-4.52-5.12,6.49,6.49,0,0,0-7.27,1.08c-3.16,2.66-4.84,6.21-6,10.08a5.22,5.22,0,0,0-.47,2,1,1,0,0,1-.53-.6l.06-.05a31.4,31.4,0,0,1,3-7.77,15.23,15.23,0,0,1,4-4.72c3.39-2.55,7-2.06,9.77,1a18.6,18.6,0,0,1,4.18,9.56.27.27,0,0,1-.07.21Z"/><path class="cls-285" d="M226.21,347.08a19.44,19.44,0,0,1,6.46,7.51,7.59,7.59,0,0,1,.07,7.28,8.06,8.06,0,0,1-4.2,3.42,19.38,19.38,0,0,1-5.75,1.19,47.57,47.57,0,0,1-6.65-.35l-.16-.32a9.32,9.32,0,0,1,3,.2,21.16,21.16,0,0,0,4.64-.06,13.81,13.81,0,0,0,6.1-1.94c3.42-2.14,3.91-5.81,2.47-9.07a19.08,19.08,0,0,0-6.09-7.42,1.16,1.16,0,0,0-.72-.28A1.3,1.3,0,0,1,226.21,347.08Z"/><path class="cls-286" d="M221.23,326.51a9.63,9.63,0,0,1-1-2.7,21.52,21.52,0,0,0-5.48-9.36,9.54,9.54,0,0,0-6-2.67,9.32,9.32,0,0,0-5.44,1.58,19.6,19.6,0,0,0-6.42,7,40.45,40.45,0,0,0-3.32,7.57,4.41,4.41,0,0,1-.46,1.41l-.14-.18c-.18-.27,0-.51.05-.76a34.33,34.33,0,0,1,5.25-11.08,15.54,15.54,0,0,1,6.94-5.67,8.84,8.84,0,0,1,8.5,1.12c2.83,1.93,4.51,4.75,5.86,7.79a36.15,36.15,0,0,1,1.8,5.38c0,.13.08.25,0,.37Z"/><path class="cls-283" d="M231.49,346.32c1,1.07,2.12,2.13,3.15,3.23a17.63,17.63,0,0,1,4.83,8.62,8.55,8.55,0,0,1-3.51,9.14,17.09,17.09,0,0,1-8.37,2.95,25.73,25.73,0,0,1-4.64.3c-1.75-.11-3.49-.31-5.24-.47l-.15-.32c1.14,0,2.25.23,3.37.29a41,41,0,0,0,5.43,0,22.48,22.48,0,0,0,5.76-1.2,11.73,11.73,0,0,0,5.19-3.46c2.14-2.56,2.17-5.49,1.36-8.52a16.45,16.45,0,0,0-3.35-6,35.79,35.79,0,0,0-4.16-4.19c-.09-.08-.1-.24-.14-.35a.08.08,0,0,1,.11,0Z"/><path class="cls-287" d="M218.77,372.49c.69-.42,1.4,0,2.08,0a44.07,44.07,0,0,0,7,.15,26.58,26.58,0,0,0,7.3-1.45,12.34,12.34,0,0,0,6.77-5.27,9.6,9.6,0,0,0,1.09-6.76,20.18,20.18,0,0,0-4.75-9.22c-1-1.22-2.2-2.27-3.28-3.42-.14-.15-.31-.29-.31-.53H235c.83.85,1.68,1.67,2.48,2.55,2.79,3.07,5.15,6.39,6,10.56A9.67,9.67,0,0,1,241,368c-2.43,2.61-5.59,3.75-9,4.45a31,31,0,0,1-7.44.64c-1.91-.07-3.81-.3-5.71-.46A.27.27,0,0,1,218.77,372.49Z"/><path class="cls-288" d="M223.74,322.42a33.07,33.07,0,0,0-3.76-9.09c-1.87-3-4.17-5.54-7.59-6.86a10.41,10.41,0,0,0-9.44,1c-3.67,2.14-6.2,5.38-8.29,9a44.32,44.32,0,0,0-3.7,8.37c-.08.22-.11.46-.37.57a11.27,11.27,0,0,1,1.1-3.35,35.28,35.28,0,0,1,3.74-7.44c2.55-3.87,5.55-7.27,10.13-8.73a10.43,10.43,0,0,1,9.73,1.66,19.42,19.42,0,0,1,5.71,7,35.23,35.23,0,0,1,2.57,6.34,2.31,2.31,0,0,0,.46,1Z"/><path class="cls-289" d="M225.67,318.43a38.35,38.35,0,0,1-1.45-3.73,28.29,28.29,0,0,0-4.78-8,14.93,14.93,0,0,0-6.27-4.62,12.72,12.72,0,0,0-3.5-.69,11.73,11.73,0,0,0-5.69,1,20.16,20.16,0,0,0-6.92,5.26,36.17,36.17,0,0,0-4.11,5.87,48.72,48.72,0,0,0-3.78,8.4c-.09.27-.1.58-.36.77a.32.32,0,0,1-.15-.3,34.56,34.56,0,0,0,1.6-3.94c2.21-5.2,5.05-10,9.35-13.73a15.17,15.17,0,0,1,7.47-3.72,12,12,0,0,1,9.86,2.77c4.28,3.46,6.6,8.17,8.36,13.24.12.33.11.75.52.92C225.8,318.12,225.82,318.3,225.67,318.43Z"/><path class="cls-286" d="M221.35,326.34a37.93,37.93,0,0,0-2.85-7.59,15.46,15.46,0,0,0-5.14-6,8.83,8.83,0,0,0-9.78-.12,20.2,20.2,0,0,0-7.18,7.91,40.53,40.53,0,0,0-3.21,7.7c-.09.3-.15.61-.22.92l-.18-.28a33,33,0,0,1,3.29-8.43,24,24,0,0,1,4.25-5.84,13,13,0,0,1,6.18-3.63,8.55,8.55,0,0,1,6.46,1c3.42,2,5.33,5.21,6.84,8.71a30.83,30.83,0,0,1,1.71,5.32Z"/><path class="cls-290" d="M201.36,338.89a1.3,1.3,0,0,1-.47-.49.52.52,0,0,1-.1-.38,13.53,13.53,0,0,1,3.48-7.81c2.16-2.16,4.86-1.86,6.61.66a13,13,0,0,1,2,5.86.45.45,0,0,1-.09.37,2.21,2.21,0,0,1-.62.67c-.49-.51-.34-1.19-.45-1.79a8.27,8.27,0,0,0-2.36-4.8,3,3,0,0,0-3.89-.23,8.44,8.44,0,0,0-2.88,4.07,15.22,15.22,0,0,0-.71,2.75A1.54,1.54,0,0,1,201.36,338.89Z"/><path class="cls-291" d="M218.29,349c.64,0,1,.48,1.48.83a9.22,9.22,0,0,1,3.63,4.71,3.57,3.57,0,0,1-1.91,4.56c-2,1.06-4.12.9-6.25.79a7.67,7.67,0,0,1-1.23-.25l-.24-.79a9.76,9.76,0,0,1,1.95.18,7.91,7.91,0,0,0,4.76-.78,3,3,0,0,0,1.61-3.85,8.24,8.24,0,0,0-2.75-3.78,9.19,9.19,0,0,1-1.66-1.45A.79.79,0,0,1,218.29,349Z"/><path class="cls-273" d="M189.8,324.27a17.71,17.71,0,0,1,1.42-4.25,37,37,0,0,1,5.6-9.76c2.55-3.14,5.55-5.72,9.63-6.66a11.23,11.23,0,0,1,10.08,2.63c4.06,3.39,6.19,8,7.82,12.84a2.42,2.42,0,0,0,.46,1.08c0,.17.07.35-.15.44-.55-1.48-1.11-2.95-1.66-4.43a26,26,0,0,0-3.78-6.72,14.72,14.72,0,0,0-6.82-5.14,11.24,11.24,0,0,0-9.82,1.26,24.41,24.41,0,0,0-8.4,9,48,48,0,0,0-4.11,9.13A4.83,4.83,0,0,1,189.8,324.27Z"/><path class="cls-292" d="M212.78,337.1a24,24,0,0,0-1.12-4.41,7.87,7.87,0,0,0-1.56-2.45,3.76,3.76,0,0,0-5.49-.1,12.24,12.24,0,0,0-3.24,6c-.19.74-.32,1.49-.48,2.23a1.17,1.17,0,0,1-.48-.48.87.87,0,0,1,0-.69,15.68,15.68,0,0,1,3.43-7.61,4.61,4.61,0,0,1,5.48-1.34,5.86,5.86,0,0,1,2.23,2.19,15.64,15.64,0,0,1,1.85,5.42c.07.34-.17.54-.23.82A.69.69,0,0,1,212.78,337.1Z"/><path class="cls-293" d="M217.68,349.16c2.12,1.35,4,2.93,4.71,5.47a3.21,3.21,0,0,1-1.67,3.73,8,8,0,0,1-5.19.82,4.83,4.83,0,0,1-1.76-.34l-.17-.63c1-.18,2,.21,3.06.11a7.5,7.5,0,0,0,2.6-.58,2.9,2.9,0,0,0,1.32-4.51,9.86,9.86,0,0,0-2.38-2.61c-.44-.36-1.12-.54-1.14-1.29A.85.85,0,0,1,217.68,349.16Z"/><path class="cls-294" d="M211.69,338.26a3.27,3.27,0,0,1-.82.88c-.29-.33-.16-.75-.2-1.13a7.81,7.81,0,0,0-1.38-4.29c-1.34-1.74-2.88-1.72-4.41.06a9.37,9.37,0,0,0-2,5.22c0,.36,0,.75-.38,1a1.93,1.93,0,0,1-.64-.63,11.26,11.26,0,0,1,1.22-4.93,7.57,7.57,0,0,1,1.64-2.3c1.8-1.74,3.86-1.69,5.33.33A8.86,8.86,0,0,1,211.69,338.26Z"/><path class="cls-295" d="M215,362.81a35.75,35.75,0,0,0,5.27.3c2.46-.23,4.85-.62,6.72-2.5a4.88,4.88,0,0,0,1.23-5,12.36,12.36,0,0,0-4.26-6.21,9.56,9.56,0,0,1-1.63-1.48l.26,0a.84.84,0,0,1,.86.26,16.74,16.74,0,0,1,5.35,6.5,5.82,5.82,0,0,1-3,7.87c-3.28,1.54-6.68,1.46-10.14.93-.23,0-.35-.21-.53-.31Z"/><path class="cls-296" d="M219.45,329a47.77,47.77,0,0,0-1.74-5.48,15.84,15.84,0,0,0-5.05-6.76,7.9,7.9,0,0,0-9.64.38,20.31,20.31,0,0,0-6.17,8.16,36.82,36.82,0,0,0-2.15,6.1l-.3-.38c.69-1.7,1.13-3.49,1.87-5.18a27.6,27.6,0,0,1,4.18-6.84,11.84,11.84,0,0,1,5.35-3.76,7.57,7.57,0,0,1,7.24,1.25,16.2,16.2,0,0,1,5.11,7.27,28.78,28.78,0,0,1,1.48,5Z"/><path class="cls-297" d="M204.69,342.06a2.85,2.85,0,0,1-.94-.82c-.72-1.76.54-5.59,2.16-6.54a2,2,0,0,1,2.76.49,7,7,0,0,1,1.3,4.39,1.84,1.84,0,0,1-.35.87,2.85,2.85,0,0,1-1,.93c-.26-.27-.16-.58-.12-.89a6.47,6.47,0,0,0-.12-2.44,2.89,2.89,0,0,0-.28-.74c-.67-1.2-1.58-1.29-2.39-.17a5.25,5.25,0,0,0-.85,3C204.88,340.78,205.11,341.46,204.69,342.06Z"/><path class="cls-298" d="M200.1,353.92a9.24,9.24,0,0,1-3.54,1c-1.4,0-2-.81-1.62-2.17a6.16,6.16,0,0,1,2.17-2.92,2.83,2.83,0,0,1,1.35.49c-.09.5-.55.76-.76,1.18s-.35.69-.11,1,.6.28.94.25a2.33,2.33,0,0,0,1.59-.76A2.73,2.73,0,0,1,200.1,353.92Z"/><path class="cls-299" d="M215,350a3.41,3.41,0,0,1,1.25-.37,9.21,9.21,0,0,1,3.83,3.89,2.67,2.67,0,0,1-1.36,3.88,6.71,6.71,0,0,1-5.29.21,3.27,3.27,0,0,1-.3-1.11,10,10,0,0,0,3.36.12c2-.43,2.76-2.09,1.52-3.78a8.27,8.27,0,0,0-2.24-2.09C215.47,350.51,215.1,350.37,215,350Z"/><path class="cls-300" d="M211.69,338.26a10.41,10.41,0,0,1-.33-2,8.08,8.08,0,0,0-2-4.26,3,3,0,0,0-4.18,0c-2,1.8-2.69,4.2-3.14,6.71a2,2,0,0,1-.18.68,1.18,1.18,0,0,1-.47-.47c.5-1.79.7-3.66,1.61-5.31a8.12,8.12,0,0,1,2.45-2.85,3.05,3.05,0,0,1,4.14.37,8,8,0,0,1,2.32,4.93c.09.58.15,1.16.28,1.74A1.17,1.17,0,0,1,211.69,338.26Z"/><path class="cls-301" d="M215.1,363.13c3.79.71,7.59.89,11.06-1.06a5.25,5.25,0,0,0,2.56-6.95,15.59,15.59,0,0,0-5.86-7.16.74.74,0,0,0-.3-.08.94.94,0,0,1,.65-.16,17.73,17.73,0,0,1,5.77,6.71c1.1,2.43,1,4.72-.76,6.76a7.46,7.46,0,0,1-3.33,2,16.55,16.55,0,0,1-5.67.82c-1.33-.06-2.65-.29-4-.44Z"/><path class="cls-302" d="M194.08,327.92c0-.17,0-.36.16-.47a40.91,40.91,0,0,1,2.88-6.41A18.54,18.54,0,0,1,204,313.8a8.73,8.73,0,0,1,10.62,1.5c3,2.93,4.61,6.62,5.69,10.59.13.46.44.91.27,1.43a.41.41,0,0,1-.18.42,29.36,29.36,0,0,0-2.55-7.29,14.07,14.07,0,0,0-5.72-6.25c-3.25-1.71-6.33-1.13-9.21.87-3.49,2.44-5.56,6-7.25,9.77a56.62,56.62,0,0,0-1.92,5.34l-.15-.18C193.47,329.24,194,328.64,194.08,327.92Z"/><path class="cls-303" d="M200.1,337.61l-.32-.33c-.35-.72,0-1.41.21-2.06a16.21,16.21,0,0,1,3.26-6.61,6.17,6.17,0,0,1,3.78-2.26,4.33,4.33,0,0,1,3.49,1.16,8.91,8.91,0,0,1,2.56,3.93A17,17,0,0,1,214,335a1.12,1.12,0,0,1-.12.84l-.31.34a1.32,1.32,0,0,1-.37-.93,13.72,13.72,0,0,0-1.83-5.19A5.79,5.79,0,0,0,209.2,328a3.83,3.83,0,0,0-4.53.67,13.71,13.71,0,0,0-4,7.27C200.48,336.48,200.54,337.13,200.1,337.61Z"/><path class="cls-304" d="M215,350a10,10,0,0,1,3.29,2.89,2.4,2.4,0,0,1-1.81,3.94,7.39,7.39,0,0,1-2.57,0,1.83,1.83,0,0,1-.78-.33l-.16-.64c.42-.33.92-.17,1.38-.2a5,5,0,0,0,1.64-.17,1.44,1.44,0,0,0,.9-2.2,5.37,5.37,0,0,0-1.72-1.83,5.12,5.12,0,0,1-1.31-1A2.12,2.12,0,0,1,215,350Z"/><path class="cls-274" d="M220.57,327.32a30.51,30.51,0,0,0-2.71-7.47,14.31,14.31,0,0,0-5.27-5.87c-3.29-1.89-6.75-1.45-9.87.8-3.35,2.42-5.42,5.81-7.1,9.5a18.21,18.21,0,0,1-1.38,3.17,12.75,12.75,0,0,1,1.13-3.19,26,26,0,0,1,3.81-6.52,14.27,14.27,0,0,1,6.6-4.94,8.42,8.42,0,0,1,8.5,2c3.33,2.91,5,6.78,6.11,10.94a3.13,3.13,0,0,0,.5,1.31Z"/><path class="cls-305" d="M202.47,340a20.92,20.92,0,0,1,.79-3.74,8.41,8.41,0,0,1,1.53-2.73c1.78-1.79,3.31-1.83,4.78.22a8.27,8.27,0,0,1,1.3,5.4,1.11,1.11,0,0,1-.47.49,2.07,2.07,0,0,1-.3-1.28,7.76,7.76,0,0,0-1-3.39c-.9-1.66-2.47-1.9-3.74-.51a7.93,7.93,0,0,0-2,4.64,2.86,2.86,0,0,1-.29,1.52A1.9,1.9,0,0,1,202.47,340Z"/><path class="cls-306" d="M217.38,331.72a25,25,0,0,0-1.9-6.08,11.35,11.35,0,0,0-4.2-5.11c-2.88-1.74-5.82-1.11-8.38,1.19-3.32,3-4.92,6.89-6.11,11-.08.25-.1.51-.33.69a13.44,13.44,0,0,1,1.09-3.93,20.22,20.22,0,0,1,4.74-7.83,8.52,8.52,0,0,1,5.18-2.62,6.43,6.43,0,0,1,5,1.83c2.59,2.34,3.84,5.42,4.7,8.69a4.92,4.92,0,0,1,.32,1.94Z"/><path class="cls-307" d="M200.1,337.61a15.88,15.88,0,0,1,2.86-7.43,6.9,6.9,0,0,1,3.16-2.65,3.77,3.77,0,0,1,4,.78c2.12,1.81,2.85,4.28,3.34,6.88.06.33.11.67.17,1l-.47.51a11.48,11.48,0,0,0-1-4.41,8.78,8.78,0,0,0-2-3.17,4.07,4.07,0,0,0-5.33-.13c-2.34,1.92-3.35,4.57-4.06,7.38-.13.51-.22,1-.34,1.54A.53.53,0,0,1,200.1,337.61Z"/><path class="cls-308" d="M203.11,340.61a10.19,10.19,0,0,1,1.37-5.37,4.21,4.21,0,0,1,1.65-1.67,2.4,2.4,0,0,1,3.17,1.23,10.55,10.55,0,0,1,1.1,4.83,2.91,2.91,0,0,1-.78.82,6.84,6.84,0,0,0-.8-4.68c-1.14-2-3.07-1.16-3.86.18a9.32,9.32,0,0,0-1.21,5.29A1.93,1.93,0,0,1,203.11,340.61Z"/><path class="cls-309" d="M204.69,342.06a11.76,11.76,0,0,1,.46-4.37,3.12,3.12,0,0,1,1.13-1.39,1.14,1.14,0,0,1,1.56.22,4.75,4.75,0,0,1,.91,4c0,.28-.08.57-.09.85C207.75,342.62,206.22,343.38,204.69,342.06Z"/><path class="cls-310" d="M197.39,334.63a22.72,22.72,0,0,1,4.29-9.73,8.16,8.16,0,0,1,4.8-3.4A6.09,6.09,0,0,1,212,323c2.53,2.31,3.54,5.35,4.29,8.53a7.58,7.58,0,0,1,.34,1.12l-.3.36c-.44-.39-.36-1-.47-1.46a15.75,15.75,0,0,0-3.46-7.27,5.81,5.81,0,0,0-8.15-1,15.27,15.27,0,0,0-4.9,6.57,25.4,25.4,0,0,0-1.45,4.42c-.05.2-.09.42-.33.51Z"/><path class="cls-310" d="M197.53,334.8a43.25,43.25,0,0,1,1.63-4.94c1.26-2.79,2.75-5.38,5.46-7.07a5.93,5.93,0,0,1,6.91.46,13.59,13.59,0,0,1,4.1,7c.26.9.44,1.83.66,2.75a.71.71,0,0,1-.34.42,16.49,16.49,0,0,0-3.24-8.41,6.6,6.6,0,0,0-3.6-2.52,5.87,5.87,0,0,0-5.54,1.54c-3.22,2.84-4.72,6.62-5.68,10.68a2.44,2.44,0,0,0,0,.47A.52.52,0,0,1,197.53,334.8Z"/><path class="cls-311" d="M213.9,335.86c-.38-3-1.09-5.84-3.36-8.05a4.29,4.29,0,0,0-5.43-.55,9.91,9.91,0,0,0-3.27,3.77,18.41,18.41,0,0,0-2.06,6.25.43.43,0,0,1-.31-.33,12.73,12.73,0,0,1,1-3.85,14.57,14.57,0,0,1,3.32-5.51c2.62-2.56,5.86-2.32,8,.66A14.12,14.12,0,0,1,214,333.9a3.15,3.15,0,0,1,.16,1.61A.58.58,0,0,1,213.9,335.86Z"/><path class="cls-312" d="M213.86,350.42a7.12,7.12,0,0,1,3,2.36,1.72,1.72,0,0,1,.37,1.91,2.22,2.22,0,0,1-2,1.13H213a2.37,2.37,0,0,1-.2-.94,1.25,1.25,0,0,1,1-.11,2.07,2.07,0,0,0,.86-.06c1.18-.35,1.42-1.11.64-2.06a5.34,5.34,0,0,0-1.49-1.13c-.25-.15-.55-.22-.72-.47C213.27,350.78,213.47,350.47,213.86,350.42Z"/><path class="cls-313" d="M214.2,335.51a18.29,18.29,0,0,0-1.44-5.19c-.91-1.91-2-3.64-4.3-4.18a4.77,4.77,0,0,0-4.4,1.4,14.57,14.57,0,0,0-3.93,6.91c-.26.82-.44,1.67-.66,2.5l-.15-.19a18.45,18.45,0,0,1,3.36-8.24,6.86,6.86,0,0,1,4-2.85,4.21,4.21,0,0,1,3.62.88,10.28,10.28,0,0,1,3.37,5.42,16.08,16.08,0,0,1,.68,3.31Z"/><path class="cls-314" d="M213.43,357.57a11.73,11.73,0,0,0,4.3,0c1.73-.42,2.78-1.75,2.47-3.13A4.71,4.71,0,0,0,219,352.1a9,9,0,0,0-2.12-1.87,1.34,1.34,0,0,1-.58-.64c.08-.14.21-.12.34-.11.64.11,1,.64,1.47,1a8.77,8.77,0,0,1,2.37,2.52,3.15,3.15,0,0,1-1.58,4.92,8.4,8.4,0,0,1-5.27.13A.57.57,0,0,1,213.43,357.57Z"/><path class="cls-315" d="M213,351.05a4.63,4.63,0,0,1,2.55,1.7c.28.39.57.85.23,1.38a2.08,2.08,0,0,1-1.75.88,7.16,7.16,0,0,1-1.3-.13,2.67,2.67,0,0,1-.27-1.11c.31-.08.59.15.91.11s.69-.12.82-.49-.1-.59-.32-.82c-.36-.39-.95-.44-1.28-.87A1,1,0,0,1,213,351.05Z"/><path class="cls-316" d="M213.58,358a22.33,22.33,0,0,0,3.06.16,6.11,6.11,0,0,0,2.84-.82,3,3,0,0,0,.79-4.29,10.52,10.52,0,0,0-2.89-3c-.27-.19-.53-.42-.79-.63a.54.54,0,0,1,.47-.15c.77,1,1.95,1.51,2.74,2.48a7,7,0,0,1,1.35,2.11c.64,2-.12,3.48-2.2,4.19a9.28,9.28,0,0,1-5.35.1Z"/><path class="cls-317" d="M200.12,352c-.24.82-2,1.37-2.64.79a.94.94,0,0,1-.07-1.23,3.69,3.69,0,0,1,1.05-1.27A2.26,2.26,0,0,1,200.12,352Z"/><path class="cls-318" d="M212.63,351.7a3.12,3.12,0,0,1,1.21.56c.42.28.84.68.62,1.23s-.79.61-1.34.59c-.27,0-.42-.2-.62-.31A2.75,2.75,0,0,1,212.63,351.7Z"/><path class="cls-274" d="M194.08,327.92c.13.76-.44,1.36-.48,2.08l-.15-.19A5.28,5.28,0,0,1,194.08,327.92Z"/><path class="cls-203" d="M177.59,346c-.26-.06-.56.08-.79-.14a3.83,3.83,0,0,1,1.47.11Z"/><path class="cls-277" d="M233.08,346.16l-.5,0a1.21,1.21,0,0,1,.81-.12v.13Z"/><path class="cls-319" d="M207.24,301.92a8.59,8.59,0,0,1,3.64,0Z"/><path class="cls-319" d="M211.67,302.08a2,2,0,0,1,1.43.48A3.33,3.33,0,0,1,211.67,302.08Z"/><path class="cls-319" d="M210.88,301.92c.27,0,.57-.1.79.16C211.41,302,211.1,302.19,210.88,301.92Z"/><path class="cls-320" d="M205.5,340.14a2.92,2.92,0,0,1,.53-2,.9.9,0,0,1,1.65,0,3.53,3.53,0,0,1-.33,3.68c-.58.64-1.11.57-1.57-.17A2.47,2.47,0,0,1,205.5,340.14Z"/></g></svg>