<svg id="Capa_6" data-name="Capa 6" xmlns="http://www.w3.org/2000/svg" viewBox="0 0 1355.81 1339.63"><defs><style>.cls-1{fill:#fff;}</style></defs><path class="cls-1" d="M273.11,338.76h23.14l11.59,44.92c2.87,10.54,4.81,20.29,7.72,30.9h.59c2.91-10.61,5-20.36,7.73-30.9l11.37-44.92h22.34l-29.08,96.45H302.26Z"/><path class="cls-1" d="M370.71,416.9h22.52V357.07H370.71V338.76h66.87v18.31H415.06V416.9h22.52v18.31H370.71Z"/><path class="cls-1" d="M459,338.76h26.64c28,0,46.38,14.65,46.38,47.78s-18.4,48.67-45.15,48.67H459Zm25.43,78.87c15,0,25.21-8,25.21-31.09s-10.2-30.2-25.21-30.2h-3.61v61.29Z"/><path class="cls-1" d="M551,338.76h63.93v18.31h-42.1v19.34h35.77v18.3H572.84V416.9h43.58v18.31H551Z"/><path class="cls-1" d="M631.75,386.54c0-32.23,15.82-49.55,38.79-49.55s38.79,17.32,38.79,49.55c0,33-15.82,50.44-38.79,50.44S631.75,419.53,631.75,386.54Zm55.2,0c0-20-6.35-30.7-16.41-30.7s-16.41,10.66-16.41,30.7c0,20.81,6.35,31.59,16.41,31.59S687,407.35,687,386.54Z"/></svg>