<svg id="Capa_6" data-name="Capa 6" xmlns="http://www.w3.org/2000/svg" viewBox="0 0 916 916"><defs><style>.cls-1{fill:#fff;}</style></defs><path class="cls-1" d="M81.81,104.67H105l11.59,44.92c2.87,10.54,4.81,20.29,7.72,30.9h.59c2.91-10.61,5-20.36,7.72-30.9L144,104.67h22.34l-29.08,96.45H111Z"/><path class="cls-1" d="M179.41,182.81h22.52V123H179.41v-18.3h66.87V123H223.76v59.84h22.52v18.31H179.41Z"/><path class="cls-1" d="M267.66,104.67h26.65c28,0,46.38,14.65,46.38,47.78s-18.4,48.67-45.15,48.67H267.66Zm25.44,78.87c15,0,25.21-8,25.21-31.09s-10.21-30.2-25.21-30.2h-3.61v61.29Z"/><path class="cls-1" d="M359.71,104.67h63.93V123h-42.1v19.34h35.77v18.31H381.54v22.19h43.58v18.31H359.71Z"/><path class="cls-1" d="M440.45,152.45c0-32.23,15.82-49.55,38.79-49.55S518,120.22,518,152.45c0,33-15.82,50.44-38.79,50.44S440.45,185.44,440.45,152.45Zm55.2,0c0-20-6.35-30.7-16.41-30.7s-16.41,10.66-16.41,30.7c0,20.81,6.35,31.59,16.41,31.59S495.65,173.26,495.65,152.45Z"/></svg>