<svg id="Capa_6" data-name="Capa 6" xmlns="http://www.w3.org/2000/svg" viewBox="0 0 1355.81 1339.63"><defs><style>.cls-1{fill:#fff;}</style></defs><path class="cls-1" d="M277.14,423.66l10.06-13.75c6.22,5.49,14.42,9.49,22.92,9.49,10.21,0,17.59-4,17.59-11.18,0-8.26-6.38-13.35-28.32-13.35V379.46c18.4,0,25.27-5.14,25.27-12.6,0-6.57-5.39-10.31-13.9-10.31-7.38,0-13.49,3-19.92,8.19l-11-13.25c9.13-7.45,19.76-12.05,31.9-12.05,20.54,0,34.75,9.26,34.75,25.79,0,9.69-6.73,16.62-18,20.89v.59c11.83,3.09,21,10.74,21,22.91,0,17.47-17.42,27.36-37.28,27.36C296.18,437,284.42,431.58,277.14,423.66Z"/><path class="cls-1" d="M370.17,338.76h26.64c28,0,46.38,14.65,46.38,47.78s-18.4,48.67-45.14,48.67H370.17Zm25.43,78.87c15,0,25.21-8,25.21-31.09s-10.2-30.2-25.21-30.2H392v61.29Z"/></svg>