<svg id="Capa_6" data-name="Capa 6" xmlns="http://www.w3.org/2000/svg" viewBox="0 0 916 916"><defs><style>.cls-1{fill:#fff;}</style></defs><path class="cls-1" d="M85.84,189.57,95.9,175.81c6.22,5.5,14.41,9.5,22.92,9.5,10.2,0,17.58-4,17.58-11.19,0-8.25-6.37-13.35-28.31-13.35V145.36c18.39,0,25.27-5.13,25.27-12.59,0-6.57-5.39-10.31-13.9-10.31-7.39,0-13.5,3-19.93,8.19l-11-13.25c9.12-7.45,19.76-12.05,31.9-12.05,20.53,0,34.75,9.26,34.75,25.79,0,9.68-6.73,16.61-18,20.89v.59c11.83,3.09,21,10.74,21,22.91,0,17.47-17.42,27.36-37.28,27.36C104.88,202.89,93.12,197.49,85.84,189.57Z"/><path class="cls-1" d="M178.87,104.67h26.64c28,0,46.38,14.65,46.38,47.78s-18.4,48.67-45.15,48.67H178.87Zm25.43,78.87c15,0,25.21-8,25.21-31.09s-10.2-30.2-25.21-30.2h-3.61v61.29Z"/></svg>