<svg id="Capa_7" data-name="Capa 7" xmlns="http://www.w3.org/2000/svg" viewBox="0 0 1355.81 1339.63"><defs><style>.cls-1{fill:#ef5033;}</style></defs><path class="cls-1" d="M401.13,670.05h-4.66c-3.65-.26-6.32-2.08-8.89-4.67Q350.92,628.46,314,591.79c-2.44-2.42-4.39-4.89-4.67-8.4V577.8c.31-3.51,2.23-6,4.67-8.43q24.25-24,48.31-48.22c3.79-3.79,3.92-3.8,7.74,0,5.05,5,10.06,10.13,15.17,15.13a5.21,5.21,0,0,1,1.72,5.38c-1.32,6,.86,10.64,6.1,13.81a3.19,3.19,0,0,1,1.69,2.83c0,1.09.05,2.18.05,3.26,0,13.9,0,27.8,0,41.7,0,2.46-.62,4.1-2.9,5.5-4.6,2.8-6.37,8.55-4.76,13.92a12.45,12.45,0,0,0,23.48.33,12.47,12.47,0,0,0-4.4-14.13,5.26,5.26,0,0,1-2.53-4.82c0-14.21,0-28.42,0-42.63a9.64,9.64,0,0,1,.11-1.86c.35-1.72,1.41-2.16,2.85-1.17a7.06,7.06,0,0,1,1.05.92c5,5,10,10,15,15a4.32,4.32,0,0,1,1.28,4.57,12.3,12.3,0,0,0,10,15c7.11,1,13.68-3.85,14.36-10.7a12.53,12.53,0,0,0-12.14-13.91,2.61,2.61,0,0,0-.93.05c-3.34,1.29-5.46-.42-7.64-2.71-4.88-5.11-9.95-10-15-15a5,5,0,0,1-1.69-4.73c.87-5.7-1.12-10.19-6.2-13.19-2.72-1.61-5.66-1.59-8.6-1.19a4.27,4.27,0,0,1-3.95-1.34c-5.81-5.83-11.67-11.62-17.44-17.49-2.08-2.12-2.07-2.92,0-5.06,4.89-5,9.86-9.9,14.8-14.85a7.49,7.49,0,0,1,3.86-2,27.47,27.47,0,0,1,7.18-.4c3.29.12,5.72,1.78,8,4.09q37.29,37.49,74.82,74.74c3.93,3.87,4.59,8.1,4.4,13-.13,3.53-1.95,6-4.31,8.39q-36.6,36.54-73.12,73.16C407.86,667.53,405.1,669.79,401.13,670.05Z"/></svg>