<svg id="Capa_7" data-name="Capa 7" xmlns="http://www.w3.org/2000/svg" viewBox="0 0 916 916"><defs><style>.cls-1{fill:#ef5033;}</style></defs><path class="cls-1" d="M209.83,436h-4.66c-3.65-.25-6.32-2.07-8.89-4.66q-36.66-36.92-73.57-73.59c-2.43-2.42-4.38-4.89-4.66-8.41V343.7c.31-3.5,2.22-6,4.67-8.42,16.16-16,32.21-32.14,48.3-48.22,3.8-3.79,3.93-3.8,7.74,0,5.06,5.05,10.07,10.14,15.18,15.13a5.27,5.27,0,0,1,1.72,5.39c-1.32,6,.86,10.64,6.1,13.81a3.17,3.17,0,0,1,1.68,2.83c0,1.09.06,2.18.06,3.26,0,13.9,0,27.8,0,41.7,0,2.46-.62,4.1-2.9,5.49-4.6,2.81-6.37,8.56-4.77,13.93a12.46,12.46,0,0,0,23.49.32,12.47,12.47,0,0,0-4.41-14.12,5.23,5.23,0,0,1-2.52-4.82c0-14.21,0-28.42,0-42.63a9.64,9.64,0,0,1,.12-1.86c.35-1.72,1.41-2.16,2.85-1.17a7.61,7.61,0,0,1,1.05.92c5,5,10,10,15,15a4.33,4.33,0,0,1,1.28,4.57,12.29,12.29,0,0,0,10,15c7.11,1,13.68-3.85,14.35-10.7A12.52,12.52,0,0,0,245,335.2a2.39,2.39,0,0,0-.93.05c-3.34,1.29-5.46-.43-7.65-2.71-4.87-5.11-9.94-10-15-15a5,5,0,0,1-1.68-4.72c.87-5.7-1.13-10.2-6.21-13.2-2.72-1.6-5.66-1.58-8.59-1.18a4.24,4.24,0,0,1-3.95-1.35c-5.82-5.82-11.67-11.61-17.44-17.48-2.08-2.12-2.07-2.92,0-5.07,4.9-5,9.87-9.89,14.81-14.84a7.58,7.58,0,0,1,3.86-2,27.91,27.91,0,0,1,7.18-.39c3.29.12,5.72,1.77,8,4.09q37.29,37.49,74.82,74.74c3.93,3.87,4.58,8.1,4.4,13-.13,3.53-1.95,6-4.32,8.39q-36.58,36.54-73.11,73.16C216.56,433.44,213.8,435.7,209.83,436Z"/></svg>