<svg id="Capa_6" data-name="Capa 6" xmlns="http://www.w3.org/2000/svg" viewBox="0 0 916 916"><defs><style>.cls-1{fill:#fff;}</style></defs><path class="cls-1" d="M90.68,104.67H124.9c20.93,0,37.78,7.57,37.78,31,0,22.71-17.32,32.71-37.78,32.71H112.51v32.72H90.68Zm32.95,46.41c12,0,17.65-5.36,17.65-15.39S135.12,122,123.63,122H112.51v29.08Z"/><path class="cls-1" d="M178.72,104.67H213c20.43,0,37.24,7.11,37.24,30.05,0,22.16-16.81,31.7-37.24,31.7H200.59v34.7H178.72Zm32.51,44.43c11.47,0,17.62-4.94,17.62-14.38S222.7,122,211.23,122H200.59v27.1Zm12.87-2.42,30.78,54.44H230.46L209,160.67Z"/><path class="cls-1" d="M262.85,152.45c0-32.23,15.82-49.55,38.79-49.55s38.79,17.32,38.79,49.55c0,33-15.82,50.44-38.79,50.44S262.85,185.44,262.85,152.45Zm55.2,0c0-20-6.35-30.7-16.41-30.7s-16.41,10.66-16.41,30.7c0,20.81,6.35,31.59,16.41,31.59S318.05,173.26,318.05,152.45Z"/><path class="cls-1" d="M352.5,153.43c0-32.23,19.61-50.53,44.67-50.53,13,0,22.06,6,28.17,12.26l-12,13.51c-4.16-4.14-8.55-6.92-16.16-6.92-12.65,0-22.14,11.64-22.14,30.95,0,19.83,7.81,31.34,23,31.34,3.6,0,7.29-1,9.35-2.85V164.53h-14V146.74H427v44.48a46.21,46.21,0,0,1-30.18,11.67C372.14,202.89,352.5,186,352.5,153.43Z"/><path class="cls-1" d="M462,185.51c0-9.65,7-17.39,17.22-17.39s17.22,7.74,17.22,17.39-7,17.38-17.22,17.38S462,195.3,462,185.51Z"/></svg>