<svg xmlns="http://www.w3.org/2000/svg" viewBox="0 0 916 916"><defs><style>.cls-1{opacity:0.3;}.cls-2{fill:none;stroke:#ef5033;stroke-miterlimit:10;stroke-width:5px;}</style></defs><g id="Capa_14" data-name="Capa 14" class="cls-1"><circle class="cls-2" cx="569.75" cy="686.75" r="15.75"/><circle class="cls-2" cx="451.75" cy="304.75" r="15.75"/><rect class="cls-2" x="277.5" y="153.5" width="38" height="38" rx="9.47"/><rect class="cls-2" x="121.5" y="651.5" width="38" height="38" rx="9.47" transform="translate(703.62 280.37) rotate(67.12)"/><rect class="cls-2" x="58.5" y="863.5" width="38" height="38" rx="9.47" transform="translate(-337.01 99.56) rotate(-22.88)"/><circle class="cls-2" cx="253.75" cy="844.75" r="15.75"/><path class="cls-2" d="M32.89,288.82l23-7a3.87,3.87,0,0,0,1.34-6.7L42,262.61a4,4,0,0,0-6.3,1.95l-6,21A2.62,2.62,0,0,0,32.89,288.82Z"/><circle class="cls-2" cx="59.75" cy="61.75" r="15.75"/><circle class="cls-2" cx="636.75" cy="29.75" r="15.75"/><path class="cls-2" d="M460.89,132.82l23-7a3.87,3.87,0,0,0,1.34-6.7L470,106.61a4,4,0,0,0-6.3,2l-6,21A2.62,2.62,0,0,0,460.89,132.82Z"/><circle class="cls-2" cx="243.75" cy="369.75" r="15.75"/><rect class="cls-2" x="352.5" y="563.5" width="38" height="38" rx="9.47"/><circle class="cls-2" cx="735.75" cy="612.75" r="15.75"/><rect class="cls-2" x="914.5" y="272.5" width="38" height="38" rx="9.47"/><rect class="cls-2" x="758.5" y="770.5" width="38" height="38" rx="9.47" transform="translate(1202.6 -233.78) rotate(67.12)"/><path class="cls-2" d="M669.89,407.82l23-7a3.87,3.87,0,0,0,1.34-6.7L679,381.61a4,4,0,0,0-6.3,1.95l-6,21A2.62,2.62,0,0,0,669.89,407.82Z"/><circle class="cls-2" cx="696.75" cy="180.75" r="15.75"/><circle class="cls-2" cx="880.75" cy="488.75" r="15.75"/><rect class="cls-2" x="453.5" y="829.5" width="38" height="38" rx="9.47"/></g></svg>