<svg xmlns="http://www.w3.org/2000/svg" viewBox="0 0 1355.81 1339.63"><defs><style>.cls-1{opacity:0.3;}.cls-2{fill:none;stroke:#ef5033;stroke-miterlimit:10;stroke-width:5px;}</style></defs><g id="Capa_14" data-name="Capa 14" class="cls-1"><circle class="cls-2" cx="761.05" cy="920.84" r="15.75"/><circle class="cls-2" cx="643.05" cy="538.84" r="15.75"/><rect class="cls-2" x="468.8" y="387.59" width="38" height="38" rx="9.47"/><rect class="cls-2" x="312.8" y="885.59" width="38" height="38" rx="9.47" transform="translate(1036.22 247.2) rotate(67.12)"/><rect class="cls-2" x="249.8" y="1097.59" width="38" height="38" rx="9.47" transform="translate(-412.97 192.36) rotate(-22.88)"/><circle class="cls-2" cx="445.05" cy="1078.84" r="15.75"/><path class="cls-2" d="M224.2,522.91l23-7a3.87,3.87,0,0,0,1.34-6.69L233.25,496.7a3.94,3.94,0,0,0-6.29,1.95l-6,21A2.62,2.62,0,0,0,224.2,522.91Z"/><circle class="cls-2" cx="251.05" cy="295.84" r="15.75"/><circle class="cls-2" cx="828.05" cy="263.84" r="15.75"/><path class="cls-2" d="M652.2,366.91l23-7a3.87,3.87,0,0,0,1.34-6.69L661.25,340.7a3.94,3.94,0,0,0-6.29,1.95l-6,21A2.62,2.62,0,0,0,652.2,366.91Z"/><circle class="cls-2" cx="435.05" cy="603.84" r="15.75"/><rect class="cls-2" x="543.8" y="797.59" width="38" height="38" rx="9.47"/><circle class="cls-2" cx="927.05" cy="846.84" r="15.75"/><circle class="cls-2" cx="1280.05" cy="657.84" r="15.75"/><rect class="cls-2" x="1105.8" y="506.59" width="38" height="38" rx="9.47"/><rect class="cls-2" x="949.8" y="1004.59" width="38" height="38" rx="9.47" transform="translate(1535.2 -266.95) rotate(67.12)"/><rect class="cls-2" x="886.8" y="1216.59" width="38" height="38" rx="9.47" transform="matrix(0.92, -0.39, 0.39, 0.92, -409.12, 449.38)"/><circle class="cls-2" cx="1082.05" cy="1197.84" r="15.75"/><path class="cls-2" d="M861.2,641.91l23-7a3.87,3.87,0,0,0,1.34-6.69L870.25,615.7a3.94,3.94,0,0,0-6.29,1.95l-6,21A2.62,2.62,0,0,0,861.2,641.91Z"/><circle class="cls-2" cx="888.05" cy="414.84" r="15.75"/><path class="cls-2" d="M1289.2,485.91l23-7a3.87,3.87,0,0,0,1.34-6.69l-15.26-12.56a3.94,3.94,0,0,0-6.29,1.95l-6,21A2.62,2.62,0,0,0,1289.2,485.91Z"/><circle class="cls-2" cx="1072.05" cy="722.84" r="15.75"/><rect class="cls-2" x="1180.8" y="916.59" width="38" height="38" rx="9.47"/><rect class="cls-2" x="644.8" y="1063.59" width="38" height="38" rx="9.47"/></g></svg>