<svg id="Capa_6" data-name="Capa 6" xmlns="http://www.w3.org/2000/svg" viewBox="0 0 1355.81 1339.63"><defs><style>.cls-1{fill:#fff;}</style></defs><path class="cls-1" d="M282,338.76H316.2c20.93,0,37.78,7.58,37.78,31,0,22.71-17.32,32.71-37.78,32.71H303.82v32.72H282Zm32.95,46.41c12,0,17.64-5.36,17.64-15.39s-6.15-13.69-17.64-13.69H303.82v29.08Z"/><path class="cls-1" d="M370,338.76h34.29c20.43,0,37.24,7.11,37.24,30.05,0,22.17-16.81,31.7-37.24,31.7H391.89v34.7H370Zm32.52,44.43c11.46,0,17.61-4.94,17.61-14.38s-6.15-12.72-17.61-12.72H391.89v27.1Zm12.87-2.42,30.77,54.44H421.76L400.3,394.76Z"/><path class="cls-1" d="M454.16,386.54C454.16,354.31,470,337,493,337s38.78,17.32,38.78,49.55c0,33-15.81,50.44-38.78,50.44S454.16,419.53,454.16,386.54Zm55.2,0c0-20-6.35-30.7-16.41-30.7s-16.42,10.66-16.42,30.7c0,20.81,6.36,31.59,16.42,31.59S509.36,407.35,509.36,386.54Z"/><path class="cls-1" d="M543.8,387.52c0-32.23,19.62-50.53,44.67-50.53,13,0,22.06,6,28.17,12.26l-12,13.51c-4.16-4.14-8.55-6.92-16.16-6.92-12.65,0-22.14,11.64-22.14,31,0,19.82,7.81,31.33,23,31.33,3.6,0,7.3-1,9.35-2.85V398.62h-14V380.83h33.56v44.48A46.23,46.23,0,0,1,588.07,437C563.44,437,543.8,420,543.8,387.52Z"/><path class="cls-1" d="M653.32,419.6c0-9.64,7-17.39,17.22-17.39s17.22,7.75,17.22,17.39-7,17.38-17.22,17.38S653.32,429.39,653.32,419.6Z"/></svg>